<svg xmlns="http://www.w3.org/2000/svg" viewBox="0 0 100 100">
  <!-- Fondo oscuro con bordes redondeados estilo app icon -->
  <rect width="100" height="100" rx="22" fill="#040709"/>

  <!--
    Espiral UMI — trazado del isotipo real (imagen PNG provista)
    Bucle exterior grande desde upper-right → ~2 vueltas hacia adentro
    Trazo grueso/caligráfico con punto central a la izquierda
  -->
  <path
    d="M 72,24
       C 87,34 92,54 84,68
       C 76,82 59,89 43,86
       C 26,83 15,68 17,51
       C 19,33 34,21 51,21
       C 69,21 80,35 79,53
       C 78,71 64,80 47,77
       C 29,74 20,58 24,43
       C 29,28 44,22 57,27
       C 71,32 75,48 71,59
       C 67,69 54,73 43,69"
    fill="none"
    stroke="#1dc8a4"
    stroke-width="7.5"
    stroke-linecap="round"
    stroke-linejoin="round"/>

  <!-- Punto central -->
  <circle cx="43" cy="69" r="4.5" fill="#1dc8a4"/>
</svg>
