<svg xmlns="http://www.w3.org/2000/svg" viewBox="0 0 32 32">
  <!-- Fondo oscuro UMI -->
  <rect width="32" height="32" rx="7" fill="#040709"/>
  <!-- Espiral náutilo UMI — trazado del isotipo real -->
  <path d="
    M 23,8
    C 26,11 27,16 25,20
    C 23,25 18,27 13,25
    C 7,23 5,17 7,12
    C 9,6 15,4 20,7
    C 25,10 26,16 23,20
    C 20,24 15,25 11,22
    C 7,19 7,14 10,11
    C 13,8 17,9 19,12
    C 21,15 20,18 18,20
    C 16,21.5 13.5,21 12,19"
    fill="none" stroke="#00d4f0" stroke-width="2.3"
    stroke-linecap="round" stroke-linejoin="round"/>
  <!-- Punto central de la espiral -->
  <circle cx="14.5" cy="17" r="1.6" fill="#00d4f0"/>
</svg>
