<svg xmlns="http://www.w3.org/2000/svg" viewBox="0 0 32 32">
  <!-- Fondo oscuro UMI -->
  <rect width="32" height="32" rx="6" fill="#040709"/>
  <!-- Espiral UMI trazada del isotipo del neón de la fachada -->
  <!-- Vuelta exterior de la espiral -->
  <path d="M 4,20
    C 3,12 7,4 15,3
    C 24,2 30,8 30,16
    C 30,23 24,29 16,28
    C 8,27 3,21 4,14
    C 5,8 10,4 16,5
    C 22,6 26,11 25,17
    C 24,22 20,25 15,24
    C 10,23 8,19 9,15
    C 10,12 13,10 16,11
    C 19,12 20,15 19,17"
    fill="none" stroke="#00d4f0" stroke-width="2.4" stroke-linecap="round" stroke-linejoin="round"/>
  <!-- Punto central de la espiral -->
  <circle cx="17" cy="18" r="1.4" fill="#00d4f0"/>
</svg>
