<svg xmlns="http://www.w3.org/2000/svg" viewBox="0 0 3386 1858" width="1693" height="929">
  
  <g transform="translate(0.000000,1858.000000) scale(0.100000,-0.100000)"
fill="#0a2540" stroke="none">
<path d="M11740 16335 c-95 -14 -186 -48 -253 -93 -24 -17 -219 -210 -433
-429 -636 -651 -570 -588 -639 -607 -792 -217 -1518 -630 -2099 -1196 -177
-172 -254 -262 -301 -352 -59 -111 -59 -217 -2 -333 90 -184 586 -600 1067
-894 343 -210 948 -501 1080 -518 49 -7 105 19 130 59 20 33 20 46 20 1434 0
1567 -4 1471 69 1519 83 55 366 90 672 82 239 -5 346 -19 577 -76 150 -37 349
-94 387 -111 11 -5 85 -34 165 -65 394 -154 792 -393 1288 -774 51 -39 452
-369 462 -381 24 -26 116 -93 160 -116 l55 -29 490 1 c600 1 649 8 788 112
102 77 155 165 406 667 224 448 259 521 363 750 141 310 144 439 14 520 -43
26 -56 29 -134 29 -90 0 -114 -3 -397 -60 -584 -117 -738 -175 -892 -336 -61
-64 -325 -481 -681 -1079 -108 -181 -111 -182 -239 -76 -662 548 -1233 886
-1848 1092 -313 104 -700 175 -961 175 -104 0 -125 3 -145 19 -18 15 -21 23
-14 39 6 12 111 126 235 254 124 128 268 277 320 332 153 159 224 203 360 220
25 3 294 7 599 8 l553 3 19 -24 c13 -16 16 -28 10 -40 -9 -15 -132 -152 -401
-442 -199 -216 -181 -211 -510 -133 -222 52 -232 57 -204 99 42 64 109 76 325
59 94 -8 130 7 194 78 45 50 55 84 33 106 -18 18 -557 17 -601 -2 -33 -14
-237 -219 -269 -271 -32 -54 -17 -114 36 -139 17 -8 103 -33 191 -55 152 -38
205 -53 363 -102 147 -45 180 -52 247 -53 113 0 146 23 356 253 542 591 543
593 544 697 0 106 -64 162 -211 184 -104 15 -1237 11 -1344 -5z m4271 -1092
c10 -26 -19 -105 -105 -288 -24 -49 -69 -146 -101 -215 -105 -225 -413 -829
-452 -887 -43 -65 -106 -117 -161 -134 -42 -13 -579 -32 -782 -27 -150 3 -190
16 -190 61 0 32 144 279 494 844 189 307 194 313 261 379 95 93 173 125 475
193 52 12 113 26 135 31 22 5 83 18 135 29 255 54 275 55 291 14z m-5975 -474
c18 -21 19 -54 17 -1241 -2 -1317 1 -1256 -52 -1273 -60 -19 -661 294 -966
504 -269 184 -530 395 -656 528 -168 178 -170 220 -24 393 185 217 521 505
796 682 284 183 439 267 683 374 134 59 173 65 202 33z"/>
<path d="M15340 14831 c-155 -43 -162 -46 -211 -98 -35 -37 -377 -601 -398
-656 -18 -47 -13 -77 20 -109 l30 -31 127 7 c240 13 255 20 335 168 55 101 61
148 22 174 -37 24 -73 7 -124 -60 -40 -53 -46 -57 -80 -54 -25 2 -37 8 -39 20
-6 30 173 335 226 386 60 58 90 37 57 -41 -20 -49 -19 -73 6 -98 25 -25 61
-19 98 14 25 23 124 222 157 313 17 49 17 53 1 78 -24 35 -59 33 -227 -13z"/>
<path d="M9240 13920 c-218 -37 -385 -267 -351 -482 46 -281 364 -442 624
-314 86 42 90 45 149 118 70 86 90 151 86 273 -4 117 -30 187 -100 264 -110
120 -249 168 -408 141z m180 -232 c167 -86 152 -327 -25 -382 -118 -38 -253
30 -284 141 -14 49 -14 50 4 111 38 127 186 190 305 130z"/>
<path d="M28885 16339 c-322 -50 -578 -278 -668 -594 -31 -109 -38 -109 -174
-2 -202 157 -390 279 -675 437 -66 37 -260 130 -293 141 -53 17 -171 15 -216
-4 -92 -40 -143 -130 -200 -355 -107 -418 -140 -1014 -64 -1167 31 -63 99
-111 170 -119 22 -3 90 -10 150 -16 358 -38 590 -115 835 -279 174 -116 392
-336 536 -541 92 -132 129 -155 185 -117 33 22 34 25 33 82 -1 33 -7 98 -13
145 -5 47 -15 123 -20 170 -63 569 -380 991 -1043 1390 -142 86 -179 98 -232
76 -70 -29 -93 -105 -102 -346 -7 -166 3 -231 48 -326 25 -53 17 -68 -31 -61
-230 35 -280 50 -302 95 -36 75 -16 494 36 758 63 318 90 380 162 370 105 -15
608 -309 853 -500 487 -378 739 -736 817 -1159 31 -167 22 -586 -18 -804 -37
-209 -34 -206 -187 -201 -131 4 -121 -3 -247 163 -314 413 -617 676 -870 757
-174 55 -295 70 -550 70 -347 0 -755 -60 -871 -128 -113 -65 -143 -179 -78
-300 73 -137 474 -572 653 -709 101 -77 74 -74 678 -76 505 -2 542 -1 571 16
77 46 67 114 -36 250 -197 259 -401 430 -537 449 -116 16 -297 25 -399 19
-124 -7 -153 -22 -162 -83 -5 -34 -1 -39 125 -165 72 -71 143 -135 158 -142
47 -21 150 -16 173 7 35 35 22 62 -49 101 -57 32 -92 76 -71 89 23 14 189 0
237 -20 42 -18 232 -197 267 -251 19 -30 13 -55 -15 -62 -11 -3 -172 -3 -357
-1 -397 6 -383 3 -522 128 -146 132 -367 370 -432 464 -33 48 -32 84 2 102 22
12 178 43 310 62 128 18 566 18 680 0 101 -16 210 -51 288 -93 198 -106 436
-355 707 -739 91 -129 95 -130 375 -130 318 0 316 -2 359 300 123 868 54 1276
-294 1739 -127 169 -133 180 -145 277 -20 155 42 324 164 448 247 252 657 224
784 -52 35 -76 36 -197 2 -287 -71 -187 -298 -263 -447 -149 -104 79 -95 234
15 281 66 28 138 -22 97 -67 -23 -26 -15 -61 18 -80 25 -14 30 -13 64 5 120
64 106 235 -23 300 -138 69 -332 -8 -419 -167 -41 -73 -44 -224 -5 -302 98
-201 343 -290 582 -210 304 101 463 508 313 799 -120 230 -398 358 -680 314z
m-1434 -1107 c445 -292 734 -652 813 -1012 11 -52 -11 -58 -50 -15 -170 187
-219 237 -295 301 -48 40 -152 115 -231 167 -79 52 -152 106 -162 121 -9 15
-47 59 -84 98 -124 130 -157 202 -148 318 8 114 14 115 157 22z"/>
<path d="M31665 16090 c-446 -91 -706 -177 -1080 -360 -647 -317 -1098 -723
-1325 -1195 -147 -305 -202 -600 -216 -1165 -7 -301 -11 -320 -65 -339 -23 -8
-421 -11 -1386 -11 -943 0 -1367 -3 -1397 -11 -132 -33 -163 -139 -106 -354
194 -727 623 -1320 1250 -1727 117 -76 129 -89 150 -167 16 -60 44 -95 93
-117 40 -18 102 -19 1492 -19 l1450 0 46 23 c54 26 95 80 104 137 11 63 25 76
181 180 576 385 966 890 1179 1529 108 326 107 429 -3 498 l-37 23 -590 5
c-571 5 -590 6 -593 24 -5 24 22 46 111 92 132 68 183 75 542 80 353 5 421 11
498 47 108 49 151 116 152 233 0 72 -3 85 -30 129 -72 116 -228 169 -573 196
-399 31 -774 -66 -1259 -325 -163 -87 -205 -99 -349 -94 -114 3 -116 3 -141
33 -26 29 -26 30 -20 175 6 159 40 356 83 487 141 427 487 740 1081 978 137
55 167 63 178 46 7 -12 -64 -229 -99 -303 -36 -76 -42 -80 -216 -137 -360
-119 -530 -247 -645 -486 -87 -181 -117 -344 -75 -412 38 -63 97 -57 281 28
214 99 476 181 689 214 368 58 412 72 470 144 123 156 523 1218 601 1595 30
148 23 226 -28 287 -64 76 -167 86 -398 39z m153 -236 c30 -20 28 -42 -13
-199 -91 -347 -305 -935 -445 -1226 -52 -110 -79 -129 -205 -148 -234 -37
-420 -87 -657 -177 -93 -35 -176 -64 -184 -64 -44 0 33 159 114 237 85 82 250
154 492 213 160 40 181 54 230 155 37 76 131 341 179 505 12 41 26 85 32 98
40 99 -31 183 -138 162 -46 -9 -200 -62 -330 -113 -395 -158 -783 -408 -971
-625 -183 -211 -308 -472 -363 -755 -50 -257 -66 -589 -31 -657 34 -68 48 -71
349 -72 306 -2 298 -3 458 92 215 127 264 153 393 205 248 99 518 138 790 116
284 -24 358 -54 338 -137 -5 -18 -21 -32 -53 -46 -42 -19 -69 -20 -332 -23
-461 -4 -598 -45 -896 -267 l-139 -103 -545 -3 c-580 -3 -587 -2 -612 45 -18
35 -19 524 -1 668 60 480 161 740 401 1040 378 473 1103 874 1906 1054 204 46
203 46 233 25z m8 -3089 c22 -33 13 -86 -38 -240 -130 -384 -339 -717 -633
-1009 -189 -187 -331 -299 -585 -460 -41 -26 -102 -77 -135 -113 -46 -49 -69
-67 -100 -73 -56 -13 -2460 -13 -2505 0 -19 5 -59 34 -90 64 -30 30 -93 78
-140 106 -478 296 -803 636 -1051 1100 -84 156 -193 453 -205 555 -6 45 -3 56
15 74 l21 21 2715 0 2715 0 16 -25z"/>
<path d="M26865 12535 c-107 -47 -107 -139 -4 -349 202 -406 491 -731 915
-1028 109 -77 86 -73 428 -76 452 -5 436 -16 435 313 0 315 11 305 -316 305
l-222 0 -62 58 c-107 100 -196 92 953 94 552 0 1012 0 1023 -1 11 -1 29 -11
40 -22 19 -19 20 -32 18 -242 -1 -122 -5 -231 -7 -243 -11 -45 -29 -46 -480
-48 -489 -1 -462 -6 -466 89 -3 69 -2 78 14 101 14 18 32 19 356 24 l342 5 29
33 c16 18 29 44 29 58 0 37 -27 83 -53 89 -12 3 -212 5 -444 3 l-421 -3 -26
-24 c-39 -37 -46 -79 -45 -286 0 -208 7 -246 52 -279 28 -21 35 -21 625 -21
687 0 650 -5 697 88 l25 51 0 365 c0 362 -1 366 -23 406 -43 75 59 70 -1325
70 l-1244 0 -35 -39 c-61 -67 -43 -115 104 -276 106 -115 213 -213 243 -221
14 -4 100 -7 193 -8 206 -1 207 -2 207 -114 0 -110 -2 -111 -157 -115 -200 -5
-301 8 -363 48 -243 156 -561 489 -717 750 -98 164 -105 186 -75 213 27 25
3982 26 4002 2 40 -49 -128 -361 -277 -513 -34 -35 -68 -62 -75 -60 -9 3 -14
37 -16 118 -3 130 6 154 62 164 47 9 76 41 76 82 0 53 -27 64 -148 64 -188 0
-181 13 -182 -377 0 -342 2 -352 57 -378 49 -24 80 -9 200 90 144 119 346 357
424 500 123 224 187 393 175 458 -7 39 -37 70 -85 86 -54 18 -4415 14 -4456
-4z"/>
<path d="M4210 15885 c-833 -67 -1541 -268 -1980 -561 -334 -223 -559 -572
-600 -930 -8 -70 -10 -462 -7 -1354 4 -1372 1 -1297 61 -1435 143 -322 696
-680 1311 -848 476 -130 1111 -178 1700 -127 560 49 1134 227 1495 465 188
124 314 290 372 492 l23 78 0 1710 c0 1928 7 1756 -80 1930 -161 323 -556 484
-1400 570 -214 22 -678 27 -895 10z m990 -274 c612 -75 951 -214 1066 -436 59
-114 59 -113 59 -675 0 -504 0 -517 -22 -585 -84 -267 -436 -532 -943 -711
-164 -58 -204 -90 -230 -183 -17 -61 -13 -1634 4 -1675 19 -45 61 -76 104 -76
45 0 291 83 385 129 60 30 75 43 94 80 l23 44 0 494 c0 578 -6 543 95 592 59
28 70 30 83 18 12 -12 15 -91 17 -478 4 -437 5 -464 23 -488 30 -41 76 -40
116 2 57 60 57 69 54 672 -3 511 -4 553 -21 578 -37 56 -82 54 -172 -7 -22
-15 -103 -58 -180 -96 -222 -109 -205 -52 -205 -667 0 -466 -1 -489 -20 -520
-20 -34 -48 -51 -119 -73 -42 -14 -44 -13 -63 10 -19 23 -19 43 -16 664 4 781
-16 696 179 777 289 120 485 230 669 377 52 41 100 79 106 84 8 5 18 2 28 -8
15 -15 16 -91 14 -888 l-3 -871 -26 -67 c-91 -234 -347 -415 -814 -575 -137
-47 -424 -111 -512 -115 -61 -3 -99 24 -108 76 -3 17 -7 454 -8 971 -2 1045 2
975 -69 1027 -32 22 -38 23 -183 18 -649 -22 -998 4 -1389 102 -693 173 -1151
493 -1279 893 -30 95 -32 108 -32 260 0 154 2 164 32 250 102 293 315 520 648
688 411 209 900 337 1510 397 266 26 861 21 1105 -9z m-3177 -2184 c201 -181
424 -315 702 -420 480 -182 889 -250 1493 -248 l314 1 29 -31 29 -31 0 -847
c0 -809 -1 -848 -19 -888 -36 -79 -31 -78 -411 -78 -327 1 -397 5 -655 41
-177 25 -455 93 -524 128 -16 9 -40 30 -53 48 l-23 33 -5 477 c-5 464 -6 477
-26 505 -66 88 -172 98 -220 20 -18 -30 -19 -59 -22 -452 l-3 -420 -24 -24
c-22 -22 -27 -24 -62 -13 -96 29 -348 198 -459 307 -85 84 -121 137 -160 230
l-29 70 -3 824 c-3 823 -2 851 30 851 5 0 51 -37 101 -83z"/>
<path d="M4445 15334 c-22 -2 -103 -9 -180 -14 -775 -61 -1485 -328 -1708
-642 -101 -143 -132 -236 -131 -398 1 -281 142 -470 507 -678 519 -296 1421
-376 2126 -191 183 48 253 96 291 196 19 51 20 79 20 490 0 486 -3 510 -66
577 -79 83 -200 112 -519 122 -484 16 -906 -65 -1272 -243 -211 -103 -264
-219 -157 -346 48 -57 258 -197 501 -333 242 -136 309 -138 553 -18 50 24 93
44 95 44 2 0 51 22 107 49 118 57 148 89 148 159 0 63 -15 84 -98 140 -130 87
-177 106 -257 106 -125 -1 -285 -68 -285 -119 0 -9 14 -30 30 -47 33 -33 28
-32 172 -12 52 7 131 -27 126 -55 -7 -36 -199 -111 -286 -111 -69 0 -188 58
-359 176 -121 83 -140 105 -128 144 18 57 322 158 605 200 129 20 175 22 416
18 263 -4 272 -5 319 -29 84 -42 88 -56 93 -368 8 -448 -1 -468 -228 -517
-335 -72 -804 -84 -1130 -28 -234 40 -537 143 -704 240 -239 138 -337 270
-340 454 -1 80 2 90 38 165 84 172 298 316 640 431 214 71 350 102 712 159
229 37 690 44 950 15 484 -53 626 -112 682 -285 22 -65 22 -79 22 -511 -1
-320 2 -450 11 -466 37 -73 126 -78 186 -11 47 53 48 70 48 568 0 504 -1 520
-55 625 -24 46 -115 135 -176 171 -107 62 -369 126 -639 154 -143 15 -595 28
-680 19z"/>
<path d="M2219 12847 c-60 -40 -61 -51 -57 -547 4 -433 5 -446 26 -487 38 -72
98 -105 151 -83 54 22 55 35 61 418 4 299 7 354 20 362 19 12 43 13 56 1 27
-26 362 -138 552 -186 124 -30 137 -37 162 -78 19 -30 20 -54 20 -456 0 -481
1 -485 78 -528 72 -41 328 -78 639 -94 297 -15 358 2 388 103 21 72 23 1041 1
1091 -29 69 -95 94 -154 57 -61 -38 -62 -43 -62 -528 l0 -439 -23 -21 c-20
-19 -35 -22 -108 -22 -103 0 -303 16 -384 31 -154 28 -147 1 -144 530 3 381 2
427 -14 455 -26 50 -71 81 -134 94 -130 26 -315 72 -418 104 -156 48 -230 78
-486 197 -121 56 -124 57 -170 26z"/>
<path d="M3730 12437 c-55 -37 -58 -60 -59 -397 -1 -328 4 -369 43 -409 30
-30 89 -32 130 -5 43 28 48 71 44 418 -3 283 -5 325 -21 353 -30 57 -88 74
-137 40z"/>
<path d="M19928 15674 c-222 -40 -331 -107 -579 -354 -170 -170 -428 -445
-589 -630 -36 -41 -85 -97 -110 -125 -98 -108 -187 -209 -220 -250 -19 -23
-89 -105 -155 -181 -67 -77 -158 -183 -203 -236 -45 -54 -117 -140 -160 -190
-170 -201 -484 -593 -668 -833 -73 -95 -165 -238 -199 -311 -91 -191 -39 -359
131 -429 48 -19 75 -20 904 -22 470 -2 865 -5 877 -8 12 -3 27 -15 33 -26 10
-19 -17 -50 -292 -327 -168 -169 -315 -325 -329 -347 -32 -53 -34 -156 -4
-197 33 -44 92 -76 163 -88 49 -8 371 -10 1162 -8 1198 4 1127 0 1261 62 70
32 105 59 208 159 47 45 201 192 341 327 140 134 305 292 365 350 97 94 645
618 905 864 52 50 165 158 250 241 293 284 324 311 391 343 98 46 170 52 685
52 l465 0 24 -25 c14 -13 25 -29 25 -34 0 -11 -70 -100 -139 -177 -398 -438
-661 -716 -1229 -1295 -118 -120 -224 -232 -237 -249 -32 -44 -44 -127 -45
-325 0 -261 -9 -364 -33 -404 -40 -67 -19 -65 -762 -69 l-670 -4 -20 22 -20
22 326 323 c179 177 338 329 355 338 37 19 43 20 197 18 122 -1 129 -2 152
-26 24 -23 25 -30 25 -138 0 -161 -2 -163 -197 -158 -37 1 -46 28 -17 51 46
39 36 85 -21 96 -54 10 -87 -10 -180 -109 -88 -94 -102 -118 -91 -163 13 -50
51 -56 340 -52 381 4 365 -12 367 365 3 363 21 346 -367 341 l-251 -3 -39 -26
c-21 -15 -235 -216 -474 -448 -348 -337 -441 -432 -464 -476 l-29 -56 19 -47
c15 -36 30 -53 64 -72 l45 -25 770 -3 c968 -4 1020 1 1113 102 83 90 89 122
97 491 5 208 10 307 19 323 7 13 86 99 177 191 610 619 1158 1196 1363 1435
156 182 181 301 85 409 -73 83 -54 81 -714 85 -809 4 -783 11 -1100 -297 -197
-192 -807 -777 -1090 -1046 -115 -110 -284 -272 -375 -361 -175 -171 -199
-187 -231 -158 -16 15 -19 31 -19 125 0 117 7 145 47 193 14 17 254 263 532
546 279 283 630 643 781 800 978 1016 1025 1066 1110 1165 129 149 108 304
-49 367 -56 22 -59 23 -756 26 -771 4 -845 0 -977 -48 -154 -56 -165 -66 -633
-557 l-278 -293 -249 0 c-212 0 -249 2 -254 15 -8 20 8 42 118 161 551 596
901 991 925 1042 47 101 16 193 -82 245 -40 22 -43 22 -790 24 -609 1 -765 -1
-827 -13z m1358 -236 c33 -33 5 -71 -255 -358 -281 -308 -493 -543 -606 -671
-124 -139 -242 -268 -455 -499 -53 -58 -146 -159 -205 -225 -60 -66 -149 -165
-199 -220 -50 -55 -154 -170 -231 -255 -77 -85 -185 -200 -240 -256 -148 -149
-128 -144 -571 -144 -226 0 -362 4 -375 10 -39 21 -38 23 170 270 204 242 373
439 561 654 309 354 387 443 570 647 96 107 227 253 290 325 211 237 203 232
371 239 186 8 194 -1 96 -104 -34 -36 -134 -147 -222 -245 -88 -99 -165 -184
-170 -190 -6 -6 -78 -85 -160 -176 -82 -91 -177 -194 -210 -230 -62 -66 -125
-134 -206 -225 -24 -27 -75 -83 -114 -125 -38 -42 -119 -132 -180 -200 -60
-68 -140 -156 -176 -195 -116 -123 -139 -155 -139 -198 0 -36 30 -57 92 -63
79 -8 127 9 207 72 65 52 69 58 64 88 -6 38 -13 29 202 266 77 85 156 173 174
195 18 22 59 67 90 100 31 33 111 121 177 196 67 75 175 196 241 270 377 418
514 571 563 629 30 36 77 90 106 120 89 96 101 147 47 190 -38 30 -626 31
-695 1 -65 -27 -87 -51 -639 -660 -211 -234 -649 -730 -725 -823 -22 -25 -163
-194 -314 -374 -323 -385 -393 -471 -414 -512 -41 -79 0 -145 95 -157 30 -3
288 -5 574 -3 577 4 556 1 660 73 28 19 127 119 220 222 94 103 197 217 231
253 34 36 134 146 224 245 90 99 211 232 269 295 58 63 133 144 166 181 90
100 87 99 338 99 178 0 217 -3 227 -15 23 -27 35 -13 -670 -740 -261 -270
-551 -570 -645 -668 -127 -133 -179 -180 -205 -188 -23 -7 -360 -9 -998 -7
l-964 3 -24 28 c-54 63 -21 136 194 427 207 281 767 958 1177 1424 115 131
248 283 295 336 397 452 698 748 830 815 116 59 115 59 645 65 741 9 821 8
841 -12z m2244 -598 c18 -18 19 -23 6 -48 -15 -29 -133 -159 -316 -347 -125
-129 -429 -447 -1099 -1150 -52 -55 -296 -304 -541 -553 -306 -311 -454 -469
-472 -504 l-28 -50 0 -290 c0 -333 5 -314 -97 -407 -80 -75 -134 -108 -205
-127 -72 -19 -2057 -21 -2076 -2 -27 27 -10 54 111 173 199 198 714 721 832
846 102 107 212 219 725 744 192 196 646 670 1051 1095 403 424 537 554 609
588 36 18 90 36 120 41 30 5 349 9 708 10 641 1 652 1 672 -19z"/>
<path d="M22139 14556 c-71 -19 -111 -55 -414 -376 -44 -47 -127 -134 -185
-195 -57 -60 -138 -146 -180 -190 -164 -175 -249 -265 -345 -365 -55 -58 -226
-238 -380 -400 -154 -162 -339 -355 -410 -430 -396 -412 -707 -744 -755 -809
-60 -80 -55 -137 18 -175 51 -26 1194 -20 1235 7 61 40 67 63 67 275 0 205 -8
250 -50 272 -10 5 -145 11 -299 13 -199 2 -284 6 -292 14 -15 15 -1 38 66 108
27 28 141 147 253 265 113 118 260 271 327 340 171 177 482 505 696 736 46 50
192 205 324 345 132 140 255 273 273 296 66 85 92 90 400 83 35 -1 4 -50 -100
-158 -62 -65 -151 -158 -198 -207 -111 -117 -829 -862 -1035 -1075 -310 -319
-427 -444 -437 -465 -16 -35 13 -81 56 -89 44 -8 132 2 168 20 14 8 53 44 85
81 61 69 319 347 482 518 109 114 411 433 516 545 38 41 100 106 136 145 36
38 164 176 285 305 120 129 226 242 235 250 48 45 170 195 175 216 10 39 -4
73 -39 94 -30 19 -51 20 -332 19 -204 0 -315 -4 -346 -13z m-2074 -2523 c44
-16 55 -28 55 -60 0 -42 48 -63 144 -63 96 0 110 10 85 56 -19 36 -1 44 102
44 113 0 123 -9 121 -117 -2 -121 27 -113 -422 -113 -323 0 -379 2 -390 15
-23 27 214 274 249 259 9 -4 34 -13 56 -21z"/>
<path d="M10845 14760 c-139 -10 -191 -41 -215 -129 -5 -22 -12 -591 -16
-1431 -7 -1516 -8 -1481 47 -1592 13 -29 123 -144 322 -341 473 -467 527 -511
677 -548 91 -23 1426 -20 1497 3 105 34 163 104 163 195 0 130 -10 142 -502
638 -321 325 -314 303 -128 405 330 182 672 407 994 655 268 207 266 205 311
205 61 0 34 32 509 -616 61 -83 147 -200 191 -260 142 -195 233 -270 394 -328
138 -50 660 -177 753 -183 256 -17 353 129 255 383 -93 240 -501 1090 -585
1219 -66 102 -147 161 -272 200 -66 20 -676 40 -925 31 -228 -8 -242 -14 -430
-176 -570 -489 -1233 -923 -1700 -1113 -49 -20 -124 -50 -165 -67 -120 -50
-265 -99 -404 -135 -70 -19 -139 -41 -153 -50 -33 -22 -56 -79 -47 -119 8 -38
327 -366 383 -393 49 -24 582 -30 619 -7 38 25 29 66 -25 120 -112 108 -130
124 -158 138 -69 36 -155 11 -155 -45 l0 -29 -78 0 c-91 0 -143 26 -200 97
-36 46 -39 64 -14 85 22 18 415 158 445 158 63 -1 111 -41 443 -374 330 -331
361 -368 334 -401 -20 -24 -53 -25 -685 -17 l-610 7 -59 29 c-66 32 -127 88
-508 463 -150 147 -255 258 -265 280 -17 36 -18 123 -21 1399 l-2 1361 21 26
c20 26 24 27 119 27 110 0 132 -11 144 -72 3 -17 6 -599 6 -1295 0 -1373 -3
-1299 54 -1337 32 -20 105 -21 133 -1 12 8 27 32 34 52 17 53 17 2723 -1 2768
-29 76 -77 101 -216 115 -118 11 -156 11 -309 0z m4306 -1751 c60 -15 126 -66
169 -132 37 -56 184 -345 258 -507 17 -36 53 -114 82 -175 77 -164 176 -385
190 -426 26 -73 -14 -98 -116 -74 -196 45 -567 150 -621 175 -104 48 -174 125
-401 445 -51 72 -131 184 -180 251 -299 412 -301 416 -269 442 7 6 30 12 52
14 76 8 800 -4 836 -13z"/>
<path d="M14787 12752 c-34 -37 -21 -74 71 -207 219 -319 299 -428 324 -441
28 -14 104 -39 199 -64 97 -25 120 14 69 116 -35 71 -67 94 -131 94 -49 0 -79
25 -156 128 -89 121 -108 154 -100 175 10 25 50 20 78 -9 35 -38 56 -47 79
-34 29 16 25 44 -21 126 -63 115 -104 134 -285 134 -95 0 -113 -3 -127 -18z"/>
<path d="M11741 14588 c-13 -7 -34 -26 -45 -41 l-21 -28 0 -1167 c0 -1130 1
-1168 19 -1195 48 -71 97 -72 274 -5 446 169 1022 525 1542 952 264 217 277
256 137 392 -340 331 -978 763 -1407 952 -291 128 -443 171 -499 140z m256
-284 c341 -113 944 -484 1346 -829 90 -77 107 -103 87 -140 -35 -66 -491 -412
-787 -598 -195 -122 -573 -317 -656 -339 -44 -11 -49 -11 -70 10 l-22 23 -3
921 -2 921 22 24 c26 27 24 27 85 7z"/>
<path d="M12180 13888 c-60 -31 -61 -37 -58 -553 l3 -470 23 -32 c31 -43 72
-50 139 -24 109 43 510 310 639 425 137 122 113 172 -181 373 -242 166 -442
279 -507 289 -18 3 -44 -1 -58 -8z m215 -292 c68 -36 305 -203 317 -224 11
-22 9 -27 -28 -60 -119 -108 -285 -222 -324 -222 -38 0 -41 21 -40 260 0 270
4 283 75 246z"/>
<path d="M23499 13211 c-47 -15 -74 -33 -136 -94 -57 -56 -79 -97 -53 -97 5 0
27 -16 49 -35 48 -44 68 -44 110 -1 46 48 76 57 162 54 61 -2 74 -6 77 -20 3
-16 -214 -251 -623 -672 l-110 -114 -70 -11 c-39 -7 -77 -10 -85 -7 -8 2 -27
7 -42 10 -16 4 -28 12 -28 19 0 6 131 145 290 307 164 166 289 302 288 310 -3
11 -18 15 -63 15 -48 0 -61 4 -67 18 -19 45 -39 28 -476 -414 -271 -273 -294
-299 -299 -337 -5 -34 -2 -44 20 -66 l26 -26 266 0 c212 0 273 3 301 15 40 17
94 70 394 390 118 126 258 274 311 329 231 242 299 324 299 359 0 22 -8 41
-23 55 -23 21 -30 22 -258 21 -129 0 -246 -4 -260 -8z"/>
<path d="M9644 9976 c-89 -41 -134 -118 -134 -227 1 -201 223 -301 393 -176
34 26 34 50 1 72 -25 16 -27 16 -47 -3 -70 -64 -185 -58 -230 12 -104 157 73
347 213 229 28 -23 33 -25 57 -12 53 28 35 65 -52 105 -66 31 -134 31 -201 0z"/>
<path d="M11891 9986 c-165 -60 -209 -292 -78 -409 88 -79 232 -82 315 -7 36
34 39 47 15 66 -26 19 -39 17 -81 -11 -49 -33 -122 -34 -168 -3 -52 36 -85
137 -64 194 38 101 159 135 239 68 28 -24 33 -25 61 -12 40 17 38 40 -6 76
-60 50 -157 66 -233 38z"/>
<path d="M13771 9986 c-94 -34 -121 -154 -48 -210 18 -13 57 -32 87 -41 122
-37 148 -61 116 -110 -30 -46 -118 -46 -166 0 -27 26 -29 26 -59 11 -38 -20
-38 -25 0 -64 73 -74 215 -76 284 -5 80 83 37 192 -89 223 -114 29 -155 73
-105 111 36 28 139 18 139 -13 0 -17 47 -7 66 13 19 21 19 21 -16 50 -56 48
-137 61 -209 35z"/>
<path d="M22044 9984 c-174 -62 -208 -319 -56 -428 55 -39 165 -49 237 -21 97
36 165 164 145 269 -29 148 -180 232 -326 180z m164 -84 c73 -45 96 -153 49
-235 -53 -94 -181 -95 -250 -3 -28 38 -33 134 -9 178 42 76 138 104 210 60z"/>
<path d="M22705 9987 c-76 -30 -105 -66 -105 -131 0 -60 43 -98 150 -130 69
-21 94 -33 107 -53 17 -25 16 -26 -16 -55 -44 -39 -116 -37 -160 6 -32 31 -38
31 -71 6 l-25 -19 30 -31 c39 -41 53 -48 117 -60 133 -26 241 63 209 171 -15
50 -58 82 -148 108 -76 23 -103 41 -103 69 1 64 88 77 159 25 l33 -26 27 27
26 27 -32 29 c-51 46 -134 62 -198 37z"/>
<path d="M27900 9977 c-55 -29 -84 -80 -74 -132 10 -56 53 -90 147 -119 85
-26 125 -54 111 -78 -41 -73 -121 -80 -190 -16 -18 16 -25 17 -48 7 -90 -41
78 -146 193 -120 53 12 87 34 111 74 50 81 -1 169 -114 197 -110 28 -150 67
-111 110 25 28 97 27 136 -1 53 -37 113 -2 73 42 -55 60 -158 76 -234 36z"/>
<path d="M31502 9979 c-54 -27 -75 -58 -75 -110 0 -76 40 -115 146 -142 103
-27 135 -69 87 -117 -34 -34 -133 -20 -169 23 -17 22 -30 21 -61 -2 -24 -19
-24 -19 -5 -41 35 -39 72 -60 122 -69 136 -26 243 61 212 173 -13 48 -53 75
-151 106 -92 29 -111 47 -88 87 27 48 106 49 157 1 l24 -22 26 27 27 27 -27
28 c-52 54 -151 67 -225 31z"/>
<path d="M10194 9977 c-2 -7 -3 -111 -2 -232 l3 -220 152 -2 c168 -2 187 4
165 52 -11 24 -14 25 -122 25 l-110 0 0 60 0 60 73 1 c139 2 132 0 132 39 l0
35 -100 0 -100 0 -3 54 c-3 58 8 75 42 65 10 -4 56 -3 102 1 l84 7 0 34 0 34
-155 0 c-117 0 -157 -3 -161 -13z"/>
<path d="M10740 9985 c0 -2 14 -39 31 -82 17 -43 35 -89 39 -103 26 -83 91
-254 101 -266 14 -17 83 -18 97 -1 6 6 20 38 31 70 27 73 52 141 92 247 49
131 49 140 5 140 -43 0 -40 5 -117 -207 -29 -79 -55 -143 -58 -143 -3 0 -25
55 -49 123 -82 233 -79 227 -129 227 -24 0 -43 -2 -43 -5z"/>
<path d="M11415 9898 c-4 -51 -3 -156 2 -233 l8 -140 35 0 35 0 0 230 0 230
-37 3 -36 3 -7 -93z"/>
<path d="M12415 9838 c-4 -84 -3 -189 1 -233 l9 -80 35 0 35 0 5 95 5 95 107
3 107 3 3 -98 3 -98 40 0 40 0 0 230 0 230 -36 3 -37 3 -7 -96 -7 -96 -106 3
-107 3 -5 90 -5 90 -36 3 -37 3 -7 -153z"/>
<path d="M13097 9983 c-7 -12 -7 -350 -1 -411 l6 -52 157 2 156 3 0 35 0 35
-115 5 -115 5 0 55 0 55 100 5 100 5 0 35 0 35 -91 1 c-108 1 -114 4 -114 54
0 70 0 70 120 70 115 0 126 4 116 46 l-6 24 -155 0 c-84 0 -156 -3 -158 -7z"/>
<path d="M18087 9969 c-10 -37 2 -49 52 -51 25 -1 55 -2 66 -2 19 -1 20 -10
25 -196 l5 -195 34 -3 c47 -5 51 7 45 123 -3 55 -1 138 3 185 l8 85 65 5 c64
5 65 5 65 35 l0 30 -181 3 c-178 2 -182 2 -187 -19z"/>
<path d="M18717 9984 c-10 -10 -8 -436 2 -452 5 -8 22 -12 42 -10 l34 3 0 230
0 230 -35 3 c-20 2 -39 0 -43 -4z"/>
<path d="M19089 9843 c-2 -81 -2 -186 1 -233 l5 -85 35 0 35 0 5 80 5 80 41 3
41 3 52 -86 c52 -83 53 -85 92 -85 51 0 50 12 -6 100 -25 39 -45 73 -45 76 0
2 17 21 39 42 68 65 65 165 -6 220 -35 26 -43 27 -164 30 l-127 4 -3 -149z
m244 46 c24 -30 21 -71 -7 -98 -20 -19 -33 -22 -87 -19 l-64 3 -3 58 c-4 76 3
83 80 80 49 -3 67 -8 81 -24z"/>
<path d="M19841 9968 c-5 -13 -46 -114 -90 -224 -45 -111 -81 -207 -81 -213 0
-6 17 -11 40 -11 39 0 41 2 65 55 l24 55 95 0 c103 0 101 1 126 -65 14 -37 19
-40 58 -43 35 -3 42 0 41 15 0 10 -39 115 -87 233 l-87 215 -48 3 c-41 3 -48
0 -56 -20z m94 -180 c14 -37 23 -72 20 -78 -8 -12 -125 -13 -125 -1 0 9 48
140 57 154 8 14 19 -3 48 -75z"/>
<path d="M20358 9984 c-14 -14 -10 -451 5 -456 6 -3 49 -6 95 -7 205 -6 312
87 300 259 -6 86 -36 136 -105 177 -44 26 -58 28 -168 31 -66 2 -123 0 -127
-4z m251 -92 c69 -51 88 -136 49 -212 -30 -58 -72 -80 -155 -80 l-62 0 -3 148
c-2 86 1 153 7 161 14 19 132 7 164 -17z"/>
<path d="M21012 9758 l3 -233 35 0 35 0 0 230 0 230 -38 3 -37 3 2 -233z"/>
<path d="M21330 9955 c0 -40 18 -49 91 -43 l44 3 5 -195 5 -195 38 -3 c33 -3
37 -1 37 20 1 13 1 98 1 190 0 193 -2 188 94 188 l56 0 -3 33 -3 32 -182 3
-183 2 0 -35z"/>
<path d="M26584 9977 c-2 -7 -3 -111 -2 -232 l3 -220 152 -3 c145 -2 152 -2
158 18 3 11 3 29 0 40 -6 18 -15 20 -116 20 l-109 0 0 60 0 59 98 3 97 3 3 38
3 37 -101 0 -101 0 3 56 3 57 105 4 c115 5 126 9 116 47 l-6 26 -151 0 c-112
0 -151 -3 -155 -13z"/>
<path d="M27166 9968 c-9 -35 -7 -421 3 -436 5 -8 22 -12 42 -10 l34 3 5 160
c5 158 5 160 23 135 10 -14 62 -86 116 -160 92 -127 100 -135 134 -138 48 -4
48 -3 45 253 l-3 210 -36 3 c-47 4 -51 -11 -48 -175 1 -68 0 -126 -3 -129 -3
-2 -25 23 -48 58 -24 35 -74 105 -113 156 -66 88 -71 92 -107 92 -31 0 -39 -4
-44 -22z"/>
<path d="M28529 9963 c-5 -15 -21 -53 -34 -83 -35 -81 -135 -340 -135 -352 0
-5 19 -8 41 -6 38 3 43 6 58 43 26 66 24 65 127 65 l94 0 16 -37 c9 -21 20
-45 24 -53 4 -9 24 -16 49 -18 48 -4 51 6 22 71 -11 23 -34 80 -51 127 -18 47
-49 126 -70 175 l-37 90 -47 3 c-43 3 -47 1 -57 -25z m91 -168 c33 -90 33 -90
-29 -93 -72 -4 -79 5 -52 67 11 27 26 62 31 77 13 34 23 25 50 -51z"/>
<path d="M29032 9758 l3 -233 148 -3 148 -3 -3 38 -3 38 -105 5 -105 5 -5 190
-5 190 -38 3 -37 3 2 -233z"/>
<path d="M29707 9983 c-24 -40 -177 -429 -177 -450 0 -8 14 -13 38 -13 37 0
40 3 63 53 l24 52 80 3 c103 4 121 -1 130 -35 12 -52 33 -73 70 -73 18 0 36 4
39 8 3 5 -36 110 -85 235 l-91 227 -43 0 c-24 0 -46 -3 -48 -7z m80 -183 c36
-96 37 -95 -30 -98 -71 -4 -77 6 -48 85 12 32 24 64 26 71 9 26 28 5 52 -58z"/>
<path d="M30194 9977 c-2 -7 -3 -111 -2 -232 l3 -220 94 -3 c214 -7 321 82
309 256 -8 105 -51 164 -145 198 -51 18 -252 19 -259 1z m247 -82 c94 -49 94
-221 -1 -274 -40 -22 -160 -31 -160 -11 -3 101 1 293 6 301 9 15 115 4 155
-16z"/>
<path d="M30937 9943 c-14 -26 -41 -91 -60 -143 -42 -112 -61 -159 -88 -217
-27 -60 -25 -65 23 -61 43 3 75 37 77 80 1 24 30 29 130 26 l83 -3 15 -45 c18
-52 26 -60 71 -60 22 0 32 5 32 15 0 13 -29 95 -67 185 -8 19 -36 87 -61 150
l-47 115 -42 3 c-41 3 -43 2 -66 -45z m98 -145 c21 -65 24 -83 13 -89 -17 -11
-105 -12 -112 -1 -6 10 56 172 66 172 3 0 18 -37 33 -82z"/>
<path d="M2883 9959 c-76 -22 -121 -115 -88 -179 20 -39 45 -54 135 -81 85
-25 110 -42 110 -75 0 -68 -111 -86 -172 -27 -28 26 -28 26 -63 10 -43 -21
-43 -25 -1 -66 133 -129 391 -16 312 137 -23 44 -47 59 -134 88 -91 29 -112
44 -112 79 0 51 92 62 155 20 35 -24 39 -25 61 -10 30 19 30 36 1 63 -46 44
-134 61 -204 41z"/>
<path d="M4194 9955 c-79 -35 -110 -130 -62 -190 23 -29 98 -67 158 -80 38 -8
80 -40 80 -62 0 -8 -11 -25 -25 -38 -39 -40 -107 -33 -162 18 -42 38 -105 -13
-67 -54 58 -64 195 -85 266 -41 53 33 83 98 68 151 -14 53 -46 76 -147 107
-100 30 -126 57 -99 99 14 21 24 25 67 25 40 0 58 -6 81 -25 35 -30 36 -30 67
-5 22 19 23 21 6 46 -36 55 -158 81 -231 49z"/>
<path d="M3418 9813 c-3 -165 7 -231 43 -269 73 -79 206 -82 288 -8 53 48 62
89 59 269 l-3 150 -40 0 -40 0 -2 -160 c-3 -172 -9 -197 -55 -221 -63 -32
-139 -2 -157 63 -6 21 -11 102 -11 181 l0 142 -39 0 -40 0 -3 -147z"/>
<path d="M4752 9728 l3 -233 35 0 35 0 5 95 5 95 105 0 105 0 5 -95 5 -95 31
-3 c53 -5 55 5 52 244 l-3 219 -42 3 -42 3 -3 -93 -3 -93 -105 0 -105 0 -5 90
-5 90 -38 3 -37 3 2 -233z"/>
<path d="M5462 9728 l3 -233 35 0 35 0 3 233 2 232 -40 0 -40 0 2 -232z"/>
<path d="M7833 9024 c-48 -24 -79 -78 -103 -184 -93 -404 -196 -576 -564 -938
-294 -290 -413 -460 -496 -713 -49 -149 -63 -259 -56 -439 6 -173 18 -237 70
-390 80 -231 156 -359 391 -663 112 -145 88 -213 -165 -472 -242 -247 -323
-374 -362 -564 -33 -166 -36 -169 -142 -118 -137 65 -185 130 -186 248 0 91
18 142 120 348 148 298 189 439 197 682 10 300 -61 556 -220 794 -147 220
-426 458 -552 473 -127 14 -163 -72 -105 -248 101 -308 113 -531 40 -732 -42
-115 -80 -177 -223 -366 -317 -417 -427 -624 -489 -920 -29 -140 -32 -461 -5
-584 108 -490 436 -836 872 -918 33 -6 82 -15 108 -21 131 -25 232 12 251 93
8 36 -15 92 -49 114 -33 21 -126 44 -185 44 -53 0 -170 31 -238 62 -460 211
-662 776 -476 1336 52 157 155 338 307 540 236 312 240 319 305 447 100 198
123 418 75 703 -8 49 17 41 80 -28 266 -287 352 -767 207 -1160 -33 -89 -50
-127 -151 -340 -68 -144 -109 -276 -109 -352 0 -65 30 -180 60 -233 46 -80 88
-109 307 -215 286 -139 356 -189 561 -398 215 -220 349 -448 407 -690 12 -51
11 -55 -10 -80 l-22 -25 -237 -1 c-236 -1 -238 -1 -256 22 -18 22 -18 25 -2
75 27 85 22 274 -10 359 -96 256 -289 409 -648 512 -63 18 -142 47 -175 64
-151 77 -249 257 -247 453 2 207 56 368 207 618 142 236 190 411 119 443 -32
15 -48 0 -114 -110 -30 -48 -96 -148 -149 -221 -204 -289 -285 -502 -285 -751
0 -216 47 -365 159 -499 104 -124 216 -180 465 -235 183 -41 359 -170 410
-302 46 -118 35 -261 -27 -334 -72 -86 -142 -100 -508 -100 -273 0 -319 4
-465 45 -169 46 -261 47 -328 2 -71 -47 -102 -135 -76 -215 32 -95 96 -135
214 -135 71 0 110 8 240 50 50 16 136 18 985 23 838 4 933 7 960 21 110 61
115 188 18 479 -36 107 -153 331 -223 424 -91 122 -248 294 -355 387 -148 130
-180 189 -180 339 0 113 31 206 106 321 56 84 106 140 273 299 43 41 98 103
123 138 67 94 83 88 198 -73 158 -220 202 -441 129 -646 -73 -204 -132 -243
-241 -158 -103 80 -129 179 -68 254 l24 30 26 -32 c32 -40 47 -41 74 -7 29 37
37 121 16 184 -22 67 -51 99 -96 106 -35 6 -41 2 -112 -66 -182 -172 -223
-344 -122 -516 66 -113 278 -264 369 -264 146 1 288 184 362 465 29 110 26
354 -5 455 -62 201 -141 316 -506 740 -333 387 -457 641 -472 970 -13 285 47
488 215 725 32 45 156 181 284 310 294 298 338 353 446 555 49 92 81 176 117
308 25 89 47 98 97 41 81 -94 179 -323 208 -485 19 -104 9 -311 -19 -394 -50
-148 -119 -253 -289 -436 -209 -227 -285 -372 -299 -579 -16 -228 82 -413 382
-725 233 -242 359 -405 436 -565 46 -96 99 -263 99 -315 0 -38 42 -103 73
-114 39 -14 77 8 183 105 50 46 156 132 235 191 252 186 319 276 319 427 0
100 -29 169 -112 272 -188 231 -196 243 -222 346 -44 168 8 375 138 556 102
143 318 329 502 431 123 69 129 62 94 -104 -82 -397 -33 -636 191 -915 80 -99
179 -259 208 -334 129 -336 37 -684 -253 -958 -100 -95 -206 -169 -324 -227
-150 -75 -201 -156 -148 -237 32 -48 58 -59 137 -59 94 0 176 47 206 117 9 22
30 44 59 61 135 80 286 216 387 351 156 207 227 417 227 666 0 266 -75 458
-286 726 -158 201 -192 279 -201 470 -7 135 9 249 64 459 64 242 66 259 48
300 -41 90 -122 91 -296 5 -907 -454 -1253 -1139 -832 -1653 148 -181 174
-235 154 -311 -6 -25 -25 -62 -40 -81 -31 -39 -196 -169 -253 -200 -65 -35
-69 -33 -141 113 -116 233 -194 336 -508 672 -87 94 -170 186 -183 205 -96
143 -126 276 -90 413 31 122 65 170 305 442 213 241 299 453 299 734 0 308
-151 682 -359 892 -104 104 -194 134 -278 93z m-2400 -6000 c43 -20 43 -33 1
-53 -74 -37 -164 -20 -164 30 0 52 79 63 163 23z"/>
<path d="M26115 9014 c-38 -7 -108 -20 -155 -28 -767 -133 -821 -145 -894
-201 -60 -45 -83 -107 -167 -443 -43 -174 -84 -327 -91 -339 -27 -52 -20 -52
-758 -53 -809 -1 -945 -9 -1089 -62 -165 -62 -246 -165 -245 -313 0 -125 83
-222 234 -275 61 -22 87 -24 415 -32 278 -7 1071 -4 2010 6 97 1 112 -1 120
-22 20 -52 -207 -171 -390 -204 -39 -7 -389 -13 -986 -17 l-926 -6 -48 -30
c-30 -19 -56 -45 -69 -70 l-21 -40 -1 -1610 c-2 -1736 -4 -1674 49 -1722 57
-52 122 -46 144 13 8 19 13 205 17 527 5 482 6 499 26 527 29 41 41 41 578 38
l474 -3 24 -28 c24 -28 24 -29 24 -269 0 -258 -6 -289 -54 -302 -12 -3 -103
-6 -204 -6 -179 0 -183 0 -207 -24 -32 -32 -41 -85 -21 -124 32 -61 35 -62
315 -62 301 0 322 5 363 88 23 47 23 50 23 437 0 442 0 439 -80 480 -38 19
-65 20 -610 25 -313 3 -578 9 -588 14 -48 23 -47 5 -47 960 l0 895 24 28 24
28 854 6 c923 6 940 7 1103 62 148 51 297 146 416 266 132 133 167 227 114
307 -36 56 24 53 -1392 58 -719 2 -1321 7 -1336 11 -34 9 -97 66 -97 88 0 23
46 74 72 80 138 34 170 37 498 48 190 5 568 9 840 7 544 -3 533 -4 575 57 11
17 30 75 43 130 89 383 157 644 176 673 29 44 82 67 201 87 55 9 231 40 390
70 403 74 388 73 414 39 15 -19 21 -41 21 -79 0 -85 -7 -88 -286 -140 -524
-96 -517 -94 -542 -118 -31 -28 -47 -67 -77 -181 -13 -50 -32 -125 -43 -166
-10 -41 -25 -102 -32 -135 -7 -33 -29 -92 -48 -132 -41 -83 -39 -128 7 -174
57 -56 115 -50 179 18 l42 46 168 -6 c285 -10 452 -56 518 -143 39 -50 64
-148 54 -210 -35 -213 -300 -489 -626 -652 -273 -136 -329 -142 -1242 -142
-753 0 -725 2 -761 -68 -20 -39 -20 -58 -21 -676 -1 -705 -5 -669 63 -720 28
-21 38 -21 625 -26 328 -3 598 -7 599 -8 32 -31 33 -44 39 -700 6 -607 6 -655
-11 -691 -9 -21 -28 -44 -41 -50 -17 -8 -177 -11 -520 -11 -537 0 -537 0 -562
55 -15 32 -17 471 -2 509 18 47 53 56 232 56 90 0 178 4 196 9 75 22 97 108
42 162 l-30 30 -277 -3 c-408 -4 -378 36 -378 -513 l0 -400 28 -43 c19 -30 43
-51 75 -65 47 -22 52 -22 702 -22 746 0 703 -5 747 85 l22 45 1 825 c0 920 4
869 -69 917 l-34 23 -584 0 c-610 0 -627 1 -661 43 -17 20 -18 929 -2 971 5
14 17 29 28 35 11 6 280 11 723 13 685 4 707 4 812 26 141 30 226 61 367 135
175 91 259 152 438 319 69 64 76 67 92 38 7 -14 10 -510 7 -1627 -3 -1729 0
-1627 -51 -1747 -60 -142 -231 -257 -445 -300 -238 -47 -328 -51 -1206 -49
-834 1 -971 6 -1132 39 -315 65 -473 206 -514 459 -11 66 -13 3158 -3 3285 7
76 15 97 59 159 36 50 33 95 -9 137 -31 31 -39 34 -91 34 -86 0 -147 -36 -183
-109 l-27 -56 0 -1750 0 -1750 23 -85 c76 -287 267 -462 597 -550 236 -62 253
-63 1195 -68 1039 -5 1178 3 1450 84 273 82 459 237 532 445 61 176 59 101 56
2164 -3 1756 -4 1884 -21 1938 -84 280 -298 404 -726 422 -213 9 -222 13 -202
79 5 17 19 75 32 128 12 54 30 106 39 116 13 13 55 25 141 41 648 117 649 117
702 180 52 62 60 113 43 275 -19 182 -35 216 -119 251 -43 18 -106 18 -202 -1z"/>
<path d="M16487 8416 c-143 -40 -257 -193 -257 -345 1 -247 242 -441 451 -362
72 28 172 123 208 201 23 49 26 67 26 165 0 102 -2 114 -30 169 -70 139 -245
215 -398 172z m146 -180 c93 -40 132 -153 86 -251 -30 -64 -70 -90 -140 -90
-190 0 -232 276 -52 341 49 17 66 17 106 0z"/>
<path d="M7908 8073 c-9 -10 -26 -38 -38 -63 -55 -110 -124 -195 -315 -390
-358 -366 -430 -511 -429 -860 0 -171 1 -177 33 -270 78 -227 200 -414 426
-650 235 -245 357 -405 438 -572 114 -235 113 -537 -3 -878 -107 -314 -133
-523 -128 -1025 3 -395 3 -394 81 -450 l42 -30 725 -3 c745 -3 878 2 980 35
199 66 315 215 379 488 30 131 41 370 21 463 -6 26 -15 70 -21 97 -20 94 -96
234 -163 300 -103 104 -194 145 -374 171 -211 30 -604 11 -751 -37 -27 -9 -36
-8 -48 4 -19 19 2 71 68 169 117 174 249 282 615 508 309 190 454 405 454 675
0 190 -59 314 -255 540 -151 174 -194 288 -180 478 7 99 0 117 -46 117 -48 0
-108 -96 -135 -215 -38 -168 11 -303 180 -505 128 -153 165 -212 188 -304 60
-239 -45 -414 -385 -640 -275 -182 -341 -232 -443 -329 -215 -205 -327 -430
-403 -815 -6 -29 -16 -152 -23 -273 -17 -303 -1 -381 85 -426 45 -23 489 -38
769 -25 196 9 210 11 252 36 78 46 91 87 91 296 -1 217 -18 266 -110 305 -98
43 -434 37 -525 -8 -54 -27 -90 -88 -90 -155 0 -91 51 -132 162 -132 94 0 133
34 88 75 -48 43 -9 65 115 65 73 0 87 -3 111 -23 51 -44 42 -198 -13 -235 -24
-15 -58 -17 -323 -17 -162 0 -307 3 -322 8 -53 14 -63 46 -63 202 0 324 46
384 338 439 185 36 525 28 645 -14 204 -72 282 -241 269 -580 -9 -231 -51
-347 -154 -425 -96 -73 -180 -81 -943 -83 -535 -2 -585 2 -624 49 -31 36 -37
100 -37 370 0 359 37 609 132 894 91 273 102 560 28 779 -63 189 -186 382
-373 586 -207 227 -300 332 -357 406 -237 306 -279 652 -117 954 59 110 97
158 263 335 176 188 193 209 235 294 57 113 78 239 50 292 -13 24 -52 25 -72
2z"/>
<path d="M15385 7414 c-484 -24 -660 -165 -705 -564 -18 -157 -8 -758 14 -850
59 -250 188 -368 581 -534 172 -73 224 -98 242 -118 31 -35 18 -39 -242 -69
-404 -46 -583 -166 -652 -435 -27 -105 -27 -867 0 -963 70 -248 220 -359 526
-392 113 -11 633 -11 786 1 414 33 568 205 765 857 28 92 58 175 67 185 29 33
159 56 189 34 18 -13 19 -34 25 -313 5 -221 11 -314 22 -359 58 -223 186 -346
412 -392 146 -31 637 -22 770 13 195 51 315 172 371 375 17 58 19 110 19 460
0 439 -5 495 -60 615 -84 184 -191 256 -629 421 -241 91 -255 98 -291 164 -54
97 -127 125 -187 71 l-32 -29 -2 -138 c-4 -255 -60 -416 -187 -530 -144 -129
-259 -159 -617 -159 -222 0 -253 2 -326 22 -134 37 -175 59 -257 140 -94 92
-138 223 -139 411 -1 249 68 391 225 466 93 44 153 56 312 63 119 5 138 3 228
-21 242 -64 305 -131 317 -336 15 -247 -43 -321 -270 -343 -177 -17 -306 10
-353 75 -42 57 -32 181 19 229 37 34 149 40 182 9 29 -27 28 -45 -3 -82 -33
-39 -29 -58 15 -81 40 -20 96 -17 139 9 103 62 91 245 -21 305 -42 23 -133 39
-216 39 -222 0 -321 -82 -337 -277 -16 -189 53 -335 181 -383 159 -59 549 -49
681 18 132 68 189 189 199 422 14 308 -93 469 -377 570 -160 57 -177 71 -190
164 -14 105 34 250 178 536 152 303 230 390 383 430 67 18 111 20 426 20 699
0 724 -22 724 -640 0 -210 -12 -352 -34 -414 -47 -134 -180 -184 -457 -173
-231 9 -329 54 -329 152 0 81 11 85 214 85 189 0 214 5 263 52 46 45 56 105
51 317 -5 232 -29 287 -137 326 -66 23 -557 22 -626 -2 -93 -31 -154 -113
-304 -408 -113 -220 -109 -241 61 -326 55 -27 119 -63 142 -78 44 -30 163
-152 192 -196 24 -37 101 -90 159 -110 64 -22 279 -45 420 -45 344 0 535 114
606 362 23 81 24 92 24 473 0 434 -1 446 -66 581 -74 157 -200 236 -434 274
-38 6 -205 13 -370 17 -702 14 -824 -45 -1070 -517 -39 -76 -76 -135 -84 -135
-9 0 -32 54 -66 160 -99 302 -207 421 -431 471 -68 15 -460 26 -629 18z m564
-260 c180 -45 263 -173 352 -544 10 -41 27 -113 39 -160 18 -70 21 -104 17
-190 -7 -162 -24 -185 -146 -196 -85 -8 -78 -20 -116 191 -79 445 -115 542
-218 598 -40 21 -52 22 -277 22 -220 -1 -238 -2 -275 -22 -48 -25 -66 -44 -95
-102 -21 -41 -23 -62 -27 -275 -7 -303 9 -386 91 -465 36 -35 160 -98 296
-151 62 -24 101 -46 114 -63 19 -26 19 -26 -8 -99 -63 -167 -57 -167 -401 6
-285 144 -343 214 -366 445 -13 124 -5 657 10 741 32 172 132 247 356 269 171
16 581 13 654 -5z m1780 -467 c54 -19 71 -63 71 -180 0 -91 -2 -100 -25 -122
-21 -22 -33 -25 -100 -25 -114 0 -138 20 -94 80 59 79 -62 147 -152 86 -72
-49 -87 -148 -39 -248 27 -56 20 -62 -69 -55 -84 6 -154 37 -191 85 -28 35
-21 63 47 190 61 116 103 169 148 188 40 17 355 18 404 1z m-1963 -26 c39 -24
58 -65 77 -166 60 -314 70 -402 49 -444 -32 -66 -60 -65 -246 3 -239 88 -262
124 -254 402 5 212 15 222 223 223 100 1 125 -2 151 -18z m1982 -1452 c70 -29
195 -85 278 -125 200 -97 253 -153 289 -306 19 -79 22 -716 4 -800 -22 -103
-69 -166 -156 -209 -48 -24 -50 -24 -383 -24 -383 0 -399 3 -479 90 -67 73
-91 214 -91 537 0 225 14 289 80 350 84 78 126 82 306 28 228 -69 274 -126
274 -344 0 -179 -10 -192 -150 -188 -71 2 -100 31 -100 98 l0 46 40 -7 c51 -9
70 6 70 52 0 74 -43 119 -127 134 -107 19 -148 -22 -158 -158 -7 -91 11 -217
38 -273 37 -76 79 -90 262 -90 169 0 209 8 252 49 59 56 65 91 61 357 -3 261
-6 272 -73 352 -30 36 -176 109 -325 163 -58 21 -111 46 -117 56 -35 47 22
262 70 263 5 0 65 -23 135 -51z m-2093 -149 c20 -22 75 -155 75 -181 0 -37
-32 -48 -189 -64 -236 -25 -274 -34 -330 -80 -73 -63 -98 -191 -88 -466 8
-208 37 -261 161 -289 77 -17 591 -14 652 5 130 38 176 114 278 456 32 108 40
115 130 112 171 -6 179 -15 135 -159 -74 -246 -170 -463 -237 -536 -105 -114
-177 -128 -661 -128 -504 0 -573 11 -660 105 -69 75 -74 104 -79 480 -4 368 3
445 49 536 68 136 177 177 584 219 131 13 160 12 180 -10z m312 -430 c54 -33
54 -95 -3 -285 -47 -157 -79 -180 -264 -191 -118 -6 -296 8 -331 26 -34 19
-42 53 -47 185 -5 145 6 190 53 221 27 18 165 37 370 53 174 13 187 12 222 -9z"/>
<path d="M15575 6493 c-28 -28 -34 -59 -26 -134 8 -80 24 -100 88 -118 51 -14
90 7 99 54 9 49 -16 153 -44 187 -28 33 -90 39 -117 11z"/>
<path d="M15594 4471 c-85 -39 -109 -103 -58 -155 24 -23 34 -26 98 -26 82 0
112 12 143 59 29 42 30 94 3 121 -27 27 -128 27 -186 1z"/>
<path d="M25805 6339 c-22 -12 -62 -34 -90 -49 -72 -40 -160 -76 -262 -105
-168 -49 -245 -54 -869 -58 -627 -4 -616 -3 -657 -59 -28 -38 -36 -162 -13
-206 22 -42 47 -54 108 -50 49 3 53 5 72 43 13 24 31 42 46 46 14 4 257 7 540
8 615 1 738 13 943 91 60 23 81 25 95 8 7 -9 12 -390 15 -1130 5 -1278 13
-1163 -86 -1192 -72 -21 -90 -20 -113 5 -18 20 -19 51 -19 968 0 936 0 946
-21 981 -37 63 -21 62 -612 60 -593 -1 -559 3 -587 -65 -18 -41 -9 -78 27
-112 l29 -28 445 3 444 3 25 -25 25 -25 1 -528 c2 -972 12 -1403 31 -1439 25
-46 86 -68 166 -59 134 14 329 80 380 128 63 59 72 104 78 382 8 402 11 2297
3 2338 -14 80 -69 105 -144 66z"/>
<path d="M13856 5815 c-103 -29 -210 -129 -236 -223 -73 -265 179 -486 459
-402 102 30 182 94 226 180 22 43 31 160 16 215 -48 178 -265 285 -465 230z
m204 -184 c42 -21 80 -83 80 -131 0 -19 -10 -53 -23 -74 -59 -104 -236 -103
-295 2 -81 145 81 284 238 203z"/>
<path d="M18989 5812 c-218 -73 -313 -295 -199 -471 170 -263 610 -206 671 87
32 156 -41 303 -183 367 -82 37 -206 44 -289 17z m203 -178 c120 -62 107 -232
-22 -274 -84 -28 -170 0 -217 70 -87 127 92 280 239 204z"/>
<path d="M23967 5706 c-58 -16 -57 -15 -64 -64 -13 -97 56 -153 179 -145 64 5
67 7 83 39 19 39 30 124 18 139 -12 15 -107 45 -139 44 -16 0 -50 -6 -77 -13z"/>
<path d="M10983 5336 c-163 -52 -573 -472 -673 -689 -81 -177 -86 -306 -19
-495 36 -102 66 -216 80 -302 18 -113 55 -159 117 -144 83 21 237 183 293 308
70 159 60 413 -17 432 -59 15 -90 -38 -96 -161 -5 -97 -24 -149 -72 -194 -35
-33 -49 -23 -78 56 -77 206 -58 341 75 537 84 124 318 345 352 332 24 -9 31
-37 58 -236 55 -392 65 -536 48 -684 -26 -229 -120 -363 -402 -577 -197 -149
-310 -268 -373 -395 -45 -90 -30 -179 39 -221 26 -16 63 -19 310 -24 276 -6
281 -7 389 -38 178 -52 258 -51 337 2 116 78 114 266 -4 329 -83 44 -153 42
-337 -12 -134 -39 -221 -52 -329 -48 -121 4 -132 16 -77 83 41 50 71 74 238
197 244 179 358 329 420 553 39 139 28 544 -23 850 -5 33 -23 141 -40 240 -31
190 -53 254 -99 287 -36 25 -69 29 -117 14z m265 -2302 c48 -33 10 -88 -59
-86 -51 2 -139 31 -139 46 0 16 98 55 140 55 20 1 46 -6 58 -15z"/>
<path d="M16538 3430 c-47 -12 -103 -48 -145 -91 -100 -107 -110 -262 -24
-390 99 -149 342 -168 478 -37 115 111 110 336 -10 445 -74 66 -201 98 -299
73z m166 -191 c114 -90 37 -258 -106 -234 -66 11 -108 59 -108 122 1 57 16 87
56 114 41 27 122 26 158 -2z"/>
<path d="M9969 2314 c-162 -50 -212 -291 -83 -403 100 -88 259 -81 344 16 29
33 31 39 28 106 l-3 72 -100 0 -100 0 0 -30 c0 -29 2 -30 55 -35 51 -5 55 -7
58 -32 4 -35 -25 -64 -77 -78 -133 -36 -240 119 -168 244 43 76 140 99 212 50
73 -49 127 -5 62 51 -62 54 -139 67 -228 39z"/>
<path d="M10685 2319 c-133 -41 -204 -202 -147 -332 65 -146 241 -185 376 -82
107 81 105 294 -2 369 -78 53 -152 68 -227 45z m144 -89 c96 -49 105 -208 16
-278 -33 -26 -120 -30 -163 -8 -66 34 -95 163 -52 234 42 69 125 90 199 52z"/>
<path d="M15322 2304 c-177 -93 -175 -349 3 -433 128 -60 301 12 333 141 44
172 -48 304 -218 315 -56 4 -72 1 -118 -23z m188 -76 c95 -65 94 -210 -2 -281
-35 -26 -120 -26 -157 0 -92 68 -91 227 4 284 43 27 113 25 155 -3z"/>
<path d="M16016 2315 c-66 -23 -91 -56 -91 -121 0 -72 32 -104 137 -134 92
-26 101 -31 113 -64 15 -43 -21 -71 -92 -70 -48 0 -59 4 -79 27 -27 32 -44 34
-75 8 l-24 -19 30 -32 c90 -95 276 -77 319 30 35 88 -13 154 -134 185 -81 21
-110 39 -110 69 0 54 97 78 150 36 32 -25 52 -25 76 1 19 21 18 21 -13 49 -54
48 -133 62 -207 35z"/>
<path d="M18442 2318 c-49 -17 -92 -71 -92 -116 0 -77 45 -116 184 -159 71
-22 88 -42 66 -80 -29 -52 -112 -55 -170 -7 -25 21 -35 24 -57 17 -86 -29 25
-123 145 -123 108 0 172 54 172 145 0 64 -42 105 -126 125 -100 23 -143 55
-128 95 15 39 104 48 147 15 29 -23 57 -26 75 -8 58 58 -110 132 -216 96z"/>
<path d="M26253 2311 c-44 -21 -83 -78 -83 -123 0 -58 49 -102 140 -127 79
-22 115 -44 118 -72 8 -64 -110 -90 -166 -36 -33 32 -52 34 -83 8 l-24 -19 25
-27 c115 -126 361 -56 335 95 -9 55 -55 91 -147 115 -74 19 -108 42 -108 73 0
50 100 71 150 32 29 -23 48 -24 73 -6 23 17 22 28 -5 53 -61 55 -148 68 -225
34z"/>
<path d="M5567 2313 c-4 -3 -7 -106 -7 -229 0 -256 -11 -234 113 -234 204 0
301 79 300 245 0 110 -50 181 -147 210 -50 15 -246 21 -259 8z m255 -90 c49
-29 70 -78 65 -146 -9 -104 -59 -147 -169 -147 l-68 0 0 153 c0 85 3 157 8
161 12 13 132 -2 164 -21z"/>
<path d="M6275 2308 c-3 -8 -4 -112 -3 -233 l3 -220 153 -3 152 -3 11 25 c23
50 10 56 -116 56 l-115 0 0 50 c0 28 0 53 0 58 0 4 44 9 97 12 l98 5 0 35 0
35 -100 5 -100 5 0 55 0 55 115 5 115 5 0 30 0 30 -153 3 c-118 2 -154 0 -157
-10z"/>
<path d="M6894 2307 c-2 -7 -3 -111 -2 -232 l3 -220 143 -1 144 -1 9 25 c18
46 8 51 -108 54 l-108 3 0 105 c0 58 -2 144 -3 193 l-2 87 -35 0 c-20 0 -38
-6 -41 -13z"/>
<path d="M7947 2313 c-4 -3 -7 -107 -7 -229 l0 -224 27 -6 c47 -12 58 4 63
102 l5 89 45 1 c123 2 141 4 147 20 3 9 2 24 -4 33 -11 17 -12 17 -120 20
l-71 1 -4 53 c-6 75 -3 77 123 77 101 0 109 1 109 19 0 50 -3 51 -159 51 -81
0 -151 -3 -154 -7z"/>
<path d="M8530 2148 c0 -199 11 -233 85 -276 61 -35 176 -29 229 12 66 50 77
90 74 273 l-3 158 -34 3 c-20 2 -37 -2 -42 -10 -5 -7 -9 -79 -9 -159 0 -135
-2 -149 -23 -180 -42 -63 -123 -61 -171 4 -19 26 -21 45 -24 188 l-3 159 -40
0 -39 0 0 -172z"/>
<path d="M9224 2309 c-7 -12 4 -438 12 -451 3 -4 73 -6 157 -5 l152 2 0 35 0
35 -115 5 -115 5 -3 58 c-2 41 1 57 10 58 7 0 54 1 103 2 l90 2 0 35 0 35 -93
1 c-51 0 -97 5 -103 11 -6 6 -9 32 -7 59 l3 49 115 5 115 5 0 30 0 30 -157 3
c-110 2 -159 -1 -164 -9z"/>
<path d="M14612 2088 l3 -233 35 0 35 0 5 80 5 80 81 6 c121 9 170 47 180 137
7 64 -17 109 -75 139 -39 20 -59 23 -158 23 l-113 0 2 -232z m240 132 c24 -29
23 -75 -2 -100 -21 -21 -24 -21 -100 -24 l-45 -1 -6 65 c-8 93 -7 93 70 87 51
-4 69 -10 83 -27z"/>
<path d="M16490 2286 l0 -35 68 -3 67 -3 5 -195 5 -195 33 2 c18 0 36 3 38 6
3 3 6 85 8 184 1 99 6 185 10 191 4 7 33 12 72 12 l65 0 -3 33 -3 32 -182 3
-183 2 0 -34z"/>
<path d="M17124 2307 c-2 -7 -3 -111 -2 -232 l3 -220 34 3 c45 3 44 1 47 79 1
38 2 71 3 76 1 4 19 7 41 7 38 0 42 -3 77 -61 64 -103 70 -109 114 -109 44 0
50 13 21 51 -10 13 -32 47 -48 76 l-29 52 31 33 c42 44 54 69 54 116 0 49 -33
101 -80 124 -44 23 -257 26 -266 5z m239 -88 c24 -29 21 -71 -5 -96 -29 -27
-134 -35 -149 -12 -11 17 -12 123 -1 133 16 17 136 -3 155 -25z"/>
<path d="M17762 2088 l3 -233 152 -2 c165 -3 181 2 169 52 -6 25 -7 25 -120
25 l-114 0 -4 56 c-1 31 -1 58 1 60 2 2 48 4 102 4 l97 0 5 27 c9 49 2 53
-103 53 l-98 0 -4 48 c-7 74 -9 72 119 72 l114 0 -3 33 -3 32 -158 3 -157 3 2
-233z"/>
<path d="M22567 2313 c-14 -13 -8 -451 6 -456 14 -5 197 1 244 9 94 15 135
127 72 198 l-31 36 21 26 c24 30 28 95 8 133 -24 47 -70 61 -198 61 -63 0
-119 -3 -122 -7z m235 -90 c23 -20 23 -45 0 -72 -15 -19 -25 -22 -87 -19 l-70
3 -3 43 c-2 24 2 49 8 57 15 18 129 9 152 -12z m-23 -173 c59 -17 77 -60 40
-99 -18 -19 -29 -22 -97 -19 l-76 3 -1 50 c0 28 4 56 9 63 10 14 78 16 125 2z"/>
<path d="M23212 2088 l3 -233 155 0 155 0 3 37 3 37 -118 3 -118 3 -3 57 -3
57 103 3 103 3 3 38 3 37 -105 0 -106 0 0 55 0 55 68 2 c37 1 76 2 87 3 11 1
35 3 53 4 31 1 33 3 30 34 l-3 32 -158 3 -157 3 2 -233z"/>
<path d="M23819 2318 c-6 -21 -4 -438 3 -450 12 -25 192 -26 261 -2 97 33 129
127 67 198 l-31 34 21 34 c42 69 16 151 -55 178 -22 8 -263 15 -266 8z m235
-89 c30 -24 33 -48 8 -78 -15 -19 -25 -22 -87 -19 l-70 3 -3 44 c-5 66 0 71
66 71 45 0 66 -5 86 -21z m22 -190 c19 -16 18 -68 -3 -91 -13 -14 -31 -18 -95
-18 l-78 0 0 59 c0 48 3 61 18 65 28 8 143 -3 158 -15z"/>
<path d="M24464 2307 c-2 -7 -3 -111 -2 -232 l3 -219 32 -3 c23 -2 35 2 40 15
5 9 7 115 5 235 l-3 217 -35 0 c-19 0 -37 -6 -40 -13z"/>
<path d="M24849 2308 c-3 -45 2 -442 6 -448 8 -12 164 -12 219 1 119 26 181
105 181 229 -1 117 -59 197 -162 221 -61 14 -243 11 -244 -3z m255 -86 c65
-37 89 -156 44 -222 -35 -50 -82 -71 -153 -68 l-60 3 -3 145 c-1 79 0 150 3
158 7 20 127 8 169 -16z"/>
<path d="M25663 2308 c-4 -7 -13 -26 -19 -43 -6 -16 -43 -108 -83 -204 -83
-204 -84 -211 -36 -211 33 0 37 4 62 55 l27 55 91 0 c105 0 106 -1 133 -62 19
-44 24 -48 56 -48 29 0 36 4 36 19 0 21 -41 133 -120 325 l-52 126 -43 0 c-24
0 -47 -6 -52 -12z m67 -121 c0 -7 11 -42 25 -77 19 -49 22 -66 13 -72 -18 -11
-111 -3 -116 11 -6 19 50 151 65 151 7 0 13 -6 13 -13z"/>
</g>
</svg>

