<svg xmlns="http://www.w3.org/2000/svg" viewBox="0 0 3344 1882" width="1672" height="941">
  <rect x="0" y="0" width="3344" height="1882" fill="#0a1430"/>
  <g transform="translate(0.000000,1882.000000) scale(0.100000,-0.100000)"
fill="#e2be94" stroke="none">
<path d="M28419 16566 c-206 -79 -553 -513 -684 -856 -115 -302 -109 -566 21
-821 58 -113 131 -199 267 -315 145 -124 157 -129 206 -88 83 69 143 321 112
464 -43 197 -52 242 -57 301 -8 79 14 200 55 306 31 78 109 196 143 214 46 25
111 -67 150 -211 25 -94 31 -298 14 -457 -5 -49 -5 -83 0 -83 5 0 23 -14 41
-30 18 -17 36 -30 41 -30 25 0 52 105 73 282 26 222 -43 489 -172 664 -92 126
-196 94 -319 -97 -120 -187 -169 -320 -177 -481 -6 -116 0 -159 49 -360 37
-155 34 -223 -13 -270 l-29 -29 -31 18 c-85 49 -211 222 -265 364 -27 70 -28
83 -29 239 0 201 13 260 96 444 118 262 381 595 529 672 108 55 228 -13 381
-216 154 -204 250 -432 279 -660 15 -117 8 -195 -30 -314 -15 -50 -31 -106
-35 -123 -4 -18 -12 -33 -18 -33 -7 0 -48 -38 -92 -84 -102 -107 -271 -256
-291 -256 -16 0 -33 36 -41 88 -10 57 -1 73 -168 -308 -123 -280 -158 -412
-159 -605 -1 -185 59 -432 116 -480 38 -32 49 -31 87 4 37 34 37 45 10 131
-59 184 -74 352 -44 516 48 268 142 419 395 631 183 154 219 191 294 303 188
278 179 612 -26 1025 -117 235 -306 458 -445 526 -58 29 -178 36 -234 15z"/>
<path d="M13090 16215 c-333 -49 -642 -170 -951 -373 -74 -49 -149 -105 -167
-126 -18 -20 -47 -43 -65 -51 -17 -8 -75 -50 -127 -95 -373 -320 -469 -388
-785 -560 -293 -159 -298 -162 -480 -275 -732 -453 -1234 -923 -1439 -1347
-54 -112 -70 -172 -70 -263 0 -125 36 -180 219 -330 487 -399 1216 -847 1758
-1079 306 -131 339 -155 549 -400 273 -318 434 -456 675 -575 311 -154 695
-197 1085 -120 394 77 608 248 608 485 0 134 -76 247 -210 311 -105 50 -132
54 -405 63 -264 8 -336 19 -391 55 -33 22 -49 57 -36 81 6 11 8 31 5 46 -5 25
-2 27 41 33 25 4 49 11 51 15 11 18 168 62 176 49 5 -9 23 -7 76 10 163 53
426 207 618 360 110 88 400 380 467 471 82 110 222 243 281 265 65 25 160 17
221 -19 101 -59 169 -167 307 -488 176 -410 315 -587 560 -716 165 -86 285
-115 479 -116 252 -1 352 24 397 101 36 61 29 112 -42 298 -31 83 -95 265
-141 405 -177 529 -234 646 -416 853 -105 119 -105 118 35 210 352 234 675
652 811 1050 96 279 63 543 -80 652 -265 202 -795 58 -1144 -311 -161 -171
-227 -267 -400 -589 -179 -334 -260 -414 -408 -403 -112 8 -151 36 -427 308
-521 513 -836 737 -1330 945 -60 25 -120 57 -132 71 -68 75 13 160 269 283
200 96 328 201 343 282 35 190 -408 213 -795 42 -121 -53 -320 -181 -364 -234
-31 -37 -33 -58 -6 -86 44 -48 73 -39 201 56 228 172 470 258 668 238 162 -17
83 -94 -285 -281 -123 -62 -172 -104 -209 -175 -63 -125 -25 -209 122 -271
219 -92 313 -138 508 -245 80 -44 271 -172 395 -266 157 -119 318 -265 555
-504 248 -250 304 -289 446 -315 121 -22 267 37 367 149 46 50 150 217 231
371 217 407 431 644 706 783 280 140 559 128 652 -30 27 -46 28 -53 27 -173
-2 -148 -25 -232 -123 -434 -197 -411 -547 -768 -884 -901 -70 -28 -97 -54
-97 -91 0 -40 11 -53 93 -108 218 -145 339 -340 487 -786 45 -135 113 -331
151 -437 93 -257 91 -281 -22 -304 -233 -47 -527 31 -715 190 -155 131 -229
248 -361 576 -107 262 -158 351 -267 459 -65 65 -140 108 -221 126 -146 33
-335 -52 -429 -195 -20 -30 -45 -60 -54 -67 -10 -7 -75 -76 -144 -153 -374
-416 -681 -633 -1133 -797 -60 -22 -135 -46 -165 -55 -184 -50 -214 -185 -69
-307 100 -85 233 -117 514 -121 158 -3 236 -8 278 -19 149 -40 217 -110 217
-224 0 -130 -154 -247 -415 -312 -355 -90 -751 -56 -1060 90 -85 41 -238 143
-318 213 -75 66 -263 272 -405 443 -145 176 -142 174 -413 282 -96 38 -269
117 -384 175 -381 192 -399 214 -245 292 117 59 280 194 373 308 54 67 149
231 172 297 77 219 88 601 24 865 -58 237 -201 499 -395 722 -111 127 -94 157
168 296 59 32 131 66 160 77 29 12 78 34 108 49 30 16 119 50 198 76 121 40
155 56 215 101 39 29 75 60 79 69 6 10 24 15 58 15 44 0 67 -12 40 -22 -6 -2
-6 -15 -2 -33 10 -34 -12 -33 262 -20 103 4 207 3 278 -4 97 -9 118 -8 143 4
48 25 51 90 6 120 -15 10 -81 17 -215 25 -182 11 -198 10 -280 -9 -48 -11
-121 -23 -162 -26 -41 -3 -103 -8 -137 -11 -35 -2 -63 -1 -63 4 0 4 28 27 61
51 34 24 85 65 115 91 65 60 89 73 115 65 28 -9 55 17 86 82 25 55 59 84 156
133 26 14 47 28 47 32 0 3 9 4 20 1 14 -4 20 0 20 11 0 10 5 13 17 9 12 -5 15
-2 11 9 -5 11 -1 14 18 10 25 -4 34 12 12 21 -8 3 -6 6 5 6 9 1 17 5 17 10 0
5 16 15 35 22 19 7 35 17 35 21 0 4 7 8 15 8 8 0 15 5 15 10 0 6 5 10 11 10 6
0 29 13 52 28 23 16 78 46 122 67 44 20 87 41 95 46 277 163 833 207 1100 87
267 -121 196 -438 -147 -656 -139 -87 -159 -116 -113 -162 31 -31 76 -25 152
19 187 109 344 278 395 424 29 84 25 236 -8 308 -49 103 -177 201 -319 243
-148 44 -410 58 -590 31z m-2614 -1764 c97 -59 260 -270 352 -456 78 -157 113
-274 137 -459 63 -467 -88 -847 -422 -1069 -150 -99 -275 -152 -336 -143 -84
14 -275 132 -700 434 -73 52 -290 237 -312 266 -38 52 -49 99 -35 159 78 328
525 818 1095 1202 138 92 165 100 221 66z"/>
<path d="M10045 13837 c-180 -60 -293 -200 -303 -376 -10 -182 73 -320 244
-402 64 -31 76 -33 169 -34 95 0 104 2 177 37 274 130 330 472 111 679 -80 75
-147 103 -263 106 -59 2 -110 -2 -135 -10z m195 -143 c106 -31 190 -149 190
-265 0 -96 -74 -204 -167 -245 -58 -26 -167 -23 -222 6 -193 98 -212 361 -35
471 78 48 149 58 234 33z"/>
<path d="M4335 15774 c-228 -14 -571 -61 -705 -98 -30 -8 -90 -24 -132 -35
-165 -45 -312 -103 -526 -207 -211 -104 -373 -211 -523 -348 -248 -225 -373
-432 -449 -746 -29 -117 -35 -360 -21 -775 6 -181 13 -550 16 -820 6 -499 16
-696 41 -819 108 -523 558 -929 1306 -1179 332 -112 832 -182 1158 -162 173
10 343 26 381 36 82 21 94 125 18 152 -9 3 -45 -1 -80 -8 -313 -64 -875 -32
-1254 70 -244 67 -509 173 -687 277 -414 242 -628 507 -702 873 -23 117 -26
179 -37 800 -5 330 -12 713 -15 850 -7 305 2 349 56 267 153 -231 363 -408
670 -562 613 -308 1512 -395 2225 -215 238 60 491 170 645 280 41 30 105 70
142 90 71 37 97 61 238 214 157 172 279 372 311 511 16 72 16 230 -1 300 -136
569 -1090 955 -2100 851 -775 -81 -1364 -392 -1560 -826 -46 -101 -58 -246
-28 -360 30 -118 155 -293 280 -392 218 -174 544 -304 853 -343 559 -68 1087
15 1470 233 259 146 380 260 470 437 191 377 -152 745 -805 862 -138 24 -466
29 -622 9 -485 -62 -880 -255 -987 -481 -36 -75 -46 -127 -32 -163 30 -77 161
-34 161 52 0 25 48 111 80 142 46 45 149 110 245 155 352 164 855 205 1282
104 247 -58 477 -205 545 -347 34 -71 32 -178 -5 -257 -135 -291 -593 -535
-1135 -606 -114 -15 -479 -16 -582 -1 -353 50 -615 147 -810 299 -148 116
-236 246 -261 383 -52 291 292 638 801 807 716 237 1491 206 2125 -85 190 -88
382 -281 445 -448 57 -152 32 -324 -72 -498 -71 -120 -131 -189 -294 -343
l-139 -131 -185 -95 c-339 -173 -516 -228 -880 -274 -277 -35 -719 -19 -1025
37 -752 137 -1310 514 -1431 964 -71 263 115 612 465 873 401 299 943 484
1571 537 287 24 498 17 886 -29 814 -97 1484 -498 1646 -986 28 -86 31 -107
32 -225 1 -150 -12 -210 -74 -342 -80 -171 -334 -449 -574 -629 -143 -107
-173 -122 -163 -81 3 12 15 62 28 110 23 94 18 137 -17 137 -20 0 -116 -99
-111 -114 2 -6 -2 -25 -10 -43 -17 -42 -16 -53 2 -53 9 0 15 9 15 24 0 14 5
28 10 31 16 10 24 -23 10 -40 -7 -9 -10 -18 -7 -21 11 -11 39 6 44 26 5 20 23
28 23 11 0 -21 -13 -41 -26 -41 -8 0 -14 -4 -14 -10 0 -5 -7 -10 -15 -10 -8 0
-15 -5 -15 -11 0 -6 10 -9 23 -7 12 2 27 -3 33 -11 9 -12 0 -26 -45 -72 -60
-60 -170 -217 -215 -306 -82 -164 -96 -254 -103 -668 -6 -356 5 -576 34 -678
29 -103 118 -177 214 -177 114 0 446 203 598 366 157 168 169 234 173 944 2
400 0 413 -68 445 -34 16 -36 16 -84 -12 -54 -30 -228 -197 -250 -239 -11 -20
-12 -29 -2 -44 15 -24 16 -52 2 -30 -9 13 -12 13 -21 -2 -5 -10 -18 -18 -29
-18 -10 0 -31 -15 -46 -32 -73 -88 -115 -255 -117 -476 l-2 -144 28 -24 c35
-30 49 -30 84 0 28 24 28 24 35 188 9 247 48 357 174 498 91 102 109 113 136
80 20 -25 21 -31 14 -386 -8 -399 -15 -456 -68 -556 -41 -77 -105 -142 -232
-238 -235 -176 -350 -193 -395 -60 -33 96 -40 745 -10 954 22 165 91 310 213
453 17 20 215 193 271 238 172 135 375 333 475 464 36 47 70 86 77 88 6 3 19
-9 27 -26 14 -26 16 -128 16 -868 0 -501 -4 -866 -10 -908 -39 -273 -139 -453
-353 -633 -215 -181 -551 -360 -911 -484 -57 -19 -86 -50 -86 -91 0 -90 88
-81 360 36 281 121 480 236 690 396 290 222 424 467 451 826 6 78 8 564 6
1210 -3 1172 0 1106 -58 1285 -169 527 -748 937 -1543 1094 -223 45 -228 45
-386 62 -131 14 -564 25 -685 18z"/>
<path d="M20615 15440 c-471 -49 -908 -262 -1124 -549 -128 -171 -185 -270
-411 -716 -386 -760 -549 -999 -1005 -1465 -212 -217 -252 -271 -262 -363 -15
-128 93 -241 263 -277 268 -56 795 -5 1085 105 415 158 752 460 1022 914 122
206 172 302 350 676 201 420 308 605 516 885 46 63 104 141 127 173 96 130
134 220 134 322 -1 140 -94 240 -262 280 -79 19 -314 27 -433 15z m325 -151
c120 -14 185 -46 210 -101 11 -24 20 -52 20 -63 -1 -57 -121 -265 -205 -355
-66 -71 -196 -256 -243 -348 -12 -24 -40 -67 -61 -95 -34 -46 -267 -503 -403
-792 -292 -618 -650 -1010 -1103 -1205 -338 -147 -1023 -185 -1153 -65 -41 37
-46 78 -17 136 9 19 99 117 200 219 461 466 636 720 1032 1500 77 151 154 298
170 325 17 28 56 96 87 152 147 264 398 478 693 589 235 89 551 131 773 103z"/>
<path d="M20431 14994 c-82 -15 -296 -87 -351 -118 -131 -75 -303 -260 -303
-326 0 -49 58 -83 107 -64 9 3 31 31 50 63 38 62 80 104 171 173 73 56 88 64
167 87 188 57 252 46 197 -34 -11 -16 -29 -47 -40 -68 l-20 -37 40 -41 c24
-26 45 -39 54 -36 8 3 47 52 86 109 40 57 87 125 106 152 43 59 44 89 6 127
-28 28 -33 29 -113 28 -46 -1 -116 -7 -157 -15z"/>
<path d="M20276 14458 c-29 -51 -141 -302 -181 -407 -87 -231 -240 -354 -587
-472 -289 -98 -422 -196 -551 -403 -34 -55 -65 -108 -69 -118 -13 -32 -64
-100 -113 -153 -26 -27 -68 -75 -93 -105 -25 -30 -74 -84 -108 -120 -104 -107
-116 -178 -39 -214 80 -38 340 -2 500 69 28 13 71 32 98 43 72 32 192 119 272
197 79 77 144 183 123 197 -8 5 -3 6 12 3 45 -11 150 114 150 178 0 64 -71 93
-127 51 -32 -24 -103 -141 -103 -170 0 -23 -14 -38 -140 -152 -174 -158 -280
-225 -396 -253 -88 -21 -185 -22 -191 -3 -2 7 21 43 51 80 101 125 125 184
100 248 -4 10 -1 16 9 16 8 0 18 6 21 13 3 8 9 7 20 -7 14 -17 17 -16 64 30
27 27 73 81 102 119 85 113 107 133 162 144 26 6 76 22 109 36 33 14 89 29
124 32 60 5 65 8 75 36 5 16 10 38 10 48 0 12 15 23 48 35 26 9 101 43 167 75
260 126 355 247 510 654 32 83 64 162 71 177 24 47 18 80 -20 111 -46 36 -51
35 -80 -15z"/>
<path d="M19712 14342 c-27 -14 -47 -41 -99 -142 -36 -69 -80 -151 -99 -183
-40 -69 -44 -117 -12 -147 64 -59 143 29 279 315 54 112 54 126 7 159 -28 20
-35 20 -76 -2z"/>
<path d="M26585 15420 c-90 -12 -176 -28 -245 -47 -156 -43 -196 -100 -206
-293 -14 -242 72 -500 217 -655 136 -145 272 -204 531 -229 188 -19 272 -35
406 -80 108 -37 121 -44 180 -97 20 -19 53 -45 72 -59 247 -171 495 -524 609
-867 82 -246 74 -251 -369 -218 -107 7 -357 32 -555 54 -665 74 -929 85 -1195
46 -260 -37 -342 -86 -371 -223 -47 -229 117 -722 369 -1108 281 -428 622
-702 1041 -834 143 -45 170 -65 190 -140 32 -117 114 -149 516 -200 632 -79
1558 -48 1976 66 87 24 139 86 139 167 0 47 28 68 140 106 114 39 215 91 375
194 235 152 421 328 599 570 262 355 449 854 434 1156 -10 194 -80 251 -353
286 -214 28 -314 21 -1280 -91 -263 -30 -526 -54 -636 -56 -166 -4 -186 19
-135 154 78 207 149 273 401 368 117 44 207 103 307 203 197 195 276 437 142
437 -33 0 -69 -35 -84 -82 -8 -24 -27 -68 -42 -98 -16 -30 -34 -76 -39 -102
-8 -34 -16 -48 -27 -48 -9 0 -42 -19 -72 -42 -58 -44 -182 -123 -265 -169 -27
-15 -74 -31 -102 -35 -49 -6 -53 -5 -53 14 0 129 278 581 389 633 25 12 57 29
71 39 14 10 68 39 120 65 137 68 170 104 170 185 0 48 -42 100 -80 100 -25 0
-77 -50 -102 -97 -15 -29 -54 -58 -205 -152 -201 -125 -399 -390 -418 -558 -6
-51 -13 -68 -38 -96 -19 -19 -42 -63 -56 -103 -32 -93 -156 -424 -188 -502
-46 -112 -89 -132 -291 -132 -189 0 -188 -1 -262 225 -126 384 -277 628 -559
900 -111 107 -129 121 -233 189 -56 36 -96 70 -112 94 -74 117 -206 272 -232
272 -8 0 -14 -10 -14 -24 0 -16 -7 -27 -20 -31 -30 -9 -25 -35 20 -104 22 -34
38 -66 35 -70 -2 -5 -37 -2 -77 5 -40 8 -113 19 -163 24 -381 46 -546 171
-641 487 -36 118 -40 289 -9 342 44 74 208 117 413 109 325 -14 518 -179 691
-593 56 -132 90 -183 199 -296 119 -124 326 -269 382 -269 29 0 54 22 65 58 9
32 -27 86 -73 107 -102 49 -234 159 -315 265 -27 36 -87 143 -134 238 -92 190
-131 256 -206 349 -170 211 -466 328 -742 293z m4526 -2564 c128 -23 171 -59
184 -155 7 -49 -15 -200 -39 -275 -8 -22 -31 -95 -52 -161 -89 -282 -297 -615
-538 -864 -223 -229 -486 -395 -777 -490 -150 -49 -164 -61 -165 -141 -2 -66
-5 -75 -42 -94 -86 -44 -498 -89 -942 -102 -294 -9 -801 22 -1090 66 -175 26
-225 45 -225 86 0 18 11 19 195 20 274 1 440 27 522 80 91 58 121 177 148 594
37 578 18 773 -87 890 -100 111 -152 125 -683 175 -832 80 -1210 104 -1259 81
-14 -6 -34 -26 -44 -44 -20 -33 -20 -34 0 -60 11 -15 38 -34 61 -42 53 -20 54
-21 46 -69 -6 -40 -8 -41 -44 -41 -55 0 -85 -28 -84 -77 3 -93 136 -333 252
-452 39 -41 72 -80 72 -88 0 -7 3 -13 8 -13 4 0 13 -13 20 -29 19 -42 228
-243 308 -294 81 -53 146 -84 270 -131 125 -48 204 -60 389 -61 226 0 275 20
329 134 l31 66 0 205 c0 231 -11 287 -69 363 -47 62 -108 95 -206 112 -111 19
-478 54 -655 61 l-140 7 -27 -28 c-59 -59 -12 -178 127 -322 66 -68 99 -77
137 -34 37 41 35 56 -8 94 -19 18 -44 46 -55 64 -40 65 -5 75 210 63 411 -23
499 -60 535 -219 20 -89 21 -241 1 -308 -25 -82 -64 -109 -171 -118 -255 -22
-519 70 -732 255 -224 194 -453 529 -469 685 -5 51 -5 52 41 92 50 44 55 53
29 54 -10 0 5 7 32 15 75 21 209 14 710 -37 110 -11 297 -29 415 -39 528 -46
565 -79 588 -520 8 -144 4 -237 -17 -380 -6 -41 -15 -120 -21 -175 -20 -178
-37 -241 -78 -284 -45 -48 -73 -55 -266 -77 -359 -40 -731 39 -1024 218 -316
193 -569 485 -764 883 -135 276 -195 485 -182 641 11 136 28 148 283 184 178
26 471 24 741 -4 1423 -149 1980 -153 3165 -20 239 26 573 61 645 67 119 9
391 5 461 -7z"/>
<path d="M30410 12565 c-74 -7 -245 -25 -380 -39 -135 -14 -416 -42 -625 -61
-209 -19 -409 -42 -444 -50 -227 -54 -329 -224 -406 -675 -95 -557 -37 -744
253 -817 110 -28 425 -25 562 5 237 53 450 143 660 279 47 31 87 58 90 62 3 4
46 38 95 76 275 211 578 607 675 881 63 178 47 283 -50 332 -52 26 -197 29
-430 7z m324 -164 c34 -32 34 -79 0 -168 -14 -37 -31 -88 -38 -113 -19 -66
-38 -98 -98 -165 -30 -33 -97 -112 -150 -175 -268 -322 -572 -542 -897 -650
-195 -65 -260 -75 -481 -74 -221 0 -284 15 -346 80 -88 92 -79 395 23 779 38
143 68 206 122 261 92 92 142 104 686 154 237 22 464 44 505 49 41 5 127 15
190 21 63 6 144 15 180 20 36 5 113 8 172 7 98 -2 109 -4 132 -26z"/>
<path d="M30299 12125 c-3 -2 -43 -9 -89 -14 -201 -23 -360 -40 -430 -46 -146
-12 -422 -45 -468 -57 -146 -35 -236 -132 -282 -303 -52 -194 4 -311 161 -336
149 -24 426 38 506 113 66 62 -26 156 -102 105 -36 -24 -128 -57 -205 -73 -99
-20 -164 -12 -203 28 -27 27 -29 33 -23 80 4 29 19 76 34 106 59 122 123 143
582 193 185 20 474 34 490 24 5 -3 4 -16 -2 -30 -6 -14 -8 -28 -5 -32 10 -9
48 29 43 43 -3 7 13 24 34 38 72 47 86 126 29 156 -18 10 -62 13 -70 5z"/>
<path d="M29979 11751 c-16 -16 -29 -34 -29 -39 0 -19 42 -62 62 -62 25 0 88
62 88 87 0 51 -75 60 -121 14z"/>
<path d="M27285 11679 c-29 -17 -35 -29 -35 -70 0 -43 19 -62 79 -84 61 -21
85 -19 120 11 39 33 42 80 7 120 -20 24 -32 28 -87 31 -38 2 -72 -1 -84 -8z"/>
<path d="M29787 15156 c-102 -43 -168 -96 -432 -348 -482 -461 -562 -566 -630
-828 -42 -164 -26 -470 27 -528 33 -35 86 -28 111 15 18 32 18 36 2 135 -50
294 31 524 278 791 90 96 479 469 572 547 135 113 227 105 324 -27 148 -201
214 -426 215 -728 1 -202 -13 -297 -65 -432 -104 -269 -364 -482 -647 -530
-95 -15 -132 -40 -132 -89 0 -48 34 -67 109 -61 203 15 476 159 651 343 130
137 285 314 288 329 6 28 -30 93 -56 100 -21 5 -24 10 -19 43 49 346 20 633
-92 882 -148 333 -320 464 -504 386z"/>
<path d="M22620 14945 c-691 -87 -1151 -380 -1484 -948 -96 -163 -246 -458
-246 -482 0 -35 26 -55 70 -55 53 0 68 20 190 257 125 243 247 430 339 520
246 244 285 275 456 360 279 140 593 213 915 213 151 0 232 -12 297 -42 85
-40 107 -130 54 -223 -36 -64 -158 -199 -236 -261 -33 -27 -138 -118 -233
-204 -95 -85 -195 -173 -221 -195 -51 -42 -200 -207 -279 -310 -50 -65 -197
-241 -222 -265 -8 -8 -21 -27 -29 -42 -8 -16 -18 -28 -23 -28 -4 0 -8 -7 -8
-15 0 -8 -6 -16 -12 -16 -7 -1 -20 -2 -28 -3 -8 0 -16 -10 -18 -21 -3 -11 -9
-23 -16 -27 -8 -6 -7 -11 3 -17 25 -16 9 -52 -259 -591 -188 -377 -370 -608
-635 -805 -313 -232 -809 -376 -1294 -375 -290 1 -381 32 -381 130 0 46 24 83
103 159 50 49 66 72 71 100 7 43 40 67 79 57 56 -14 185 64 414 248 281 228
636 637 758 876 33 64 163 182 250 227 293 151 368 119 343 -146 -18 -182 -75
-356 -174 -529 -30 -52 -54 -96 -54 -98 0 -17 -92 -123 -176 -204 -143 -138
-275 -233 -289 -210 -10 17 -13 153 -4 178 5 12 30 48 56 80 27 31 64 82 83
112 19 30 42 62 50 70 8 8 33 38 55 65 21 28 61 73 87 102 56 60 61 91 22 129
-47 48 -82 27 -187 -116 -96 -129 -249 -320 -257 -320 -4 0 -25 -17 -48 -38
-50 -46 -56 -86 -18 -121 26 -24 54 -29 99 -17 34 10 29 -14 -9 -39 -30 -19
-35 -88 -7 -104 26 -14 5 -33 -92 -80 -129 -63 -290 -107 -436 -121 -68 -7
-135 -17 -148 -23 -33 -16 -64 -71 -56 -97 8 -25 54 -50 94 -50 45 0 325 57
417 85 95 29 315 135 411 199 316 209 585 558 677 880 48 165 74 478 46 551
-30 78 -105 120 -200 112 -92 -8 -153 -30 -340 -124 -188 -94 -226 -122 -273
-201 -213 -359 -432 -631 -662 -822 -17 -14 -57 -48 -90 -76 -79 -67 -240
-187 -340 -254 -317 -212 -409 -313 -407 -448 1 -71 11 -99 53 -147 80 -91
197 -120 489 -119 472 2 940 126 1276 340 347 221 537 455 814 1004 237 472
307 594 442 776 37 50 84 116 105 147 21 31 101 116 178 189 77 72 183 172
235 222 52 50 145 134 205 187 187 164 347 336 384 411 99 201 16 369 -215
433 -83 23 -364 29 -514 10z"/>
<path d="M26662 14940 c-51 -48 -21 -103 97 -182 42 -28 109 -78 149 -110 40
-32 81 -58 91 -58 20 0 51 30 51 49 0 8 7 10 20 6 31 -10 25 14 -18 70 -75 99
-277 245 -338 245 -17 0 -40 -9 -52 -20z"/>
<path d="M30910 14921 c-116 -38 -180 -125 -180 -246 0 -75 15 -117 58 -166
121 -138 346 -96 419 78 19 47 14 164 -10 209 -21 41 -72 89 -115 110 -40 19
-135 27 -172 15z m140 -160 c83 -82 25 -210 -90 -198 -143 16 -130 227 15 227
38 0 52 -5 75 -29z"/>
<path d="M11985 14859 c-318 -38 -722 -252 -795 -421 -31 -71 -22 -129 39
-276 135 -321 191 -559 207 -867 18 -361 -56 -643 -241 -918 -109 -162 -113
-170 -114 -215 -2 -99 61 -151 279 -227 233 -81 417 -109 710 -109 325 1 526
41 835 169 400 166 766 468 944 780 113 198 130 354 57 530 -51 123 -117 226
-166 260 -22 15 -40 36 -40 45 0 26 -79 129 -136 178 -40 34 -54 41 -76 36
-24 -5 -28 -2 -28 16 0 17 -4 20 -22 15 -17 -4 -19 -4 -9 3 37 26 -51 120
-189 202 -30 18 -68 46 -85 61 -113 103 -457 259 -673 305 -277 58 -590 -10
-699 -153 -45 -59 -43 -126 12 -397 74 -365 99 -696 76 -1016 -31 -422 -28
-456 44 -519 48 -42 91 -52 235 -58 404 -16 820 145 1091 423 223 229 265 401
156 636 -124 268 -574 584 -909 638 -94 15 -138 8 -183 -31 -58 -51 -60 -69
-57 -424 4 -491 22 -660 78 -720 79 -85 349 -30 518 104 139 111 178 222 120
338 -45 92 -208 223 -277 223 -68 0 -107 -62 -107 -170 0 -62 3 -74 25 -95 13
-14 30 -25 38 -25 18 0 57 42 57 61 0 8 6 24 14 34 13 18 15 18 50 -8 63 -49
83 -116 51 -177 -43 -83 -236 -179 -325 -161 -77 15 -89 76 -97 498 -7 338 -4
361 45 387 79 41 393 -86 558 -226 119 -100 169 -152 214 -218 77 -114 84
-135 85 -245 l0 -100 -44 -74 c-85 -144 -302 -322 -491 -403 -182 -78 -412
-125 -570 -116 -108 7 -145 24 -171 84 -19 42 -19 53 -8 257 20 359 0 771 -51
1032 -55 287 -56 338 -6 393 98 109 388 128 653 43 174 -56 433 -195 573 -308
46 -37 112 -89 146 -115 33 -25 101 -91 149 -145 48 -54 103 -113 121 -132 19
-18 59 -75 90 -127 155 -260 144 -429 -44 -683 -184 -250 -544 -517 -842 -624
-285 -103 -446 -131 -745 -131 -267 0 -444 25 -635 91 -94 32 -119 49 -136 89
-18 42 -8 72 51 164 60 94 146 271 179 372 62 186 87 433 67 677 -24 295 -65
467 -200 825 -23 60 -41 122 -41 138 0 78 86 163 250 247 270 139 576 180 876
116 38 -8 80 -15 94 -15 14 0 64 -15 110 -34 118 -48 153 -53 185 -28 14 11
39 24 55 27 79 17 -18 76 -248 149 -214 69 -453 92 -677 65z"/>
<path d="M11018 14758 c-73 -42 -78 -119 -12 -156 51 -27 76 -21 122 32 47 53
51 81 16 117 -34 35 -73 38 -126 7z"/>
<path d="M16218 14730 c-135 -23 -292 -110 -400 -222 -105 -109 -248 -322
-248 -370 0 -29 37 -58 73 -58 41 0 60 19 121 126 90 159 212 277 352 341 97
44 130 7 88 -102 -9 -22 -24 -67 -35 -100 -25 -77 -43 -111 -89 -160 -21 -22
-62 -74 -92 -115 -104 -142 -234 -234 -592 -418 -154 -80 -306 -158 -336 -173
-81 -42 -161 -60 -288 -66 -105 -5 -114 -7 -132 -31 -26 -32 -25 -55 3 -85 19
-21 36 -27 122 -36 146 -16 276 -71 420 -178 181 -134 300 -310 400 -588 87
-243 185 -408 290 -487 59 -45 103 -50 135 -16 36 39 26 63 -64 151 -86 84
-138 170 -193 317 -12 30 -35 93 -53 140 -93 249 -237 461 -345 509 -47 21
-225 189 -225 212 0 35 40 59 345 212 449 225 648 416 835 802 89 183 110 300
64 354 -21 25 -83 55 -104 50 -3 -1 -26 -5 -52 -9z"/>
<path d="M4450 14614 c-14 -2 -56 -9 -95 -15 -105 -17 -219 -54 -322 -104
-108 -53 -136 -84 -131 -147 3 -44 5 -46 141 -149 38 -29 34 -43 -28 -105 -50
-48 -60 -54 -99 -54 -73 0 -215 53 -298 111 -77 55 -174 -15 -123 -88 34 -48
234 -140 360 -167 68 -14 109 -10 157 15 35 18 244 240 253 268 9 30 -19 72
-76 111 -66 45 -73 54 -60 79 29 53 295 106 486 98 235 -11 415 -82 364 -143
-7 -9 -85 -52 -174 -96 -204 -102 -437 -240 -464 -274 -26 -34 -27 -68 -1 -94
35 -35 74 -26 184 43 166 105 192 119 417 229 255 125 295 161 275 245 -19 72
-176 156 -401 213 -77 19 -305 35 -365 24z"/>
<path d="M12974 14610 c-12 -5 -25 -13 -29 -19 -3 -6 -15 -11 -26 -11 -51 0
18 -54 203 -159 117 -66 327 -213 423 -295 33 -28 89 -75 125 -104 36 -28 93
-84 127 -124 34 -40 93 -109 131 -154 112 -132 215 -319 257 -469 18 -65 52
-105 89 -105 27 0 61 35 70 71 17 73 -139 393 -256 526 -19 21 -50 61 -68 88
-37 53 -240 260 -355 361 -105 91 -214 171 -369 268 -206 130 -260 151 -322
126z"/>
<path d="M22610 14563 c-290 -47 -548 -146 -718 -274 -164 -124 -320 -331
-367 -484 -50 -165 43 -257 237 -235 159 18 260 80 464 284 72 72 155 151 184
176 103 86 114 144 43 218 -7 7 -13 20 -13 28 0 8 -12 27 -26 41 -23 23 -24
27 -11 41 19 19 93 38 237 62 98 17 118 23 138 45 66 77 -13 123 -168 98z
m-300 -300 c17 -26 30 -53 30 -60 0 -7 -23 -49 -51 -93 -53 -83 -70 -149 -47
-177 14 -17 -25 -18 -51 -1 -17 10 -30 4 -98 -48 -111 -86 -208 -141 -284
-161 -63 -16 -68 -16 -93 0 -22 15 -26 25 -26 63 0 106 113 262 280 388 36 27
82 65 103 85 37 35 74 46 170 50 34 1 40 -3 67 -46z"/>
<path d="M25714 14321 c-133 -61 -119 -252 21 -291 113 -32 202 41 193 159 -5
69 -35 113 -90 136 -50 19 -74 19 -124 -4z"/>
<path d="M30957 14159 c-141 -21 -301 -89 -396 -169 -58 -49 -70 -78 -47 -112
9 -12 16 -30 16 -40 0 -28 17 -22 114 41 172 111 340 155 508 133 154 -19 193
-60 192 -202 -1 -150 -52 -277 -151 -376 -82 -82 -85 -131 -9 -158 49 -17 171
98 230 219 49 98 67 172 73 301 7 144 -6 203 -59 260 -82 89 -276 132 -471
103z"/>
<path d="M26420 13909 c-275 -39 -592 -132 -713 -209 -145 -92 -133 -321 23
-435 74 -54 128 -44 145 28 7 25 1 34 -43 75 -59 55 -72 78 -72 126 0 77 96
136 255 158 50 6 101 21 136 38 153 78 551 104 766 51 156 -39 330 -130 456
-238 67 -58 137 -137 137 -156 0 -9 -75 -2 -106 10 -9 3 -14 -2 -14 -17 0 -16
-11 -26 -40 -38 -22 -9 -38 -21 -37 -27 2 -5 71 -44 153 -85 82 -41 170 -90
196 -107 56 -39 90 -42 123 -8 34 34 32 55 -19 148 -160 293 -391 507 -669
618 -136 55 -222 70 -422 74 -104 2 -219 0 -255 -6z"/>
<path d="M23630 13761 c-539 -58 -932 -300 -1171 -723 -29 -51 -121 -230 -204
-398 -203 -406 -361 -674 -477 -806 -24 -27 -64 -74 -90 -104 -123 -145 -283
-295 -441 -414 -144 -108 -192 -161 -213 -234 -70 -239 196 -343 716 -281 375
45 663 142 893 303 161 112 185 131 246 186 253 228 477 555 750 1095 158 314
236 446 429 725 51 74 109 167 128 207 100 206 24 368 -199 429 -63 18 -265
25 -367 15z m315 -155 c119 -25 164 -73 151 -159 -11 -64 -29 -95 -194 -326
-90 -125 -208 -319 -236 -386 -9 -22 -30 -60 -45 -85 -16 -25 -93 -166 -171
-315 -79 -148 -168 -310 -199 -358 -31 -49 -73 -117 -95 -150 -88 -141 -440
-537 -477 -537 -5 0 -51 -28 -102 -62 -289 -194 -646 -291 -1082 -292 -210 -1
-261 8 -294 51 -27 33 -26 62 2 103 26 39 176 172 262 232 88 61 370 347 456
463 166 221 230 331 465 795 206 409 268 510 409 669 30 34 154 133 231 184
50 34 247 110 355 137 184 47 438 64 564 36z"/>
<path d="M23520 13333 c-79 -13 -261 -68 -314 -95 -135 -68 -242 -160 -316
-271 -43 -64 -49 -96 -24 -121 45 -45 94 -26 147 57 41 63 135 147 206 182
111 56 221 83 221 55 0 -4 -18 -43 -40 -86 -22 -44 -55 -122 -74 -174 -66
-184 -159 -351 -241 -434 -96 -98 -233 -179 -365 -215 -182 -51 -340 -164
-449 -324 -60 -87 -75 -167 -32 -167 9 0 23 -6 30 -12 11 -11 25 0 74 57 131
149 166 177 308 247 74 37 170 81 214 99 129 51 232 117 315 199 72 71 80 84
150 235 40 88 82 185 92 215 27 75 144 307 178 350 75 96 87 144 45 185 -24
25 -57 30 -125 18z"/>
<path d="M22746 12679 c-14 -11 -42 -49 -61 -83 -58 -104 -43 -166 42 -166 40
0 41 1 85 78 80 136 78 128 43 166 -30 32 -72 34 -109 5z"/>
<path d="M22644 11753 c-84 -96 -144 -180 -140 -195 2 -9 -2 -25 -10 -35 -13
-17 -13 -17 -14 0 0 18 -10 22 -25 9 -24 -21 -235 -113 -279 -121 -95 -18 -98
2 -17 113 60 84 96 145 88 152 -2 3 -16 0 -31 -5 -21 -9 -26 -8 -26 5 0 31
-54 5 -110 -54 -67 -70 -191 -226 -207 -261 -19 -40 -15 -60 16 -92 25 -24 38
-29 80 -29 139 0 378 80 481 160 19 15 51 35 70 45 44 22 209 189 235 238 19
36 19 37 -1 64 -30 41 -77 43 -110 6z"/>
<path d="M30861 13638 c-124 -117 -162 -150 -241 -212 -88 -69 -109 -93 -110
-123 0 -24 43 -63 69 -63 43 0 219 129 342 250 107 105 131 159 87 200 -38 35
-63 26 -147 -52z"/>
<path d="M26740 13480 c-47 -5 -148 -20 -225 -35 -99 -20 -175 -28 -259 -29
-117 -1 -118 -2 -143 -30 -39 -46 -19 -98 46 -116 66 -18 176 -11 361 25 326
63 375 64 622 17 48 -9 90 -13 94 -9 4 3 0 30 -8 59 -13 48 -18 55 -61 77 -85
42 -241 57 -427 41z"/>
<path d="M31009 13272 c-73 -34 -77 -37 -83 -74 -4 -22 -4 -43 -1 -48 8 -13
97 0 116 16 8 8 20 14 25 14 20 0 53 80 44 106 -12 29 -8 30 -101 -14z"/>
<path d="M2529 13170 c-124 -37 -145 -121 -134 -538 4 -158 9 -373 10 -478 3
-206 10 -237 60 -270 54 -35 114 48 95 128 -16 65 -32 522 -25 698 9 222 38
300 111 300 41 0 300 -98 429 -162 132 -66 187 -140 207 -276 9 -61 9 -190 -1
-548 -13 -489 -10 -577 26 -683 49 -145 163 -243 346 -300 300 -92 791 -108
1037 -33 77 24 143 90 167 168 27 90 27 912 0 991 -38 108 -97 130 -305 114
-154 -11 -203 -26 -256 -77 -57 -55 -69 -101 -74 -291 l-4 -172 31 -31 c35
-36 62 -34 99 6 20 23 22 34 22 157 0 212 28 248 200 255 92 4 96 3 122 -23
39 -39 43 -80 43 -450 -1 -364 -6 -400 -59 -460 -61 -69 -112 -79 -416 -79
-292 -1 -382 10 -553 65 -152 49 -226 113 -265 226 -15 43 -17 105 -14 633 4
611 2 637 -40 727 -56 118 -161 185 -523 328 -187 74 -274 94 -336 75z"/>
<path d="M4780 12765 c-58 -7 -197 -18 -310 -24 -401 -22 -480 -30 -535 -57
-154 -77 -171 -140 -181 -659 -9 -455 2 -530 83 -607 55 -52 98 -59 142 -22
43 36 41 67 -7 113 -67 62 -67 65 -65 456 2 448 12 501 101 562 50 33 115 43
387 58 138 8 311 21 385 30 236 26 294 15 339 -65 38 -67 41 -164 40 -1008
l-1 -803 23 -25 c29 -31 78 -32 105 -3 34 38 28 1775 -7 1889 -18 57 -70 127
-114 152 -50 28 -220 34 -385 13z"/>
<path d="M2825 12545 c-29 -28 -29 -24 -14 -192 9 -96 8 -211 -1 -464 -14
-373 -13 -383 49 -409 34 -14 71 2 89 37 13 25 25 918 13 966 -20 82 -87 112
-136 62z"/>
<path d="M11906 11619 c-46 -36 -37 -76 39 -161 131 -149 291 -276 385 -307
35 -12 73 -30 84 -40 37 -34 101 -61 180 -76 43 -8 82 -18 87 -21 26 -16 133
-35 232 -40 113 -7 317 15 359 37 45 24 47 86 3 115 -22 14 -36 15 -127 4
-262 -31 -456 -2 -677 101 -169 79 -381 246 -381 301 0 30 -42 71 -92 92 -49
21 -60 20 -92 -5z"/>
<path d="M3158 9705 c-49 -33 -68 -93 -44 -142 15 -32 79 -72 137 -86 39 -10
79 -46 79 -71 0 -64 -103 -89 -167 -40 -28 21 -37 23 -49 13 -43 -36 38 -99
128 -99 89 0 148 50 148 126 0 59 -34 97 -111 125 -75 28 -109 54 -109 84 0
50 83 72 140 39 32 -20 60 -13 60 14 0 28 -69 62 -127 62 -35 0 -58 -7 -85
-25z"/>
<path d="M3713 9723 c-22 -8 -18 -319 5 -362 27 -54 61 -73 139 -78 59 -4 72
-2 102 19 71 49 76 62 79 242 4 175 -2 196 -48 181 -19 -6 -20 -14 -20 -166
l0 -161 -29 -29 c-39 -39 -106 -41 -148 -5 l-28 24 -3 164 c-4 173 -8 188 -49
171z"/>
<path d="M4413 9710 c-57 -34 -76 -95 -49 -149 19 -35 45 -52 123 -81 35 -12
68 -29 74 -36 17 -21 14 -62 -6 -84 -31 -34 -134 -23 -158 16 -10 18 -22 18
-41 -2 -25 -24 -19 -37 26 -67 108 -69 258 -9 258 104 0 62 -32 91 -153 135
-60 22 -84 52 -66 86 7 13 17 26 23 30 20 14 87 8 116 -8 32 -20 60 -13 60 14
0 52 -143 81 -207 42z"/>
<path d="M4968 9719 c-16 -9 -18 -30 -18 -213 0 -215 4 -232 47 -224 15 3 19
17 23 98 l5 95 103 3 102 3 2 -48 c4 -81 6 -118 7 -129 2 -18 32 -26 47 -13
22 18 20 424 -2 433 -39 15 -53 -10 -56 -99 -2 -47 -6 -85 -10 -85 -5 0 -51 0
-103 0 l-95 0 0 83 c0 98 -12 120 -52 96z"/>
<path d="M5656 9722 c-2 -4 -6 -102 -7 -217 -1 -221 2 -238 45 -222 15 6 16
29 14 224 -3 215 -3 218 -25 221 -11 2 -24 -1 -27 -6z"/>
<path d="M10425 9714 c-80 -44 -114 -97 -121 -192 -5 -60 -3 -73 23 -121 42
-82 86 -112 170 -118 56 -4 77 -2 109 15 56 29 80 57 64 77 -18 21 -36 19 -74
-10 -48 -36 -122 -35 -167 2 -85 72 -77 225 14 282 50 31 117 28 157 -6 25
-20 36 -24 49 -16 29 18 23 39 -20 69 -52 36 -155 45 -204 18z"/>
<path d="M10997 9723 c-4 -3 -7 -102 -7 -219 0 -184 2 -213 16 -218 35 -14
241 -6 254 9 29 35 6 45 -105 45 l-106 0 3 68 3 67 85 5 c83 5 85 6 85 30 0
24 -2 25 -85 30 l-85 5 0 60 0 60 100 5 c88 4 100 7 103 24 2 10 -2 22 -10 27
-15 10 -242 12 -251 2z"/>
<path d="M11544 9716 c-3 -8 10 -59 29 -113 19 -54 49 -143 67 -198 40 -121
44 -127 89 -123 l35 3 68 200 c73 214 77 232 52 242 -27 10 -43 -19 -98 -182
-29 -87 -57 -160 -62 -162 -5 -1 -34 72 -64 164 -46 137 -59 167 -78 174 -30
12 -32 12 -38 -5z"/>
<path d="M12217 9724 c-4 -4 -7 -101 -7 -215 0 -202 1 -209 21 -220 13 -6 25
-7 30 -2 5 5 8 104 7 224 -3 207 -4 214 -23 217 -12 2 -24 0 -28 -4z"/>
<path d="M12710 9717 c-40 -19 -64 -39 -95 -81 -28 -37 -30 -46 -30 -126 0
-79 3 -91 30 -136 66 -105 210 -129 302 -49 33 28 36 34 24 49 -19 22 -38 20
-73 -9 -58 -49 -160 -26 -202 46 -42 72 -11 210 56 245 53 27 141 12 169 -29
9 -13 38 -1 45 18 22 55 -147 109 -226 72z"/>
<path d="M13272 9722 c-9 -7 -12 -58 -10 -223 l3 -214 25 0 c25 0 25 2 30 95
l5 95 102 3 c119 3 117 5 111 -110 -3 -75 10 -99 46 -85 24 10 24 434 0 444
-36 14 -49 -10 -49 -93 -1 -43 -3 -83 -7 -89 -4 -6 -47 -9 -107 -7 l-100 3 -3
92 c-3 94 -12 111 -46 89z"/>
<path d="M13945 9721 c-3 -2 -5 -100 -5 -217 0 -164 3 -213 13 -217 22 -8 250
2 260 12 5 5 7 17 4 25 -5 13 -25 16 -107 16 -55 0 -100 3 -100 8 -1 4 -3 30
-5 58 -2 27 0 55 4 62 4 6 41 12 91 14 83 3 85 4 85 28 0 25 -2 25 -87 28 -99
3 -103 7 -96 88 l3 39 103 3 103 3 -3 27 -3 26 -128 1 c-70 1 -130 -1 -132 -4z"/>
<path d="M14569 9707 c-102 -69 -70 -181 65 -223 92 -29 121 -76 78 -126 -22
-26 -101 -24 -136 3 -29 23 -54 22 -70 -3 -8 -14 -6 -21 9 -33 87 -70 225 -56
267 26 44 85 3 153 -112 188 -85 26 -109 53 -88 98 17 36 85 44 135 18 66 -36
90 16 24 53 -53 30 -127 30 -172 -1z"/>
<path d="M18789 9719 c-6 -3 -9 -15 -7 -25 2 -15 15 -20 63 -24 l60 -5 3 -181
c2 -150 5 -184 18 -195 11 -9 20 -10 32 -2 15 9 18 37 22 194 l5 184 62 3 c65
3 86 20 61 49 -9 12 -40 14 -160 12 -82 -2 -153 -6 -159 -10z"/>
<path d="M19407 9723 c-11 -11 -8 -431 3 -438 6 -3 19 -3 30 0 19 6 20 15 20
220 0 185 -2 214 -16 219 -20 8 -29 8 -37 -1z"/>
<path d="M19803 9723 c-10 -4 -13 -55 -13 -213 0 -219 4 -237 47 -228 15 3 19
17 23 88 l5 85 36 3 c36 3 37 2 85 -80 58 -101 69 -110 102 -89 11 7 6 23 -24
77 -20 38 -42 75 -48 83 -8 10 -4 18 17 33 76 55 75 183 -1 221 -26 14 -205
29 -229 20z m199 -81 c29 -29 28 -80 -1 -104 -17 -13 -40 -18 -82 -18 l-59 0
0 68 c0 38 3 72 8 76 15 16 113 0 134 -22z"/>
<path d="M20507 9709 c-9 -13 -27 -58 -41 -99 -14 -41 -43 -124 -66 -184 -45
-121 -48 -146 -22 -146 29 0 44 16 62 66 l16 49 87 3 c87 3 87 3 98 -25 34
-87 39 -93 64 -93 33 0 33 24 -1 115 -14 39 -46 126 -71 195 -53 147 -42 128
-80 136 -26 5 -34 2 -46 -17z m78 -168 c14 -39 23 -76 20 -81 -7 -12 -94 -13
-112 -2 -10 6 7 75 43 172 7 20 15 5 49 -89z"/>
<path d="M21021 9717 c-13 -13 -16 -404 -2 -426 7 -11 29 -13 103 -8 109 6
141 17 186 60 100 96 79 298 -36 356 -46 23 -232 37 -251 18z m192 -56 c67
-26 108 -122 87 -201 -24 -87 -68 -120 -164 -120 l-56 0 0 165 0 165 54 0 c30
0 66 -4 79 -9z"/>
<path d="M21675 9718 c-3 -7 -4 -108 -3 -223 l3 -210 25 0 25 0 0 220 0 220
-23 3 c-12 2 -24 -3 -27 -10z"/>
<path d="M22022 9721 c-8 -5 -12 -17 -10 -27 3 -16 15 -20 68 -24 l65 -5 5
-190 5 -190 25 0 25 0 5 190 5 190 63 3 c57 3 62 5 62 26 0 20 -6 24 -46 30
-68 9 -257 7 -272 -3z"/>
<path d="M22681 9708 c-106 -52 -149 -203 -91 -318 63 -123 232 -149 327 -49
48 50 61 87 62 170 2 167 -152 269 -298 197z m166 -58 c38 -23 49 -42 64 -108
14 -67 -1 -122 -47 -167 -31 -31 -40 -35 -89 -35 -47 0 -58 4 -88 33 -105 98
-50 297 81 297 29 0 59 -8 79 -20z"/>
<path d="M23309 9707 c-101 -68 -69 -178 64 -220 65 -21 97 -49 97 -86 0 -62
-91 -87 -152 -41 -32 24 -51 25 -68 5 -27 -33 56 -85 137 -85 89 0 153 57 153
139 0 45 -49 93 -120 116 -79 25 -100 40 -100 74 0 56 78 81 140 45 32 -20 60
-13 60 14 0 54 -148 82 -211 39z"/>
<path d="M26051 9722 c-8 -3 -11 -67 -11 -218 l0 -214 23 -5 c13 -4 75 -5 138
-3 l114 3 0 25 c0 25 -1 25 -105 30 l-105 5 0 65 0 65 85 3 c92 3 105 9 95 41
-5 18 -15 21 -93 23 l-87 3 0 60 0 60 103 3 c100 3 102 3 102 26 0 21 -6 25
-47 30 -49 6 -192 5 -212 -2z"/>
<path d="M26627 9723 c-7 -12 -10 -113 -9 -286 l2 -158 28 3 27 3 3 158 c1 86
6 157 10 157 4 0 35 -47 70 -103 118 -192 134 -212 167 -212 l30 0 3 216 c2
186 0 218 -13 223 -41 15 -45 1 -45 -160 0 -85 -4 -154 -8 -154 -7 0 -68 91
-176 263 -28 44 -41 57 -60 57 -14 0 -27 -3 -29 -7z"/>
<path d="M27323 9710 c-48 -29 -67 -63 -60 -111 7 -54 38 -85 110 -111 74 -27
107 -53 107 -84 0 -27 -32 -63 -57 -65 -48 -3 -113 16 -113 32 0 15 -37 10
-50 -6 -28 -33 59 -85 142 -85 66 0 114 27 134 75 32 76 1 137 -86 172 -98 38
-110 44 -120 64 -11 20 1 56 24 71 20 14 87 8 116 -8 32 -20 60 -13 60 14 0
52 -143 81 -207 42z"/>
<path d="M27973 9723 c-12 -2 -24 -12 -28 -21 -4 -9 -22 -60 -42 -112 -83
-227 -104 -293 -95 -302 17 -17 46 -4 60 27 36 83 31 80 116 83 88 3 98 -2
115 -58 12 -42 39 -64 65 -54 20 8 21 -4 -13 95 -93 268 -130 353 -151 347 -3
0 -15 -3 -27 -5z m31 -105 c2 -7 12 -40 22 -73 10 -33 20 -66 22 -72 3 -10
-14 -13 -57 -13 -34 0 -61 4 -61 8 0 4 9 37 21 73 11 35 22 70 25 77 2 6 8 12
14 12 6 0 12 -6 14 -12z"/>
<path d="M28464 9717 c-2 -7 -3 -107 -2 -222 l3 -210 117 -1 c128 -2 165 9
139 40 -11 12 -33 16 -101 16 l-87 0 -7 89 c-4 49 -6 133 -5 186 2 75 0 99
-12 106 -20 13 -39 11 -45 -4z"/>
<path d="M30368 9718 c-9 -7 -31 -56 -48 -108 -18 -52 -50 -141 -72 -197 -41
-106 -43 -133 -9 -133 24 0 31 10 52 70 l16 45 90 3 91 3 12 -38 c7 -21 19
-48 26 -60 15 -24 48 -31 59 -13 8 12 -134 407 -153 426 -17 17 -43 18 -64 2z
m66 -164 c15 -42 25 -82 22 -90 -6 -14 -99 -15 -113 0 -4 4 3 37 16 74 12 37
24 73 27 80 8 27 23 8 48 -64z"/>
<path d="M30920 9719 c-63 -26 -94 -91 -70 -149 16 -38 48 -61 125 -89 67 -25
85 -42 85 -82 0 -56 -99 -81 -153 -39 -30 24 -50 25 -67 5 -16 -19 -1 -39 51
-66 76 -38 182 -18 219 43 51 83 9 157 -113 197 -91 31 -118 70 -77 111 25 25
111 28 130 5 18 -22 54 -15 58 10 7 46 -118 82 -188 54z"/>
<path d="M29115 9708 c-17 -51 -110 -302 -125 -342 -28 -69 -26 -86 9 -86 26
0 30 6 50 60 l22 60 85 0 84 0 28 -57 c26 -56 53 -76 73 -56 6 6 -21 94 -67
221 l-77 212 -39 0 c-22 0 -40 -5 -43 -12z m73 -138 c12 -30 25 -70 28 -87 l7
-33 -61 0 c-34 0 -63 4 -66 8 -3 5 8 46 24 92 17 45 30 85 30 88 0 15 19 -18
38 -68z"/>
<path d="M29622 9503 l3 -218 96 1 c124 2 176 23 219 90 27 43 30 56 30 123 0
93 -22 146 -76 187 -36 28 -43 29 -156 32 l-118 4 2 -219z m218 145 c94 -65
94 -223 0 -286 -28 -19 -45 -22 -95 -20 l-60 3 -3 150 c-1 82 0 155 2 162 9
23 118 17 156 -9z"/>
<path d="M8298 8405 c-63 -35 -72 -96 -29 -194 99 -224 125 -471 71 -675 -59
-224 -162 -368 -400 -558 -227 -181 -346 -349 -401 -568 -19 -73 -19 -337 0
-405 44 -162 93 -265 197 -416 140 -203 179 -302 179 -459 0 -165 -44 -275
-161 -402 -50 -53 -57 -93 -24 -123 34 -31 84 -25 126 16 141 135 214 305 214
501 0 173 -45 298 -175 494 -202 301 -256 483 -210 714 43 220 136 362 346
530 253 203 357 339 437 575 71 206 68 441 -9 698 -21 69 -21 79 -8 92 14 14
23 12 90 -22 88 -44 254 -204 331 -319 180 -268 256 -595 198 -856 -42 -193
-87 -278 -239 -458 -111 -132 -152 -217 -159 -332 -9 -165 43 -257 247 -438
264 -235 340 -456 292 -851 -18 -146 -8 -206 45 -268 126 -146 422 -46 533
180 98 199 78 402 -73 770 -72 175 -90 266 -83 420 12 235 138 436 335 532 39
20 43 20 59 5 15 -15 15 -24 -1 -115 -32 -194 -18 -387 40 -556 68 -194 153
-317 366 -522 279 -269 394 -477 414 -746 8 -98 -5 -188 -43 -304 -65 -200
-157 -323 -386 -514 -225 -187 -308 -310 -324 -477 -19 -208 91 -314 328 -314
318 0 672 250 828 584 25 54 61 187 61 227 1 120 -81 179 -151 110 -27 -28
-29 -35 -29 -107 0 -196 -93 -357 -294 -506 -284 -212 -600 -210 -583 4 10
117 75 212 242 351 169 142 229 201 297 292 266 355 273 822 20 1198 -54 79
-202 242 -335 367 -137 130 -234 282 -282 445 -50 168 -45 413 11 579 28 80
30 116 9 155 -67 130 -402 -15 -581 -252 -109 -144 -157 -290 -158 -477 -1
-141 17 -237 66 -354 82 -195 100 -242 124 -323 53 -182 40 -333 -38 -449 -58
-86 -176 -137 -232 -100 -44 28 -50 81 -31 240 33 268 -7 465 -135 657 -23 35
-113 134 -200 219 -96 96 -164 170 -175 195 -58 125 -32 235 88 376 151 177
230 327 274 524 22 95 21 351 0 460 -80 402 -382 801 -702 926 -95 37 -178 46
-217 24z"/>
<path d="M16660 8300 c-359 -127 -808 -576 -961 -960 -64 -162 -73 -214 -73
-390 1 -181 22 -270 100 -420 104 -203 334 -404 513 -450 76 -19 111 -36 111
-52 0 -6 -45 -57 -99 -113 -112 -117 -157 -189 -206 -333 -50 -147 -59 -197
-58 -312 1 -96 7 -135 41 -247 22 -69 76 -167 134 -239 376 -468 1115 -353
1268 197 52 190 28 355 -77 516 -162 248 -494 324 -724 166 -239 -163 -275
-491 -72 -644 185 -140 443 -53 443 149 0 89 -82 144 -138 92 -16 -15 -22 -32
-22 -65 0 -101 -121 -127 -207 -43 -91 88 -70 258 44 358 184 162 465 85 582
-159 35 -74 36 -80 36 -191 0 -117 -3 -131 -51 -238 -74 -163 -268 -275 -474
-276 -337 -1 -591 234 -629 579 -33 305 138 590 475 791 324 194 384 237 500
356 100 103 141 164 198 298 159 372 73 728 -242 1005 -179 158 -288 189 -427
121 -223 -107 -438 -350 -523 -591 -30 -86 -42 -268 -22 -343 59 -220 289
-376 480 -327 135 35 242 120 301 241 32 65 34 74 34 179 0 143 -34 228 -110
275 -96 59 -225 -17 -225 -132 0 -63 61 -89 106 -47 29 27 51 19 69 -26 61
-145 -84 -345 -251 -345 -86 0 -189 72 -234 165 -39 78 -35 231 7 337 90 227
349 478 493 478 67 0 157 -54 255 -153 98 -99 145 -177 186 -302 27 -85 33
-275 10 -365 -62 -249 -301 -502 -599 -636 -111 -50 -123 -52 -234 -23 -104
27 -153 48 -236 102 -164 108 -283 262 -348 452 -38 110 -41 296 -6 425 29
111 135 325 213 431 206 279 601 572 771 572 112 0 338 -136 516 -312 275
-270 377 -498 375 -836 -2 -307 -113 -564 -373 -865 -50 -58 -94 -116 -97
-129 -14 -55 38 -110 92 -97 14 4 48 37 80 79 31 39 81 101 111 137 128 150
252 383 298 560 144 550 -79 1075 -619 1457 -216 152 -362 193 -505 143z"/>
<path d="M24410 7984 c-392 -32 -663 -98 -917 -221 -273 -132 -438 -303 -483
-502 -24 -103 -2 -498 56 -1021 23 -216 102 -870 119 -990 8 -58 20 -143 26
-190 39 -297 91 -571 131 -690 40 -120 42 -130 42 -250 0 -121 -1 -129 -43
-250 -73 -215 -85 -324 -52 -495 23 -116 36 -155 84 -250 144 -286 457 -491
857 -559 310 -54 774 -44 1050 22 326 78 613 269 724 482 70 134 91 226 90
400 -1 169 -2 174 -91 420 -35 99 -37 112 -37 220 0 104 3 120 27 171 24 50
34 59 79 79 144 62 318 -32 318 -171 0 -87 -33 -123 -108 -120 -52 2 -80 -12
-92 -45 -31 -80 99 -136 198 -85 176 90 198 339 43 484 -74 70 -148 100 -253
105 -124 6 -123 5 -98 192 11 80 34 258 51 395 17 138 35 284 40 325 10 77 42
370 59 540 5 52 18 183 29 290 85 828 91 947 50 1071 -102 310 -529 538 -1170
625 -108 15 -618 27 -729 18z m560 -154 c329 -26 594 -89 815 -194 247 -118
349 -226 347 -368 -2 -122 -94 -228 -292 -335 -434 -235 -1277 -308 -1920
-167 -215 47 -449 143 -570 233 -305 227 -148 508 395 706 207 75 328 98 700
128 92 8 409 6 525 -3z m1181 -922 c15 -28 6 -156 -14 -195 -10 -18 -43 -44
-94 -73 -92 -52 -157 -100 -313 -230 -278 -233 -436 -316 -645 -341 -174 -21
-326 12 -559 118 -311 142 -431 181 -597 190 -121 7 -205 -6 -319 -47 -101
-36 -148 -67 -244 -161 -129 -126 -135 -119 -165 206 -12 127 -26 257 -31 291
-17 103 -13 198 9 225 l19 23 68 -45 c352 -234 848 -344 1474 -326 558 16 989
129 1310 343 75 50 85 52 101 22z m-37 -461 c17 -47 -54 -718 -86 -811 -51
-154 -176 -262 -382 -331 -169 -57 -327 -82 -851 -135 -805 -83 -931 -114
-1001 -253 -44 -85 -49 -182 -29 -501 19 -308 17 -402 -16 -666 -42 -325 -16
-455 112 -582 257 -252 940 -323 1467 -153 262 85 397 268 229 310 -27 7 -30
5 -101 -74 -35 -39 -76 -60 -192 -99 -424 -142 -1066 -88 -1278 108 -103 95
-122 206 -87 508 24 209 27 403 10 692 -16 272 7 377 94 435 53 34 323 78 712
115 680 64 932 114 1148 228 115 60 122 57 121 -59 -1 -83 -62 -539 -90 -674
-8 -38 -27 -108 -42 -155 -25 -79 -27 -97 -27 -250 l1 -165 59 -170 60 -170
-1 -140 c-1 -202 -41 -307 -168 -442 -207 -222 -570 -334 -1080 -334 -419 -1
-732 79 -956 242 -275 200 -376 528 -267 864 54 165 67 230 67 341 0 99 -6
131 -60 319 -66 225 -93 375 -140 755 -11 91 -25 198 -30 238 -14 102 -12 275
4 350 52 243 267 419 536 438 128 10 315 -38 515 -131 44 -21 109 -51 145 -67
276 -127 526 -151 764 -74 163 54 317 149 543 338 228 192 276 216 297 155z"/>
<path d="M24375 7576 c-340 -39 -595 -114 -742 -219 -74 -52 -76 -124 -6 -148
32 -10 39 -8 91 24 103 63 205 104 367 146 287 73 852 77 1119 6 243 -64 250
-159 15 -205 -66 -13 -99 -39 -99 -80 0 -77 74 -85 254 -28 179 56 254 175
180 284 -34 50 -43 57 -139 103 -93 46 -227 84 -375 106 -146 22 -512 28 -665
11z"/>
<path d="M24298 7153 c-18 -8 -36 -19 -40 -26 -15 -23 -8 -77 12 -97 19 -19
33 -20 246 -20 241 0 254 2 279 50 17 32 9 64 -21 92 -25 22 -424 23 -476 1z"/>
<path d="M23837 5855 c-89 -25 -167 -88 -210 -170 -60 -117 -34 -329 49 -394
38 -30 87 -28 113 5 28 35 27 51 -9 119 -91 173 26 321 239 301 89 -8 164 -34
361 -123 195 -89 272 -117 399 -144 324 -67 635 -4 878 180 117 88 156 155
119 206 -26 36 -77 25 -142 -31 -182 -156 -330 -212 -578 -221 -219 -8 -305
11 -561 123 -72 31 -166 72 -210 91 -161 70 -327 91 -448 58z"/>
<path d="M25175 4795 c-92 -13 -254 -34 -475 -61 -518 -63 -534 -86 -528 -763
3 -392 6 -408 72 -474 84 -84 290 -125 566 -114 219 10 306 35 352 104 46 70
52 122 45 423 -9 445 -22 461 -322 425 -199 -24 -254 -54 -290 -160 -23 -68
-22 -262 2 -313 34 -71 137 -88 174 -28 26 42 24 64 -11 110 -25 33 -30 49
-30 96 0 105 46 143 188 156 126 12 145 -28 144 -301 -1 -250 -16 -309 -91
-338 -64 -26 -223 -39 -348 -28 -184 16 -267 58 -293 148 -18 63 -23 296 -11
500 22 365 23 365 526 428 110 13 251 31 314 40 142 19 182 19 226 1 68 -29
75 -74 54 -397 -11 -190 2 -375 42 -570 12 -57 24 -122 28 -145 11 -65 59
-130 105 -144 31 -9 40 -9 47 2 16 24 9 104 -17 208 -61 250 -79 426 -63 632
39 509 11 580 -225 577 -50 -1 -131 -7 -181 -14z"/>
<path d="M7485 7521 c-141 -65 -78 -286 78 -269 116 13 173 135 107 228 -41
57 -115 74 -185 41z"/>
<path d="M8682 7247 c-11 -12 -26 -44 -32 -70 -23 -106 -94 -210 -280 -412
-178 -194 -238 -318 -247 -515 -12 -259 72 -428 391 -787 218 -245 287 -423
287 -741 -1 -209 10 -286 49 -367 42 -87 103 -145 153 -145 54 0 87 89 46 126
-73 66 -99 166 -99 379 0 382 -80 577 -365 896 -180 201 -248 303 -285 434
-68 237 -14 410 199 641 148 160 190 218 247 331 57 114 69 194 35 231 -28 29
-71 29 -99 -1z"/>
<path d="M14870 7027 c-123 -34 -190 -123 -190 -250 1 -145 108 -251 255 -251
223 0 338 258 188 424 -65 73 -162 102 -253 77z m150 -162 c82 -78 26 -205
-90 -205 -129 0 -164 179 -45 231 37 16 104 3 135 -26z"/>
<path d="M18485 7031 c-243 -61 -288 -369 -71 -484 64 -33 175 -31 237 5 219
129 155 449 -96 481 -22 3 -53 2 -70 -2z m109 -150 c89 -59 68 -197 -34 -220
-78 -17 -151 34 -152 107 -1 102 105 166 186 113z"/>
<path d="M6643 6481 c-62 -45 -173 -227 -212 -347 -45 -143 -54 -219 -45 -389
19 -370 4 -411 -216 -595 -62 -51 -129 -116 -151 -144 -21 -28 -60 -76 -85
-106 -57 -69 -126 -209 -158 -322 -111 -387 5 -836 296 -1139 110 -115 229
-199 281 -199 47 0 81 63 61 114 -3 9 -31 30 -62 48 -126 72 -311 286 -374
433 -152 351 -120 706 90 998 55 77 128 148 265 257 77 61 142 141 184 228 28
56 28 59 24 207 -10 389 -7 453 23 545 34 102 76 188 105 214 30 27 44 10 75
-83 54 -169 144 -308 276 -429 198 -181 291 -376 291 -614 1 -231 -78 -379
-351 -663 -141 -146 -190 -229 -215 -360 -49 -255 51 -458 279 -570 115 -57
168 -65 229 -36 58 28 73 61 87 182 25 219 96 374 234 509 51 50 57 53 62 34
5 -18 13 -21 60 -20 30 0 54 4 54 8 0 4 15 4 33 2 25 -5 41 1 75 25 41 30 53
33 32 8 -133 -158 -229 -358 -265 -552 -20 -107 -16 -287 9 -380 80 -298 342
-468 696 -452 376 17 571 204 611 585 40 389 -190 662 -518 613 -182 -27 -322
-156 -359 -331 -39 -182 11 -321 140 -388 168 -87 386 48 322 201 -24 59 -110
65 -122 9 -21 -99 -88 -120 -159 -49 -84 84 -49 273 67 358 173 125 400 42
466 -171 25 -82 22 -272 -6 -365 -69 -224 -243 -328 -524 -312 -217 13 -354
92 -432 252 -35 72 -59 219 -51 309 26 288 114 456 369 702 254 246 356 423
360 623 1 86 -12 122 -51 140 -35 16 -47 14 -77 -14 -23 -22 -26 -31 -26 -97
-1 -87 -12 -143 -45 -212 -30 -63 -131 -182 -151 -178 -16 3 -19 -15 -4 -20 6
-2 -7 -21 -30 -43 -22 -21 -40 -34 -40 -27 0 7 5 12 10 12 15 0 12 30 -5 47
-11 10 -19 12 -28 5 -7 -6 -37 -20 -67 -31 -62 -24 -122 -73 -115 -94 3 -7
-11 -31 -32 -54 -45 -48 -147 -88 -163 -63 -7 11 -11 11 -24 1 -13 -11 -20 -9
-44 16 -67 73 -128 40 -254 -137 -80 -114 -108 -185 -138 -354 -28 -152 -51
-171 -148 -122 -138 71 -205 230 -168 398 24 110 73 183 223 340 220 229 298
367 338 597 20 112 19 170 -5 287 -41 204 -145 390 -287 512 -163 140 -261
302 -312 518 -10 45 -24 91 -30 102 -32 59 -113 70 -178 23z"/>
<path d="M14955 6239 c-384 -29 -740 -276 -1042 -724 -133 -198 -178 -359
-137 -496 66 -223 370 -600 639 -791 66 -47 233 -130 315 -156 230 -73 476
-60 670 36 153 76 290 199 290 261 0 32 -69 105 -91 96 -8 -3 -32 -29 -54 -57
-85 -109 -240 -196 -395 -224 -367 -65 -765 160 -1092 617 -29 41 -73 115 -98
163 -42 82 -45 94 -45 165 0 91 26 154 131 315 189 288 436 505 674 591 401
145 776 12 1028 -364 55 -82 83 -116 97 -116 28 0 67 79 60 124 -11 80 -180
282 -326 388 -112 82 -297 156 -421 168 -34 3 -72 7 -83 9 -11 1 -65 -1 -120
-5z"/>
<path d="M18245 6216 c-260 -69 -456 -236 -544 -465 -49 -126 -56 -172 -55
-346 0 -188 18 -273 87 -419 207 -435 679 -618 1057 -409 213 118 460 418 460
559 0 44 -40 146 -84 213 -193 297 -440 457 -679 438 -411 -31 -545 -526 -192
-710 56 -30 67 -32 161 -32 92 0 105 3 159 30 95 48 111 133 36 178 -45 27
-79 21 -124 -19 -38 -34 -42 -36 -97 -32 -187 13 -245 230 -97 365 169 156
488 37 677 -253 84 -128 90 -196 29 -301 -52 -89 -219 -251 -304 -295 -194
-100 -394 -97 -574 9 -419 248 -499 908 -146 1210 177 151 459 195 710 111
305 -102 613 -401 788 -765 77 -162 48 -267 -150 -528 -360 -477 -787 -670
-1198 -542 -190 59 -346 165 -518 355 -58 64 -91 69 -131 21 -33 -39 -33 -45
4 -102 75 -118 300 -293 476 -371 157 -69 242 -88 404 -88 206 -1 319 27 516
131 331 174 727 636 784 914 26 126 -43 298 -217 544 -212 300 -482 508 -770
594 -112 34 -351 36 -468 5z"/>
<path d="M10613 6015 c-39 -17 -63 -61 -63 -116 0 -61 52 -109 117 -109 119 0
158 170 52 226 -35 17 -64 17 -106 -1z"/>
<path d="M14810 5767 c-213 -64 -433 -263 -553 -500 -63 -124 -39 -237 83
-399 304 -402 756 -497 945 -199 86 137 70 348 -36 482 -49 62 -160 112 -251
113 -182 2 -295 -98 -209 -185 29 -29 74 -39 86 -19 17 28 89 52 142 48 217
-18 237 -375 24 -447 -91 -30 -238 1 -350 75 -79 52 -203 176 -250 248 -79
122 -77 179 12 315 141 215 333 335 542 335 95 1 104 -1 178 -36 194 -92 315
-275 400 -609 76 -295 148 -452 240 -521 50 -39 60 -36 92 31 l28 60 -51 74
c-70 101 -113 204 -160 382 -88 330 -145 441 -302 595 -164 161 -395 221 -610
157z"/>
<path d="M6824 5512 c-34 -28 -36 -54 -14 -138 43 -166 17 -279 -108 -459 -30
-44 -80 -107 -111 -140 -179 -193 -287 -399 -312 -599 -22 -170 8 -353 81
-496 21 -41 49 -97 61 -124 29 -64 248 -287 339 -345 36 -23 121 -69 190 -103
151 -73 185 -97 200 -143 37 -112 -112 -223 -353 -265 -89 -16 -303 -8 -381
14 -80 22 -170 67 -234 116 -84 64 -161 49 -178 -35 -12 -61 47 -118 171 -166
196 -76 230 -82 460 -83 222 -1 297 10 443 64 67 25 75 25 206 -5 245 -55 326
-60 1021 -60 595 0 645 1 715 19 227 57 268 145 290 616 18 413 37 524 108
665 64 129 184 266 305 350 369 256 512 449 542 730 12 108 -21 275 -63 322
-41 46 -122 17 -122 -44 0 -16 7 -62 16 -103 34 -162 1 -317 -101 -469 -59
-88 -120 -143 -289 -264 -223 -158 -336 -278 -420 -443 -90 -178 -110 -281
-126 -654 -25 -559 -33 -568 -530 -585 -392 -14 -941 11 -1308 61 -57 7 -61
24 -22 85 22 33 35 67 38 99 11 116 -50 184 -255 281 -153 74 -240 126 -352
212 -97 76 -115 98 -238 312 -51 88 -69 199 -60 363 13 218 76 349 296 611
219 262 260 355 248 574 -7 126 -20 172 -62 214 -37 37 -60 41 -91 15z"/>
<path d="M10446 4678 c-19 -17 -28 -39 -35 -83 -24 -154 -134 -318 -301 -445
-268 -205 -401 -376 -454 -580 -29 -111 -42 -313 -28 -453 32 -343 139 -504
358 -537 116 -18 1011 -9 1049 10 53 27 59 104 11 135 -21 14 -55 14 -312 4
-204 -9 -353 -10 -504 -3 -244 11 -297 26 -360 102 -86 105 -121 404 -75 649
34 180 135 334 325 493 291 244 380 360 430 556 26 99 25 106 -6 143 -31 37
-63 40 -98 9z"/>
<path d="M23004 4476 c-183 -86 -241 -332 -111 -473 79 -87 200 -112 258 -54
34 35 36 59 9 94 -18 22 -30 27 -83 29 -57 3 -63 5 -84 37 -29 43 -30 108 -4
160 23 44 37 57 100 92 59 33 73 68 44 107 -26 36 -65 38 -129 8z"/>
<path d="M16035 4398 c-30 -23 -98 -125 -141 -210 -15 -29 -40 -69 -57 -88
-42 -48 -94 -164 -125 -279 -33 -123 -38 -389 -9 -504 90 -361 411 -729 812
-930 204 -102 292 -103 491 -6 291 142 582 418 708 669 84 167 101 241 100
420 -1 169 -8 200 -82 346 -97 192 -307 353 -537 412 -187 48 -449 61 -580 28
-265 -65 -444 -273 -492 -571 -16 -98 -16 -114 -2 -198 42 -246 214 -480 461
-628 177 -105 254 -93 452 71 107 90 173 172 230 290 66 138 64 290 -7 404
-68 108 -195 171 -342 170 -136 0 -238 -53 -286 -146 -27 -52 -26 -174 1 -227
39 -77 106 -103 148 -58 27 29 28 46 1 97 -75 144 127 248 282 145 99 -65 123
-205 59 -340 -26 -52 -57 -93 -125 -161 -149 -150 -218 -171 -345 -103 -169
90 -319 274 -365 449 -30 114 -11 291 44 399 54 105 156 192 281 240 59 23 79
25 225 25 208 0 348 -30 506 -110 130 -65 257 -215 301 -357 45 -143 29 -338
-41 -491 -105 -228 -365 -488 -621 -620 -185 -96 -242 -94 -445 13 -349 183
-639 535 -695 842 -53 289 66 656 278 857 48 45 56 58 56 88 0 71 -81 108
-139 62z"/>
<path d="M14968 3720 c-143 -75 -178 -263 -72 -389 101 -120 295 -117 390 7
50 66 69 137 54 207 -34 165 -222 254 -372 175z m205 -138 c62 -63 39 -168
-45 -200 -74 -28 -158 29 -158 107 0 116 123 172 203 93z"/>
<path d="M18311 3725 c-216 -101 -193 -396 37 -470 191 -62 373 132 307 326
-48 140 -208 207 -344 144z m167 -125 c84 -52 78 -171 -12 -214 -79 -38 -166
18 -166 107 0 102 94 158 178 107z"/>
<path d="M6073 1798 c-8 -10 -11 -75 -10 -218 l2 -205 105 0 c122 0 164 15
214 78 30 37 31 43 31 136 0 92 -2 100 -29 135 -42 55 -102 79 -211 84 -70 3
-93 1 -102 -10z m207 -66 c97 -48 105 -209 13 -281 -22 -18 -38 -21 -95 -19
l-67 3 -4 152 c-3 84 -2 155 1 158 12 12 119 3 152 -13z"/>
<path d="M6733 1803 c-10 -4 -13 -56 -13 -219 l0 -214 135 0 135 0 0 25 c0 24
-1 24 -102 27 l-103 3 -3 68 -3 67 75 0 c90 0 106 5 106 36 0 22 -3 23 -87 26
l-88 3 0 60 0 60 100 5 c88 4 100 7 103 24 2 10 -2 22 -10 27 -13 9 -221 10
-245 2z"/>
<path d="M7297 1804 c-4 -4 -7 -103 -7 -221 l0 -214 133 3 c128 3 132 4 135
25 4 27 -12 32 -123 35 l-80 3 -5 185 c-5 177 -6 185 -25 188 -12 2 -24 0 -28
-4z"/>
<path d="M8207 1802 c-15 -3 -17 -25 -17 -218 l0 -214 30 0 29 0 3 93 3 92 88
3 c85 3 87 3 87 27 0 24 -2 24 -87 27 l-88 3 0 65 0 65 98 3 98 3 -3 27 -3 27
-111 0 c-60 0 -118 -1 -127 -3z"/>
<path d="M8753 1803 c-19 -7 -18 -302 1 -346 51 -121 248 -125 309 -6 15 29
17 57 15 194 l-3 160 -25 0 -25 0 -5 -162 c-5 -161 -5 -163 -33 -190 -39 -39
-120 -38 -154 2 -22 25 -23 34 -23 184 0 136 -2 160 -16 165 -18 7 -23 7 -41
-1z"/>
<path d="M9401 1796 c-8 -9 -11 -75 -9 -217 l3 -204 135 0 135 0 0 25 c0 25
-1 25 -103 28 l-103 3 3 67 3 67 78 1 c79 0 104 11 94 38 -5 13 -23 16 -92 16
l-85 0 0 65 0 65 100 0 c106 0 129 10 100 45 -17 21 -242 22 -259 1z"/>
<path d="M10039 1782 c-139 -71 -147 -291 -13 -382 81 -56 227 -40 274 30 14
20 16 39 11 95 l-6 70 -70 0 c-69 0 -70 -1 -73 -27 -3 -25 0 -27 40 -30 42 -3
43 -4 46 -40 4 -45 -21 -65 -89 -73 -55 -7 -104 16 -137 65 -20 30 -23 45 -20
105 3 75 24 116 71 142 36 20 120 16 150 -7 30 -24 50 -25 68 -4 11 14 9 19
-11 36 -71 56 -157 64 -241 20z"/>
<path d="M10715 1796 c-92 -40 -130 -112 -123 -231 5 -83 30 -126 96 -171 93
-64 241 -24 293 78 62 122 9 284 -107 328 -36 14 -124 12 -159 -4z m166 -73
c78 -66 80 -211 4 -271 -58 -46 -156 -36 -196 20 -25 35 -36 113 -24 175 17
94 142 138 216 76z"/>
<path d="M14873 1802 c-29 -2 -53 -8 -55 -15 -1 -7 -2 -103 0 -215 l3 -203 27
3 c26 3 27 5 30 81 l3 77 52 0 c109 0 163 34 177 112 11 55 -16 120 -57 141
-32 16 -104 24 -180 19z m146 -69 c35 -29 39 -86 8 -117 -22 -22 -35 -26 -87
-26 l-60 0 0 80 0 80 59 0 c41 0 65 -5 80 -17z"/>
<path d="M15474 1791 c-145 -66 -155 -317 -16 -398 100 -59 237 -23 289 76 45
85 26 229 -38 288 -58 53 -160 68 -235 34z m183 -73 c73 -68 70 -191 -6 -262
-27 -26 -39 -30 -87 -30 -54 -1 -58 1 -94 41 -88 99 -42 270 75 285 42 5 84
-8 112 -34z"/>
<path d="M16133 1803 c-12 -2 -36 -17 -53 -33 -26 -24 -30 -35 -30 -78 0 -44
4 -53 34 -80 19 -16 58 -38 88 -47 94 -31 120 -73 73 -120 -30 -31 -74 -32
-132 -4 -47 23 -73 20 -73 -9 0 -30 72 -64 138 -65 99 -1 152 45 152 132 0 56
-30 86 -115 117 -80 29 -105 48 -105 79 0 53 71 76 137 44 41 -20 46 -20 60
-6 44 44 -72 90 -174 70z"/>
<path d="M16586 1803 c-3 -3 -6 -17 -6 -30 0 -22 4 -23 65 -23 l65 0 2 -187 3
-188 27 -3 c34 -4 37 10 37 208 0 85 0 158 0 162 1 4 29 8 64 10 58 3 62 5 62
27 l0 24 -156 3 c-86 2 -159 1 -163 -3z"/>
<path d="M17196 1802 c-3 -3 -6 -101 -6 -219 l0 -213 30 0 29 0 3 83 3 82 40
0 c39 0 41 -1 89 -82 43 -73 52 -83 77 -83 38 0 37 11 -11 91 -48 82 -48 82
-6 122 63 60 56 146 -16 200 -22 17 -45 21 -127 23 -55 1 -102 0 -105 -4z
m204 -72 c50 -50 12 -122 -71 -134 -72 -11 -79 -4 -79 73 0 37 3 71 7 74 16
17 123 7 143 -13z"/>
<path d="M17797 1803 c-6 -10 -10 -166 -8 -320 l1 -113 135 0 135 0 0 25 c0
27 12 25 -140 28 l-65 2 -3 64 c-4 78 1 82 88 80 92 -2 92 -2 88 24 -3 20 -9
22 -88 27 l-85 5 -3 63 -3 62 101 0 101 0 -3 28 -3 27 -122 3 c-67 1 -124 -1
-126 -5z"/>
<path d="M18394 1791 c-65 -39 -81 -98 -44 -158 21 -35 36 -45 106 -69 70 -24
94 -42 94 -73 0 -32 -8 -44 -39 -61 -29 -15 -98 -6 -123 17 -21 18 -68 10 -68
-12 0 -21 68 -62 115 -69 96 -13 173 36 182 116 8 65 -34 110 -128 139 -83 25
-107 54 -83 101 19 37 85 42 132 12 30 -20 64 -9 60 18 -8 52 -142 77 -204 39z"/>
<path d="M22951 1795 c-6 -7 -8 -377 -2 -417 2 -12 200 -9 224 3 94 48 111
150 35 203 l-22 16 22 23 c46 49 34 130 -26 161 -34 17 -219 27 -231 11z m199
-65 c11 -11 20 -33 20 -49 0 -42 -32 -61 -102 -61 l-58 0 0 58 c0 32 3 62 7
65 16 17 113 7 133 -13z m3 -181 c37 -15 45 -53 20 -87 -18 -24 -27 -27 -92
-30 l-71 -3 0 64 c0 35 3 67 7 70 9 9 102 0 136 -14z"/>
<path d="M23555 1800 c-5 -8 -9 -320 -5 -420 0 -7 47 -10 132 -8 121 3 133 5
136 22 6 29 -16 36 -116 36 l-93 0 3 68 3 67 85 0 c84 0 85 0 85 25 0 24 -2
25 -85 30 l-85 5 0 60 0 60 97 3 c100 3 125 15 97 48 -14 17 -244 20 -254 4z"/>
<path d="M24114 1797 c-2 -7 -3 -105 -2 -217 l3 -205 85 -3 c109 -4 138 2 179
36 26 22 34 37 38 74 5 44 3 50 -31 84 l-36 36 21 17 c14 11 23 33 26 61 6 53
-20 94 -73 116 -44 18 -203 19 -210 1z m205 -73 c27 -34 26 -50 -4 -79 -20
-21 -34 -25 -85 -25 l-60 0 0 58 c0 32 3 62 7 65 3 4 32 7 64 7 50 0 60 -3 78
-26z m11 -179 c25 -23 26 -76 2 -98 -21 -20 -99 -32 -136 -23 -25 6 -26 10
-26 70 0 34 3 66 8 70 13 15 132 -1 152 -19z"/>
<path d="M24716 1802 c-9 -15 -18 -278 -11 -354 7 -78 8 -79 34 -76 l26 3 3
209 c2 161 -1 211 -10 218 -16 10 -35 10 -42 0z"/>
<path d="M25091 1796 c-9 -11 -11 -69 -8 -218 l4 -203 97 -3 c162 -5 232 42
256 169 20 102 -21 199 -100 239 -52 26 -231 38 -249 16z m220 -69 c87 -58 93
-200 11 -268 -32 -28 -144 -48 -166 -30 -7 6 -10 60 -8 165 l3 156 63 0 c49 0
71 -5 97 -23z"/>
<path d="M25844 1800 c-15 -6 -32 -39 -62 -122 -22 -62 -54 -151 -71 -197 -38
-104 -39 -113 -4 -109 23 2 31 12 47 55 23 59 31 63 129 63 64 0 68 -1 78 -27
34 -87 39 -93 64 -93 37 0 36 8 -64 284 -58 159 -65 167 -117 146z m52 -156
c43 -114 45 -104 -30 -104 -36 0 -66 3 -66 7 0 4 12 39 26 78 14 38 28 76 30
84 6 20 12 11 40 -65z"/>
<path d="M26375 1798 c-63 -34 -88 -92 -65 -148 16 -38 48 -61 125 -89 75 -28
85 -37 85 -71 0 -34 -40 -70 -78 -70 -14 0 -46 10 -70 22 -73 35 -108 -5 -43
-49 74 -50 209 -24 246 46 37 73 3 136 -96 172 -101 37 -135 82 -93 123 21 22
102 21 126 -1 22 -20 53 -7 53 22 0 42 -136 73 -190 43z"/>
</g>
</svg>

