<svg xmlns="http://www.w3.org/2000/svg" viewBox="-16 -16 924.124760 933.605007" width="89" height="90">
  <g transform="translate(-38.000000,936.758004) scale(0.100000,-0.100000)"
fill="#1f3f8c" stroke="#1f3f8c" stroke-width="114" stroke-linejoin="round" stroke-linecap="round">
<path d="M4800 9356 c-335 -86 -882 -509 -1199 -927 -92 -122 -193 -284 -246
-394 -140 -291 -180 -466 -172 -760 6 -242 45 -397 149 -596 161 -308 518
-619 776 -675 94 -20 156 -51 160 -79 2 -14 -29 -51 -104 -125 -241 -237 -338
-416 -420 -775 -30 -132 -26 -373 8 -490 64 -215 122 -333 235 -472 199 -247
424 -378 733 -428 647 -104 1210 367 1210 1012 0 339 -234 682 -550 807 -352
138 -763 -10 -926 -334 -95 -190 -95 -394 0 -564 158 -282 579 -334 741 -91
86 131 58 302 -56 337 -81 24 -139 -36 -139 -142 0 -153 -222 -164 -334 -17
-98 128 -62 366 74 490 110 102 209 141 355 141 175 0 299 -56 425 -192 185
-197 230 -480 119 -750 -46 -113 -68 -148 -144 -231 -199 -214 -531 -302 -840
-221 -542 143 -836 726 -649 1287 48 145 151 307 278 441 145 152 194 187 551
403 121 73 245 148 275 167 205 132 460 400 539 567 113 238 133 289 160 426
79 389 -47 819 -321 1099 -237 242 -434 366 -578 364 -280 -3 -765 -432 -939
-832 -72 -165 -111 -369 -97 -513 21 -233 188 -470 394 -561 130 -58 233 -69
357 -38 239 60 426 243 485 476 56 219 -10 460 -156 564 -66 48 -148 49 -221
4 -116 -72 -160 -236 -78 -290 41 -27 79 -22 120 15 21 18 43 30 52 27 8 -3
16 -6 19 -6 15 0 48 -95 52 -153 4 -59 1 -78 -29 -155 -153 -395 -681 -325
-755 101 -35 202 32 423 199 657 170 237 393 414 560 445 106 20 268 -73 433
-248 99 -105 139 -164 200 -292 129 -275 128 -631 -3 -889 -168 -332 -454
-588 -863 -774 -129 -59 -152 -60 -300 -20 -247 67 -384 143 -558 312 -164
160 -243 285 -336 533 -21 56 -46 230 -46 318 0 254 112 580 294 860 302 463
933 955 1225 955 180 0 496 -196 792 -490 217 -216 290 -307 355 -439 151
-311 189 -468 189 -776 -1 -250 -23 -364 -120 -635 -69 -192 -252 -473 -441
-680 -146 -160 -166 -197 -139 -266 13 -35 25 -49 51 -60 71 -30 119 -9 176
74 17 26 71 94 121 150 172 199 264 334 362 531 140 282 180 419 210 722 26
258 5 456 -76 719 -38 123 -164 376 -236 477 -150 209 -371 438 -558 579 -49
37 -106 79 -125 94 -42 32 -163 105 -245 148 -150 79 -314 108 -435 78z"/>
<path d="M2040 7425 c-107 -31 -200 -110 -249 -214 -23 -49 -26 -69 -26 -156
0 -93 2 -105 33 -167 61 -124 183 -207 318 -216 130 -8 220 25 304 113 80 85
104 148 105 270 0 93 -2 105 -33 167 -81 166 -275 252 -452 203z m192 -211
c60 -31 98 -94 98 -163 0 -224 -342 -245 -366 -23 -16 150 135 255 268 186z"/>
<path d="M7464 7430 c-321 -68 -416 -481 -158 -684 243 -190 596 -26 612 284
7 148 -40 248 -156 333 -84 62 -200 88 -298 67z m177 -225 c144 -101 79 -335
-94 -335 -211 0 -266 248 -78 351 50 27 118 21 172 -16z"/>
<path d="M2099 6240 c-97 -12 -229 -47 -347 -91 -108 -40 -276 -121 -303 -145
-8 -8 -19 -14 -24 -14 -25 0 -293 -219 -397 -324 -376 -379 -648 -837 -648
-1091 0 -277 388 -851 825 -1221 322 -272 663 -415 1030 -431 321 -14 613 83
872 290 118 94 193 199 178 247 -9 27 -108 130 -125 130 -8 0 -37 -26 -65 -57
-95 -110 -183 -188 -264 -237 -376 -226 -852 -196 -1284 81 -224 143 -428 340
-668 643 -78 99 -205 314 -244 415 -29 74 -28 220 3 298 74 193 290 507 494
721 468 492 1017 676 1522 511 315 -103 544 -297 766 -650 64 -102 89 -119
124 -86 23 22 66 132 66 170 0 29 -52 122 -122 218 -96 133 -226 258 -403 390
-110 82 -291 160 -490 213 -91 24 -377 36 -496 20z"/>
<path d="M7255 6240 c-355 -50 -668 -240 -855 -519 -109 -163 -170 -357 -192
-608 -31 -359 72 -714 292 -1005 159 -212 399 -380 645 -454 138 -41 371 -46
505 -11 313 83 554 260 805 592 220 292 214 442 -33 780 -225 308 -471 484
-754 541 -418 83 -806 -216 -785 -605 12 -236 171 -427 407 -491 121 -33 308
-8 415 54 137 81 93 276 -62 276 -37 0 -50 -7 -97 -49 -46 -42 -61 -49 -109
-55 -284 -36 -427 308 -219 526 160 168 440 170 687 5 142 -95 237 -190 334
-333 161 -238 166 -329 34 -525 -239 -353 -602 -545 -946 -501 -598 78 -1020
771 -863 1417 41 169 74 243 160 359 124 168 326 303 536 358 128 34 434 34
565 -1 182 -48 384 -144 525 -249 164 -122 332 -280 414 -388 136 -179 181
-243 238 -339 206 -346 219 -439 98 -681 -84 -166 -279 -427 -450 -603 -167
-173 -337 -304 -520 -403 -500 -273 -980 -242 -1478 94 -67 45 -240 209 -360
341 -39 42 -48 47 -86 47 -82 0 -140 -77 -112 -145 37 -87 161 -217 347 -362
235 -183 452 -290 722 -355 134 -32 457 -32 597 0 446 104 834 365 1204 807
295 352 437 621 437 825 0 154 -90 373 -258 625 -366 549 -813 899 -1291 1011
-118 28 -381 41 -497 24z"/>
<path d="M2135 5569 c-243 -22 -453 -130 -678 -348 -225 -218 -387 -487 -387
-642 0 -66 47 -187 112 -286 310 -476 770 -736 1153 -651 191 42 363 221 409
425 84 374 -160 714 -513 715 -201 0 -341 -79 -341 -192 0 -43 5 -56 33 -86
41 -45 105 -58 140 -27 83 74 196 94 288 50 72 -34 101 -61 137 -127 98 -179
32 -416 -143 -508 -46 -25 -59 -27 -170 -27 -131 0 -170 9 -300 71 -250 118
-555 469 -555 637 0 152 209 450 420 599 411 291 848 207 1127 -215 108 -163
165 -302 227 -551 93 -371 163 -559 263 -701 52 -74 157 -167 183 -163 15 3
98 151 99 178 1 8 -27 53 -61 100 -114 158 -194 351 -267 647 -53 214 -135
430 -214 568 -59 102 -205 269 -298 340 -118 92 -314 176 -441 190 -106 12
-135 12 -223 4z"/>
<path d="M3843 3509 c-62 -18 -157 -144 -254 -339 -24 -47 -65 -110 -91 -140
-127 -143 -238 -521 -238 -804 0 -349 99 -647 319 -961 219 -314 596 -633 952
-808 322 -157 502 -143 850 69 531 321 899 736 1027 1154 18 58 37 119 42 135
6 17 16 83 22 148 46 470 -188 897 -627 1144 -171 95 -389 155 -674 183 -437
43 -768 -56 -973 -292 -157 -179 -231 -341 -273 -596 -19 -119 -19 -153 4
-292 37 -226 121 -400 289 -600 145 -172 392 -354 576 -424 118 -45 240 -7
426 133 190 142 323 295 414 477 62 126 76 182 76 314 0 168 -40 281 -135 383
-250 267 -750 244 -887 -41 -29 -62 -32 -75 -32 -167 1 -115 18 -166 79 -234
68 -75 148 -75 196 2 22 35 19 65 -11 106 -113 160 55 334 279 287 124 -26
202 -84 250 -185 23 -49 26 -68 26 -161 -1 -97 -3 -111 -34 -183 -75 -174
-279 -387 -445 -463 -86 -39 -156 -32 -269 30 -281 153 -501 428 -562 702 -24
108 -17 304 15 414 76 269 270 463 535 536 136 38 501 29 685 -16 278 -68 443
-153 582 -299 175 -182 255 -362 265 -596 21 -450 -259 -904 -792 -1286 -130
-93 -178 -122 -285 -172 -152 -72 -220 -91 -293 -84 -107 11 -339 114 -497
222 -479 326 -796 750 -875 1168 -29 158 -27 373 6 502 35 136 45 168 72 245
69 196 245 472 350 549 106 78 99 210 -12 241 -41 11 -35 11 -78 -1z"/>
<path d="M7310 2509 c-120 -24 -234 -109 -286 -215 -26 -54 -29 -68 -29 -164
0 -101 1 -108 34 -168 41 -75 115 -145 191 -181 83 -39 232 -38 309 2 79 42
147 110 184 186 75 154 25 362 -111 462 -86 63 -206 95 -292 78z m118 -205
c115 -47 159 -176 94 -273 -40 -59 -80 -81 -150 -81 -207 1 -252 285 -55 355
50 18 66 18 111 -1z"/>
<path d="M2246 2490 c-268 -112 -336 -431 -135 -629 152 -148 367 -156 516
-18 100 92 137 177 131 306 -5 149 -77 255 -217 324 -86 42 -216 49 -295 17z
m265 -238 c67 -71 65 -178 -5 -248 -119 -120 -306 -44 -306 124 0 170 195 248
311 124z"/>
</g>
</svg>
