<svg xmlns="http://www.w3.org/2000/svg" viewBox="-38 0 873 882.635279" width="84" height="88">
  <g transform="translate(-38.040241,918.719834) scale(0.100000,-0.100000)"
fill="#3f63a6" stroke="#3f63a6" stroke-width="500" stroke-linejoin="round" stroke-linecap="round">
<path d="M4257 9178 c-52 -14 -101 -65 -115 -120 -13 -53 -2 -101 51 -225 234
-540 161 -1111 -197 -1527 -55 -64 -244 -233 -372 -333 -208 -163 -381 -378
-466 -583 -31 -75 -44 -114 -78 -235 -5 -16 -14 -93 -21 -170 -32 -361 69
-693 316 -1040 208 -293 280 -477 278 -710 -2 -223 -78 -402 -245 -583 -60
-65 -68 -78 -68 -112 0 -57 41 -100 100 -107 57 -6 101 24 195 134 166 194
235 377 243 643 8 282 -42 433 -247 745 -239 366 -292 478 -335 721 -50 282
28 610 202 844 75 101 243 266 377 370 338 262 521 525 630 905 68 238 58 634
-23 895 -48 153 -52 178 -32 202 17 21 21 22 54 10 134 -49 283 -168 457 -364
211 -239 364 -559 426 -893 25 -131 22 -427 -4 -545 -20 -88 -53 -197 -84
-280 -30 -77 -144 -252 -235 -360 -54 -63 -117 -142 -142 -175 -173 -234 -192
-497 -51 -731 37 -62 160 -191 313 -329 222 -200 351 -404 394 -625 46 -233
51 -318 27 -485 -32 -231 -37 -310 -20 -382 47 -202 206 -295 425 -248 223 47
414 228 494 467 73 219 44 564 -70 837 -195 467 -208 514 -208 771 0 174 2
204 22 275 59 206 189 398 348 516 179 132 259 129 234 -8 -66 -350 -53 -625
42 -903 104 -305 225 -481 542 -785 356 -341 515 -577 590 -877 67 -270 60
-452 -26 -713 -101 -307 -244 -490 -624 -801 -233 -191 -372 -377 -418 -559
-94 -367 77 -593 449 -595 559 -2 1172 484 1322 1049 60 225 18 381 -102 381
-92 0 -141 -68 -132 -181 9 -106 -23 -271 -69 -361 -145 -282 -501 -565 -799
-634 -121 -28 -276 -26 -335 5 -125 66 -152 182 -81 353 61 146 133 230 336
396 249 202 352 307 485 492 277 386 337 952 151 1419 -106 266 -222 420 -593
791 -277 278 -326 341 -433 559 -143 293 -163 717 -50 1051 43 126 47 171 19
225 -43 86 -155 106 -304 55 -337 -115 -645 -428 -758 -770 -99 -301 -72 -652
75 -970 77 -166 161 -406 187 -533 27 -130 22 -297 -13 -400 -37 -113 -68
-163 -137 -226 -94 -86 -181 -117 -258 -91 -83 27 -103 103 -80 300 25 209 29
433 9 543 -57 316 -193 558 -441 782 -330 299 -396 408 -365 597 19 118 57
188 168 314 221 252 365 537 419 829 23 122 26 489 5 595 -7 36 -16 85 -21
110 -37 203 -193 540 -358 770 -187 263 -471 493 -710 576 -158 54 -196 60
-265 42z"/>
<path d="M3004 7840 c-158 -74 -164 -292 -11 -380 161 -92 369 54 327 230 -32
135 -189 209 -316 150z"/>
<path d="M4808 7437 c-34 -28 -46 -54 -58 -119 -25 -134 -138 -306 -349 -535
-320 -345 -385 -459 -436 -753 -64 -375 102 -765 514 -1205 271 -289 387 -487
468 -795 23 -88 25 -119 33 -435 8 -370 13 -402 75 -525 61 -121 159 -206 228
-197 46 6 82 37 97 83 13 39 7 55 -58 134 -99 122 -112 179 -122 545 -9 332
-24 446 -80 616 -67 202 -223 448 -422 668 -337 371 -432 522 -493 779 -39
164 -23 341 46 503 59 139 103 203 231 339 211 222 257 276 332 393 51 80 77
128 129 249 23 53 41 160 33 193 -19 76 -111 110 -168 62z"/>
<path d="M1757 6289 c-81 -54 -174 -182 -270 -374 -111 -223 -162 -514 -138
-790 25 -276 25 -333 1 -424 -40 -159 -97 -236 -292 -398 -167 -139 -204 -174
-243 -228 -16 -22 -54 -67 -84 -100 -156 -171 -283 -446 -332 -720 -30 -168
-23 -481 15 -655 99 -457 378 -876 751 -1127 113 -77 172 -78 223 -3 46 68 15
138 -83 187 -167 85 -448 399 -547 613 -101 216 -158 460 -158 668 1 295 80
577 224 792 107 161 158 216 362 385 238 199 311 287 382 459 37 90 40 236 12
486 -31 277 -19 416 57 640 54 159 133 300 168 300 26 0 53 -37 71 -97 80
-276 178 -435 421 -683 83 -85 175 -184 203 -220 297 -372 327 -872 77 -1284
-40 -66 -232 -287 -346 -399 -248 -241 -343 -431 -358 -713 -12 -217 67 -407
235 -566 153 -144 382 -241 500 -210 122 33 152 86 181 318 38 309 132 515
324 712 91 92 117 109 117 73 0 -28 14 -33 55 -22 24 6 46 6 66 -1 24 -8 33
-7 49 7 16 14 23 15 34 6 18 -15 44 -9 109 25 59 31 63 15 12 -48 -99 -124
-206 -307 -250 -429 -136 -373 -153 -670 -56 -967 68 -207 188 -353 386 -470
328 -193 872 -188 1175 12 232 153 352 397 381 770 33 431 -147 748 -491 863
-77 25 -299 25 -385 -2 -141 -43 -268 -140 -358 -274 -57 -84 -64 -102 -88
-224 -23 -118 -24 -170 -4 -275 19 -98 49 -154 119 -220 86 -82 150 -106 271
-106 108 0 162 17 232 70 97 74 122 229 51 310 -30 34 -35 36 -77 31 -54 -6
-91 -42 -91 -88 0 -45 -26 -88 -58 -95 -15 -3 -33 -7 -40 -10 -56 -17 -163 68
-187 149 -25 83 -12 215 28 289 57 105 115 160 223 210 117 54 262 45 396 -23
218 -111 309 -531 189 -868 -88 -245 -254 -381 -513 -421 -120 -19 -393 -8
-488 20 -338 100 -515 382 -497 790 17 381 177 717 478 1005 382 365 497 520
580 787 41 130 48 319 15 374 -36 61 -98 79 -155 47 -43 -25 -52 -52 -56 -170
-9 -228 -77 -386 -227 -522 -10 -8 -18 -20 -18 -26 0 -5 -7 -19 -15 -29 -12
-16 -17 -17 -30 -6 -20 17 -32 5 -15 -15 11 -14 6 -24 -41 -71 -29 -30 -56
-49 -58 -43 -2 7 4 16 13 21 9 5 16 14 16 20 0 7 9 22 21 34 22 23 19 44 -7
44 -8 0 -14 -9 -14 -20 0 -11 -7 -20 -15 -20 -8 0 -15 7 -15 15 0 19 -18 19
-39 1 -9 -7 -45 -24 -81 -37 -70 -25 -148 -73 -157 -95 -3 -8 -11 -14 -19 -14
-9 0 -14 -12 -14 -34 0 -18 -7 -39 -15 -46 -8 -7 -15 -17 -15 -22 0 -17 -60
-67 -102 -85 -113 -49 -161 -53 -151 -14 7 28 -8 26 -37 -4 -31 -32 -49 -32
-61 3 -14 42 -85 77 -135 68 -72 -14 -247 -218 -336 -392 -75 -145 -138 -357
-138 -462 0 -45 -19 -100 -47 -133 -25 -29 -30 -31 -71 -25 -64 9 -138 52
-208 121 -164 162 -201 420 -93 654 49 106 128 207 317 402 283 294 392 473
461 759 62 258 46 494 -52 767 -72 200 -175 344 -412 578 -248 245 -318 363
-419 704 -9 29 -16 67 -16 85 -1 43 -48 126 -89 153 -53 36 -134 32 -194 -8z
m1993 -3176 c-1 -14 -79 -87 -86 -81 -8 9 58 88 74 88 6 0 12 -3 12 -7z"/>
<path d="M7705 5583 c-73 -38 -105 -90 -105 -170 0 -112 109 -202 209 -173
169 48 192 273 34 341 -54 23 -98 24 -138 2z"/>
<path d="M2022 4830 c-18 -11 -40 -36 -49 -55 -16 -34 -16 -39 2 -103 51 -187
56 -269 25 -401 -23 -96 -60 -178 -123 -271 -24 -36 -63 -94 -87 -130 -24 -36
-80 -103 -125 -150 -361 -379 -524 -798 -476 -1220 24 -204 79 -373 156 -475
12 -16 30 -55 39 -86 20 -72 62 -127 227 -301 202 -213 282 -269 606 -429 240
-118 262 -136 288 -221 46 -158 -183 -324 -529 -383 -126 -21 -375 -20 -491 4
-180 36 -305 91 -440 191 -73 55 -84 60 -131 60 -79 0 -134 -55 -134 -135 0
-95 81 -164 270 -230 41 -15 95 -35 120 -45 323 -129 852 -117 1242 27 73 27
123 25 278 -12 343 -82 606 -98 1605 -99 823 -1 876 1 1059 49 120 31 146 45
206 104 124 124 160 291 180 826 6 165 13 307 15 315 3 8 9 79 15 158 29 405
215 745 542 992 35 26 117 87 183 137 66 49 147 110 180 135 76 58 215 202
280 290 142 193 239 502 221 702 -26 282 -98 420 -200 386 -75 -24 -101 -93
-72 -190 82 -277 37 -512 -153 -794 -68 -100 -182 -203 -398 -357 -381 -272
-515 -412 -651 -679 -86 -170 -108 -238 -151 -460 -12 -61 -36 -449 -46 -720
-10 -278 -40 -430 -104 -523 -53 -78 -128 -110 -310 -135 -253 -34 -1590 -18
-1931 23 -298 36 -444 55 -460 60 -32 10 -30 33 7 87 118 173 109 296 -34 436
-38 37 -84 75 -103 84 -19 9 -123 59 -230 111 -249 121 -522 305 -614 415 -35
42 -186 282 -186 296 0 4 -13 27 -30 50 -59 87 -79 181 -87 411 -14 387 99
648 452 1050 277 316 375 521 375 788 0 294 -108 492 -228 417z"/>
<path d="M7435 3567 c-28 -28 -33 -41 -39 -102 -24 -224 -210 -503 -461 -690
-434 -323 -618 -579 -701 -975 -29 -134 -26 -616 4 -755 92 -429 235 -590 557
-625 178 -19 1468 -10 1515 12 110 50 117 181 12 225 -33 14 -56 14 -212 2
-233 -19 -1162 -19 -1270 -1 -237 39 -337 174 -385 516 -33 235 -13 554 45
726 70 208 231 436 393 558 16 11 66 55 111 97 46 42 104 89 129 106 56 37
214 201 283 293 125 167 228 446 203 553 -20 93 -119 125 -184 60z"/>
</g>
</svg>
