<svg xmlns="http://www.w3.org/2000/svg" viewBox="-16 -16 787.822029 811.276232" width="76" height="78">
  <g transform="translate(-37.272215,813.619375) scale(0.100000,-0.100000)"
fill="#1f3f8c" stroke="#1f3f8c" stroke-width="150" stroke-linejoin="round" stroke-linecap="round">
<path d="M4105 8134 c-246 -9 -631 -41 -770 -64 -515 -85 -836 -175 -1222
-341 -486 -209 -799 -410 -1110 -715 -373 -367 -567 -760 -623 -1264 -12 -103
-8 -752 5 -995 5 -82 23 -1052 30 -1580 7 -523 26 -737 81 -934 147 -524 515
-956 1099 -1289 147 -84 346 -186 405 -208 19 -7 69 -27 110 -44 418 -176 910
-291 1455 -342 396 -36 1130 -1 1223 60 55 36 69 121 27 170 -34 40 -68 46
-151 28 -206 -46 -648 -68 -959 -47 -327 22 -812 105 -1065 182 -535 164
-1020 409 -1352 683 -71 59 -299 304 -356 384 -103 144 -204 396 -258 642 -28
132 -38 383 -49 1265 -3 270 -13 688 -21 930 -14 418 -12 642 7 693 15 39 37
24 99 -69 193 -286 462 -518 865 -746 45 -25 178 -91 271 -133 81 -37 365
-140 489 -178 543 -166 1420 -251 1970 -192 518 55 864 137 1215 286 214 92
462 232 559 317 19 16 69 46 110 65 89 42 178 107 223 164 18 22 89 100 156
174 242 260 388 495 453 724 32 115 35 406 4 510 -58 200 -177 385 -358 557
-94 88 -342 260 -466 323 -737 370 -1726 490 -2681 324 -202 -34 -516 -114
-630 -159 -19 -8 -79 -30 -132 -49 -594 -218 -1019 -556 -1209 -961 -61 -130
-74 -190 -74 -350 0 -125 3 -149 27 -226 129 -406 539 -752 1128 -954 217 -74
358 -107 577 -135 741 -96 1474 0 2028 264 393 188 641 378 795 607 225 333
209 635 -47 926 -181 207 -575 398 -994 483 -509 103 -1229 52 -1699 -121 -47
-17 -103 -38 -125 -46 -22 -8 -83 -35 -135 -61 -366 -178 -576 -402 -597 -634
-6 -67 -6 -67 30 -103 41 -41 77 -45 137 -15 49 25 69 54 79 117 44 279 514
537 1201 660 210 38 676 40 905 5 499 -78 805 -206 1012 -425 268 -284 174
-629 -259 -953 -328 -245 -788 -418 -1303 -491 -164 -23 -760 -26 -915 -5
-253 35 -517 99 -692 168 -298 117 -492 239 -677 425 -326 329 -318 714 24
1078 441 468 1328 776 2305 798 526 12 948 -51 1467 -218 87 -27 192 -67 233
-88 41 -21 120 -57 175 -81 117 -51 155 -79 331 -245 231 -218 318 -383 331
-625 9 -188 -31 -329 -149 -527 -93 -154 -150 -225 -294 -368 -312 -308 -341
-332 -512 -421 -397 -205 -363 -189 -565 -268 -147 -57 -248 -90 -362 -115
-49 -12 -110 -25 -135 -31 -458 -104 -1274 -115 -1805 -24 -281 48 -647 140
-825 209 -62 24 -144 56 -165 65 -11 4 -45 18 -75 30 -207 83 -554 299 -705
438 -22 21 -64 57 -93 82 -109 90 -252 285 -320 435 -113 249 -123 461 -33
716 120 340 459 700 926 982 134 82 460 247 486 247 8 0 19 4 25 9 8 8 187 76
329 126 68 23 237 73 290 84 28 6 102 25 165 41 378 99 1081 159 1505 130 658
-46 968 -94 1360 -210 39 -12 79 -24 90 -27 11 -3 94 -32 185 -65 646 -235
1139 -611 1364 -1041 212 -403 180 -855 -87 -1227 -146 -204 -491 -566 -652
-685 -44 -32 -130 -96 -191 -141 -60 -46 -122 -86 -137 -89 -25 -7 -227 -198
-227 -216 0 -5 -29 -48 -64 -96 -175 -242 -257 -441 -289 -704 -35 -283 -30
-1268 8 -1476 43 -239 151 -353 336 -353 107 0 301 86 511 227 344 231 505
401 587 618 43 115 59 409 63 1180 l3 470 -25 49 c-33 66 -69 91 -130 91 -63
0 -116 -37 -283 -196 -165 -158 -202 -220 -162 -273 17 -23 19 -36 5 -36 -5 0
-10 7 -10 15 0 22 -31 18 -37 -4 -3 -12 -17 -23 -34 -26 -86 -19 -186 -213
-224 -435 -21 -121 -38 -472 -25 -521 17 -61 86 -108 134 -89 13 5 37 26 53
46 l28 37 6 236 c6 213 9 245 33 331 32 113 95 248 144 310 77 97 225 250 241
250 10 0 28 -12 42 -26 l24 -26 -2 -530 c-3 -492 -4 -539 -24 -642 -42 -222
-123 -342 -359 -531 -199 -160 -391 -266 -496 -273 -59 -4 -63 -3 -101 31 -72
66 -90 162 -102 557 -9 269 -3 597 14 865 19 292 111 525 294 741 62 73 356
347 407 380 46 29 173 134 300 249 6 6 43 39 83 75 104 92 289 296 384 423 91
120 106 127 141 67 21 -35 21 -40 18 -1305 -4 -1363 -4 -1378 -56 -1575 -60
-230 -140 -379 -293 -548 -256 -282 -629 -520 -1238 -793 -27 -12 -226 -85
-300 -111 -87 -29 -114 -45 -135 -81 -48 -78 -2 -157 92 -157 59 1 292 84 504
181 490 223 756 386 1089 665 257 215 434 500 505 814 10 47 24 108 31 135 17
73 40 3356 25 3505 -66 631 -373 1108 -971 1507 -155 103 -437 252 -595 313
-47 18 -89 37 -95 40 -9 7 -128 46 -310 104 -476 149 -1287 250 -1850 230z"/>
<path d="M4130 6389 c-259 -28 -460 -82 -650 -173 -123 -59 -157 -82 -190
-131 -59 -86 -37 -156 75 -235 42 -30 96 -71 118 -91 49 -43 46 -58 -24 -134
-62 -68 -124 -105 -175 -105 -94 0 -285 74 -449 175 -50 30 -67 36 -99 32 -75
-10 -123 -86 -91 -146 46 -90 364 -241 591 -281 119 -21 223 23 321 137 26 32
87 96 135 144 160 159 159 217 -7 329 -136 92 -104 144 124 200 273 68 568 76
801 21 209 -49 283 -84 288 -137 5 -49 -6 -56 -315 -209 -283 -139 -601 -326
-650 -383 -57 -65 -41 -148 33 -172 52 -18 91 -3 220 82 155 102 298 183 465
263 253 122 453 226 502 262 111 81 119 200 21 282 -210 177 -713 306 -1044
270z"/>
<path d="M6377 4787 c-26 -23 -47 -46 -47 -50 0 -5 -14 -22 -31 -39 -17 -18
-29 -40 -28 -52 2 -20 -1 -33 -22 -84 -15 -37 -11 -65 7 -58 9 3 20 6 26 6 5
0 9 12 8 28 -4 57 9 71 31 31 9 -17 7 -25 -10 -43 -27 -29 -26 -36 4 -36 16 0
25 -6 25 -15 0 -8 -9 -15 -20 -15 -13 0 -20 -7 -20 -20 0 -25 26 -26 52 -3 17
15 18 15 18 -5 0 -15 6 -22 19 -22 20 0 39 52 75 205 30 131 30 141 6 180 -28
45 -36 44 -93 -8z m20 -233 c8 -21 -13 -64 -32 -64 -17 0 -21 25 -5 35 6 3 10
15 10 26 0 23 18 25 27 3z"/>
<path d="M6318 4393 c-17 -3 -28 -11 -28 -20 0 -8 -11 -24 -25 -35 -27 -21
-33 -48 -11 -48 8 0 20 14 28 30 7 18 20 30 31 30 10 0 25 6 33 14 15 15 19
37 7 35 -5 -1 -20 -4 -35 -6z"/>
<path d="M1180 4209 c-97 -44 -145 -121 -166 -269 -16 -113 -19 -730 -4 -855
5 -44 14 -118 20 -165 8 -61 8 -136 0 -273 -13 -219 -5 -270 54 -331 53 -57
109 -46 155 28 26 41 27 91 4 211 -15 78 -17 164 -18 655 0 556 0 566 22 635
27 85 63 124 121 132 68 9 380 -106 658 -242 173 -85 254 -174 298 -328 23
-79 26 -527 7 -1125 -15 -487 -11 -588 30 -755 60 -241 231 -404 519 -495 307
-97 750 -145 1119 -122 437 28 588 83 668 246 66 132 68 155 68 809 0 621 -4
684 -46 779 -59 134 -143 163 -413 146 -206 -14 -254 -22 -332 -59 -109 -51
-167 -144 -190 -301 -19 -132 -19 -410 0 -455 33 -79 105 -108 160 -64 47 37
50 52 57 274 8 311 24 338 225 370 188 30 265 2 302 -110 18 -53 27 -731 14
-981 -9 -174 -10 -183 -41 -246 -54 -109 -133 -150 -331 -173 -483 -57 -994 1
-1313 148 -145 67 -227 179 -263 357 -16 78 -16 137 -8 680 14 904 12 1050 -9
1143 -52 221 -179 354 -450 472 -67 29 -152 66 -188 83 -70 31 -190 79 -329
130 -202 75 -316 89 -400 51z"/>
<path d="M4660 3619 c-271 -30 -509 -48 -795 -59 -461 -19 -554 -40 -662 -148
-63 -63 -99 -138 -125 -256 -29 -138 -47 -1099 -24 -1281 27 -210 88 -305 223
-345 52 -16 112 12 137 64 27 57 21 75 -43 135 -99 95 -96 77 -95 626 1 685
12 768 113 865 93 89 159 102 631 125 173 8 398 25 500 37 102 11 241 22 310
22 119 1 127 0 175 -27 85 -47 116 -107 135 -257 14 -113 21 -2165 8 -2362 -9
-138 -8 -149 11 -187 27 -51 56 -71 106 -71 44 1 63 11 90 53 17 26 18 86 16
1269 -2 1432 -4 1478 -70 1618 -88 187 -225 225 -641 179z"/>
<path d="M1668 3300 c-48 -37 -52 -65 -39 -248 14 -200 14 -457 1 -762 -5
-124 -11 -291 -12 -371 l-2 -147 28 -36 c15 -21 43 -45 62 -54 33 -15 37 -15
71 3 71 39 69 27 79 508 5 237 9 560 9 717 0 275 -1 286 -22 327 -43 80 -119
108 -175 63z"/>
</g>
</svg>
