<svg xmlns="http://www.w3.org/2000/svg" viewBox="-54 -16 905 914.635279" width="84" height="88">
  <g transform="translate(-38.040241,918.719834) scale(0.100000,-0.100000)"
fill="#1f3f8c" stroke="#1f3f8c" stroke-width="150" stroke-linejoin="round" stroke-linecap="round">
<path d="M4257 9178 c-52 -14 -101 -65 -115 -120 -13 -53 -2 -101 51 -225 234
-540 161 -1111 -197 -1527 -55 -64 -244 -233 -372 -333 -208 -163 -381 -378
-466 -583 -31 -75 -44 -114 -78 -235 -5 -16 -14 -93 -21 -170 -32 -361 69
-693 316 -1040 208 -293 280 -477 278 -710 -2 -223 -78 -402 -245 -583 -60
-65 -68 -78 -68 -112 0 -57 41 -100 100 -107 57 -6 101 24 195 134 166 194
235 377 243 643 8 282 -42 433 -247 745 -239 366 -292 478 -335 721 -50 282
28 610 202 844 75 101 243 266 377 370 338 262 521 525 630 905 68 238 58 634
-23 895 -48 153 -52 178 -32 202 17 21 21 22 54 10 134 -49 283 -168 457 -364
211 -239 364 -559 426 -893 25 -131 22 -427 -4 -545 -20 -88 -53 -197 -84
-280 -30 -77 -144 -252 -235 -360 -54 -63 -117 -142 -142 -175 -173 -234 -192
-497 -51 -731 37 -62 160 -191 313 -329 222 -200 351 -404 394 -625 46 -233
51 -318 27 -485 -32 -231 -37 -310 -20 -382 47 -202 206 -295 425 -248 223 47
414 228 494 467 73 219 44 564 -70 837 -195 467 -208 514 -208 771 0 174 2
204 22 275 59 206 189 398 348 516 179 132 259 129 234 -8 -66 -350 -53 -625
42 -903 104 -305 225 -481 542 -785 356 -341 515 -577 590 -877 67 -270 60
-452 -26 -713 -101 -307 -244 -490 -624 -801 -233 -191 -372 -377 -418 -559
-94 -367 77 -593 449 -595 559 -2 1172 484 1322 1049 60 225 18 381 -102 381
-92 0 -141 -68 -132 -181 9 -106 -23 -271 -69 -361 -145 -282 -501 -565 -799
-634 -121 -28 -276 -26 -335 5 -125 66 -152 182 -81 353 61 146 133 230 336
396 249 202 352 307 485 492 277 386 337 952 151 1419 -106 266 -222 420 -593
791 -277 278 -326 341 -433 559 -143 293 -163 717 -50 1051 43 126 47 171 19
225 -43 86 -155 106 -304 55 -337 -115 -645 -428 -758 -770 -99 -301 -72 -652
75 -970 77 -166 161 -406 187 -533 27 -130 22 -297 -13 -400 -37 -113 -68
-163 -137 -226 -94 -86 -181 -117 -258 -91 -83 27 -103 103 -80 300 25 209 29
433 9 543 -57 316 -193 558 -441 782 -330 299 -396 408 -365 597 19 118 57
188 168 314 221 252 365 537 419 829 23 122 26 489 5 595 -7 36 -16 85 -21
110 -37 203 -193 540 -358 770 -187 263 -471 493 -710 576 -158 54 -196 60
-265 42z"/>
<path d="M3004 7840 c-158 -74 -164 -292 -11 -380 161 -92 369 54 327 230 -32
135 -189 209 -316 150z"/>
<path d="M7705 5583 c-73 -38 -105 -90 -105 -170 0 -112 109 -202 209 -173
169 48 192 273 34 341 -54 23 -98 24 -138 2z"/>
<path d="M2022 4830 c-18 -11 -40 -36 -49 -55 -16 -34 -16 -39 2 -103 51 -187
56 -269 25 -401 -23 -96 -60 -178 -123 -271 -24 -36 -63 -94 -87 -130 -24 -36
-80 -103 -125 -150 -361 -379 -524 -798 -476 -1220 24 -204 79 -373 156 -475
12 -16 30 -55 39 -86 20 -72 62 -127 227 -301 202 -213 282 -269 606 -429 240
-118 262 -136 288 -221 46 -158 -183 -324 -529 -383 -126 -21 -375 -20 -491 4
-180 36 -305 91 -440 191 -73 55 -84 60 -131 60 -79 0 -134 -55 -134 -135 0
-95 81 -164 270 -230 41 -15 95 -35 120 -45 323 -129 852 -117 1242 27 73 27
123 25 278 -12 343 -82 606 -98 1605 -99 823 -1 876 1 1059 49 120 31 146 45
206 104 124 124 160 291 180 826 6 165 13 307 15 315 3 8 9 79 15 158 29 405
215 745 542 992 35 26 117 87 183 137 66 49 147 110 180 135 76 58 215 202
280 290 142 193 239 502 221 702 -26 282 -98 420 -200 386 -75 -24 -101 -93
-72 -190 82 -277 37 -512 -153 -794 -68 -100 -182 -203 -398 -357 -381 -272
-515 -412 -651 -679 -86 -170 -108 -238 -151 -460 -12 -61 -36 -449 -46 -720
-10 -278 -40 -430 -104 -523 -53 -78 -128 -110 -310 -135 -253 -34 -1590 -18
-1931 23 -298 36 -444 55 -460 60 -32 10 -30 33 7 87 118 173 109 296 -34 436
-38 37 -84 75 -103 84 -19 9 -123 59 -230 111 -249 121 -522 305 -614 415 -35
42 -186 282 -186 296 0 4 -13 27 -30 50 -59 87 -79 181 -87 411 -14 387 99
648 452 1050 277 316 375 521 375 788 0 294 -108 492 -228 417z"/>
</g>
</svg>
