<svg xmlns="http://www.w3.org/2000/svg" viewBox="0 0 1175.728829 846.703821" width="118" height="85">
  <g transform="translate(-35.845017,880.897078) scale(0.100000,-0.100000)"
fill="#0d1e40" stroke="none">
<path d="M6510 8790 c-319 -46 -494 -94 -815 -224 -318 -129 -747 -384 -873
-521 -35 -38 -73 -68 -104 -81 -41 -17 -271 -201 -358 -286 -34 -34 -186 -159
-300 -248 -171 -134 -418 -290 -707 -448 -43 -23 -156 -85 -252 -137 -96 -52
-176 -95 -178 -95 -2 0 -16 -9 -31 -19 -15 -11 -117 -74 -227 -141 -343 -210
-796 -523 -1025 -709 -724 -586 -1202 -1203 -1275 -1646 -16 -98 -3 -189 40
-279 30 -64 152 -194 264 -281 35 -28 84 -67 109 -88 217 -183 877 -638 1250
-862 451 -270 756 -437 1014 -556 95 -44 180 -84 189 -88 8 -5 76 -35 150 -66
246 -104 343 -151 402 -196 101 -78 245 -228 431 -449 49 -58 134 -152 189
-210 95 -100 140 -142 306 -290 319 -282 785 -472 1279 -521 135 -13 515 -7
612 10 198 35 246 45 337 67 312 75 595 246 695 421 83 144 99 326 40 463 -68
160 -229 285 -440 342 -67 18 -119 22 -412 28 -387 9 -513 25 -611 75 -66 34
-92 92 -65 144 12 23 14 36 6 57 -13 34 -9 38 65 54 33 7 67 18 75 25 8 6 49
21 90 34 41 13 92 29 113 37 44 16 70 8 42 -12 -41 -30 1 -23 125 22 186 66
346 142 465 219 28 18 81 51 118 74 90 55 266 183 397 289 190 154 590 569
687 712 42 61 262 283 314 316 167 105 355 79 505 -72 104 -104 198 -267 320
-556 30 -73 64 -153 75 -177 11 -24 29 -65 39 -92 38 -97 134 -277 205 -384
227 -344 545 -565 960 -666 134 -33 530 -34 686 -2 58 12 116 27 130 32 59 24
114 97 130 170 15 71 1 122 -113 425 -49 133 -153 429 -229 660 -237 712 -341
914 -636 1230 -93 100 -95 134 -11 188 271 172 439 311 663 549 257 275 511
681 645 1034 115 302 136 574 64 798 -190 582 -1146 492 -1827 -172 -223 -217
-374 -425 -572 -786 -227 -415 -262 -475 -317 -548 -144 -189 -301 -248 -488
-183 -112 39 -186 101 -560 471 -518 513 -816 756 -1282 1048 -156 98 -466
251 -737 363 -148 62 -193 116 -167 204 21 68 152 169 336 257 52 25 127 60
165 79 142 67 366 234 412 306 57 91 36 204 -49 256 -76 47 -139 56 -368 57
-225 0 -306 -12 -525 -81 -321 -101 -805 -400 -805 -498 0 -26 27 -73 52 -90
53 -37 128 -12 243 80 222 178 467 306 680 354 101 23 332 40 391 29 71 -13
84 -22 84 -61 0 -42 -60 -94 -185 -162 -136 -74 -195 -110 -195 -118 0 -5 -5
-8 -11 -8 -21 0 -272 -131 -332 -174 -106 -76 -169 -184 -174 -301 -4 -88 22
-144 90 -195 48 -36 72 -47 307 -146 174 -73 322 -142 402 -189 34 -21 101
-58 148 -83 279 -150 665 -428 959 -689 91 -81 306 -287 476 -459 308 -309
390 -381 495 -434 246 -124 471 -90 695 104 98 84 230 282 384 574 140 266
135 257 267 457 246 372 550 643 884 788 426 185 798 145 914 -98 215 -449
-414 -1588 -1137 -2059 -64 -42 -119 -76 -122 -76 -4 0 -20 -9 -36 -21 -31
-22 -188 -92 -231 -102 -43 -11 -98 -81 -98 -125 0 -47 44 -103 103 -134 220
-112 494 -459 619 -783 43 -112 102 -277 141 -395 93 -287 139 -417 286 -825
61 -168 66 -218 24 -265 -39 -43 -148 -63 -348 -63 -465 -1 -876 233 -1130
643 -77 125 -145 268 -250 530 -140 348 -194 449 -322 602 -150 181 -298 265
-483 275 -227 13 -439 -103 -575 -313 -22 -34 -51 -70 -66 -80 -27 -19 -63
-58 -253 -275 -416 -473 -900 -835 -1410 -1056 -106 -46 -392 -150 -481 -175
-140 -39 -226 -98 -255 -174 -56 -147 117 -343 370 -419 165 -49 225 -55 560
-59 258 -3 305 -6 376 -24 170 -44 283 -125 317 -229 98 -299 -225 -532 -878
-634 -127 -20 -565 -18 -699 4 -367 59 -674 186 -967 403 -145 106 -463 432
-644 659 -107 133 -250 297 -288 330 -49 43 -173 104 -342 170 -250 98 -344
140 -623 278 -316 157 -473 245 -514 290 -54 57 -34 86 116 168 434 234 751
628 860 1068 40 164 51 278 50 541 -1 374 -40 594 -154 874 -136 332 -250 516
-481 778 -100 113 -109 129 -109 193 0 58 28 90 138 158 107 66 354 196 442
232 36 15 110 48 165 75 55 26 186 76 290 110 231 76 310 120 435 240 39 37
46 40 98 40 62 0 100 -14 70 -25 -12 -5 -15 -17 -14 -48 3 -57 27 -69 121 -57
147 18 413 32 495 26 47 -4 145 -12 219 -17 150 -13 197 -5 232 39 41 52 12
140 -54 161 -17 6 -113 15 -212 20 -99 6 -225 13 -280 17 -87 5 -113 2 -205
-20 -58 -15 -145 -31 -195 -36 -158 -17 -360 -28 -368 -21 -4 5 32 37 80 72
48 35 118 92 155 126 100 94 198 150 198 113 0 -16 20 -12 52 11 18 13 43 51
64 95 38 78 104 148 174 180 19 10 52 28 72 41 21 12 49 23 64 23 18 0 25 4
21 14 -4 10 3 13 26 12 24 -1 32 3 31 15 -1 12 4 15 19 11 16 -4 19 -1 15 14
-4 17 0 19 34 16 37 -4 53 10 23 22 -22 8 -18 26 5 26 11 0 20 4 20 9 0 18 73
52 97 46 20 -5 24 -3 19 12 -4 14 2 22 27 32 17 8 40 21 50 29 20 17 35 27
104 62 26 14 50 27 53 30 11 11 127 68 165 80 22 7 56 25 75 39 39 29 56 38
147 76 60 24 91 33 268 76 161 39 337 61 531 66 482 14 798 -89 889 -289 115
-251 -68 -572 -466 -817 -155 -96 -182 -127 -160 -184 29 -77 94 -91 191 -42
343 173 616 477 676 755 108 495 -316 814 -1075 809 -111 -1 -222 -8 -301 -19z
m-3954 -2645 c88 -44 255 -224 381 -410 269 -400 383 -780 383 -1279 0 -446
-128 -793 -394 -1074 -108 -113 -183 -173 -319 -257 -258 -157 -381 -197 -498
-162 -105 32 -504 288 -957 614 -157 113 -445 354 -497 415 -84 99 -86 198
-10 397 46 121 70 167 162 306 119 180 228 307 524 615 13 14 73 70 133 125
60 55 121 111 135 124 159 145 547 430 801 589 46 29 95 28 156 -3z"/>
<path d="M2000 5235 c-309 -55 -517 -284 -537 -590 -17 -271 160 -522 437
-620 223 -79 486 -7 655 178 112 123 165 260 165 428 0 163 -60 299 -190 430
-150 152 -329 211 -530 174z m172 -216 c311 -66 432 -443 216 -674 -92 -99
-163 -130 -298 -129 -98 0 -109 2 -170 32 -186 94 -273 276 -226 473 33 141
148 250 309 294 65 17 102 18 169 4z"/>
<path d="M5085 6773 c-351 -15 -601 -73 -874 -204 -131 -62 -163 -81 -322
-186 -166 -110 -264 -233 -277 -349 -7 -65 14 -157 63 -269 234 -543 319 -907
332 -1412 15 -583 -89 -939 -408 -1396 -106 -151 -119 -177 -126 -241 -16
-152 115 -250 497 -374 330 -107 880 -173 1180 -142 424 43 667 98 955 216 77
31 173 69 213 85 227 86 656 378 899 612 286 276 487 582 548 834 24 103 18
292 -14 382 -26 75 -81 197 -136 301 -39 75 -161 210 -190 210 -14 0 -25 21
-25 49 0 22 -66 125 -107 166 -127 129 -154 150 -202 150 -40 0 -46 3 -49 23
-3 18 -8 21 -28 16 -14 -4 -24 -2 -24 5 0 6 7 11 15 11 19 0 19 23 1 58 -21
40 -172 165 -278 229 -51 31 -109 71 -128 89 -101 94 -458 287 -680 367 -345
124 -579 158 -829 121 -314 -46 -518 -147 -586 -289 -38 -81 -41 -149 -12
-290 105 -511 126 -628 147 -800 41 -349 39 -971 -5 -1332 -26 -210 -6 -327
72 -413 54 -61 76 -73 168 -93 230 -52 634 -16 963 85 541 166 1068 605 1176
982 46 159 19 355 -72 531 -90 173 -369 463 -537 560 -27 15 -75 47 -105 70
-231 176 -709 342 -885 307 -103 -21 -165 -93 -185 -218 -22 -131 -1 -1054 29
-1315 13 -114 47 -204 93 -246 126 -117 545 -24 781 173 176 148 235 282 193
441 -39 147 -276 365 -422 389 -112 17 -183 -78 -184 -246 0 -117 36 -180 103
-180 31 0 87 61 87 94 0 13 8 34 19 47 l19 23 39 -27 c67 -47 107 -111 111
-182 4 -57 2 -63 -35 -112 -95 -127 -282 -225 -430 -227 -162 -1 -180 73 -189
789 l-6 440 24 45 c35 68 58 77 163 62 48 -7 126 -26 173 -41 122 -41 417
-186 466 -230 23 -21 73 -63 111 -95 298 -248 434 -465 435 -692 0 -68 -29
-171 -65 -224 -12 -19 -34 -54 -49 -77 -14 -23 -54 -72 -88 -109 -359 -385
-865 -604 -1403 -608 -189 -1 -233 9 -286 64 -68 71 -70 96 -46 530 24 424 21
611 -13 985 -20 213 -68 534 -98 650 -19 73 -35 235 -28 291 17 146 119 217
372 260 184 31 434 3 676 -77 214 -70 304 -113 551 -261 54 -33 118 -68 141
-78 24 -10 79 -49 122 -87 67 -58 161 -134 318 -255 16 -12 96 -97 177 -189
82 -92 155 -169 162 -172 31 -12 214 -321 250 -422 52 -147 58 -310 16 -432
-81 -235 -304 -531 -568 -751 -381 -320 -699 -497 -1106 -617 -228 -67 -277
-78 -495 -112 -166 -25 -679 -25 -830 0 -431 73 -681 152 -730 232 -23 37 -26
100 -8 142 7 15 40 71 73 123 212 331 327 644 366 1000 13 123 7 636 -10 778
-33 284 -112 577 -270 996 -100 266 -98 319 21 432 199 190 541 335 923 390
147 21 455 13 599 -16 54 -11 135 -24 180 -30 56 -8 119 -26 204 -61 150 -61
255 -77 267 -40 3 12 18 24 33 27 46 10 92 34 92 48 0 36 -136 101 -380 181
-227 74 -593 144 -704 133 -12 -1 -52 -3 -91 -5z"/>
<path d="M3385 6602 c-85 -47 -124 -152 -72 -199 39 -36 91 -63 123 -63 56 0
174 127 174 188 0 15 -15 38 -41 63 -52 50 -107 53 -184 11z"/>
<path d="M11200 6564 c-223 -40 -452 -165 -616 -336 -167 -175 -374 -481 -374
-555 0 -42 60 -93 108 -93 58 0 88 30 167 167 95 166 162 252 290 376 91 88
303 202 363 195 65 -7 65 -102 1 -245 -17 -38 -36 -94 -44 -126 -17 -71 -49
-128 -114 -198 -28 -30 -75 -87 -103 -127 -103 -143 -209 -248 -363 -358 -160
-114 -227 -151 -660 -367 -143 -71 -271 -137 -285 -147 -61 -42 -194 -101
-295 -131 -101 -30 -120 -33 -240 -31 -147 2 -184 -7 -220 -49 -35 -42 -33
-89 5 -132 29 -34 30 -34 162 -46 288 -26 570 -171 819 -420 195 -196 296
-370 442 -761 108 -288 153 -378 272 -545 143 -201 312 -277 369 -166 33 64
15 106 -83 184 -145 117 -227 256 -350 592 -134 363 -205 504 -352 691 -88
113 -140 159 -214 193 -43 20 -85 49 -123 88 -31 32 -87 87 -124 121 -80 77
-98 111 -75 146 24 35 156 109 495 276 437 215 566 304 824 569 199 204 213
224 411 571 35 62 126 296 148 382 44 172 -14 275 -160 283 -31 2 -67 1 -81
-1z"/>
<path d="M6345 6390 c-3 -5 -14 -10 -24 -10 -10 0 -26 -9 -35 -19 -10 -11 -31
-23 -47 -26 -16 -4 -29 -11 -29 -16 0 -24 135 -115 360 -243 74 -42 182 -110
240 -151 58 -41 135 -95 172 -120 37 -26 118 -90 180 -143 62 -53 152 -127
199 -164 81 -63 123 -108 292 -311 38 -45 88 -102 111 -127 56 -59 91 -107
153 -210 110 -183 172 -319 218 -475 29 -102 48 -129 98 -146 34 -11 43 -10
74 6 73 39 81 114 29 257 -98 267 -186 423 -358 631 -27 32 -70 91 -97 130
-27 40 -106 128 -176 197 -70 69 -162 160 -204 204 -127 131 -401 348 -596
473 -326 207 -341 216 -436 253 -58 21 -114 26 -124 10z"/>
<path d="M4703 1885 c-33 -33 -35 -39 -31 -80 7 -56 37 -94 214 -270 181 -181
370 -325 444 -341 56 -12 114 -38 157 -71 68 -52 110 -71 209 -93 95 -22 153
-38 274 -73 68 -20 98 -22 330 -22 317 0 434 17 487 70 45 45 44 83 -1 128
-40 40 -72 48 -141 37 -424 -74 -803 -13 -1181 190 -118 63 -198 119 -323 224
-111 94 -151 146 -151 192 0 58 -126 144 -210 144 -35 0 -48 -6 -77 -35z"/>
</g>
</svg>
