<svg xmlns="http://www.w3.org/2000/svg" viewBox="0 0 557.128597 818.407171" width="56" height="82">
  <g transform="translate(-35.916203,853.556613) scale(0.100000,-0.100000)"
fill="#3f63a6" stroke="#3f63a6" stroke-width="150" stroke-linejoin="round" stroke-linecap="round">
<path d="M2663 8525 c-269 -23 -553 -68 -733 -117 -41 -11 -92 -24 -113 -29
-84 -20 -322 -115 -472 -189 -387 -190 -608 -412 -690 -695 -45 -155 -43 -435
6 -950 39 -410 49 -511 59 -590 6 -44 17 -150 25 -235 8 -85 26 -245 40 -355
14 -110 30 -236 35 -280 5 -44 14 -120 20 -170 14 -121 37 -298 55 -420 8 -55
22 -154 30 -220 61 -492 136 -926 191 -1100 81 -256 84 -268 91 -381 8 -154
-8 -247 -79 -459 -100 -299 -117 -455 -73 -701 45 -256 131 -445 298 -650 67
-83 212 -212 292 -261 11 -7 56 -35 100 -62 328 -202 711 -292 1320 -307 568
-15 964 45 1334 203 398 170 674 422 787 720 77 203 105 400 86 597 -14 142
-42 240 -161 568 -40 109 -53 253 -35 380 21 153 60 230 134 268 130 66 332
32 424 -71 58 -64 78 -114 78 -190 -1 -125 -51 -176 -169 -171 -67 2 -74 0
-103 -25 -96 -87 1 -213 154 -200 240 19 400 300 312 548 -79 225 -289 368
-550 374 -91 2 -101 4 -119 26 -23 29 -23 35 37 479 41 301 45 335 71 560 14
118 34 284 45 368 11 85 27 218 35 295 30 291 36 345 50 487 8 80 25 258 39
395 41 404 88 896 107 1120 34 399 -35 613 -268 836 -187 180 -516 353 -843
443 -36 10 -85 24 -110 31 -177 52 -462 101 -720 126 -187 17 -822 20 -1017 4z
m712 -215 c364 -16 694 -61 984 -136 359 -93 737 -290 864 -449 228 -286 88
-561 -408 -805 -185 -91 -564 -211 -760 -241 -405 -62 -570 -74 -1000 -74
-374 0 -445 5 -750 46 -537 73 -1033 265 -1249 484 -106 107 -140 185 -134
303 14 310 460 601 1223 797 81 21 513 63 765 74 91 4 179 9 195 9 17 1 138
-3 270 -8z m1975 -1392 c41 -67 11 -272 -48 -330 -15 -14 -83 -59 -151 -98
-69 -40 -150 -92 -180 -116 -116 -91 -202 -161 -288 -234 -355 -303 -632 -450
-901 -479 -336 -36 -535 12 -1047 254 -460 218 -820 264 -1164 148 -164 -55
-267 -119 -382 -240 -35 -37 -83 -84 -107 -105 -42 -37 -44 -37 -71 -23 -47
24 -49 31 -97 530 -8 88 -22 216 -30 285 -18 159 -20 336 -3 372 21 48 40 44
161 -35 371 -244 836 -390 1438 -454 243 -26 968 -26 1195 0 651 75 1131 230
1534 495 52 34 100 62 108 62 7 0 22 -15 33 -32z m-63 -664 c23 -36 22 -137
-5 -379 -12 -104 -33 -302 -47 -440 -39 -372 -59 -454 -142 -584 -112 -174
-365 -319 -683 -391 -288 -66 -353 -75 -1095 -150 -845 -87 -1204 -143 -1337
-211 -64 -32 -132 -103 -166 -171 -67 -133 -72 -282 -31 -888 12 -179 6 -579
-11 -695 -57 -394 -67 -543 -45 -670 65 -373 379 -596 995 -706 111 -20 160
-23 440 -23 395 -1 594 22 865 102 247 73 339 118 440 217 134 130 139 234 13
274 -49 16 -84 -2 -133 -69 -67 -92 -171 -144 -440 -224 -311 -91 -855 -109
-1210 -40 -484 94 -693 243 -741 530 -17 103 -14 167 22 486 34 301 40 527 23
810 -8 128 -14 316 -14 418 0 408 60 471 505 535 63 9 158 22 210 30 113 17
235 31 385 44 254 23 445 41 520 51 44 5 172 21 285 35 113 14 243 32 290 40
47 9 108 20 135 25 253 44 503 133 667 236 82 52 133 19 131 -84 -2 -58 -3
-71 -54 -432 -17 -118 -35 -251 -40 -295 -15 -128 -59 -363 -85 -455 -70 -240
-84 -316 -83 -455 0 -184 19 -281 108 -543 104 -307 117 -424 72 -658 -56
-289 -271 -548 -591 -709 -126 -63 -266 -120 -335 -135 -356 -77 -526 -99
-840 -107 -778 -18 -1328 144 -1681 495 -117 117 -165 186 -218 311 -131 310
-135 520 -20 881 114 359 123 530 42 810 -16 58 -36 128 -43 155 -8 28 -21 70
-30 95 -55 154 -120 539 -200 1190 -8 63 -20 160 -26 215 -20 158 -17 404 4
500 28 121 56 191 110 274 147 228 352 351 651 392 163 22 394 -20 640 -116
98 -38 348 -152 416 -189 33 -18 260 -100 330 -119 265 -73 586 -59 864 39
152 53 448 237 620 383 332 283 476 389 528 391 10 0 25 -12 35 -26z"/>
<path d="M2865 7934 c-413 -36 -646 -78 -908 -165 -231 -76 -375 -152 -441
-229 -48 -58 -27 -148 40 -170 49 -16 84 -7 152 38 173 118 481 218 822 268
130 19 407 33 645 34 565 1 1035 -111 1035 -245 0 -62 -87 -108 -259 -139
-112 -20 -160 -67 -147 -142 13 -66 73 -92 174 -74 249 43 440 137 493 242
135 265 -208 482 -891 564 -121 14 -611 26 -715 18z"/>
<path d="M3040 7308 c-41 -5 -149 -6 -240 -3 -155 5 -168 4 -219 -17 -92 -38
-116 -116 -56 -185 l23 -28 343 -3 c379 -3 393 -1 425 60 31 59 3 145 -54 166
-39 15 -136 19 -222 10z"/>
<path d="M2000 5360 c-368 -41 -554 -324 -458 -700 48 -188 202 -270 279 -147
26 41 20 89 -16 146 -81 129 -72 286 22 383 71 73 206 108 339 88 164 -24 273
-64 674 -252 256 -120 497 -177 780 -185 162 -5 200 -3 305 17 299 54 490 136
705 302 164 127 213 214 161 286 -48 68 -111 56 -217 -39 -261 -233 -551 -339
-931 -339 -284 0 -446 43 -858 230 -414 188 -583 233 -785 210z"/>
<path d="M3950 3755 c-58 -8 -136 -19 -175 -25 -38 -6 -106 -15 -150 -20 -44
-5 -138 -16 -210 -25 -71 -9 -184 -22 -250 -30 -610 -72 -716 -139 -766 -481
-27 -187 -31 -1060 -5 -1183 44 -208 180 -300 514 -346 253 -34 507 -29 730
15 179 36 244 94 287 260 15 58 17 105 11 425 -10 534 -21 608 -99 682 -63 60
-116 64 -375 32 -254 -31 -292 -42 -362 -105 -86 -78 -116 -199 -108 -429 6
-149 22 -194 84 -241 49 -38 137 -46 175 -15 59 46 73 118 34 172 -54 76 -65
105 -65 181 1 149 49 195 235 222 237 34 264 -12 265 -449 0 -429 -24 -486
-225 -531 -114 -25 -463 -25 -585 0 -140 30 -230 79 -265 147 -52 99 -67 399
-41 824 31 525 44 536 696 614 224 28 365 46 701 93 149 20 233 -7 277 -93 24
-44 24 -44 15 -279 -21 -614 1 -948 82 -1235 8 -27 17 -73 21 -102 5 -38 15
-62 39 -90 18 -21 35 -48 39 -60 7 -21 77 -53 117 -53 42 0 54 109 26 220
-130 511 -145 697 -107 1320 24 384 -5 504 -133 573 -53 27 -265 33 -427 12z"/>
<path d="M715 3303 c-11 -3 -52 -20 -90 -38 -237 -114 -334 -402 -215 -635 68
-134 263 -230 383 -191 79 26 120 114 80 171 -30 44 -44 49 -125 47 -69 -2
-79 0 -103 23 -51 48 -68 96 -62 176 9 116 59 186 173 240 29 14 63 37 75 52
52 66 -29 174 -116 155z"/>
</g>
</svg>
