<svg xmlns="http://www.w3.org/2000/svg" viewBox="5 5 690 813" width="66" height="78">
<path fill="#1f3f8c" stroke="#1f3f8c" stroke-width="13" stroke-linejoin="round" stroke-linecap="round" d="M 345.0 20.0 C 348.5 20.0 353.0 20.7 359.0 23.0 C 365.0 25.3 372.8 28.5 381.0 34.0 C 389.2 39.5 403.5 52.0 408.0 56.0 C 412.5 60.0 405.8 55.5 408.0 58.0 C 410.2 60.5 418.8 68.5 421.0 71.0 C 423.2 73.5 420.5 72.3 421.0 73.0 C 421.5 73.7 423.5 74.3 424.0 75.0 C 424.5 75.7 422.7 75.0 424.0 77.0 C 425.3 79.0 428.7 81.3 432.0 87.0 C 435.3 92.7 441.2 104.7 444.0 111.0 C 446.8 117.3 447.2 117.3 449.0 125.0 C 450.8 132.7 454.0 146.7 455.0 157.0 C 456.0 167.3 455.8 177.3 455.0 187.0 C 454.2 196.7 453.2 205.0 450.0 215.0 C 446.8 225.0 443.0 235.7 436.0 247.0 C 429.0 258.3 413.5 274.8 408.0 283.0 C 402.5 291.2 403.8 292.2 403.0 296.0 C 402.2 299.8 402.7 303.0 403.0 306.0 C 403.3 309.0 403.8 311.2 405.0 314.0 C 406.2 316.8 402.3 314.5 410.0 323.0 C 417.7 331.5 442.0 354.2 451.0 365.0 C 460.0 375.8 460.8 380.8 464.0 388.0 C 467.2 395.2 468.7 402.3 470.0 408.0 C 471.3 413.7 471.7 415.7 472.0 422.0 C 472.3 428.3 472.5 438.5 472.0 446.0 C 471.5 453.5 469.5 461.0 469.0 467.0 C 468.5 473.0 468.5 478.7 469.0 482.0 C 469.5 485.3 471.2 486.2 472.0 487.0 C 472.8 487.8 473.5 486.7 474.0 487.0 C 474.5 487.3 473.5 488.7 475.0 489.0 C 476.5 489.3 479.5 490.2 483.0 489.0 C 486.5 487.8 492.3 485.0 496.0 482.0 C 499.7 479.0 502.5 475.8 505.0 471.0 C 507.5 466.2 510.0 460.5 511.0 453.0 C 512.0 445.5 511.5 432.8 511.0 426.0 C 510.5 419.2 511.0 420.2 508.0 412.0 C 505.0 403.8 496.7 386.7 493.0 377.0 C 489.3 367.3 487.5 360.3 486.0 354.0 C 484.5 347.7 484.3 345.2 484.0 339.0 C 483.7 332.8 483.5 323.5 484.0 317.0 C 484.5 310.5 485.0 306.3 487.0 300.0 C 489.0 293.7 494.2 282.7 496.0 279.0 C 497.8 275.3 497.5 278.8 498.0 278.0 C 498.5 277.2 497.7 276.0 499.0 274.0 C 500.3 272.0 504.8 267.7 506.0 266.0 C 507.2 264.3 502.5 267.7 506.0 264.0 C 509.5 260.3 521.0 248.8 527.0 244.0 C 533.0 239.2 536.8 237.5 542.0 235.0 C 547.2 232.5 552.8 230.0 558.0 229.0 C 563.2 228.0 569.3 227.8 573.0 229.0 C 576.7 230.2 578.8 233.0 580.0 236.0 C 581.2 239.0 581.3 240.5 580.0 247.0 C 578.7 253.5 573.5 264.8 572.0 275.0 C 570.5 285.2 570.7 299.7 571.0 308.0 C 571.3 316.3 572.3 318.8 574.0 325.0 C 575.7 331.2 577.3 337.5 581.0 345.0 C 584.7 352.5 586.2 358.7 596.0 370.0 C 605.8 381.3 632.7 405.5 640.0 413.0 C 647.3 420.5 637.5 412.0 640.0 415.0 C 642.5 418.0 650.0 424.0 655.0 431.0 C 660.0 438.0 666.3 449.3 670.0 457.0 C 673.7 464.7 675.3 470.8 677.0 477.0 C 678.7 483.2 679.5 485.5 680.0 494.0 C 680.5 502.5 681.0 518.2 680.0 528.0 C 679.0 537.8 676.7 545.2 674.0 553.0 C 671.3 560.8 666.0 571.2 664.0 575.0 C 662.0 578.8 662.7 574.8 662.0 576.0 C 661.3 577.2 661.2 580.2 660.0 582.0 C 658.8 583.8 656.2 585.3 655.0 587.0 C 653.8 588.7 656.3 588.0 653.0 592.0 C 649.7 596.0 638.0 607.5 635.0 611.0 C 632.0 614.5 636.8 610.5 635.0 613.0 C 633.2 615.5 627.7 620.3 624.0 626.0 C 620.3 631.7 616.3 639.5 613.0 647.0 C 609.7 654.5 608.7 661.5 604.0 671.0 C 599.3 680.5 591.5 695.2 585.0 704.0 C 578.5 712.8 571.5 719.2 565.0 724.0 C 558.5 728.8 552.0 731.3 546.0 733.0 C 540.0 734.7 533.0 734.2 529.0 734.0 C 525.0 733.8 525.0 733.7 522.0 732.0 C 519.0 730.3 514.0 727.3 511.0 724.0 C 508.0 720.7 505.7 716.0 504.0 712.0 C 502.3 708.0 501.5 706.7 501.0 700.0 C 500.5 693.3 499.5 682.5 501.0 672.0 C 502.5 661.5 507.7 644.2 510.0 637.0 C 512.3 629.8 514.0 631.2 515.0 629.0 C 516.0 626.8 515.5 625.0 516.0 624.0 C 516.5 623.0 516.2 625.8 518.0 623.0 C 519.8 620.2 524.8 610.2 527.0 607.0 C 529.2 603.8 530.3 604.8 531.0 604.0 C 531.7 603.2 527.3 606.0 531.0 602.0 C 534.7 598.0 549.0 583.7 553.0 580.0 C 557.0 576.3 551.7 582.8 555.0 580.0 C 558.3 577.2 569.7 565.8 573.0 563.0 C 576.3 560.2 572.2 565.8 575.0 563.0 C 577.8 560.2 585.8 551.8 590.0 546.0 C 594.2 540.2 597.3 535.5 600.0 528.0 C 602.7 520.5 604.3 506.0 606.0 501.0 C 607.7 496.0 608.0 498.5 610.0 498.0 C 612.0 497.5 615.8 497.0 618.0 498.0 C 620.2 499.0 622.2 501.0 623.0 504.0 C 623.8 507.0 623.8 510.8 623.0 516.0 C 622.2 521.2 620.0 529.5 618.0 535.0 C 616.0 540.5 612.5 546.5 611.0 549.0 C 609.5 551.5 610.0 548.5 609.0 550.0 C 608.0 551.5 606.3 556.2 605.0 558.0 C 603.7 559.8 601.7 560.2 601.0 561.0 C 600.3 561.8 601.7 562.2 601.0 563.0 C 600.3 563.8 597.7 565.2 597.0 566.0 C 596.3 566.8 599.0 565.7 597.0 568.0 C 595.0 570.3 587.3 578.0 585.0 580.0 C 582.7 582.0 586.2 577.3 583.0 580.0 C 579.8 582.7 569.2 593.3 566.0 596.0 C 562.8 598.7 567.7 592.7 564.0 596.0 C 560.3 599.3 547.7 611.8 544.0 616.0 C 540.3 620.2 543.2 619.3 542.0 621.0 C 540.8 622.7 538.3 623.8 537.0 626.0 C 535.7 628.2 534.8 632.5 534.0 634.0 C 533.2 635.5 533.7 631.5 532.0 635.0 C 530.3 638.5 526.0 648.3 524.0 655.0 C 522.0 661.7 520.7 667.7 520.0 675.0 C 519.3 682.3 519.7 693.8 520.0 699.0 C 520.3 704.2 521.0 703.8 522.0 706.0 C 523.0 708.2 524.2 710.5 526.0 712.0 C 527.8 713.5 530.3 714.7 533.0 715.0 C 535.7 715.3 539.0 714.8 542.0 714.0 C 545.0 713.2 546.8 713.0 551.0 710.0 C 555.2 707.0 564.3 698.7 567.0 696.0 C 569.7 693.3 565.7 695.8 567.0 694.0 C 568.3 692.2 572.7 688.7 575.0 685.0 C 577.3 681.3 579.5 674.7 581.0 672.0 C 582.5 669.3 581.8 673.8 584.0 669.0 C 586.2 664.2 590.3 651.3 594.0 643.0 C 597.7 634.7 603.7 623.2 606.0 619.0 C 608.3 614.8 606.7 620.0 608.0 618.0 C 609.3 616.0 612.5 609.2 614.0 607.0 C 615.5 604.8 616.5 605.7 617.0 605.0 C 617.5 604.3 616.3 603.8 617.0 603.0 C 617.7 602.2 620.3 600.8 621.0 600.0 C 621.7 599.2 617.8 601.8 621.0 598.0 C 624.2 594.2 634.8 584.0 640.0 577.0 C 645.2 570.0 648.8 562.8 652.0 556.0 C 655.2 549.2 657.5 541.3 659.0 536.0 C 660.5 530.7 660.7 530.5 661.0 524.0 C 661.3 517.5 661.5 504.2 661.0 497.0 C 660.5 489.8 659.3 486.2 658.0 481.0 C 656.7 475.8 656.2 472.5 653.0 466.0 C 649.8 459.5 644.5 449.3 639.0 442.0 C 633.5 434.7 623.2 425.7 620.0 422.0 C 616.8 418.3 620.8 420.8 620.0 420.0 C 619.2 419.2 620.8 422.5 615.0 417.0 C 609.2 411.5 590.0 392.3 585.0 387.0 C 580.0 381.7 585.7 385.8 585.0 385.0 C 584.3 384.2 581.7 382.8 581.0 382.0 C 580.3 381.2 582.7 382.3 581.0 380.0 C 579.3 377.7 573.8 372.2 571.0 368.0 C 568.2 363.8 567.0 363.0 564.0 355.0 C 561.0 347.0 555.0 332.5 553.0 320.0 C 551.0 307.5 551.5 289.7 552.0 280.0 C 552.5 270.3 555.3 266.3 556.0 262.0 C 556.7 257.7 556.7 255.5 556.0 254.0 C 555.3 252.5 555.5 251.7 552.0 253.0 C 548.5 254.3 539.7 258.8 535.0 262.0 C 530.3 265.2 525.8 270.0 524.0 272.0 C 522.2 274.0 525.2 272.5 524.0 274.0 C 522.8 275.5 519.5 277.3 517.0 281.0 C 514.5 284.7 511.2 290.7 509.0 296.0 C 506.8 301.3 504.7 304.0 504.0 313.0 C 503.3 322.0 504.2 341.3 505.0 350.0 C 505.8 358.7 506.2 357.7 509.0 365.0 C 511.8 372.3 518.5 384.2 522.0 394.0 C 525.5 403.8 528.7 414.0 530.0 424.0 C 531.3 434.0 530.7 446.2 530.0 454.0 C 529.3 461.8 528.5 465.0 526.0 471.0 C 523.5 477.0 518.2 485.5 515.0 490.0 C 511.8 494.5 510.5 495.3 507.0 498.0 C 503.5 500.7 498.0 504.2 494.0 506.0 C 490.0 507.8 486.7 508.5 483.0 509.0 C 479.3 509.5 475.0 509.3 472.0 509.0 C 469.0 508.7 467.8 508.7 465.0 507.0 C 462.2 505.3 457.5 502.3 455.0 499.0 C 452.5 495.7 450.8 492.8 450.0 487.0 C 449.2 481.2 449.5 471.3 450.0 464.0 C 450.5 456.7 452.5 449.2 453.0 443.0 C 453.5 436.8 453.7 433.5 453.0 427.0 C 452.3 420.5 451.2 411.2 449.0 404.0 C 446.8 396.8 441.8 387.5 440.0 384.0 C 438.2 380.5 439.0 384.5 438.0 383.0 C 437.0 381.5 441.0 382.7 434.0 375.0 C 427.0 367.3 403.7 345.7 396.0 337.0 C 388.3 328.3 390.0 327.8 388.0 323.0 C 386.0 318.2 384.7 312.8 384.0 308.0 C 383.3 303.2 383.3 298.7 384.0 294.0 C 384.7 289.3 385.8 284.8 388.0 280.0 C 390.2 275.2 395.0 267.8 397.0 265.0 C 399.0 262.2 399.5 263.7 400.0 263.0 C 400.5 262.3 396.7 265.5 400.0 261.0 C 403.3 256.5 415.0 243.8 420.0 236.0 C 425.0 228.2 427.3 222.5 430.0 214.0 C 432.7 205.5 435.0 193.8 436.0 185.0 C 437.0 176.2 436.5 168.2 436.0 161.0 C 435.5 153.8 435.0 149.8 433.0 142.0 C 431.0 134.2 428.2 123.3 424.0 114.0 C 419.8 104.7 414.7 95.0 408.0 86.0 C 401.3 77.0 391.5 66.5 384.0 60.0 C 376.5 53.5 367.3 49.0 363.0 47.0 C 358.7 45.0 357.8 40.2 358.0 48.0 C 358.2 55.8 363.2 82.0 364.0 94.0 C 364.8 106.0 363.8 111.8 363.0 120.0 C 362.2 128.2 360.8 135.8 359.0 143.0 C 357.2 150.2 354.7 156.8 352.0 163.0 C 349.3 169.2 345.8 175.7 343.0 180.0 C 340.2 184.3 336.3 187.2 335.0 189.0 C 333.7 190.8 335.8 190.0 335.0 191.0 C 334.2 192.0 330.8 194.0 330.0 195.0 C 329.2 196.0 333.2 193.7 330.0 197.0 C 326.8 200.3 314.5 212.0 311.0 215.0 C 307.5 218.0 310.2 214.0 309.0 215.0 C 307.8 216.0 305.2 220.0 304.0 221.0 C 302.8 222.0 303.5 219.7 302.0 221.0 C 300.5 222.3 296.5 227.7 295.0 229.0 C 293.5 230.3 295.8 226.3 293.0 229.0 C 290.2 231.7 281.7 240.2 278.0 245.0 C 274.3 249.8 272.5 255.7 271.0 258.0 C 269.5 260.3 270.8 255.0 269.0 259.0 C 267.2 263.0 261.8 276.0 260.0 282.0 C 258.2 288.0 258.3 289.3 258.0 295.0 C 257.7 300.7 257.3 309.3 258.0 316.0 C 258.7 322.7 259.5 327.7 262.0 335.0 C 264.5 342.3 268.3 351.8 273.0 360.0 C 277.7 368.2 285.0 376.0 290.0 384.0 C 295.0 392.0 299.8 399.7 303.0 408.0 C 306.2 416.3 308.0 426.3 309.0 434.0 C 310.0 441.7 309.3 448.7 309.0 454.0 C 308.7 459.3 308.0 461.8 307.0 466.0 C 306.0 470.2 304.8 474.5 303.0 479.0 C 301.2 483.5 297.7 490.3 296.0 493.0 C 294.3 495.7 294.0 493.7 293.0 495.0 C 292.0 496.3 292.8 498.0 290.0 501.0 C 287.2 504.0 279.5 511.2 276.0 513.0 C 272.5 514.8 271.0 513.2 269.0 512.0 C 267.0 510.8 264.7 508.2 264.0 506.0 C 263.3 503.8 262.7 502.5 265.0 499.0 C 267.3 495.5 274.5 489.8 278.0 485.0 C 281.5 480.2 284.0 475.5 286.0 470.0 C 288.0 464.5 289.3 457.5 290.0 452.0 C 290.7 446.5 290.3 441.5 290.0 437.0 C 289.7 432.5 289.2 429.3 288.0 425.0 C 286.8 420.7 284.3 413.8 283.0 411.0 C 281.7 408.2 281.5 410.7 280.0 408.0 C 278.5 405.3 277.8 401.2 274.0 395.0 C 270.2 388.8 262.0 379.7 257.0 371.0 C 252.0 362.3 247.0 351.5 244.0 343.0 C 241.0 334.5 239.8 329.2 239.0 320.0 C 238.2 310.8 238.0 297.2 239.0 288.0 C 240.0 278.8 241.8 273.0 245.0 265.0 C 248.2 257.0 254.2 246.0 258.0 240.0 C 261.8 234.0 266.3 231.2 268.0 229.0 C 269.7 226.8 265.2 230.2 268.0 227.0 C 270.8 223.8 281.8 212.8 285.0 210.0 C 288.2 207.2 285.7 211.2 287.0 210.0 C 288.3 208.8 291.7 204.2 293.0 203.0 C 294.3 201.8 293.7 204.2 295.0 203.0 C 296.3 201.8 299.7 197.2 301.0 196.0 C 302.3 194.8 300.2 198.5 303.0 196.0 C 305.8 193.5 315.5 183.8 318.0 181.0 C 320.5 178.2 317.3 179.8 318.0 179.0 C 318.7 178.2 321.3 176.8 322.0 176.0 C 322.7 175.2 320.8 175.7 322.0 174.0 C 323.2 172.3 326.5 170.2 329.0 166.0 C 331.5 161.8 334.5 156.7 337.0 149.0 C 339.5 141.3 342.7 129.3 344.0 120.0 C 345.3 110.7 345.3 101.3 345.0 93.0 C 344.7 84.7 344.0 79.5 342.0 70.0 C 340.0 60.5 334.5 42.5 333.0 36.0 C 331.5 29.5 332.2 33.2 333.0 31.0 C 333.8 28.8 336.0 24.8 338.0 23.0 C 340.0 21.2 341.5 20.0 345.0 20.0 Z M 239.0 133.0 C 241.5 132.5 245.3 132.5 248.0 133.0 C 250.7 133.5 253.2 134.8 255.0 136.0 C 256.8 137.2 257.8 138.2 259.0 140.0 C 260.2 141.8 261.5 144.3 262.0 147.0 C 262.5 149.7 262.5 153.5 262.0 156.0 C 261.5 158.5 261.3 159.8 259.0 162.0 C 256.7 164.2 251.3 167.8 248.0 169.0 C 244.7 170.2 241.3 169.3 239.0 169.0 C 236.7 168.7 235.7 168.2 234.0 167.0 C 232.3 165.8 230.3 164.0 229.0 162.0 C 227.7 160.0 226.5 157.7 226.0 155.0 C 225.5 152.3 225.7 148.3 226.0 146.0 C 226.3 143.7 226.8 142.7 228.0 141.0 C 229.2 139.3 231.2 137.3 233.0 136.0 C 234.8 134.7 236.5 133.5 239.0 133.0 Z M 389.0 167.0 C 391.2 166.5 394.2 167.0 396.0 168.0 C 397.8 169.0 399.3 170.3 400.0 173.0 C 400.7 175.7 400.7 180.2 400.0 184.0 C 399.3 187.8 399.0 189.8 396.0 196.0 C 393.0 202.2 389.3 211.5 382.0 221.0 C 374.7 230.5 357.0 247.3 352.0 253.0 C 347.0 258.7 352.8 254.0 352.0 255.0 C 351.2 256.0 348.3 257.2 347.0 259.0 C 345.7 260.8 344.8 264.7 344.0 266.0 C 343.2 267.3 343.7 263.2 342.0 267.0 C 340.3 270.8 335.5 282.2 334.0 289.0 C 332.5 295.8 332.2 300.8 333.0 308.0 C 333.8 315.2 336.7 325.3 339.0 332.0 C 341.3 338.7 344.8 344.5 347.0 348.0 C 349.2 351.5 350.8 351.3 352.0 353.0 C 353.2 354.7 353.0 356.7 354.0 358.0 C 355.0 359.3 357.3 360.2 358.0 361.0 C 358.7 361.8 357.2 362.0 358.0 363.0 C 358.8 364.0 362.2 366.0 363.0 367.0 C 363.8 368.0 361.5 367.3 363.0 369.0 C 364.5 370.7 370.5 375.3 372.0 377.0 C 373.5 378.7 369.2 375.7 372.0 379.0 C 374.8 382.3 386.2 393.7 389.0 397.0 C 391.8 400.3 387.0 396.2 389.0 399.0 C 391.0 401.8 397.5 408.7 401.0 414.0 C 404.5 419.3 407.5 425.0 410.0 431.0 C 412.5 437.0 414.7 444.5 416.0 450.0 C 417.3 455.5 417.7 451.8 418.0 464.0 C 418.3 476.2 417.3 511.3 418.0 523.0 C 418.7 534.7 419.3 529.8 422.0 534.0 C 424.7 538.2 432.0 544.5 434.0 548.0 C 436.0 551.5 434.8 553.0 434.0 555.0 C 433.2 557.0 431.3 559.2 429.0 560.0 C 426.7 560.8 422.2 560.7 420.0 560.0 C 417.8 559.3 417.0 556.7 416.0 556.0 C 415.0 555.3 416.0 558.3 414.0 556.0 C 412.0 553.7 406.3 546.2 404.0 542.0 C 401.7 537.8 401.0 534.5 400.0 531.0 C 399.0 527.5 398.2 531.8 398.0 521.0 C 397.8 510.2 399.3 477.8 399.0 466.0 C 398.7 454.2 397.2 454.5 396.0 450.0 C 394.8 445.5 393.8 443.2 392.0 439.0 C 390.2 434.8 386.5 427.5 385.0 425.0 C 383.5 422.5 384.3 426.0 383.0 424.0 C 381.7 422.0 378.5 415.2 377.0 413.0 C 375.5 410.8 374.5 411.7 374.0 411.0 C 373.5 410.3 377.3 412.8 374.0 409.0 C 370.7 405.2 357.3 391.8 354.0 388.0 C 350.7 384.2 355.5 387.7 354.0 386.0 C 352.5 384.3 346.5 379.7 345.0 378.0 C 343.5 376.3 345.8 377.0 345.0 376.0 C 344.2 375.0 340.8 373.0 340.0 372.0 C 339.2 371.0 341.5 372.2 340.0 370.0 C 338.5 367.8 334.3 364.5 331.0 359.0 C 327.7 353.5 322.8 344.7 320.0 337.0 C 317.2 329.3 314.8 321.5 314.0 313.0 C 313.2 304.5 314.2 293.0 315.0 286.0 C 315.8 279.0 317.3 275.7 319.0 271.0 C 320.7 266.3 323.7 260.3 325.0 258.0 C 326.3 255.7 325.8 258.8 327.0 257.0 C 328.2 255.2 329.7 250.2 332.0 247.0 C 334.3 243.8 339.5 239.8 341.0 238.0 C 342.5 236.2 339.0 238.2 341.0 236.0 C 343.0 233.8 351.0 227.2 353.0 225.0 C 355.0 222.8 350.5 226.0 353.0 223.0 C 355.5 220.0 364.0 212.2 368.0 207.0 C 372.0 201.8 374.5 198.0 377.0 192.0 C 379.5 186.0 381.0 175.2 383.0 171.0 C 385.0 166.8 386.8 167.5 389.0 167.0 Z M 136.0 264.0 C 139.2 263.3 142.5 264.0 145.0 265.0 C 147.5 266.0 148.8 264.3 151.0 270.0 C 153.2 275.7 155.2 290.3 158.0 299.0 C 160.8 307.7 164.8 316.5 168.0 322.0 C 171.2 327.5 175.5 330.0 177.0 332.0 C 178.5 334.0 172.2 328.8 177.0 334.0 C 181.8 339.2 201.2 357.8 206.0 363.0 C 210.8 368.2 205.2 364.0 206.0 365.0 C 206.8 366.0 210.2 368.0 211.0 369.0 C 211.8 370.0 209.7 369.0 211.0 371.0 C 212.3 373.0 216.3 376.3 219.0 381.0 C 221.7 385.7 224.8 392.3 227.0 399.0 C 229.2 405.7 231.2 412.2 232.0 421.0 C 232.8 429.8 232.7 443.7 232.0 452.0 C 231.3 460.3 229.5 465.5 228.0 471.0 C 226.5 476.5 225.7 479.3 223.0 485.0 C 220.3 490.7 215.7 499.7 212.0 505.0 C 208.3 510.3 202.8 514.7 201.0 517.0 C 199.2 519.3 202.3 517.5 201.0 519.0 C 199.7 520.5 194.3 524.5 193.0 526.0 C 191.7 527.5 195.2 525.7 193.0 528.0 C 190.8 530.3 182.2 537.7 180.0 540.0 C 177.8 542.3 181.7 539.8 180.0 542.0 C 178.3 544.2 172.8 549.0 170.0 553.0 C 167.2 557.0 164.7 562.3 163.0 566.0 C 161.3 569.7 160.8 570.8 160.0 575.0 C 159.2 579.2 157.8 586.2 158.0 591.0 C 158.2 595.8 159.5 600.0 161.0 604.0 C 162.5 608.0 164.2 611.5 167.0 615.0 C 169.8 618.5 174.7 622.7 178.0 625.0 C 181.3 627.3 184.3 628.3 187.0 629.0 C 189.7 629.7 192.2 629.8 194.0 629.0 C 195.8 628.2 196.8 628.8 198.0 624.0 C 199.2 619.2 199.3 607.2 201.0 600.0 C 202.7 592.8 204.3 588.2 208.0 581.0 C 211.7 573.8 218.5 563.0 223.0 557.0 C 227.5 551.0 232.0 547.5 235.0 545.0 C 238.0 542.5 239.0 542.3 241.0 542.0 C 243.0 541.7 245.3 542.3 247.0 543.0 C 248.7 543.7 250.2 544.0 251.0 546.0 C 251.8 548.0 254.7 550.5 252.0 555.0 C 249.3 559.5 239.8 566.5 235.0 573.0 C 230.2 579.5 226.0 586.7 223.0 594.0 C 220.0 601.3 218.3 609.5 217.0 617.0 C 215.7 624.5 216.2 634.0 215.0 639.0 C 213.8 644.0 212.0 645.2 210.0 647.0 C 208.0 648.8 206.0 649.5 203.0 650.0 C 200.0 650.5 195.8 650.5 192.0 650.0 C 188.2 649.5 185.0 649.2 180.0 647.0 C 175.0 644.8 166.8 640.5 162.0 637.0 C 157.2 633.5 154.0 630.0 151.0 626.0 C 148.0 622.0 145.8 617.3 144.0 613.0 C 142.2 608.7 140.7 605.8 140.0 600.0 C 139.3 594.2 139.5 583.8 140.0 578.0 C 140.5 572.2 140.5 571.2 143.0 565.0 C 145.5 558.8 151.2 547.0 155.0 541.0 C 158.8 535.0 164.2 531.3 166.0 529.0 C 167.8 526.7 161.8 531.7 166.0 527.0 C 170.2 522.3 186.8 505.7 191.0 501.0 C 195.2 496.3 189.7 500.8 191.0 499.0 C 192.3 497.2 197.2 492.8 199.0 490.0 C 200.8 487.2 201.2 483.5 202.0 482.0 C 202.8 480.5 202.3 485.2 204.0 481.0 C 205.7 476.8 210.7 467.5 212.0 457.0 C 213.3 446.5 213.0 427.8 212.0 418.0 C 211.0 408.2 208.3 403.7 206.0 398.0 C 203.7 392.3 200.5 387.5 198.0 384.0 C 195.5 380.5 192.2 378.5 191.0 377.0 C 189.8 375.5 195.8 380.2 191.0 375.0 C 186.2 369.8 166.8 351.2 162.0 346.0 C 157.2 340.8 162.7 344.8 162.0 344.0 C 161.3 343.2 158.7 341.8 158.0 341.0 C 157.3 340.2 159.2 340.7 158.0 339.0 C 156.8 337.3 153.3 334.7 151.0 331.0 C 148.7 327.3 146.2 323.0 144.0 317.0 C 141.8 311.0 139.7 299.3 138.0 295.0 C 136.3 290.7 135.3 291.2 134.0 291.0 C 132.7 290.8 131.8 291.7 130.0 294.0 C 128.2 296.3 125.5 299.7 123.0 305.0 C 120.5 310.3 116.7 320.8 115.0 326.0 C 113.3 331.2 113.5 328.3 113.0 336.0 C 112.5 343.7 111.7 363.3 112.0 372.0 C 112.3 380.7 114.5 381.5 115.0 388.0 C 115.5 394.5 115.8 403.5 115.0 411.0 C 114.2 418.5 113.3 424.8 110.0 433.0 C 106.7 441.2 102.3 450.2 95.0 460.0 C 87.7 469.8 70.8 486.3 66.0 492.0 C 61.2 497.7 66.5 493.3 66.0 494.0 C 65.5 494.7 63.5 495.3 63.0 496.0 C 62.5 496.7 64.3 496.0 63.0 498.0 C 61.7 500.0 57.7 503.7 55.0 508.0 C 52.3 512.3 49.5 516.8 47.0 524.0 C 44.5 531.2 41.3 543.5 40.0 551.0 C 38.7 558.5 38.8 562.7 39.0 569.0 C 39.2 575.3 40.0 582.8 41.0 589.0 C 42.0 595.2 42.7 599.0 45.0 606.0 C 47.3 613.0 53.0 626.7 55.0 631.0 C 57.0 635.3 55.2 629.0 57.0 632.0 C 58.8 635.0 62.7 644.2 66.0 649.0 C 69.3 653.8 75.2 658.7 77.0 661.0 C 78.8 663.3 74.5 660.3 77.0 663.0 C 79.5 665.7 87.3 673.3 92.0 677.0 C 96.7 680.7 101.7 682.5 105.0 685.0 C 108.3 687.5 111.0 689.3 112.0 692.0 C 113.0 694.7 111.8 698.8 111.0 701.0 C 110.2 703.2 109.0 704.3 107.0 705.0 C 105.0 705.7 103.2 706.8 99.0 705.0 C 94.8 703.2 88.3 699.2 82.0 694.0 C 75.7 688.8 64.5 677.7 61.0 674.0 C 57.5 670.3 62.3 673.7 61.0 672.0 C 59.7 670.3 54.3 665.7 53.0 664.0 C 51.7 662.3 54.7 664.5 53.0 662.0 C 51.3 659.5 45.0 652.2 43.0 649.0 C 41.0 645.8 41.7 644.2 41.0 643.0 C 40.3 641.8 39.3 642.7 39.0 642.0 C 38.7 641.3 40.3 642.0 39.0 639.0 C 37.7 636.0 33.8 631.7 31.0 624.0 C 28.2 616.3 23.7 605.7 22.0 593.0 C 20.3 580.3 20.0 560.2 21.0 548.0 C 22.0 535.8 25.2 528.2 28.0 520.0 C 30.8 511.8 36.0 502.7 38.0 499.0 C 40.0 495.3 39.5 498.8 40.0 498.0 C 40.5 497.2 40.3 495.0 41.0 494.0 C 41.7 493.0 42.8 493.7 44.0 492.0 C 45.2 490.3 46.0 486.7 48.0 484.0 C 50.0 481.3 54.7 477.7 56.0 476.0 C 57.3 474.3 54.7 475.5 56.0 474.0 C 57.3 472.5 62.7 468.5 64.0 467.0 C 65.3 465.5 61.3 468.2 64.0 465.0 C 66.7 461.8 75.5 454.0 80.0 448.0 C 84.5 442.0 88.5 434.2 91.0 429.0 C 93.5 423.8 94.2 420.7 95.0 417.0 C 95.8 413.3 96.0 412.5 96.0 407.0 C 96.0 401.5 95.5 389.3 95.0 384.0 C 94.5 378.7 93.3 382.8 93.0 375.0 C 92.7 367.2 92.5 345.7 93.0 337.0 C 93.5 328.3 94.5 328.2 96.0 323.0 C 97.5 317.8 98.5 313.3 102.0 306.0 C 105.5 298.7 113.0 285.2 117.0 279.0 C 121.0 272.8 122.8 271.5 126.0 269.0 C 129.2 266.5 132.8 264.7 136.0 264.0 Z M 633.0 325.0 C 635.8 324.5 641.2 324.5 644.0 325.0 C 646.8 325.5 648.2 326.3 650.0 328.0 C 651.8 329.7 654.2 331.7 655.0 335.0 C 655.8 338.3 655.3 345.2 655.0 348.0 C 654.7 350.8 654.8 350.2 653.0 352.0 C 651.2 353.8 647.3 357.8 644.0 359.0 C 640.7 360.2 635.5 359.3 633.0 359.0 C 630.5 358.7 630.7 358.3 629.0 357.0 C 627.3 355.7 624.3 352.8 623.0 351.0 C 621.7 349.2 621.3 348.2 621.0 346.0 C 620.7 343.8 620.7 340.2 621.0 338.0 C 621.3 335.8 622.0 334.7 623.0 333.0 C 624.0 331.3 625.3 329.3 627.0 328.0 C 628.7 326.7 630.2 325.5 633.0 325.0 Z M 152.0 392.0 C 154.0 391.5 158.5 391.7 160.0 392.0 C 161.5 392.3 160.5 393.7 161.0 394.0 C 161.5 394.3 161.5 391.2 163.0 394.0 C 164.5 396.8 168.7 403.7 170.0 411.0 C 171.3 418.3 171.2 431.7 171.0 438.0 C 170.8 444.3 170.2 444.8 169.0 449.0 C 167.8 453.2 166.0 458.5 164.0 463.0 C 162.0 467.5 159.7 472.0 157.0 476.0 C 154.3 480.0 149.5 484.8 148.0 487.0 C 146.5 489.2 148.7 488.2 148.0 489.0 C 147.3 489.8 144.7 491.2 144.0 492.0 C 143.3 492.8 144.7 493.2 144.0 494.0 C 143.3 494.8 140.7 496.2 140.0 497.0 C 139.3 497.8 141.7 497.0 140.0 499.0 C 138.3 501.0 133.0 505.2 130.0 509.0 C 127.0 512.8 123.8 519.5 122.0 522.0 C 120.2 524.5 121.7 519.5 119.0 524.0 C 116.3 528.5 108.8 542.7 106.0 549.0 C 103.2 555.3 103.0 557.0 102.0 562.0 C 101.0 567.0 100.2 573.0 100.0 579.0 C 99.8 585.0 100.0 591.5 101.0 598.0 C 102.0 604.5 103.0 610.5 106.0 618.0 C 109.0 625.5 113.3 635.0 119.0 643.0 C 124.7 651.0 136.2 662.2 140.0 666.0 C 143.8 669.8 141.2 665.3 142.0 666.0 C 142.8 666.7 144.2 669.3 145.0 670.0 C 145.8 670.7 145.0 668.7 147.0 670.0 C 149.0 671.3 149.0 673.8 157.0 678.0 C 165.0 682.2 187.2 691.0 195.0 695.0 C 202.8 699.0 201.2 698.7 204.0 702.0 C 206.8 705.3 209.5 709.7 212.0 715.0 C 214.5 720.3 215.2 728.0 219.0 734.0 C 222.8 740.0 227.3 745.2 235.0 751.0 C 242.7 756.8 257.0 764.8 265.0 769.0 C 273.0 773.2 276.0 773.8 283.0 776.0 C 290.0 778.2 294.7 781.0 307.0 782.0 C 319.3 783.0 344.3 783.0 357.0 782.0 C 369.7 781.0 374.0 779.0 383.0 776.0 C 392.0 773.0 402.8 769.0 411.0 764.0 C 419.2 759.0 427.3 751.2 432.0 746.0 C 436.7 740.8 437.5 735.3 439.0 733.0 C 440.5 730.7 440.2 733.5 441.0 732.0 C 441.8 730.5 442.8 739.3 444.0 724.0 C 445.2 708.7 445.8 659.3 448.0 640.0 C 450.2 620.7 454.0 616.3 457.0 608.0 C 460.0 599.7 464.2 593.2 466.0 590.0 C 467.8 586.8 467.0 590.5 468.0 589.0 C 469.0 587.5 470.7 582.8 472.0 581.0 C 473.3 579.2 475.3 578.8 476.0 578.0 C 476.7 577.2 474.7 577.5 476.0 576.0 C 477.3 574.5 482.7 570.5 484.0 569.0 C 485.3 567.5 481.3 569.8 484.0 567.0 C 486.7 564.2 497.0 554.5 500.0 552.0 C 503.0 549.5 500.5 553.2 502.0 552.0 C 503.5 550.8 507.0 546.5 509.0 545.0 C 511.0 543.5 512.7 544.0 514.0 543.0 C 515.3 542.0 514.2 541.2 517.0 539.0 C 519.8 536.8 526.2 534.0 531.0 530.0 C 535.8 526.0 543.5 517.8 546.0 515.0 C 548.5 512.2 544.7 514.8 546.0 513.0 C 547.3 511.2 551.2 508.8 554.0 504.0 C 556.8 499.2 561.0 490.3 563.0 484.0 C 565.0 477.7 565.5 470.5 566.0 466.0 C 566.5 461.5 566.5 461.0 566.0 457.0 C 565.5 453.0 563.8 445.0 563.0 442.0 C 562.2 439.0 561.3 441.0 561.0 439.0 C 560.7 437.0 560.0 432.5 561.0 430.0 C 562.0 427.5 565.0 425.0 567.0 424.0 C 569.0 423.0 571.3 423.7 573.0 424.0 C 574.7 424.3 575.3 423.3 577.0 426.0 C 578.7 428.7 581.7 435.7 583.0 440.0 C 584.3 444.3 584.8 445.7 585.0 452.0 C 585.2 458.3 585.3 469.8 584.0 478.0 C 582.7 486.2 579.2 495.2 577.0 501.0 C 574.8 506.8 572.3 510.8 571.0 513.0 C 569.7 515.2 570.0 512.5 569.0 514.0 C 568.0 515.5 566.3 520.2 565.0 522.0 C 563.7 523.8 561.7 524.2 561.0 525.0 C 560.3 525.8 563.8 523.8 561.0 527.0 C 558.2 530.2 547.2 541.2 544.0 544.0 C 540.8 546.8 544.7 541.8 542.0 544.0 C 539.3 546.2 532.7 553.3 528.0 557.0 C 523.3 560.7 518.5 562.3 514.0 566.0 C 509.5 569.7 503.5 576.8 501.0 579.0 C 498.5 581.2 502.2 575.3 499.0 579.0 C 495.8 582.7 486.2 594.7 482.0 601.0 C 477.8 607.3 476.5 609.7 474.0 617.0 C 471.5 624.3 468.5 636.7 467.0 645.0 C 465.5 653.3 465.3 655.7 465.0 667.0 C 464.7 678.3 465.3 703.2 465.0 713.0 C 464.7 722.8 464.0 721.8 463.0 726.0 C 462.0 730.2 461.2 733.3 459.0 738.0 C 456.8 742.7 455.0 747.8 450.0 754.0 C 445.0 760.2 437.5 768.8 429.0 775.0 C 420.5 781.2 407.2 787.3 399.0 791.0 C 390.8 794.7 388.0 795.2 380.0 797.0 C 372.0 798.8 362.5 801.2 351.0 802.0 C 339.5 802.8 320.5 802.5 311.0 802.0 C 301.5 801.5 300.8 800.7 294.0 799.0 C 287.2 797.3 278.7 795.3 270.0 792.0 C 261.3 788.7 246.8 781.5 242.0 779.0 C 237.2 776.5 241.8 777.5 241.0 777.0 C 240.2 776.5 239.5 777.7 237.0 776.0 C 234.5 774.3 228.2 768.5 226.0 767.0 C 223.8 765.5 227.3 770.0 224.0 767.0 C 220.7 764.0 210.3 754.3 206.0 749.0 C 201.7 743.7 200.3 740.0 198.0 735.0 C 195.7 730.0 193.7 722.5 192.0 719.0 C 190.3 715.5 190.3 715.8 188.0 714.0 C 185.7 712.2 182.8 710.2 178.0 708.0 C 173.2 705.8 165.7 704.2 159.0 701.0 C 152.3 697.8 143.7 693.0 138.0 689.0 C 132.3 685.0 127.5 679.0 125.0 677.0 C 122.5 675.0 126.2 680.2 123.0 677.0 C 119.8 673.8 111.7 666.2 106.0 658.0 C 100.3 649.8 92.8 636.2 89.0 628.0 C 85.2 619.8 84.3 614.5 83.0 609.0 C 81.7 603.5 81.2 602.7 81.0 595.0 C 80.8 587.3 80.8 571.8 82.0 563.0 C 83.2 554.2 85.3 549.0 88.0 542.0 C 90.7 535.0 96.0 524.7 98.0 521.0 C 100.0 517.3 99.5 520.8 100.0 520.0 C 100.5 519.2 99.3 518.5 101.0 516.0 C 102.7 513.5 108.5 507.2 110.0 505.0 C 111.5 502.8 106.0 507.8 110.0 503.0 C 114.0 498.2 128.0 483.8 134.0 476.0 C 140.0 468.2 143.2 461.8 146.0 456.0 C 148.8 450.2 150.2 447.7 151.0 441.0 C 151.8 434.3 151.8 422.8 151.0 416.0 C 150.2 409.2 146.5 403.5 146.0 400.0 C 145.5 396.5 147.0 396.3 148.0 395.0 C 149.0 393.7 150.0 392.5 152.0 392.0 Z M 35.0 419.0 C 38.2 419.0 43.2 420.2 46.0 422.0 C 48.8 423.8 51.0 426.8 52.0 430.0 C 53.0 433.2 52.3 438.5 52.0 441.0 C 51.7 443.5 51.0 443.7 50.0 445.0 C 49.0 446.3 48.2 447.8 46.0 449.0 C 43.8 450.2 39.5 451.7 37.0 452.0 C 34.5 452.3 32.8 451.7 31.0 451.0 C 29.2 450.3 27.3 449.0 26.0 448.0 C 24.7 447.0 24.0 446.8 23.0 445.0 C 22.0 443.2 20.2 440.0 20.0 437.0 C 19.8 434.0 20.8 429.5 22.0 427.0 C 23.2 424.5 24.8 423.3 27.0 422.0 C 29.2 420.7 31.8 419.0 35.0 419.0 Z M 347.0 463.0 C 349.2 462.2 352.8 462.2 355.0 463.0 C 357.2 463.8 359.0 466.5 360.0 468.0 C 361.0 469.5 361.0 468.8 361.0 472.0 C 361.0 475.2 360.8 482.0 360.0 487.0 C 359.2 492.0 357.5 497.5 356.0 502.0 C 354.5 506.5 352.2 511.8 351.0 514.0 C 349.8 516.2 349.7 513.8 349.0 515.0 C 348.3 516.2 348.2 519.2 347.0 521.0 C 345.8 522.8 343.2 524.3 342.0 526.0 C 340.8 527.7 348.0 522.7 340.0 531.0 C 332.0 539.3 301.7 568.2 294.0 576.0 C 286.3 583.8 294.8 577.0 294.0 578.0 C 293.2 579.0 289.8 581.0 289.0 582.0 C 288.2 583.0 290.5 581.8 289.0 584.0 C 287.5 586.2 283.2 590.0 280.0 595.0 C 276.8 600.0 272.7 608.0 270.0 614.0 C 267.3 620.0 265.5 625.7 264.0 631.0 C 262.5 636.3 261.5 639.3 261.0 646.0 C 260.5 652.7 260.3 664.2 261.0 671.0 C 261.7 677.8 263.3 682.3 265.0 687.0 C 266.7 691.7 267.5 694.3 271.0 699.0 C 274.5 703.7 281.5 711.2 286.0 715.0 C 290.5 718.8 293.5 720.0 298.0 722.0 C 302.5 724.0 306.3 726.0 313.0 727.0 C 319.7 728.0 332.0 728.2 338.0 728.0 C 344.0 727.8 344.0 727.7 349.0 726.0 C 354.0 724.3 362.2 721.7 368.0 718.0 C 373.8 714.3 381.3 706.7 384.0 704.0 C 386.7 701.3 383.2 703.2 384.0 702.0 C 384.8 700.8 386.7 701.3 389.0 697.0 C 391.3 692.7 396.2 681.3 398.0 676.0 C 399.8 670.7 399.7 670.2 400.0 665.0 C 400.3 659.8 400.7 650.8 400.0 645.0 C 399.3 639.2 397.3 633.8 396.0 630.0 C 394.7 626.2 394.8 625.5 392.0 622.0 C 389.2 618.5 384.0 612.2 379.0 609.0 C 374.0 605.8 367.7 603.7 362.0 603.0 C 356.3 602.3 349.2 604.0 345.0 605.0 C 340.8 606.0 340.0 606.7 337.0 609.0 C 334.0 611.3 329.5 615.8 327.0 619.0 C 324.5 622.2 323.3 623.3 322.0 628.0 C 320.7 632.7 319.0 642.2 319.0 647.0 C 319.0 651.8 320.3 654.2 322.0 657.0 C 323.7 659.8 325.8 662.7 329.0 664.0 C 332.2 665.3 338.3 665.2 341.0 665.0 C 343.7 664.8 343.8 664.3 345.0 663.0 C 346.2 661.7 347.5 659.2 348.0 657.0 C 348.5 654.8 347.3 652.0 348.0 650.0 C 348.7 648.0 350.0 646.0 352.0 645.0 C 354.0 644.0 357.7 643.3 360.0 644.0 C 362.3 644.7 364.8 646.2 366.0 649.0 C 367.2 651.8 367.2 657.8 367.0 661.0 C 366.8 664.2 367.0 664.8 365.0 668.0 C 363.0 671.2 359.0 677.2 355.0 680.0 C 351.0 682.8 346.2 684.5 341.0 685.0 C 335.8 685.5 328.3 684.2 324.0 683.0 C 319.7 681.8 317.7 680.0 315.0 678.0 C 312.3 676.0 310.2 674.2 308.0 671.0 C 305.8 667.8 303.3 664.5 302.0 659.0 C 300.7 653.5 299.5 644.7 300.0 638.0 C 300.5 631.3 303.3 623.7 305.0 619.0 C 306.7 614.3 307.7 613.3 310.0 610.0 C 312.3 606.7 317.2 600.8 319.0 599.0 C 320.8 597.2 319.2 600.3 321.0 599.0 C 322.8 597.7 326.5 593.2 330.0 591.0 C 333.5 588.8 338.3 587.2 342.0 586.0 C 345.7 584.8 348.3 584.3 352.0 584.0 C 355.7 583.7 359.2 583.3 364.0 584.0 C 368.8 584.7 376.3 586.3 381.0 588.0 C 385.7 589.7 387.7 590.5 392.0 594.0 C 396.3 597.5 403.2 603.8 407.0 609.0 C 410.8 614.2 413.2 620.5 415.0 625.0 C 416.8 629.5 417.5 628.0 418.0 636.0 C 418.5 644.0 418.7 664.2 418.0 673.0 C 417.3 681.8 416.0 683.5 414.0 689.0 C 412.0 694.5 407.7 703.0 406.0 706.0 C 404.3 709.0 405.0 705.5 404.0 707.0 C 403.0 708.5 403.7 710.8 400.0 715.0 C 396.3 719.2 386.8 728.3 382.0 732.0 C 377.2 735.7 373.0 735.8 371.0 737.0 C 369.0 738.2 373.0 737.7 370.0 739.0 C 367.0 740.3 357.7 743.7 353.0 745.0 C 348.3 746.3 348.3 746.7 342.0 747.0 C 335.7 747.3 321.8 747.5 315.0 747.0 C 308.2 746.5 307.0 746.2 301.0 744.0 C 295.0 741.8 283.8 736.8 279.0 734.0 C 274.2 731.2 273.5 728.2 272.0 727.0 C 270.5 725.8 272.5 729.3 270.0 727.0 C 267.5 724.7 260.3 717.3 257.0 713.0 C 253.7 708.7 252.3 706.5 250.0 701.0 C 247.7 695.5 244.5 686.3 243.0 680.0 C 241.5 673.7 241.2 669.3 241.0 663.0 C 240.8 656.7 240.5 650.5 242.0 642.0 C 243.5 633.5 246.5 621.3 250.0 612.0 C 253.5 602.7 260.5 590.5 263.0 586.0 C 265.5 581.5 263.7 587.0 265.0 585.0 C 266.3 583.0 269.3 576.3 271.0 574.0 C 272.7 571.7 274.3 571.8 275.0 571.0 C 275.7 570.2 274.2 570.0 275.0 569.0 C 275.8 568.0 279.2 566.0 280.0 565.0 C 280.8 564.0 273.5 569.5 280.0 563.0 C 286.5 556.5 312.5 532.5 319.0 526.0 C 325.5 519.5 317.2 526.3 319.0 524.0 C 320.8 521.7 326.7 517.3 330.0 512.0 C 333.3 506.7 337.0 499.3 339.0 492.0 C 341.0 484.7 340.7 472.8 342.0 468.0 C 343.3 463.2 344.8 463.8 347.0 463.0 Z"/>
</svg>
