<svg xmlns="http://www.w3.org/2000/svg" viewBox="69 43 303 354" width="29" height="34">
<path fill="#1f3f8c" d="M 216.0 55.0 C 218.3 54.8 223.0 55.3 227.0 57.0 C 231.0 58.7 235.5 61.0 240.0 65.0 C 244.5 69.0 250.3 75.5 254.0 81.0 C 257.7 86.5 260.3 89.5 262.0 98.0 C 263.7 106.5 264.7 123.5 264.0 132.0 C 263.3 140.5 261.5 142.8 258.0 149.0 C 254.5 155.2 245.5 164.2 243.0 169.0 C 240.5 173.8 238.7 171.0 243.0 178.0 C 247.3 185.0 264.2 203.3 269.0 211.0 C 273.8 218.7 271.7 217.3 272.0 224.0 C 272.3 230.7 269.7 246.5 271.0 251.0 C 272.3 255.5 277.2 253.3 280.0 251.0 C 282.8 248.7 286.8 241.8 288.0 237.0 C 289.2 232.2 289.0 229.5 287.0 222.0 C 285.0 214.5 277.5 200.7 276.0 192.0 C 274.5 183.3 275.8 176.5 278.0 170.0 C 280.2 163.5 284.3 157.5 289.0 153.0 C 293.7 148.5 301.3 144.3 306.0 143.0 C 310.7 141.7 315.8 139.8 317.0 145.0 C 318.2 150.2 312.3 165.0 313.0 174.0 C 313.7 183.0 315.3 190.5 321.0 199.0 C 326.7 207.5 340.8 217.2 347.0 225.0 C 353.2 232.8 355.8 239.0 358.0 246.0 C 360.2 253.0 360.5 260.5 360.0 267.0 C 359.5 273.5 359.2 277.7 355.0 285.0 C 350.8 292.3 340.8 301.3 335.0 311.0 C 329.2 320.7 325.3 335.5 320.0 343.0 C 314.7 350.5 307.8 354.0 303.0 356.0 C 298.2 358.0 294.0 356.2 291.0 355.0 C 288.0 353.8 286.3 353.3 285.0 349.0 C 283.7 344.7 282.5 335.2 283.0 329.0 C 283.5 322.8 285.7 317.2 288.0 312.0 C 290.3 306.8 291.5 303.8 297.0 298.0 C 302.5 292.2 316.0 283.7 321.0 277.0 C 326.0 270.3 324.7 261.3 327.0 258.0 C 329.3 254.7 333.7 255.3 335.0 257.0 C 336.3 258.7 335.8 264.3 335.0 268.0 C 334.2 271.7 335.5 272.7 330.0 279.0 C 324.5 285.3 308.0 299.2 302.0 306.0 C 296.0 312.8 295.7 313.8 294.0 320.0 C 292.3 326.2 291.8 338.5 292.0 343.0 C 292.2 347.5 293.3 346.3 295.0 347.0 C 296.7 347.7 299.0 348.5 302.0 347.0 C 305.0 345.5 309.0 344.3 313.0 338.0 C 317.0 331.7 320.2 318.8 326.0 309.0 C 331.8 299.2 343.8 285.8 348.0 279.0 C 352.2 272.2 350.8 273.5 351.0 268.0 C 351.2 262.5 351.0 252.5 349.0 246.0 C 347.0 239.5 345.0 236.2 339.0 229.0 C 333.0 221.8 318.7 211.0 313.0 203.0 C 307.3 195.0 306.0 189.2 305.0 181.0 C 304.0 172.8 307.3 158.5 307.0 154.0 C 306.7 149.5 305.7 152.3 303.0 154.0 C 300.3 155.7 294.0 160.0 291.0 164.0 C 288.0 168.0 285.8 172.5 285.0 178.0 C 284.2 183.5 284.0 188.7 286.0 197.0 C 288.0 205.3 295.7 219.7 297.0 228.0 C 298.3 236.3 297.0 241.5 294.0 247.0 C 291.0 252.5 283.2 258.7 279.0 261.0 C 274.8 263.3 271.7 261.8 269.0 261.0 C 266.3 260.2 264.0 262.3 263.0 256.0 C 262.0 249.7 263.5 230.3 263.0 223.0 C 262.5 215.7 264.2 217.8 260.0 212.0 C 255.8 206.2 242.3 193.7 238.0 188.0 C 233.7 182.3 234.5 181.8 234.0 178.0 C 233.5 174.2 231.7 172.0 235.0 165.0 C 238.3 158.0 250.7 145.8 254.0 136.0 C 257.3 126.2 256.8 115.2 255.0 106.0 C 253.2 96.8 247.7 87.5 243.0 81.0 C 238.3 74.5 230.3 69.3 227.0 67.0 C 223.7 64.7 223.2 65.0 223.0 67.0 C 222.8 69.0 226.0 71.5 226.0 79.0 C 226.0 86.5 225.2 103.7 223.0 112.0 C 220.8 120.3 218.8 122.3 213.0 129.0 C 207.2 135.7 193.2 146.0 188.0 152.0 C 182.8 158.0 183.2 160.8 182.0 165.0 C 180.8 169.2 180.5 172.2 181.0 177.0 C 181.5 181.8 181.8 187.5 185.0 194.0 C 188.2 200.5 197.0 210.7 200.0 216.0 C 203.0 221.3 203.0 220.2 203.0 226.0 C 203.0 231.8 202.2 244.8 200.0 251.0 C 197.8 257.2 192.7 261.2 190.0 263.0 C 187.3 264.8 185.0 263.2 184.0 262.0 C 183.0 260.8 182.3 259.3 184.0 256.0 C 185.7 252.7 192.3 247.0 194.0 242.0 C 195.7 237.0 197.0 233.8 194.0 226.0 C 191.0 218.2 179.5 205.2 176.0 195.0 C 172.5 184.8 171.7 173.7 173.0 165.0 C 174.3 156.3 178.0 150.5 184.0 143.0 C 190.0 135.5 204.0 125.3 209.0 120.0 C 214.0 114.7 212.7 118.0 214.0 111.0 C 215.3 104.0 217.2 86.8 217.0 78.0 C 216.8 69.2 213.2 61.8 213.0 58.0 C 212.8 54.2 213.7 55.2 216.0 55.0 Z M 173.0 102.0 C 175.0 101.5 178.3 102.2 180.0 103.0 C 181.7 103.8 182.5 105.2 183.0 107.0 C 183.5 108.8 183.7 112.2 183.0 114.0 C 182.3 115.8 180.8 117.3 179.0 118.0 C 177.2 118.7 174.0 119.0 172.0 118.0 C 170.0 117.0 167.7 114.0 167.0 112.0 C 166.3 110.0 167.0 107.7 168.0 106.0 C 169.0 104.3 171.0 102.5 173.0 102.0 Z M 235.0 117.0 C 237.3 114.2 240.0 116.3 241.0 118.0 C 242.0 119.7 242.0 123.5 241.0 127.0 C 240.0 130.5 239.2 133.5 235.0 139.0 C 230.8 144.5 219.7 153.3 216.0 160.0 C 212.3 166.7 212.0 172.7 213.0 179.0 C 214.0 185.3 216.5 189.8 222.0 198.0 C 227.5 206.2 241.5 221.2 246.0 228.0 C 250.5 234.8 248.7 233.3 249.0 239.0 C 249.3 244.7 247.7 256.3 248.0 262.0 C 248.3 267.7 249.7 270.5 251.0 273.0 C 252.3 275.5 255.5 275.3 256.0 277.0 C 256.5 278.7 255.2 282.0 254.0 283.0 C 252.8 284.0 251.3 285.3 249.0 283.0 C 246.7 280.7 241.5 276.3 240.0 269.0 C 238.5 261.7 240.5 245.5 240.0 239.0 C 239.5 232.5 242.0 237.2 237.0 230.0 C 232.0 222.8 215.5 204.7 210.0 196.0 C 204.5 187.3 204.0 185.2 204.0 178.0 C 204.0 170.8 206.2 160.2 210.0 153.0 C 213.8 145.8 222.8 141.0 227.0 135.0 C 231.2 129.0 232.7 119.8 235.0 117.0 Z M 127.0 158.0 C 129.8 156.7 133.5 155.3 136.0 159.0 C 138.5 162.7 137.2 172.2 142.0 180.0 C 146.8 187.8 160.2 198.3 165.0 206.0 C 169.8 213.7 170.2 219.8 171.0 226.0 C 171.8 232.2 171.3 237.5 170.0 243.0 C 168.7 248.5 167.7 252.3 163.0 259.0 C 158.3 265.7 146.0 277.3 142.0 283.0 C 138.0 288.7 139.2 289.7 139.0 293.0 C 138.8 296.3 139.8 300.3 141.0 303.0 C 142.2 305.7 143.7 307.7 146.0 309.0 C 148.3 310.3 152.8 313.8 155.0 311.0 C 157.2 308.2 157.3 296.8 159.0 292.0 C 160.7 287.2 162.8 284.8 165.0 282.0 C 167.2 279.2 170.0 276.2 172.0 275.0 C 174.0 273.8 175.8 274.0 177.0 275.0 C 178.2 276.0 180.7 277.5 179.0 281.0 C 177.3 284.5 170.0 289.5 167.0 296.0 C 164.0 302.5 164.5 316.2 161.0 320.0 C 157.5 323.8 150.3 320.7 146.0 319.0 C 141.7 317.3 137.5 313.2 135.0 310.0 C 132.5 306.8 131.5 304.2 131.0 300.0 C 130.5 295.8 130.8 289.5 132.0 285.0 C 133.2 280.5 133.8 278.5 138.0 273.0 C 142.2 267.5 153.0 260.0 157.0 252.0 C 161.0 244.0 162.2 232.3 162.0 225.0 C 161.8 217.7 160.0 213.8 156.0 208.0 C 152.0 202.2 142.7 196.3 138.0 190.0 C 133.3 183.7 131.0 170.2 128.0 170.0 C 125.0 169.8 121.5 178.8 120.0 189.0 C 118.5 199.2 123.0 219.2 119.0 231.0 C 115.0 242.8 101.0 251.5 96.0 260.0 C 91.0 268.5 89.8 275.2 89.0 282.0 C 88.2 288.8 89.7 295.5 91.0 301.0 C 92.3 306.5 93.8 310.0 97.0 315.0 C 100.2 320.0 106.2 327.3 110.0 331.0 C 113.8 334.7 118.3 335.2 120.0 337.0 C 121.7 338.8 121.0 340.8 120.0 342.0 C 119.0 343.2 118.0 346.2 114.0 344.0 C 110.0 341.8 100.5 333.8 96.0 329.0 C 91.5 324.2 89.5 320.7 87.0 315.0 C 84.5 309.3 82.0 301.5 81.0 295.0 C 80.0 288.5 79.5 283.0 81.0 276.0 C 82.5 269.0 85.0 261.2 90.0 253.0 C 95.0 244.8 107.3 238.5 111.0 227.0 C 114.7 215.5 110.7 194.0 112.0 184.0 C 113.3 174.0 116.5 171.3 119.0 167.0 C 121.5 162.7 124.2 159.3 127.0 158.0 Z M 339.0 183.0 C 341.5 183.0 347.3 185.2 349.0 187.0 C 350.7 188.8 349.7 192.2 349.0 194.0 C 348.3 195.8 346.8 197.3 345.0 198.0 C 343.2 198.7 339.8 198.7 338.0 198.0 C 336.2 197.3 334.7 195.8 334.0 194.0 C 333.3 192.2 333.2 188.8 334.0 187.0 C 334.8 185.2 336.5 183.0 339.0 183.0 Z M 137.0 211.0 C 138.7 211.7 142.7 213.5 144.0 217.0 C 145.3 220.5 145.8 226.8 145.0 232.0 C 144.2 237.2 143.7 240.3 139.0 248.0 C 134.3 255.7 121.0 269.7 117.0 278.0 C 113.0 286.3 114.8 292.8 115.0 298.0 C 115.2 303.2 115.3 304.2 118.0 309.0 C 120.7 313.8 124.2 321.5 131.0 327.0 C 137.8 332.5 152.5 336.2 159.0 342.0 C 165.5 347.8 165.3 357.0 170.0 362.0 C 174.7 367.0 181.7 369.7 187.0 372.0 C 192.3 374.3 194.5 375.7 202.0 376.0 C 209.5 376.3 224.8 375.2 232.0 374.0 C 239.2 372.8 241.0 371.5 245.0 369.0 C 249.0 366.5 253.5 362.2 256.0 359.0 C 258.5 355.8 259.3 356.5 260.0 350.0 C 260.7 343.5 259.2 328.2 260.0 320.0 C 260.8 311.8 262.8 306.3 265.0 301.0 C 267.2 295.7 266.5 294.5 273.0 288.0 C 279.5 281.5 297.7 269.2 304.0 262.0 C 310.3 254.8 310.3 250.7 311.0 245.0 C 311.7 239.3 308.2 231.3 308.0 228.0 C 307.8 224.7 308.5 225.2 310.0 225.0 C 311.5 224.8 315.3 224.0 317.0 227.0 C 318.7 230.0 320.3 237.3 320.0 243.0 C 319.7 248.7 317.5 255.8 315.0 261.0 C 312.5 266.2 311.5 267.7 305.0 274.0 C 298.5 280.3 282.0 291.5 276.0 299.0 C 270.0 306.5 270.3 310.0 269.0 319.0 C 267.7 328.0 270.2 344.2 268.0 353.0 C 265.8 361.8 260.3 367.5 256.0 372.0 C 251.7 376.5 247.7 377.8 242.0 380.0 C 236.3 382.2 231.3 384.8 222.0 385.0 C 212.7 385.2 195.3 383.5 186.0 381.0 C 176.7 378.5 172.0 375.8 166.0 370.0 C 160.0 364.2 155.8 351.3 150.0 346.0 C 144.2 340.7 136.5 341.5 131.0 338.0 C 125.5 334.5 121.0 330.7 117.0 325.0 C 113.0 319.3 108.7 311.3 107.0 304.0 C 105.3 296.7 106.0 287.3 107.0 281.0 C 108.0 274.7 108.3 273.3 113.0 266.0 C 117.7 258.7 131.5 245.8 135.0 237.0 C 138.5 228.2 133.7 217.3 134.0 213.0 C 134.3 208.7 135.3 210.3 137.0 211.0 Z M 85.0 223.0 C 86.5 222.3 88.3 222.2 90.0 223.0 C 91.7 223.8 95.0 225.7 95.0 228.0 C 95.0 230.3 92.3 236.2 90.0 237.0 C 87.7 237.8 82.5 234.7 81.0 233.0 C 79.5 231.3 80.3 228.7 81.0 227.0 C 81.7 225.3 83.5 223.7 85.0 223.0 Z M 219.0 241.0 C 221.3 237.8 224.3 241.0 225.0 244.0 C 225.7 247.0 224.5 254.5 223.0 259.0 C 221.5 263.5 221.5 264.5 216.0 271.0 C 210.5 277.5 195.5 290.7 190.0 298.0 C 184.5 305.3 184.2 309.3 183.0 315.0 C 181.8 320.7 182.2 327.3 183.0 332.0 C 183.8 336.7 185.0 339.7 188.0 343.0 C 191.0 346.3 195.5 350.5 201.0 352.0 C 206.5 353.5 215.5 353.3 221.0 352.0 C 226.5 350.7 230.8 347.3 234.0 344.0 C 237.2 340.7 238.8 336.3 240.0 332.0 C 241.2 327.7 241.5 322.2 241.0 318.0 C 240.5 313.8 238.5 309.5 237.0 307.0 C 235.5 304.5 234.8 304.0 232.0 303.0 C 229.2 302.0 224.0 299.7 220.0 301.0 C 216.0 302.3 210.0 307.3 208.0 311.0 C 206.0 314.7 207.2 320.3 208.0 323.0 C 208.8 325.7 211.3 326.5 213.0 327.0 C 214.7 327.5 216.8 327.5 218.0 326.0 C 219.2 324.5 218.7 319.3 220.0 318.0 C 221.3 316.7 224.7 316.8 226.0 318.0 C 227.3 319.2 228.7 322.3 228.0 325.0 C 227.3 327.7 225.2 332.3 222.0 334.0 C 218.8 335.7 212.8 336.7 209.0 335.0 C 205.2 333.3 200.7 328.0 199.0 324.0 C 197.3 320.0 198.2 314.8 199.0 311.0 C 199.8 307.2 200.3 304.2 204.0 301.0 C 207.7 297.8 216.3 293.3 221.0 292.0 C 225.7 290.7 228.2 291.3 232.0 293.0 C 235.8 294.7 241.2 298.7 244.0 302.0 C 246.8 305.3 248.2 308.0 249.0 313.0 C 249.8 318.0 251.2 325.2 249.0 332.0 C 246.8 338.8 240.0 349.3 236.0 354.0 C 232.0 358.7 230.0 358.7 225.0 360.0 C 220.0 361.3 212.0 362.7 206.0 362.0 C 200.0 361.3 193.3 358.5 189.0 356.0 C 184.7 353.5 182.5 351.0 180.0 347.0 C 177.5 343.0 175.0 337.2 174.0 332.0 C 173.0 326.8 172.0 323.3 174.0 316.0 C 176.0 308.7 179.8 296.8 186.0 288.0 C 192.2 279.2 205.5 270.8 211.0 263.0 C 216.5 255.2 216.7 244.2 219.0 241.0 Z"/>
</svg>
