<svg xmlns="http://www.w3.org/2000/svg" viewBox="-37 0 956 923.675168" width="88" height="92">
  <g transform="translate(-36.533627,957.959614) scale(0.100000,-0.100000)"
fill="#1f3f8c" stroke="#1f3f8c" stroke-width="150" stroke-linejoin="round" stroke-linecap="round">
<path d="M4621 9564 c-106 -28 -186 -81 -326 -217 -365 -350 -645 -780 -781
-1196 -147 -450 -80 -939 176 -1281 85 -114 404 -412 488 -456 66 -34 130 -1
179 94 121 229 151 474 90 717 -14 55 -31 127 -37 160 -7 33 -16 78 -21 100
-12 57 -11 227 2 304 23 134 98 333 161 425 110 160 147 183 211 127 127 -112
218 -560 174 -861 -9 -58 -19 -131 -23 -163 l-6 -57 44 -43 c87 -81 102 -84
130 -27 43 90 93 445 84 590 -16 225 -62 399 -161 605 -96 198 -176 283 -274
293 -110 10 -211 -88 -374 -363 -121 -206 -164 -319 -199 -520 -29 -170 -13
-320 72 -655 37 -145 41 -173 35 -233 -11 -119 -50 -187 -106 -187 -75 0 -277
227 -379 426 -75 146 -106 274 -115 468 -20 437 222 964 668 1454 272 300 407
340 613 181 228 -175 485 -582 597 -944 90 -293 95 -584 12 -795 -13 -34 -31
-92 -41 -130 -15 -64 -20 -72 -73 -114 -31 -25 -87 -82 -126 -127 -38 -44 -99
-105 -135 -134 -36 -29 -105 -89 -155 -134 -105 -94 -131 -102 -158 -46 -9 20
-17 53 -17 75 0 42 -8 70 -20 70 -10 0 -49 -82 -132 -275 -33 -77 -72 -167
-88 -200 -69 -150 -160 -369 -175 -422 -98 -355 -108 -551 -44 -878 22 -112
82 -305 106 -342 35 -53 95 -66 150 -31 65 39 68 66 23 214 -92 304 -110 489
-70 729 69 424 224 681 589 978 237 193 330 284 426 421 111 156 148 232 191
393 25 92 27 112 27 308 1 223 -6 267 -74 500 -47 160 -185 458 -276 593 -103
153 -150 215 -231 307 -231 263 -425 355 -631 299z"/>
<path d="M1825 7833 c-151 -18 -324 -56 -443 -95 -105 -35 -172 -108 -208
-227 -25 -83 -19 -394 11 -543 56 -285 147 -468 319 -646 203 -210 380 -284
771 -322 274 -26 402 -52 627 -125 137 -45 173 -65 258 -142 30 -27 84 -71
120 -98 217 -163 454 -425 617 -685 155 -246 343 -711 343 -846 0 -41 -40 -90
-84 -102 -39 -11 -474 3 -561 18 -33 5 -94 10 -135 10 -41 1 -106 5 -145 9
-38 5 -196 23 -350 40 -154 17 -356 40 -450 51 -233 27 -351 37 -700 61 -361
24 -488 20 -875 -31 -391 -51 -520 -180 -507 -510 16 -436 311 -1151 680
-1650 406 -549 855 -886 1433 -1075 241 -79 260 -92 289 -190 53 -185 91 -207
470 -279 552 -105 1599 -144 2300 -86 422 35 874 101 1010 149 118 42 175 126
175 257 0 56 42 85 194 138 173 59 258 100 453 217 280 168 427 281 636 487
589 579 1001 1406 1042 2092 16 249 -64 398 -245 462 -138 49 -423 82 -645 75
-205 -7 -416 -22 -585 -42 -69 -8 -165 -19 -215 -25 -329 -36 -463 -52 -560
-65 -60 -8 -175 -22 -255 -31 -80 -8 -183 -19 -230 -25 -302 -33 -631 -58
-767 -59 -65 0 -76 3 -103 28 -48 42 -50 89 -10 198 101 276 174 362 400 473
80 38 178 81 218 95 250 84 540 336 675 587 87 162 113 285 68 332 -31 34 -89
44 -130 23 -38 -20 -55 -45 -81 -120 -10 -31 -40 -99 -65 -150 -25 -51 -45
-104 -45 -117 0 -14 -7 -34 -15 -45 -8 -10 -15 -27 -15 -38 0 -12 -5 -16 -15
-12 -16 6 -86 -38 -156 -98 -34 -28 -222 -146 -352 -221 -67 -38 -206 -70
-225 -51 -51 51 165 495 364 748 46 58 84 109 84 113 0 24 62 81 115 105 34
15 102 53 152 84 51 31 123 70 160 87 114 52 133 63 169 97 51 50 74 102 74
169 0 73 -23 112 -79 137 -40 18 -42 18 -81 1 -37 -17 -110 -105 -110 -133 0
-18 -86 -87 -184 -147 -178 -110 -213 -134 -297 -208 -180 -157 -288 -294
-384 -487 -53 -106 -58 -122 -68 -217 -9 -81 -15 -103 -27 -103 -30 -1 -93
-122 -156 -304 -35 -100 -68 -190 -74 -201 -15 -29 -107 -276 -142 -378 -77
-230 -157 -278 -463 -276 -152 0 -205 9 -252 42 -56 39 -70 71 -181 417 -144
449 -429 890 -798 1237 -158 148 -340 293 -368 293 -27 0 -131 92 -155 137
-11 21 -36 58 -55 83 -20 25 -60 79 -90 120 -67 93 -180 210 -200 210 -15 0
-18 -9 -20 -65 -1 -15 -9 -21 -35 -23 -32 -3 -33 -5 -28 -38 3 -19 31 -75 61
-123 55 -87 65 -111 47 -111 -27 0 -174 23 -226 35 -33 7 -98 16 -145 20 -563
41 -877 318 -975 860 -30 164 -16 327 33 400 59 86 294 147 561 146 394 -1
683 -175 919 -553 41 -66 102 -190 117 -238 4 -14 11 -29 15 -35 4 -5 27 -59
50 -118 24 -60 53 -121 65 -135 12 -15 41 -56 65 -92 94 -139 291 -320 510
-467 161 -108 225 -126 272 -75 73 76 33 170 -103 237 -37 18 -93 52 -126 76
-271 199 -370 332 -583 789 -222 478 -553 755 -985 825 -81 13 -300 18 -380 8z
m6823 -3846 c293 -56 321 -226 133 -822 -77 -247 -120 -343 -274 -625 -107
-195 -341 -513 -497 -674 -215 -223 -310 -303 -565 -478 -229 -156 -379 -228
-680 -325 -206 -67 -229 -89 -230 -228 0 -79 0 -79 -34 -102 -84 -57 -371
-101 -936 -144 -171 -13 -788 -29 -890 -24 -44 3 -188 10 -320 15 -393 18
-724 50 -995 96 -47 7 -103 17 -126 20 -93 14 -178 84 -144 118 18 18 70 20
270 11 219 -11 510 16 670 61 255 72 304 185 350 814 26 354 30 457 30 752 0
476 -33 614 -183 755 -128 121 -254 155 -752 203 -121 11 -312 30 -425 41
-764 75 -1279 114 -1532 114 -187 0 -203 -5 -242 -76 -36 -66 8 -133 102 -158
65 -16 78 -31 65 -75 -6 -19 -8 -46 -6 -60 5 -25 4 -26 -48 -26 -117 0 -160
-55 -133 -170 24 -105 169 -379 272 -513 49 -65 179 -197 193 -197 5 0 9 -11
9 -25 0 -14 7 -28 15 -31 8 -4 15 -11 15 -18 0 -39 236 -291 375 -400 137
-108 277 -187 412 -232 43 -14 95 -35 115 -45 95 -49 226 -75 458 -91 261 -18
453 16 532 97 87 88 119 201 125 445 12 427 -52 618 -242 729 -78 45 -168 61
-535 95 -91 9 -183 18 -205 21 -22 3 -104 10 -182 15 -78 6 -197 15 -264 20
-147 12 -189 4 -237 -48 -33 -34 -34 -38 -30 -101 3 -60 8 -73 59 -151 101
-153 224 -287 287 -311 31 -12 78 14 109 61 34 49 29 64 -36 128 -64 63 -101
112 -101 135 0 9 12 25 28 37 26 22 31 22 212 16 307 -12 601 -48 706 -87 65
-25 136 -86 163 -142 74 -155 79 -503 9 -628 -42 -77 -81 -99 -204 -115 -168
-22 -243 -14 -584 65 -68 16 -246 103 -362 177 -211 135 -480 417 -665 696
-148 223 -223 396 -223 518 0 27 68 107 108 129 28 15 28 29 0 40 -22 9 -22 9
7 16 17 3 51 11 77 17 54 13 433 -2 688 -27 260 -25 459 -45 590 -60 186 -21
332 -34 450 -40 98 -6 226 -22 365 -46 261 -46 376 -153 410 -382 42 -281 54
-733 23 -819 -10 -26 -22 -98 -28 -160 -44 -458 -63 -547 -136 -628 -51 -56
-74 -66 -205 -89 -501 -85 -1007 -32 -1439 151 -288 122 -543 299 -796 552
-159 160 -252 273 -381 466 -129 194 -131 196 -241 415 -115 230 -135 275
-190 440 -107 320 -119 393 -101 576 19 194 32 203 359 254 58 9 130 21 160
27 30 5 133 12 229 15 231 8 491 -8 961 -57 52 -5 151 -14 220 -20 69 -6 163
-15 210 -20 171 -20 400 -40 615 -55 121 -8 306 -21 410 -29 263 -21 644 -37
865 -36 388 1 1067 32 1425 65 400 37 501 47 705 71 118 13 258 28 310 34 52
5 158 16 235 24 579 64 585 64 910 61 193 -2 294 -7 353 -18z"/>
<path d="M7810 3569 c-149 -9 -332 -26 -695 -64 -391 -41 -757 -76 -1260 -120
-477 -42 -607 -77 -740 -202 -146 -137 -245 -394 -320 -828 -160 -939 -63
-1199 480 -1287 115 -18 473 -15 602 5 293 47 602 150 852 285 262 142 335
192 596 402 403 327 844 914 969 1290 110 334 51 495 -191 520 -97 11 -99 11
-293 -1z m203 -233 c92 -39 107 -110 52 -261 -21 -55 -49 -138 -64 -185 -38
-118 -59 -154 -138 -240 -38 -41 -121 -138 -183 -215 -590 -723 -1261 -1109
-2020 -1161 -130 -9 -355 12 -450 42 -211 66 -256 149 -254 474 1 258 29 441
119 794 62 240 120 346 240 436 120 89 219 112 655 151 572 51 1071 100 1370
135 404 46 613 56 673 30z"/>
<path d="M7397 2890 c-16 -5 -79 -14 -140 -20 -62 -6 -182 -19 -267 -30 -85
-11 -213 -24 -285 -30 -298 -24 -647 -65 -760 -89 -243 -51 -382 -198 -450
-478 -63 -257 0 -418 188 -475 120 -36 396 -15 577 44 97 31 222 92 248 120
64 70 13 178 -83 178 -13 0 -63 -18 -112 -41 -48 -23 -97 -45 -108 -50 -85
-38 -262 -65 -359 -54 -60 6 -71 11 -108 46 l-41 39 6 72 c10 133 78 260 169
315 126 77 231 96 928 167 199 20 535 30 561 15 19 -10 19 -12 5 -28 -18 -20
-33 -81 -19 -81 20 0 72 65 68 85 -4 15 7 28 47 55 103 69 128 152 64 216 -36
36 -69 42 -129 24z"/>
<path d="M6962 2363 c-43 -21 -72 -59 -72 -94 0 -35 45 -89 74 -89 52 0 146
90 146 140 0 50 -85 75 -148 43z"/>
<path d="M2950 2241 c-100 -16 -142 -69 -120 -151 14 -53 63 -85 162 -107 73
-15 77 -15 109 4 100 58 101 175 2 230 -46 26 -93 33 -153 24z"/>
<path d="M6661 7450 c-165 -61 -257 -136 -741 -599 -458 -439 -538 -524 -682
-732 -178 -257 -266 -634 -228 -973 26 -220 63 -296 145 -296 27 0 51 7 68 20
25 20 61 105 51 121 -2 4 -13 61 -24 126 -58 353 11 635 238 963 98 142 838
875 1075 1063 155 124 298 118 412 -18 303 -360 445 -995 339 -1515 -31 -153
-37 -177 -71 -265 -91 -241 -231 -422 -453 -584 -162 -118 -400 -213 -593
-235 -101 -12 -152 -88 -112 -166 40 -78 145 -72 443 26 259 84 508 251 716
480 296 324 397 440 402 461 4 14 -1 32 -15 49 -12 15 -21 34 -21 44 0 20 -31
50 -52 50 -32 0 -41 26 -28 82 14 67 40 377 40 483 0 89 -30 339 -55 454 -88
416 -341 842 -562 943 -90 41 -209 49 -292 18z"/>
<path d="M1972 7133 c-35 -17 -62 -58 -62 -94 0 -56 48 -107 184 -198 73 -49
159 -111 192 -138 84 -69 160 -123 173 -123 20 0 70 64 71 90 0 19 3 21 12 12
16 -16 48 -15 48 1 0 7 -18 40 -40 74 -93 142 -429 391 -530 392 -8 0 -30 -7
-48 -16z"/>
<path d="M8303 7081 c-270 -93 -349 -442 -143 -635 190 -178 487 -117 598 123
54 116 29 303 -54 399 -95 112 -266 160 -401 113z m199 -211 c100 -59 117
-205 33 -279 -148 -130 -360 29 -274 206 42 87 158 123 241 73z"/>
<path d="M541 6199 c-76 -23 -161 -146 -161 -234 0 -46 34 -119 72 -156 114
-110 289 -89 371 44 63 103 29 252 -73 321 -47 32 -146 44 -209 25z"/>
<path d="M8480 5955 c-8 -2 -55 -9 -105 -16 -226 -30 -492 -155 -621 -291 -54
-55 -60 -78 -34 -111 12 -15 24 -43 27 -62 8 -52 29 -46 167 44 147 96 183
113 313 156 118 39 218 55 346 55 206 0 326 -42 372 -130 41 -79 36 -271 -12
-430 -45 -150 -89 -221 -206 -330 -65 -61 -70 -68 -74 -116 -5 -47 -3 -52 27
-77 60 -51 125 -32 229 66 116 111 205 274 252 462 33 128 38 391 11 482 -47
155 -156 234 -388 282 -53 11 -277 23 -304 16z"/>
<path d="M1755 5583 c-106 -5 -327 -34 -450 -59 -141 -28 -170 -36 -375 -103
-393 -126 -464 -166 -530 -297 -33 -65 -35 -74 -35 -169 1 -93 3 -105 35 -170
82 -170 260 -286 327 -212 65 71 60 103 -35 196 -92 90 -109 128 -91 210 8 41
19 58 55 90 55 48 185 98 293 112 132 16 144 19 241 64 78 37 125 50 265 76
163 31 181 32 430 33 206 1 279 -3 350 -16 285 -54 564 -191 788 -385 98 -86
201 -206 194 -227 -6 -16 -117 -4 -169 19 -20 8 -24 -5 -8 -21 23 -23 -13 -55
-93 -84 -16 -5 -27 -16 -25 -23 4 -12 96 -62 207 -111 77 -34 252 -133 331
-187 41 -28 68 -39 95 -39 68 0 125 65 112 130 -8 39 -92 187 -193 341 -161
245 -455 516 -682 628 -354 175 -610 226 -1037 204z"/>
<path d="M8355 5258 c-11 -6 -71 -60 -133 -119 -133 -128 -277 -253 -384 -332
-75 -56 -118 -108 -118 -140 0 -50 51 -97 105 -97 79 0 333 188 537 398 99
102 138 161 138 209 -1 67 -86 114 -145 81z"/>
<path d="M2060 4924 c-80 -8 -226 -30 -325 -50 -159 -32 -203 -37 -373 -41
l-194 -5 -34 -35 c-60 -60 -43 -136 40 -174 73 -33 279 -27 490 15 369 73 604
102 711 86 44 -7 112 -15 150 -20 39 -4 110 -17 158 -29 108 -26 114 -26 127
0 9 16 7 29 -10 64 -12 25 -18 49 -15 55 19 30 -84 88 -200 113 -178 39 -286
43 -525 21z"/>
<path d="M8550 4651 c-36 -19 -71 -35 -154 -70 -45 -19 -48 -23 -44 -51 3 -17
1 -33 -4 -36 -14 -9 -9 -61 8 -75 13 -10 20 -10 42 3 21 12 32 13 50 5 18 -8
28 -6 50 11 15 12 37 27 49 34 12 6 29 26 38 44 8 18 23 40 32 49 12 13 14 25
7 58 -10 48 -25 54 -74 28z"/>
<path d="M8400 4379 c0 -15 5 -20 22 -17 34 5 37 38 4 38 -20 0 -26 -5 -26
-21z"/>
</g>
</svg>
