<svg xmlns="http://www.w3.org/2000/svg" viewBox="-16 -16 995.163722 731.466020" width="96" height="70">
  <g transform="translate(-37.336278,733.519288) scale(0.100000,-0.100000)"
fill="#1f3f8c" stroke="#1f3f8c" stroke-width="150" stroke-linejoin="round" stroke-linecap="round">
<path d="M4640 7330 c-567 -47 -1083 -240 -1482 -553 -246 -192 -467 -517
-782 -1147 -392 -785 -603 -1163 -833 -1490 -29 -41 -72 -102 -95 -135 -128
-185 -343 -430 -658 -750 -166 -169 -314 -328 -338 -363 -130 -197 -97 -411
84 -530 232 -155 838 -172 1477 -42 403 81 768 253 1107 520 272 214 597 595
796 933 159 269 333 597 418 788 54 123 358 739 376 764 4 6 33 60 65 120 32
61 69 130 84 155 38 66 287 432 357 525 346 456 404 564 404 746 0 305 -220
451 -700 463 -96 3 -222 1 -280 -4z m520 -244 c159 -41 224 -96 244 -208 9
-50 -21 -147 -71 -226 -21 -33 -63 -100 -93 -148 -30 -48 -85 -120 -121 -160
-37 -39 -75 -85 -85 -100 -11 -16 -53 -76 -94 -134 -119 -165 -159 -227 -192
-293 -17 -34 -54 -94 -84 -132 -64 -84 -404 -744 -549 -1065 -56 -122 -214
-435 -261 -515 -25 -44 -62 -107 -82 -140 -353 -599 -764 -1006 -1257 -1245
-187 -91 -299 -131 -485 -172 -578 -127 -1227 -122 -1374 11 -60 55 -68 127
-24 216 12 24 116 135 257 275 539 537 822 895 1130 1433 10 18 50 86 89 153
79 136 145 262 392 749 173 339 205 401 220 420 4 6 52 89 105 185 125 225
142 248 327 471 21 25 84 79 139 120 56 41 125 92 153 115 163 128 391 235
666 312 227 64 318 79 555 96 111 8 441 -4 495 -18z"/>
<path d="M4409 6676 c-3 -3 -43 -11 -89 -17 -85 -12 -153 -31 -383 -112 -184
-65 -276 -126 -432 -288 -183 -189 -221 -274 -152 -338 26 -26 40 -31 80 -31
57 0 70 12 137 120 46 74 140 165 272 262 83 61 105 72 224 107 163 49 252 64
285 51 48 -20 46 -43 -14 -138 -77 -123 -77 -113 -1 -190 l65 -67 31 35 c16
19 57 76 91 125 33 50 90 131 127 180 103 138 117 174 86 234 -29 55 -59 65
-196 69 -69 2 -128 1 -131 -2z"/>
<path d="M4092 5884 c-41 -49 -179 -353 -304 -669 -11 -27 -38 -81 -61 -120
-162 -278 -337 -398 -833 -569 -174 -60 -381 -158 -479 -227 -143 -100 -276
-270 -431 -553 -53 -96 -78 -130 -170 -226 -79 -83 -120 -131 -179 -205 -22
-27 -84 -96 -137 -152 -103 -109 -126 -152 -114 -215 8 -42 50 -85 97 -98 75
-22 391 5 529 45 61 18 212 74 225 84 5 5 42 20 82 35 134 51 404 251 516 382
27 32 62 84 79 117 16 33 36 67 44 74 18 19 18 33 -1 33 -8 0 -15 5 -15 10 0
6 4 10 9 10 6 0 13 -4 16 -10 21 -34 99 30 180 149 53 78 62 129 31 176 -36
55 -134 59 -187 9 -47 -45 -127 -176 -140 -230 -18 -68 -43 -107 -92 -140 -23
-16 -76 -61 -117 -101 -103 -99 -310 -259 -404 -312 -80 -45 -192 -79 -338
-100 -131 -20 -170 13 -108 90 161 201 243 343 213 373 -4 3 -12 22 -18 40
-10 28 -10 33 2 29 7 -3 26 8 41 23 l27 29 3 -32 c2 -18 8 -33 14 -33 19 0
144 135 239 260 136 177 157 196 237 210 35 6 106 29 158 51 74 31 110 41 176
45 117 9 124 14 146 124 7 34 10 35 187 110 207 88 229 99 310 153 119 80 226
181 309 291 54 73 173 325 255 540 40 104 90 230 111 280 59 142 59 138 -5
201 -30 30 -59 55 -64 55 -5 0 -23 -16 -39 -36z"/>
<path d="M3224 5686 c-41 -18 -49 -30 -163 -246 -99 -189 -138 -259 -173 -318
-41 -68 -6 -160 67 -178 27 -7 122 40 137 67 4 8 28 49 53 92 95 159 154 273
238 459 23 49 22 53 -23 98 -44 44 -79 51 -136 26z"/>
<path d="M7790 6600 c-480 -26 -977 -159 -1368 -366 -223 -118 -443 -289 -650
-504 -149 -155 -364 -466 -507 -735 -88 -164 -174 -329 -232 -442 l-57 -112
17 -36 c38 -80 156 -71 218 16 12 17 59 105 105 197 46 92 104 203 129 247 25
44 49 89 54 100 5 12 37 68 72 125 132 221 310 451 402 519 27 20 99 86 161
147 61 61 146 135 189 164 93 62 357 200 442 231 33 12 65 25 70 29 17 13 225
78 330 104 418 103 873 131 1120 70 147 -36 224 -106 233 -209 8 -93 -41 -185
-178 -335 -124 -136 -156 -167 -261 -252 -99 -81 -262 -223 -366 -317 -34 -31
-114 -103 -179 -161 -207 -185 -372 -362 -524 -559 -89 -117 -236 -295 -302
-367 -27 -28 -48 -55 -48 -60 0 -5 -13 -24 -30 -42 -16 -18 -30 -39 -30 -47 0
-22 -18 -27 -29 -8 -8 15 -12 16 -23 4 -10 -11 -10 -14 0 -18 22 -8 12 -20
-13 -15 -20 3 -25 0 -25 -16 0 -31 -11 -52 -26 -52 -8 0 -14 -7 -14 -15 0 -8
7 -15 15 -15 20 0 20 -46 -1 -96 -32 -77 -444 -910 -509 -1029 -52 -95 -210
-336 -276 -421 -364 -470 -823 -783 -1384 -944 -681 -195 -1509 -226 -1648
-61 -77 92 -30 207 150 360 58 50 84 88 81 121 -4 47 3 59 48 81 37 19 49 21
64 11 11 -7 28 -12 37 -12 62 1 320 159 468 286 44 38 109 91 145 118 229 174
539 492 791 812 73 92 299 424 299 438 0 16 90 135 150 199 141 150 434 300
609 313 118 9 151 -30 159 -188 14 -288 -85 -636 -273 -966 -37 -64 -79 -137
-93 -162 -42 -74 -106 -148 -240 -275 -227 -216 -410 -350 -439 -322 -8 9 -14
83 -14 174 0 97 8 116 90 211 32 38 88 113 124 168 36 55 73 106 82 114 9 8
56 64 103 124 48 61 99 122 115 135 55 46 70 106 42 161 -32 62 -117 66 -172
7 -35 -37 -156 -193 -196 -253 -15 -22 -60 -81 -99 -131 -40 -50 -89 -110
-108 -134 -44 -56 -124 -136 -173 -172 -54 -41 -84 -106 -68 -145 29 -70 92
-93 184 -67 34 9 38 -16 5 -43 -53 -43 -58 -51 -58 -102 0 -41 5 -55 25 -74
l25 -23 -23 -20 c-74 -69 -459 -214 -641 -242 -34 -6 -123 -15 -199 -21 -166
-14 -195 -24 -236 -86 -36 -56 -37 -59 -11 -101 44 -73 94 -77 355 -28 334 62
491 113 767 251 330 164 665 434 818 660 19 27 54 72 79 100 150 166 325 513
386 764 32 133 63 366 71 541 8 165 -11 244 -77 310 -139 139 -328 112 -768
-111 -297 -150 -337 -185 -457 -395 -349 -613 -848 -1132 -1554 -1615 -324
-221 -394 -274 -483 -364 -216 -218 -206 -483 22 -619 66 -39 120 -58 241 -84
122 -26 656 -26 840 0 342 49 774 153 955 231 17 8 75 33 130 56 407 173 800
470 1066 805 225 284 317 442 666 1150 45 93 172 335 183 350 4 6 29 51 56
100 49 92 67 123 142 242 51 82 86 131 183 258 41 53 88 119 106 148 52 85
125 176 168 210 22 17 90 78 150 136 240 232 414 393 653 606 79 70 165 151
190 179 67 72 81 86 142 138 198 168 316 407 289 580 -36 226 -250 362 -609
388 -136 10 -141 10 -340 0z"/>
<path d="M7690 6024 c-14 -2 -63 -9 -110 -15 -364 -50 -710 -168 -974 -334
-309 -194 -605 -561 -671 -832 -30 -126 7 -235 99 -292 117 -73 411 -32 600
82 112 67 285 225 438 399 31 35 77 80 104 99 83 60 196 173 215 214 26 58 6
130 -53 188 -11 10 -22 32 -25 49 -3 16 -22 45 -41 64 -34 33 -34 35 -17 54
30 33 259 88 479 116 127 15 164 171 48 204 -37 10 -46 10 -92 4z m-616 -405
c13 -6 27 -19 30 -28 3 -9 15 -27 26 -41 11 -14 23 -42 26 -62 6 -37 4 -43
-112 -228 -25 -41 -34 -65 -33 -95 1 -22 -2 -49 -6 -61 -4 -14 -1 -27 9 -37 9
-9 13 -18 9 -20 -13 -7 -83 5 -83 14 0 32 -57 -1 -218 -124 -157 -121 -314
-194 -427 -199 -52 -2 -59 0 -82 27 -23 26 -25 35 -21 99 6 85 31 141 115 258
92 129 186 219 377 363 43 32 80 64 83 71 11 29 84 66 118 60 18 -4 43 -2 56
3 33 13 103 13 133 0z"/>
<path d="M9160 4809 c-503 -37 -966 -203 -1290 -464 -305 -245 -454 -453 -751
-1055 -337 -683 -396 -790 -615 -1120 -164 -247 -363 -480 -623 -728 -111
-106 -214 -200 -229 -210 -85 -53 -307 -229 -351 -279 -82 -92 -106 -150 -106
-258 0 -103 17 -145 82 -208 189 -185 815 -196 1528 -27 254 60 614 217 806
352 287 202 438 332 591 506 51 58 111 126 133 151 211 239 466 657 782 1281
164 322 234 453 310 575 149 239 196 312 278 430 151 217 204 302 253 403 l47
97 0 125 c0 117 -2 128 -27 176 -107 204 -372 285 -818 253z m434 -239 c147
-36 212 -100 210 -205 -3 -96 -54 -187 -290 -510 -131 -180 -307 -466 -350
-568 -14 -34 -42 -86 -61 -116 -20 -31 -54 -91 -75 -134 -22 -44 -55 -103 -73
-132 -19 -29 -45 -77 -58 -107 -20 -45 -106 -206 -257 -483 -66 -122 -114
-202 -175 -290 -34 -49 -79 -119 -100 -155 -110 -182 -600 -728 -688 -765 -17
-7 -90 -53 -162 -101 -374 -250 -781 -380 -1354 -430 -208 -18 -501 -15 -586
7 -115 29 -169 95 -144 173 17 51 50 89 153 173 44 37 108 92 141 123 34 30
91 75 127 100 171 116 506 454 684 691 240 318 459 692 690 1179 42 88 220
436 282 550 143 264 366 518 603 686 140 100 143 101 342 176 238 89 372 119
707 162 84 10 356 -4 434 -24z"/>
<path d="M8960 4169 c-490 -100 -728 -230 -940 -511 -87 -114 -106 -158 -85
-197 20 -41 53 -61 95 -61 54 1 76 19 143 115 120 172 262 274 498 356 143 50
168 30 105 -84 -45 -80 -96 -201 -152 -357 -40 -111 -79 -193 -194 -405 -111
-205 -378 -413 -635 -495 -288 -91 -401 -151 -549 -290 -131 -123 -266 -319
-266 -385 0 -46 11 -75 27 -75 8 0 28 -8 44 -17 29 -17 29 -17 70 22 22 22 82
89 132 148 51 60 119 129 152 154 71 53 361 199 531 267 280 112 505 274 601
432 57 95 186 376 255 559 27 71 67 161 88 200 21 38 60 113 87 165 27 53 76
134 110 180 92 127 105 182 57 239 -38 46 -89 57 -174 40z"/>
<path d="M7794 3201 c-39 -24 -70 -65 -122 -161 -62 -115 -63 -161 -6 -211 29
-26 100 -34 129 -15 30 20 165 246 172 289 4 29 0 40 -34 75 -46 48 -87 55
-139 23z"/>
<path d="M7683 1833 c-35 -5 -37 -6 -188 -192 -75 -92 -84 -109 -87 -150 -2
-34 -7 -47 -20 -49 -11 -2 -18 3 -18 12 0 23 2 24 -169 -60 -221 -107 -343
-143 -386 -111 -25 19 -16 39 79 171 129 178 154 226 116 226 -12 0 -30 -5
-41 -10 -15 -8 -19 -7 -19 5 0 11 -11 15 -46 15 -44 0 -50 -4 -106 -62 -33
-35 -96 -108 -139 -163 -44 -55 -107 -134 -140 -176 -66 -83 -82 -134 -60
-187 30 -73 118 -96 261 -67 47 9 108 21 135 27 154 29 359 115 460 193 33 25
78 55 100 67 71 37 156 110 252 218 125 139 148 178 133 224 -9 29 -66 81 -81
74 -2 0 -19 -3 -36 -5z"/>
</g>
</svg>
