<svg xmlns="http://www.w3.org/2000/svg" viewBox="3 3 495 582" width="48" height="56">
<path fill="#1f3f8c" d="M 244.0 15.0 C 247.0 14.0 249.7 13.3 256.0 16.0 C 262.3 18.7 273.3 23.5 282.0 31.0 C 290.7 38.5 301.5 51.2 308.0 61.0 C 314.5 70.8 318.2 81.7 321.0 90.0 C 323.8 98.3 325.0 100.2 325.0 111.0 C 325.0 121.8 323.0 144.5 321.0 155.0 C 319.0 165.5 317.8 166.3 313.0 174.0 C 308.2 181.7 296.2 193.3 292.0 201.0 C 287.8 208.7 287.8 215.0 288.0 220.0 C 288.2 225.0 287.5 224.5 293.0 231.0 C 298.5 237.5 314.5 251.2 321.0 259.0 C 327.5 266.8 329.3 271.5 332.0 278.0 C 334.7 284.5 336.3 286.7 337.0 298.0 C 337.7 309.3 335.7 337.5 336.0 346.0 C 336.3 354.5 336.3 349.0 339.0 349.0 C 341.7 349.0 348.3 348.2 352.0 346.0 C 355.7 343.8 358.8 339.7 361.0 336.0 C 363.2 332.3 364.5 330.3 365.0 324.0 C 365.5 317.7 367.2 310.8 364.0 298.0 C 360.8 285.2 349.0 259.7 346.0 247.0 C 343.0 234.3 345.3 228.5 346.0 222.0 C 346.7 215.5 346.7 214.5 350.0 208.0 C 353.3 201.5 360.8 189.2 366.0 183.0 C 371.2 176.8 375.2 174.3 381.0 171.0 C 386.8 167.7 396.2 164.2 401.0 163.0 C 405.8 161.8 407.7 162.7 410.0 164.0 C 412.3 165.3 415.3 165.0 415.0 171.0 C 414.7 177.0 409.2 191.5 408.0 200.0 C 406.8 208.5 406.7 213.8 408.0 222.0 C 409.3 230.2 412.8 241.7 416.0 249.0 C 419.2 256.3 418.7 256.7 427.0 266.0 C 435.3 275.3 456.7 293.0 466.0 305.0 C 475.3 317.0 479.7 326.2 483.0 338.0 C 486.3 349.8 487.2 364.3 486.0 376.0 C 484.8 387.7 482.8 396.0 476.0 408.0 C 469.2 420.0 454.3 432.7 445.0 448.0 C 435.7 463.3 426.0 489.2 420.0 500.0 C 414.0 510.8 413.7 509.2 409.0 513.0 C 404.3 516.8 398.0 521.3 392.0 523.0 C 386.0 524.7 378.3 525.3 373.0 523.0 C 367.7 520.7 362.5 516.5 360.0 509.0 C 357.5 501.5 357.2 487.3 358.0 478.0 C 358.8 468.7 361.5 461.0 365.0 453.0 C 368.5 445.0 369.8 440.2 379.0 430.0 C 388.2 419.8 411.8 400.5 420.0 392.0 C 428.2 383.5 426.0 384.5 428.0 379.0 C 430.0 373.5 429.7 362.8 432.0 359.0 C 434.3 355.2 439.8 354.3 442.0 356.0 C 444.2 357.7 446.0 362.8 445.0 369.0 C 444.0 375.2 440.8 385.2 436.0 393.0 C 431.2 400.8 423.7 408.5 416.0 416.0 C 408.3 423.5 396.7 430.3 390.0 438.0 C 383.3 445.7 379.2 452.0 376.0 462.0 C 372.8 472.0 371.2 490.3 371.0 498.0 C 370.8 505.7 372.2 506.0 375.0 508.0 C 377.8 510.0 382.3 512.7 388.0 510.0 C 393.7 507.3 401.7 503.2 409.0 492.0 C 416.3 480.8 422.8 458.2 432.0 443.0 C 441.2 427.8 457.3 412.2 464.0 401.0 C 470.7 389.8 471.2 386.3 472.0 376.0 C 472.8 365.7 472.2 349.8 469.0 339.0 C 465.8 328.2 461.2 321.0 453.0 311.0 C 444.8 301.0 428.5 288.8 420.0 279.0 C 411.5 269.2 406.3 262.3 402.0 252.0 C 397.7 241.7 394.8 228.8 394.0 217.0 C 393.2 205.2 397.3 187.0 397.0 181.0 C 396.7 175.0 396.3 178.2 392.0 181.0 C 387.7 183.8 376.3 191.0 371.0 198.0 C 365.7 205.0 361.7 214.0 360.0 223.0 C 358.3 232.0 357.8 238.3 361.0 252.0 C 364.2 265.7 376.5 291.0 379.0 305.0 C 381.5 319.0 377.8 328.5 376.0 336.0 C 374.2 343.5 371.7 345.8 368.0 350.0 C 364.3 354.2 359.5 358.8 354.0 361.0 C 348.5 363.2 340.0 364.0 335.0 363.0 C 330.0 362.0 326.3 357.8 324.0 355.0 C 321.7 352.2 321.2 355.5 321.0 346.0 C 320.8 336.5 323.2 308.0 323.0 298.0 C 322.8 288.0 322.5 291.5 320.0 286.0 C 317.5 280.5 314.2 272.5 308.0 265.0 C 301.8 257.5 288.7 248.7 283.0 241.0 C 277.3 233.3 274.7 226.5 274.0 219.0 C 273.3 211.5 273.7 206.3 279.0 196.0 C 284.3 185.7 300.7 166.8 306.0 157.0 C 311.3 147.2 310.2 145.0 311.0 137.0 C 311.8 129.0 313.5 120.5 311.0 109.0 C 308.5 97.5 301.8 78.8 296.0 68.0 C 290.2 57.2 281.8 49.7 276.0 44.0 C 270.2 38.3 264.3 35.7 261.0 34.0 C 257.7 32.3 256.3 24.7 256.0 34.0 C 255.7 43.3 260.2 75.3 259.0 90.0 C 257.8 104.7 252.3 114.2 249.0 122.0 C 245.7 129.8 247.2 128.5 239.0 137.0 C 230.8 145.5 208.8 162.7 200.0 173.0 C 191.2 183.3 188.3 188.5 186.0 199.0 C 183.7 209.5 184.8 226.8 186.0 236.0 C 187.2 245.2 188.0 245.0 193.0 254.0 C 198.0 263.0 211.3 280.5 216.0 290.0 C 220.7 299.5 220.5 303.5 221.0 311.0 C 221.5 318.5 220.7 328.0 219.0 335.0 C 217.3 342.0 214.3 347.8 211.0 353.0 C 207.7 358.2 202.7 364.3 199.0 366.0 C 195.3 367.7 190.5 364.8 189.0 363.0 C 187.5 361.2 187.5 359.3 190.0 355.0 C 192.5 350.7 201.2 344.5 204.0 337.0 C 206.8 329.5 207.5 317.7 207.0 310.0 C 206.5 302.3 206.2 301.0 201.0 291.0 C 195.8 281.0 181.0 259.8 176.0 250.0 C 171.0 240.2 171.8 239.8 171.0 232.0 C 170.2 224.2 170.2 210.7 171.0 203.0 C 171.8 195.3 173.2 192.2 176.0 186.0 C 178.8 179.8 180.0 174.8 188.0 166.0 C 196.0 157.2 215.2 143.0 224.0 133.0 C 232.8 123.0 237.3 114.0 241.0 106.0 C 244.7 98.0 245.2 92.7 246.0 85.0 C 246.8 77.3 247.3 70.5 246.0 60.0 C 244.7 49.5 238.3 29.5 238.0 22.0 C 237.7 14.5 241.0 16.0 244.0 15.0 Z M 170.0 95.0 C 173.2 94.0 178.2 94.5 181.0 96.0 C 183.8 97.5 186.3 100.7 187.0 104.0 C 187.7 107.3 186.7 113.2 185.0 116.0 C 183.3 118.8 180.0 120.5 177.0 121.0 C 174.0 121.5 169.7 120.8 167.0 119.0 C 164.3 117.2 161.8 112.8 161.0 110.0 C 160.2 107.2 160.5 104.5 162.0 102.0 C 163.5 99.5 166.8 96.0 170.0 95.0 Z M 278.0 119.0 C 280.0 119.5 285.2 120.5 286.0 124.0 C 286.8 127.5 285.2 134.3 283.0 140.0 C 280.8 145.7 279.3 149.8 273.0 158.0 C 266.7 166.2 250.7 181.3 245.0 189.0 C 239.3 196.7 240.2 198.5 239.0 204.0 C 237.8 209.5 236.5 214.5 238.0 222.0 C 239.5 229.5 241.0 238.3 248.0 249.0 C 255.0 259.7 272.5 276.2 280.0 286.0 C 287.5 295.8 289.8 300.0 293.0 308.0 C 296.2 316.0 298.2 323.5 299.0 334.0 C 299.8 344.5 297.7 363.2 298.0 371.0 C 298.3 378.8 299.0 377.7 301.0 381.0 C 303.0 384.3 309.0 387.8 310.0 391.0 C 311.0 394.2 309.0 398.7 307.0 400.0 C 305.0 401.3 301.5 402.2 298.0 399.0 C 294.5 395.8 288.2 392.2 286.0 381.0 C 283.8 369.8 286.0 343.3 285.0 332.0 C 284.0 320.7 282.7 319.3 280.0 313.0 C 277.3 306.7 276.3 303.5 269.0 294.0 C 261.7 284.5 243.5 268.0 236.0 256.0 C 228.5 244.0 225.7 231.5 224.0 222.0 C 222.3 212.5 224.7 205.3 226.0 199.0 C 227.3 192.7 225.8 192.5 232.0 184.0 C 238.2 175.5 256.0 158.5 263.0 148.0 C 270.0 137.5 271.5 125.8 274.0 121.0 C 276.5 116.2 276.0 118.5 278.0 119.0 Z M 95.0 189.0 C 99.3 187.7 104.3 187.0 108.0 193.0 C 111.7 199.0 109.0 212.0 117.0 225.0 C 125.0 238.0 147.8 258.2 156.0 271.0 C 164.2 283.8 164.3 293.5 166.0 302.0 C 167.7 310.5 167.0 314.8 166.0 322.0 C 165.0 329.2 162.7 338.2 160.0 345.0 C 157.3 351.8 155.3 356.2 150.0 363.0 C 144.7 369.8 133.7 379.0 128.0 386.0 C 122.3 393.0 118.5 398.7 116.0 405.0 C 113.5 411.3 112.8 418.8 113.0 424.0 C 113.2 429.2 114.5 432.2 117.0 436.0 C 119.5 439.8 124.3 444.8 128.0 447.0 C 131.7 449.2 135.8 453.8 139.0 449.0 C 142.2 444.2 143.8 426.3 147.0 418.0 C 150.2 409.7 153.8 404.2 158.0 399.0 C 162.2 393.8 168.5 388.7 172.0 387.0 C 175.5 385.3 177.7 387.3 179.0 389.0 C 180.3 390.7 183.0 391.8 180.0 397.0 C 177.0 402.2 165.3 410.3 161.0 420.0 C 156.7 429.7 156.0 447.8 154.0 455.0 C 152.0 462.2 153.7 462.0 149.0 463.0 C 144.3 464.0 133.0 463.8 126.0 461.0 C 119.0 458.2 111.3 451.3 107.0 446.0 C 102.7 440.7 101.0 435.5 100.0 429.0 C 99.0 422.5 99.3 414.0 101.0 407.0 C 102.7 400.0 104.5 394.7 110.0 387.0 C 115.5 379.3 127.8 368.7 134.0 361.0 C 140.2 353.3 144.0 347.5 147.0 341.0 C 150.0 334.5 151.2 328.5 152.0 322.0 C 152.8 315.5 153.3 309.3 152.0 302.0 C 150.7 294.7 151.0 288.3 144.0 278.0 C 137.0 267.7 118.2 251.7 110.0 240.0 C 101.8 228.3 99.2 210.7 95.0 208.0 C 90.8 205.3 87.5 218.2 85.0 224.0 C 82.5 229.8 80.5 231.0 80.0 243.0 C 79.5 255.0 82.2 285.0 82.0 296.0 C 81.8 307.0 81.5 303.3 79.0 309.0 C 76.5 314.7 73.7 321.0 67.0 330.0 C 60.3 339.0 45.5 351.7 39.0 363.0 C 32.5 374.3 29.5 387.7 28.0 398.0 C 26.5 408.3 27.8 415.7 30.0 425.0 C 32.2 434.3 37.5 446.7 41.0 454.0 C 44.5 461.3 44.5 462.3 51.0 469.0 C 57.5 475.7 75.2 488.8 80.0 494.0 C 84.8 499.2 81.3 498.3 80.0 500.0 C 78.7 501.7 76.3 505.3 72.0 504.0 C 67.7 502.7 61.2 499.2 54.0 492.0 C 46.8 484.8 35.3 472.0 29.0 461.0 C 22.7 450.0 18.3 437.8 16.0 426.0 C 13.7 414.2 13.3 401.3 15.0 390.0 C 16.7 378.7 18.8 369.8 26.0 358.0 C 33.2 346.2 51.3 328.0 58.0 319.0 C 64.7 310.0 64.3 318.5 66.0 304.0 C 67.7 289.5 65.3 249.2 68.0 232.0 C 70.7 214.8 77.5 208.2 82.0 201.0 C 86.5 193.8 90.7 190.3 95.0 189.0 Z M 452.0 232.0 C 454.7 230.8 457.3 230.8 460.0 232.0 C 462.7 233.2 466.7 236.2 468.0 239.0 C 469.3 241.8 469.2 246.2 468.0 249.0 C 466.8 251.8 463.8 254.8 461.0 256.0 C 458.2 257.2 453.8 257.2 451.0 256.0 C 448.2 254.8 445.2 251.8 444.0 249.0 C 442.8 246.2 442.7 241.8 444.0 239.0 C 445.3 236.2 449.3 233.2 452.0 232.0 Z M 108.0 280.0 C 109.8 279.7 113.8 279.0 116.0 281.0 C 118.2 283.0 120.2 285.5 121.0 292.0 C 121.8 298.5 122.3 312.2 121.0 320.0 C 119.7 327.8 118.7 330.5 113.0 339.0 C 107.3 347.5 93.2 362.3 87.0 371.0 C 80.8 379.7 78.5 381.7 76.0 391.0 C 73.5 400.3 71.8 418.0 72.0 427.0 C 72.2 436.0 72.3 436.8 77.0 445.0 C 81.7 453.2 88.2 466.2 100.0 476.0 C 111.8 485.8 138.7 496.0 148.0 504.0 C 157.3 512.0 153.0 518.8 156.0 524.0 C 159.0 529.2 159.8 530.5 166.0 535.0 C 172.2 539.5 183.3 547.0 193.0 551.0 C 202.7 555.0 211.0 558.3 224.0 559.0 C 237.0 559.7 259.5 557.2 271.0 555.0 C 282.5 552.8 286.3 550.2 293.0 546.0 C 299.7 541.8 306.8 535.5 311.0 530.0 C 315.2 524.5 316.5 525.3 318.0 513.0 C 319.5 500.7 318.2 470.2 320.0 456.0 C 321.8 441.8 325.7 435.5 329.0 428.0 C 332.3 420.5 329.3 421.7 340.0 411.0 C 350.7 400.3 382.3 376.2 393.0 364.0 C 403.7 351.8 402.7 347.7 404.0 338.0 C 405.3 328.3 401.0 311.8 401.0 306.0 C 401.0 300.2 402.0 303.2 404.0 303.0 C 406.0 302.8 410.7 299.5 413.0 305.0 C 415.3 310.5 418.3 326.7 418.0 336.0 C 417.7 345.3 413.7 354.5 411.0 361.0 C 408.3 367.5 410.3 367.0 402.0 375.0 C 393.7 383.0 371.0 399.3 361.0 409.0 C 351.0 418.7 346.7 423.8 342.0 433.0 C 337.3 442.2 335.2 448.7 333.0 464.0 C 330.8 479.3 331.3 512.0 329.0 525.0 C 326.7 538.0 322.8 537.2 319.0 542.0 C 315.2 546.8 311.7 550.2 306.0 554.0 C 300.3 557.8 294.3 561.8 285.0 565.0 C 275.7 568.2 260.3 571.7 250.0 573.0 C 239.7 574.3 232.8 574.3 223.0 573.0 C 213.2 571.7 201.5 569.2 191.0 565.0 C 180.5 560.8 167.3 553.0 160.0 548.0 C 152.7 543.0 151.7 541.7 147.0 535.0 C 142.3 528.3 140.8 515.7 132.0 508.0 C 123.2 500.3 103.5 495.5 94.0 489.0 C 84.5 482.5 80.8 478.2 75.0 469.0 C 69.2 459.8 61.7 445.7 59.0 434.0 C 56.3 422.3 57.0 409.7 59.0 399.0 C 61.0 388.3 64.8 379.8 71.0 370.0 C 77.2 360.2 90.2 348.0 96.0 340.0 C 101.8 332.0 104.0 329.2 106.0 322.0 C 108.0 314.8 108.2 303.5 108.0 297.0 C 107.8 290.5 105.0 285.8 105.0 283.0 C 105.0 280.2 106.2 280.3 108.0 280.0 Z M 22.0 300.0 C 24.5 299.0 27.5 298.8 30.0 300.0 C 32.5 301.2 35.8 304.3 37.0 307.0 C 38.2 309.7 38.2 313.5 37.0 316.0 C 35.8 318.5 32.5 321.0 30.0 322.0 C 27.5 323.0 24.5 323.2 22.0 322.0 C 19.5 320.8 16.2 317.7 15.0 315.0 C 13.8 312.3 13.8 308.5 15.0 306.0 C 16.2 303.5 19.5 301.0 22.0 300.0 Z M 249.0 330.0 C 251.3 330.5 257.2 332.0 258.0 337.0 C 258.8 342.0 257.2 352.2 254.0 360.0 C 250.8 367.8 248.2 373.0 239.0 384.0 C 229.8 395.0 207.8 412.8 199.0 426.0 C 190.2 439.2 187.7 452.3 186.0 463.0 C 184.3 473.7 186.3 482.3 189.0 490.0 C 191.7 497.7 195.5 504.0 202.0 509.0 C 208.5 514.0 219.3 518.7 228.0 520.0 C 236.7 521.3 246.0 520.2 254.0 517.0 C 262.0 513.8 271.0 506.5 276.0 501.0 C 281.0 495.5 282.3 490.5 284.0 484.0 C 285.7 477.5 287.0 469.2 286.0 462.0 C 285.0 454.8 281.5 446.0 278.0 441.0 C 274.5 436.0 271.0 433.2 265.0 432.0 C 259.0 430.8 247.5 432.0 242.0 434.0 C 236.5 436.0 234.3 440.5 232.0 444.0 C 229.7 447.5 228.5 451.2 228.0 455.0 C 227.5 458.8 227.5 463.7 229.0 467.0 C 230.5 470.3 234.2 473.8 237.0 475.0 C 239.8 476.2 243.7 476.3 246.0 474.0 C 248.3 471.7 248.5 462.8 251.0 461.0 C 253.5 459.2 259.2 461.0 261.0 463.0 C 262.8 465.0 262.8 469.5 262.0 473.0 C 261.2 476.5 260.5 481.3 256.0 484.0 C 251.5 486.7 240.0 488.8 235.0 489.0 C 230.0 489.2 229.2 487.8 226.0 485.0 C 222.8 482.2 218.0 476.7 216.0 472.0 C 214.0 467.3 213.2 463.0 214.0 457.0 C 214.8 451.0 217.2 442.0 221.0 436.0 C 224.8 430.0 232.0 424.2 237.0 421.0 C 242.0 417.8 244.7 417.0 251.0 417.0 C 257.3 417.0 268.3 418.0 275.0 421.0 C 281.7 424.0 287.0 429.2 291.0 435.0 C 295.0 440.8 297.7 448.7 299.0 456.0 C 300.3 463.3 300.3 471.2 299.0 479.0 C 297.7 486.8 295.2 495.8 291.0 503.0 C 286.8 510.2 281.2 517.0 274.0 522.0 C 266.8 527.0 256.8 531.2 248.0 533.0 C 239.2 534.8 228.7 534.2 221.0 533.0 C 213.3 531.8 208.5 530.3 202.0 526.0 C 195.5 521.7 186.8 514.2 182.0 507.0 C 177.2 499.8 174.5 491.3 173.0 483.0 C 171.5 474.7 170.8 467.3 173.0 457.0 C 175.2 446.7 181.8 429.8 186.0 421.0 C 190.2 412.2 189.8 413.0 198.0 404.0 C 206.2 395.0 227.7 375.7 235.0 367.0 C 242.3 358.3 240.5 357.5 242.0 352.0 C 243.5 346.5 242.8 337.7 244.0 334.0 C 245.2 330.3 246.7 329.5 249.0 330.0 Z"/>
</svg>
