<svg xmlns="http://www.w3.org/2000/svg" viewBox="790 50 570 370">
  <g transform="translate(0.000000,800.000000) scale(0.100000,-0.100000)" fill="#0d1e40" stroke="none">
<path d="M11113 6059 c-40 -31 -123 -167 -123 -202 0 -7 -8 -28 -19 -47 -11
-22 -17 -47 -14 -66 3 -18 0 -41 -6 -53 -6 -11 -16 -43 -21 -71 -5 -27 -19
-70 -30 -94 -11 -25 -20 -49 -20 -55 0 -12 -157 -171 -169 -171 -5 0 -22 -11
-38 -24 -24 -20 -45 -26 -115 -32 -95 -7 -138 2 -202 45 -21 14 -50 32 -64 40
-29 16 -252 237 -252 250 0 15 -163 172 -225 216 -33 23 -88 58 -123 76 -35
19 -73 40 -85 46 -12 7 -32 13 -44 13 -12 0 -44 9 -71 19 -143 57 -625 86
-832 51 -30 -6 -165 -17 -300 -26 -417 -27 -483 -33 -543 -49 -32 -8 -66 -15
-76 -15 -28 0 -99 -35 -161 -78 -64 -44 -79 -77 -86 -187 -4 -63 -2 -75 23
-119 38 -66 65 -83 152 -97 74 -11 242 -1 351 21 25 5 95 14 155 20 130 13
381 45 480 63 165 28 539 12 630 -28 17 -7 42 -16 57 -19 35 -8 166 -95 201
-135 15 -17 32 -31 37 -31 5 0 28 -24 51 -52 48 -62 242 -262 285 -296 16 -12
45 -35 64 -51 178 -145 418 -215 626 -181 96 16 289 89 345 132 78 59 269 263
269 286 0 5 10 24 23 43 12 19 37 72 55 119 18 47 39 99 47 115 56 120 95 281
95 389 -2 174 -67 256 -209 264 -73 4 -77 3 -118 -29z"/>
<path d="M12505 5415 c-144 -19 -228 -47 -400 -132 -38 -19 -81 -45 -95 -57
-14 -12 -38 -31 -55 -41 -16 -10 -41 -29 -55 -42 -14 -12 -55 -48 -93 -79 -37
-30 -74 -69 -83 -86 -9 -17 -36 -52 -60 -77 -25 -25 -68 -75 -97 -110 -100
-122 -366 -381 -391 -381 -5 0 -20 -10 -32 -21 -84 -79 -281 -179 -454 -230
-31 -10 -100 -13 -225 -12 -192 1 -236 9 -390 68 -38 14 -84 30 -100 34 -38
10 -144 75 -193 118 -20 18 -42 33 -49 33 -7 0 -27 18 -44 40 -18 22 -38 40
-46 40 -7 0 -18 10 -23 23 -5 12 -34 49 -66 82 -31 33 -68 77 -83 99 -64 95
-82 124 -105 172 -13 28 -29 55 -36 59 -6 4 -24 35 -40 69 -36 79 -140 181
-194 191 -71 14 -173 2 -196 -23 -12 -12 -32 -29 -46 -38 -81 -54 -87 -248 -9
-334 8 -9 26 -38 41 -65 14 -28 34 -59 43 -70 10 -11 38 -49 62 -85 92 -136
368 -420 409 -420 5 0 19 -9 32 -20 43 -36 124 -88 194 -122 38 -19 78 -40 89
-46 47 -26 186 -80 260 -102 44 -12 107 -31 140 -41 180 -54 641 -50 770 6 17
7 51 18 78 24 52 13 251 104 262 120 3 6 13 11 20 11 19 0 105 55 184 119 35
28 67 51 71 51 5 0 18 16 30 35 13 21 30 35 41 35 11 0 23 10 29 24 8 23 77
98 116 127 11 8 29 28 42 44 89 117 116 152 133 170 11 11 41 46 68 77 139
166 298 228 588 228 244 0 364 20 475 77 41 21 53 35 83 95 32 64 34 75 29
131 -4 34 -12 71 -20 82 -56 84 -71 98 -129 121 -110 44 -292 55 -480 29z"/>
  </g>
</svg>