<svg xmlns="http://www.w3.org/2000/svg" viewBox="2050 30 750 440">
  <g transform="translate(0.000000,800.000000) scale(0.100000,-0.100000)" fill="#0d1e40" stroke="none">
<path d="M23465 6680 c-200 -9 -295 -28 -515 -100 -141 -46 -239 -87 -305
-129 -27 -17 -59 -35 -70 -41 -11 -5 -38 -23 -60 -39 -22 -17 -66 -49 -99 -71
-32 -23 -70 -52 -85 -65 -14 -13 -61 -53 -103 -90 -43 -37 -78 -70 -78 -74 0
-3 -27 -35 -61 -71 -82 -88 -136 -165 -204 -290 -53 -97 -58 -111 -63 -182 -4
-75 -4 -78 25 -107 45 -45 90 -49 173 -17 38 15 84 38 102 51 18 13 50 34 71
45 21 11 57 39 80 60 23 22 45 40 50 40 9 0 193 167 337 307 58 57 107 103
109 103 2 0 21 15 42 33 55 46 100 81 118 90 9 4 36 21 61 37 77 50 104 60
265 96 71 16 205 18 256 4 20 -6 78 -19 129 -30 51 -11 107 -28 125 -39 17
-10 54 -24 82 -30 32 -8 61 -23 79 -42 15 -16 34 -29 42 -29 45 0 221 -166
295 -277 47 -72 73 -133 109 -258 28 -98 39 -422 14 -456 -9 -13 -16 -36 -16
-52 0 -48 -28 -141 -57 -192 -67 -114 -80 -134 -118 -180 -60 -73 -107 -115
-135 -121 -14 -3 -36 -21 -49 -40 -16 -23 -31 -34 -48 -34 -13 0 -46 -11 -73
-25 -112 -57 -228 -78 -430 -79 l-185 -1 -78 32 c-43 18 -88 33 -100 33 -12 0
-33 9 -47 20 -14 11 -30 20 -37 20 -6 0 -14 8 -17 18 -3 10 -23 36 -44 59 -85
93 -116 277 -68 412 14 41 26 80 26 87 0 7 14 33 30 56 17 24 41 59 54 79 68
102 192 174 287 167 89 -6 143 -47 147 -110 3 -47 3 -47 -50 -81 -29 -19 -74
-46 -100 -61 -51 -28 -86 -77 -94 -128 -11 -68 58 -171 123 -183 20 -3 47 -14
60 -22 22 -14 37 -15 119 -5 124 14 203 53 282 139 159 174 179 220 189 433 6
113 5 116 -20 146 -14 17 -29 42 -32 55 -7 28 -148 179 -167 179 -6 0 -21 9
-32 19 -33 31 -205 97 -302 117 -123 25 -295 24 -389 -4 -108 -31 -140 -48
-218 -113 -177 -148 -247 -285 -325 -634 -32 -140 -23 -385 19 -520 10 -33 19
-67 19 -75 0 -19 44 -101 91 -171 126 -187 249 -261 569 -340 142 -35 578 -29
740 10 25 6 72 17 105 25 156 38 440 172 490 231 6 7 26 21 45 33 74 43 183
171 229 267 107 222 143 337 171 535 18 125 2 470 -25 522 -7 15 -16 42 -20
60 -15 75 -59 188 -100 258 -24 41 -56 97 -70 123 -23 42 -81 112 -161 191
-56 57 -196 180 -216 191 -13 6 -52 28 -88 47 -68 37 -191 89 -250 106 -19 6
-67 20 -106 32 -38 11 -106 25 -150 30 -43 5 -90 11 -104 13 -14 3 -101 1
-195 -3z"/>
<path d="M25458 4544 c-64 -12 -149 -33 -190 -47 -93 -31 -302 -137 -346 -174
-17 -15 -55 -46 -83 -68 -29 -22 -70 -60 -93 -85 -23 -24 -57 -60 -76 -80 -19
-20 -53 -58 -75 -85 -135 -164 -273 -310 -370 -390 -38 -32 -74 -64 -80 -70
-5 -6 -43 -33 -82 -59 -40 -27 -73 -52 -73 -56 0 -4 -13 -10 -29 -13 -16 -3
-49 -20 -73 -36 -113 -76 -348 -122 -548 -107 -81 6 -312 56 -348 76 -9 5 -42
21 -72 35 -30 15 -64 35 -75 45 -11 10 -40 28 -65 41 -42 20 -98 70 -117 103
-4 8 -24 23 -43 33 -19 11 -44 34 -55 51 -11 17 -27 34 -35 37 -8 3 -26 22
-40 42 -13 21 -34 47 -46 58 -12 11 -39 52 -59 90 -21 39 -45 81 -54 95 -10
14 -39 65 -66 114 -46 85 -107 166 -127 166 -5 0 -21 9 -36 20 -36 26 -136 37
-188 20 -21 -7 -62 -30 -90 -51 -63 -48 -76 -93 -64 -212 6 -65 13 -87 39
-123 17 -25 31 -48 31 -53 0 -5 7 -14 15 -21 8 -7 36 -45 62 -84 77 -116 182
-245 263 -322 83 -79 219 -194 230 -194 4 0 44 -24 87 -53 217 -149 587 -277
798 -277 24 0 67 -5 96 -11 122 -26 480 31 634 101 24 11 49 20 55 20 6 0 32
12 58 27 26 14 56 31 67 37 24 14 126 82 165 111 15 11 40 29 56 40 16 11 41
31 55 45 128 124 189 187 189 197 0 7 9 17 20 23 26 14 97 91 129 139 13 20
29 41 35 46 6 6 25 26 41 46 88 105 120 139 130 139 7 0 20 10 31 21 22 25
142 83 206 100 24 7 156 15 293 19 233 6 312 15 370 42 89 41 142 85 156 127
6 20 15 40 20 46 14 15 10 97 -6 147 -22 62 -76 113 -170 156 -85 40 -293 47
-457 16z"/>
  </g>
</svg>