<svg xmlns="http://www.w3.org/2000/svg" viewBox="1360 30 680 440">
  <g transform="translate(0.000000,800.000000) scale(0.100000,-0.100000)" fill="#0d1e40" stroke="none">
<path d="M16235 6680 c-11 -5 -32 -11 -47 -14 -55 -12 -82 -120 -54 -217 39
-132 190 -202 284 -132 70 53 96 212 46 280 -53 71 -164 112 -229 83z"/>
<path d="M15470 6322 c-8 -3 -37 -23 -65 -44 -77 -60 -108 -166 -65 -221 11
-14 20 -29 20 -34 0 -23 108 -63 171 -63 157 0 237 109 180 243 -30 69 -92
114 -166 120 -33 2 -67 2 -75 -1z"/>
<path d="M16965 6304 c-16 -8 -47 -38 -67 -66 -69 -95 -48 -201 52 -250 95
-49 204 -33 278 40 29 28 32 37 32 91 0 76 -8 95 -64 154 l-45 47 -78 0 c-49
0 -89 -6 -108 -16z"/>
<path d="M15033 5651 c-61 -8 -130 -51 -153 -96 -24 -48 -20 -186 6 -221 42
-57 66 -67 137 -60 105 12 193 77 222 167 21 62 16 81 -36 144 -62 76 -70 79
-176 66z"/>
<path d="M16190 5650 c-52 -7 -105 -25 -160 -56 -14 -7 -39 -20 -55 -28 -35
-16 -135 -120 -135 -139 0 -7 -17 -36 -39 -64 -57 -77 -101 -207 -108 -321 -3
-51 -11 -96 -17 -99 -6 -4 -60 -9 -121 -10 -60 -2 -211 -10 -335 -18 -124 -8
-281 -17 -349 -21 l-125 -7 -37 -36 -36 -36 7 -105 c4 -58 15 -127 24 -155 9
-27 22 -66 28 -85 11 -37 56 -139 91 -205 23 -46 30 -60 46 -95 6 -14 16 -34
23 -45 7 -11 35 -56 62 -100 27 -44 55 -84 63 -88 7 -4 13 -13 13 -18 0 -42
320 -385 415 -446 27 -18 57 -38 65 -46 8 -8 31 -22 50 -32 19 -9 46 -28 60
-40 14 -13 36 -26 50 -30 14 -4 37 -16 52 -27 15 -10 42 -23 60 -29 18 -6 51
-19 73 -30 191 -89 596 -142 837 -110 77 10 286 74 343 105 17 9 37 16 46 16
19 0 173 97 212 134 16 14 32 26 37 26 15 0 220 210 220 225 0 7 7 19 17 26
18 16 92 113 109 144 6 11 16 31 24 45 7 14 17 32 22 40 5 8 18 35 29 60 23
51 43 93 63 130 8 14 21 45 29 70 8 25 24 68 35 95 11 28 30 84 42 125 12 41
32 109 46 150 13 42 24 87 24 101 0 14 7 50 16 80 51 165 -11 314 -143 345
-61 14 -449 4 -613 -16 -41 -5 -139 -12 -218 -16 -173 -8 -176 -6 -167 75 5
47 1 72 -25 151 -38 114 -115 243 -152 255 -10 4 -18 10 -18 14 0 5 -15 14
-32 22 -18 7 -49 25 -68 40 -19 15 -55 33 -80 39 -25 6 -61 17 -80 24 -47 18
-152 26 -220 16z m1349 -893 c133 -40 127 -171 -27 -592 -31 -86 -85 -204
-112 -245 -10 -14 -37 -56 -61 -94 -24 -39 -84 -109 -134 -157 -49 -49 -103
-101 -120 -117 -56 -54 -214 -124 -360 -158 -182 -43 -484 -24 -607 37 -21 11
-47 19 -59 19 -33 0 -187 78 -243 124 -28 23 -71 53 -96 68 -25 14 -61 43 -80
63 -19 20 -42 44 -50 52 -8 9 -23 23 -33 32 -43 39 -77 76 -77 85 0 13 -52 89
-68 99 -6 4 -21 25 -31 45 -10 20 -33 55 -50 76 -17 21 -38 61 -46 88 -8 27
-23 60 -34 74 -11 14 -23 42 -27 63 -4 20 -20 69 -35 109 -40 100 -37 179 8
197 26 10 307 34 543 45 113 6 324 17 470 25 146 9 351 20 455 25 105 5 231
14 280 19 50 6 179 13 289 15 109 3 201 8 204 11 9 9 55 5 101 -8z"/>
<path d="M17450 5642 c-85 -38 -125 -153 -86 -246 26 -61 148 -126 238 -126
44 0 107 50 128 100 31 74 -7 193 -78 247 -40 30 -49 33 -115 32 -40 0 -79 -3
-87 -7z"/>
  </g>
</svg>