<svg xmlns="http://www.w3.org/2000/svg" viewBox="0 30 820 440">
  <g transform="translate(0.000000,800.000000) scale(0.100000,-0.100000)" fill="#0d1e40" stroke="none">
<path d="M4805 6330 c-11 -5 -42 -9 -69 -9 -60 -1 -210 -29 -251 -47 -16 -7
-54 -18 -83 -24 -52 -10 -112 -36 -301 -129 -145 -72 -425 -274 -489 -353 -15
-18 -47 -54 -72 -78 -46 -46 -180 -213 -180 -225 0 -8 -49 -75 -72 -98 -10
-10 -21 -30 -24 -45 -4 -15 -18 -42 -31 -60 -13 -18 -31 -53 -40 -77 -8 -25
-21 -45 -28 -45 -8 0 -15 -17 -18 -42 -3 -24 -10 -63 -17 -88 -14 -55 -9 -203
9 -224 38 -46 159 -27 250 40 125 91 384 372 474 517 10 15 23 27 30 27 6 1
28 26 47 56 19 30 70 92 113 137 43 45 84 89 90 97 23 30 198 138 259 160 35
12 77 28 93 35 128 58 468 35 670 -44 28 -10 70 -27 95 -37 25 -9 65 -32 89
-51 24 -18 52 -33 61 -33 30 0 256 -254 267 -300 3 -14 11 -34 17 -45 18 -30
64 -149 77 -197 24 -96 29 -150 29 -289 0 -126 -3 -157 -25 -229 -14 -46 -25
-94 -25 -106 0 -13 -5 -26 -11 -29 -5 -4 -21 -31 -33 -60 -13 -29 -45 -78 -70
-109 -25 -31 -46 -61 -46 -65 0 -12 -167 -151 -182 -152 -7 0 -26 -9 -43 -20
-42 -26 -152 -78 -184 -85 -14 -4 -31 -11 -37 -15 -6 -5 -42 -13 -80 -18 -38
-5 -98 -17 -134 -26 -80 -21 -208 -15 -325 16 -93 24 -144 53 -205 115 -25 25
-56 57 -70 70 -50 52 -89 297 -57 362 8 15 19 52 26 82 6 30 22 73 36 95 13
22 30 54 38 70 21 45 130 146 179 166 95 39 239 4 253 -61 13 -60 -1 -82 -85
-139 -95 -63 -140 -111 -140 -149 0 -84 56 -167 137 -203 70 -32 194 -30 263
5 164 83 259 194 328 386 43 117 37 288 -13 374 -45 77 -149 194 -177 200 -15
3 -47 17 -70 32 -42 27 -70 36 -218 76 -108 29 -391 21 -478 -13 -94 -37 -171
-76 -203 -103 -17 -14 -34 -26 -38 -26 -15 0 -118 -147 -150 -215 -38 -79 -81
-208 -81 -243 0 -13 -8 -37 -17 -55 -14 -27 -17 -64 -17 -252 0 -219 0 -220
36 -363 20 -79 42 -151 50 -160 8 -9 27 -42 43 -72 28 -54 57 -100 83 -130 7
-8 24 -30 38 -47 14 -18 31 -33 37 -33 7 0 18 -9 24 -20 7 -11 27 -27 45 -36
18 -9 42 -25 53 -35 11 -10 42 -23 70 -29 27 -6 55 -16 62 -21 15 -13 109 -32
233 -48 52 -7 104 -14 114 -16 73 -15 501 40 594 75 29 11 62 20 73 20 12 0
33 6 47 14 15 8 61 27 102 42 41 16 96 41 123 56 26 15 58 30 71 34 14 3 32
14 42 25 9 10 23 19 29 19 7 0 19 7 26 16 7 9 37 31 65 49 53 34 244 214 244
230 0 5 7 16 15 25 30 34 85 133 96 174 6 22 17 51 25 63 26 41 45 136 74 375
27 218 21 294 -50 583 -25 103 -125 313 -198 415 -56 79 -284 310 -306 310 -8
0 -20 9 -26 20 -6 11 -27 28 -48 39 -177 91 -239 121 -249 121 -6 0 -24 6 -40
14 -58 29 -158 54 -298 75 -101 15 -316 22 -340 11z"/>
  </g>
</svg>