<svg xmlns="http://www.w3.org/2000/svg" viewBox="0 0 2788 460" width="697" height="200">
  <g transform="translate(0.000000,800.000000) scale(0.100000,-0.100000)"
fill="#0d1e40" stroke="none">
<path d="M16235 6680 c-11 -5 -32 -11 -47 -14 -55 -12 -82 -120 -54 -217 39
-132 190 -202 284 -132 70 53 96 212 46 280 -53 71 -164 112 -229 83z"/>
<path d="M23465 6680 c-200 -9 -295 -28 -515 -100 -141 -46 -239 -87 -305
-129 -27 -17 -59 -35 -70 -41 -11 -5 -38 -23 -60 -39 -22 -17 -66 -49 -99 -71
-32 -23 -70 -52 -85 -65 -14 -13 -61 -53 -103 -90 -43 -37 -78 -70 -78 -74 0
-3 -27 -35 -61 -71 -82 -88 -136 -165 -204 -290 -53 -97 -58 -111 -63 -182 -4
-75 -4 -78 25 -107 45 -45 90 -49 173 -17 38 15 84 38 102 51 18 13 50 34 71
45 21 11 57 39 80 60 23 22 45 40 50 40 9 0 193 167 337 307 58 57 107 103
109 103 2 0 21 15 42 33 55 46 100 81 118 90 9 4 36 21 61 37 77 50 104 60
265 96 71 16 205 18 256 4 20 -6 78 -19 129 -30 51 -11 107 -28 125 -39 17
-10 54 -24 82 -30 32 -8 61 -23 79 -42 15 -16 34 -29 42 -29 45 0 221 -166
295 -277 47 -72 73 -133 109 -258 28 -98 39 -422 14 -456 -9 -13 -16 -36 -16
-52 0 -48 -28 -141 -57 -192 -67 -114 -80 -134 -118 -180 -60 -73 -107 -115
-135 -121 -14 -3 -36 -21 -49 -40 -16 -23 -31 -34 -48 -34 -13 0 -46 -11 -73
-25 -112 -57 -228 -78 -430 -79 l-185 -1 -78 32 c-43 18 -88 33 -100 33 -12 0
-33 9 -47 20 -14 11 -30 20 -37 20 -6 0 -14 8 -17 18 -3 10 -23 36 -44 59 -85
93 -116 277 -68 412 14 41 26 80 26 87 0 7 14 33 30 56 17 24 41 59 54 79 68
102 192 174 287 167 89 -6 143 -47 147 -110 3 -47 3 -47 -50 -81 -29 -19 -74
-46 -100 -61 -51 -28 -86 -77 -94 -128 -11 -68 58 -171 123 -183 20 -3 47 -14
60 -22 22 -14 37 -15 119 -5 124 14 203 53 282 139 159 174 179 220 189 433 6
113 5 116 -20 146 -14 17 -29 42 -32 55 -7 28 -148 179 -167 179 -6 0 -21 9
-32 19 -33 31 -205 97 -302 117 -123 25 -295 24 -389 -4 -108 -31 -140 -48
-218 -113 -177 -148 -247 -285 -325 -634 -32 -140 -23 -385 19 -520 10 -33 19
-67 19 -75 0 -19 44 -101 91 -171 126 -187 249 -261 569 -340 142 -35 578 -29
740 10 25 6 72 17 105 25 156 38 440 172 490 231 6 7 26 21 45 33 74 43 183
171 229 267 107 222 143 337 171 535 18 125 2 470 -25 522 -7 15 -16 42 -20
60 -15 75 -59 188 -100 258 -24 41 -56 97 -70 123 -23 42 -81 112 -161 191
-56 57 -196 180 -216 191 -13 6 -52 28 -88 47 -68 37 -191 89 -250 106 -19 6
-67 20 -106 32 -38 11 -106 25 -150 30 -43 5 -90 11 -104 13 -14 3 -101 1
-195 -3z"/>
<path d="M4805 6330 c-11 -5 -42 -9 -69 -9 -60 -1 -210 -29 -251 -47 -16 -7
-54 -18 -83 -24 -52 -10 -112 -36 -301 -129 -145 -72 -425 -274 -489 -353 -15
-18 -47 -54 -72 -78 -46 -46 -180 -213 -180 -225 0 -8 -49 -75 -72 -98 -10
-10 -21 -30 -24 -45 -4 -15 -18 -42 -31 -60 -13 -18 -31 -53 -40 -77 -8 -25
-21 -45 -28 -45 -8 0 -15 -17 -18 -42 -3 -24 -10 -63 -17 -88 -14 -55 -9 -203
9 -224 38 -46 159 -27 250 40 125 91 384 372 474 517 10 15 23 27 30 27 6 1
28 26 47 56 19 30 70 92 113 137 43 45 84 89 90 97 23 30 198 138 259 160 35
12 77 28 93 35 128 58 468 35 670 -44 28 -10 70 -27 95 -37 25 -9 65 -32 89
-51 24 -18 52 -33 61 -33 30 0 256 -254 267 -300 3 -14 11 -34 17 -45 18 -30
64 -149 77 -197 24 -96 29 -150 29 -289 0 -126 -3 -157 -25 -229 -14 -46 -25
-94 -25 -106 0 -13 -5 -26 -11 -29 -5 -4 -21 -31 -33 -60 -13 -29 -45 -78 -70
-109 -25 -31 -46 -61 -46 -65 0 -12 -167 -151 -182 -152 -7 0 -26 -9 -43 -20
-42 -26 -152 -78 -184 -85 -14 -4 -31 -11 -37 -15 -6 -5 -42 -13 -80 -18 -38
-5 -98 -17 -134 -26 -80 -21 -208 -15 -325 16 -93 24 -144 53 -205 115 -25 25
-56 57 -70 70 -50 52 -89 297 -57 362 8 15 19 52 26 82 6 30 22 73 36 95 13
22 30 54 38 70 21 45 130 146 179 166 95 39 239 4 253 -61 13 -60 -1 -82 -85
-139 -95 -63 -140 -111 -140 -149 0 -84 56 -167 137 -203 70 -32 194 -30 263
5 164 83 259 194 328 386 43 117 37 288 -13 374 -45 77 -149 194 -177 200 -15
3 -47 17 -70 32 -42 27 -70 36 -218 76 -108 29 -391 21 -478 -13 -94 -37 -171
-76 -203 -103 -17 -14 -34 -26 -38 -26 -15 0 -118 -147 -150 -215 -38 -79 -81
-208 -81 -243 0 -13 -8 -37 -17 -55 -14 -27 -17 -64 -17 -252 0 -219 0 -220
36 -363 20 -79 42 -151 50 -160 8 -9 27 -42 43 -72 28 -54 57 -100 83 -130 7
-8 24 -30 38 -47 14 -18 31 -33 37 -33 7 0 18 -9 24 -20 7 -11 27 -27 45 -36
18 -9 42 -25 53 -35 11 -10 42 -23 70 -29 27 -6 55 -16 62 -21 15 -13 109 -32
233 -48 52 -7 104 -14 114 -16 73 -15 501 40 594 75 29 11 62 20 73 20 12 0
33 6 47 14 15 8 61 27 102 42 41 16 96 41 123 56 26 15 58 30 71 34 14 3 32
14 42 25 9 10 23 19 29 19 7 0 19 7 26 16 7 9 37 31 65 49 53 34 244 214 244
230 0 5 7 16 15 25 30 34 85 133 96 174 6 22 17 51 25 63 26 41 45 136 74 375
27 218 21 294 -50 583 -25 103 -125 313 -198 415 -56 79 -284 310 -306 310 -8
0 -20 9 -26 20 -6 11 -27 28 -48 39 -177 91 -239 121 -249 121 -6 0 -24 6 -40
14 -58 29 -158 54 -298 75 -101 15 -316 22 -340 11z"/>
<path d="M15470 6322 c-8 -3 -37 -23 -65 -44 -77 -60 -108 -166 -65 -221 11
-14 20 -29 20 -34 0 -23 108 -63 171 -63 157 0 237 109 180 243 -30 69 -92
114 -166 120 -33 2 -67 2 -75 -1z"/>
<path d="M16965 6304 c-16 -8 -47 -38 -67 -66 -69 -95 -48 -201 52 -250 95
-49 204 -33 278 40 29 28 32 37 32 91 0 76 -8 95 -64 154 l-45 47 -78 0 c-49
0 -89 -6 -108 -16z"/>
<path d="M11113 6059 c-40 -31 -123 -167 -123 -202 0 -7 -8 -28 -19 -47 -11
-22 -17 -47 -14 -66 3 -18 0 -41 -6 -53 -6 -11 -16 -43 -21 -71 -5 -27 -19
-70 -30 -94 -11 -25 -20 -49 -20 -55 0 -12 -157 -171 -169 -171 -5 0 -22 -11
-38 -24 -24 -20 -45 -26 -115 -32 -95 -7 -138 2 -202 45 -21 14 -50 32 -64 40
-29 16 -252 237 -252 250 0 15 -163 172 -225 216 -33 23 -88 58 -123 76 -35
19 -73 40 -85 46 -12 7 -32 13 -44 13 -12 0 -44 9 -71 19 -143 57 -625 86
-832 51 -30 -6 -165 -17 -300 -26 -417 -27 -483 -33 -543 -49 -32 -8 -66 -15
-76 -15 -28 0 -99 -35 -161 -78 -64 -44 -79 -77 -86 -187 -4 -63 -2 -75 23
-119 38 -66 65 -83 152 -97 74 -11 242 -1 351 21 25 5 95 14 155 20 130 13
381 45 480 63 165 28 539 12 630 -28 17 -7 42 -16 57 -19 35 -8 166 -95 201
-135 15 -17 32 -31 37 -31 5 0 28 -24 51 -52 48 -62 242 -262 285 -296 16 -12
45 -35 64 -51 178 -145 418 -215 626 -181 96 16 289 89 345 132 78 59 269 263
269 286 0 5 10 24 23 43 12 19 37 72 55 119 18 47 39 99 47 115 56 120 95 281
95 389 -2 174 -67 256 -209 264 -73 4 -77 3 -118 -29z"/>
<path d="M15033 5651 c-61 -8 -130 -51 -153 -96 -24 -48 -20 -186 6 -221 42
-57 66 -67 137 -60 105 12 193 77 222 167 21 62 16 81 -36 144 -62 76 -70 79
-176 66z"/>
<path d="M16190 5650 c-52 -7 -105 -25 -160 -56 -14 -7 -39 -20 -55 -28 -35
-16 -135 -120 -135 -139 0 -7 -17 -36 -39 -64 -57 -77 -101 -207 -108 -321 -3
-51 -11 -96 -17 -99 -6 -4 -60 -9 -121 -10 -60 -2 -211 -10 -335 -18 -124 -8
-281 -17 -349 -21 l-125 -7 -37 -36 -36 -36 7 -105 c4 -58 15 -127 24 -155 9
-27 22 -66 28 -85 11 -37 56 -139 91 -205 23 -46 30 -60 46 -95 6 -14 16 -34
23 -45 7 -11 35 -56 62 -100 27 -44 55 -84 63 -88 7 -4 13 -13 13 -18 0 -42
320 -385 415 -446 27 -18 57 -38 65 -46 8 -8 31 -22 50 -32 19 -9 46 -28 60
-40 14 -13 36 -26 50 -30 14 -4 37 -16 52 -27 15 -10 42 -23 60 -29 18 -6 51
-19 73 -30 191 -89 596 -142 837 -110 77 10 286 74 343 105 17 9 37 16 46 16
19 0 173 97 212 134 16 14 32 26 37 26 15 0 220 210 220 225 0 7 7 19 17 26
18 16 92 113 109 144 6 11 16 31 24 45 7 14 17 32 22 40 5 8 18 35 29 60 23
51 43 93 63 130 8 14 21 45 29 70 8 25 24 68 35 95 11 28 30 84 42 125 12 41
32 109 46 150 13 42 24 87 24 101 0 14 7 50 16 80 51 165 -11 314 -143 345
-61 14 -449 4 -613 -16 -41 -5 -139 -12 -218 -16 -173 -8 -176 -6 -167 75 5
47 1 72 -25 151 -38 114 -115 243 -152 255 -10 4 -18 10 -18 14 0 5 -15 14
-32 22 -18 7 -49 25 -68 40 -19 15 -55 33 -80 39 -25 6 -61 17 -80 24 -47 18
-152 26 -220 16z m1349 -893 c133 -40 127 -171 -27 -592 -31 -86 -85 -204
-112 -245 -10 -14 -37 -56 -61 -94 -24 -39 -84 -109 -134 -157 -49 -49 -103
-101 -120 -117 -56 -54 -214 -124 -360 -158 -182 -43 -484 -24 -607 37 -21 11
-47 19 -59 19 -33 0 -187 78 -243 124 -28 23 -71 53 -96 68 -25 14 -61 43 -80
63 -19 20 -42 44 -50 52 -8 9 -23 23 -33 32 -43 39 -77 76 -77 85 0 13 -52 89
-68 99 -6 4 -21 25 -31 45 -10 20 -33 55 -50 76 -17 21 -38 61 -46 88 -8 27
-23 60 -34 74 -11 14 -23 42 -27 63 -4 20 -20 69 -35 109 -40 100 -37 179 8
197 26 10 307 34 543 45 113 6 324 17 470 25 146 9 351 20 455 25 105 5 231
14 280 19 50 6 179 13 289 15 109 3 201 8 204 11 9 9 55 5 101 -8z"/>
<path d="M17450 5642 c-85 -38 -125 -153 -86 -246 26 -61 148 -126 238 -126
44 0 107 50 128 100 31 74 -7 193 -78 247 -40 30 -49 33 -115 32 -40 0 -79 -3
-87 -7z"/>
<path d="M12505 5415 c-144 -19 -228 -47 -400 -132 -38 -19 -81 -45 -95 -57
-14 -12 -38 -31 -55 -41 -16 -10 -41 -29 -55 -42 -14 -12 -55 -48 -93 -79 -37
-30 -74 -69 -83 -86 -9 -17 -36 -52 -60 -77 -25 -25 -68 -75 -97 -110 -100
-122 -366 -381 -391 -381 -5 0 -20 -10 -32 -21 -84 -79 -281 -179 -454 -230
-31 -10 -100 -13 -225 -12 -192 1 -236 9 -390 68 -38 14 -84 30 -100 34 -38
10 -144 75 -193 118 -20 18 -42 33 -49 33 -7 0 -27 18 -44 40 -18 22 -38 40
-46 40 -7 0 -18 10 -23 23 -5 12 -34 49 -66 82 -31 33 -68 77 -83 99 -64 95
-82 124 -105 172 -13 28 -29 55 -36 59 -6 4 -24 35 -40 69 -36 79 -140 181
-194 191 -71 14 -173 2 -196 -23 -12 -12 -32 -29 -46 -38 -81 -54 -87 -248 -9
-334 8 -9 26 -38 41 -65 14 -28 34 -59 43 -70 10 -11 38 -49 62 -85 92 -136
368 -420 409 -420 5 0 19 -9 32 -20 43 -36 124 -88 194 -122 38 -19 78 -40 89
-46 47 -26 186 -80 260 -102 44 -12 107 -31 140 -41 180 -54 641 -50 770 6 17
7 51 18 78 24 52 13 251 104 262 120 3 6 13 11 20 11 19 0 105 55 184 119 35
28 67 51 71 51 5 0 18 16 30 35 13 21 30 35 41 35 11 0 23 10 29 24 8 23 77
98 116 127 11 8 29 28 42 44 89 117 116 152 133 170 11 11 41 46 68 77 139
166 298 228 588 228 244 0 364 20 475 77 41 21 53 35 83 95 32 64 34 75 29
131 -4 34 -12 71 -20 82 -56 84 -71 98 -129 121 -110 44 -292 55 -480 29z"/>
<path d="M7415 5099 c-15 -16 -19 -33 -17 -85 4 -86 -2 -103 -36 -103 -15 0
-36 -1 -47 -2 -11 0 -30 2 -42 6 -16 5 -29 0 -47 -19 -23 -22 -26 -33 -26 -94
0 -94 14 -106 118 -107 l77 0 2 -79 c3 -99 13 -112 100 -119 80 -7 87 1 93
112 l5 86 95 5 95 5 3 84 c4 107 -10 133 -66 126 -20 -2 -58 -7 -84 -9 l-48
-6 0 91 c0 123 -4 129 -89 129 -56 0 -71 -4 -86 -21z m149 -35 c3 -9 6 -47 6
-85 0 -103 5 -109 98 -109 92 0 102 -7 102 -71 0 -60 -9 -66 -104 -67 -43 -1
-81 -4 -84 -7 -3 -3 -8 -43 -12 -88 -6 -100 -11 -107 -61 -107 -61 0 -79 25
-79 108 0 93 -4 96 -93 94 -84 -3 -107 12 -107 72 0 50 24 66 97 66 96 0 103
6 103 95 0 62 4 79 20 95 25 25 105 28 114 4z"/>
<path d="M13649 5103 c-9 -10 -15 -49 -17 -109 l-4 -93 -46 5 c-26 3 -61 7
-79 9 -56 7 -68 -12 -68 -110 0 -104 2 -106 109 -104 53 1 81 -2 84 -9 6 -19
22 -14 22 7 0 30 -18 36 -105 36 l-80 0 -9 38 c-6 23 -6 48 0 65 9 26 12 27
94 30 52 2 87 8 92 15 4 7 8 45 8 85 0 99 8 112 69 112 63 0 72 -12 76 -107 5
-94 13 -103 101 -103 74 0 94 -15 94 -68 0 -59 -10 -67 -90 -68 -97 -2 -113
-17 -104 -95 6 -53 4 -60 -19 -83 -56 -56 -127 -24 -127 56 0 21 -5 38 -11 38
-16 0 -7 -114 10 -134 10 -12 32 -16 81 -16 89 0 98 11 102 115 l3 80 77 0
c105 1 118 13 118 110 0 89 -13 105 -87 105 -28 0 -65 3 -82 6 l-31 7 0 78 c0
72 -2 79 -26 98 -35 27 -134 30 -155 4z"/>
<path d="M21800 5091 c-75 -13 -157 -114 -180 -220 -15 -72 -1 -186 28 -227
24 -35 124 -84 170 -84 108 0 266 62 290 115 6 14 16 25 22 25 19 0 53 85 58
145 4 56 1 68 -29 124 -19 35 -47 72 -62 83 -57 41 -188 58 -297 39z"/>
<path d="M19525 5026 c-32 -23 -46 -90 -28 -141 8 -24 22 -46 31 -49 9 -3 134
-7 277 -8 l259 -3 24 35 c20 29 23 44 19 89 -7 92 -4 91 -306 91 -201 0 -261
-3 -276 -14z m523 -38 c19 -19 15 -92 -5 -110 -28 -22 -475 -20 -499 3 -19 20
-21 83 -4 104 16 20 489 22 508 3z"/>
<path d="M19533 4772 c-29 -4 -47 -65 -38 -126 11 -73 -5 -69 291 -70 259 -1
269 0 293 20 34 29 42 118 13 154 l-20 25 -259 0 c-142 0 -268 -1 -280 -3z
m512 -46 c23 -17 27 -88 7 -108 -15 -15 -500 -13 -516 2 -14 14 -12 86 3 104
19 22 476 24 506 2z"/>
<path d="M25458 4544 c-64 -12 -149 -33 -190 -47 -93 -31 -302 -137 -346 -174
-17 -15 -55 -46 -83 -68 -29 -22 -70 -60 -93 -85 -23 -24 -57 -60 -76 -80 -19
-20 -53 -58 -75 -85 -135 -164 -273 -310 -370 -390 -38 -32 -74 -64 -80 -70
-5 -6 -43 -33 -82 -59 -40 -27 -73 -52 -73 -56 0 -4 -13 -10 -29 -13 -16 -3
-49 -20 -73 -36 -113 -76 -348 -122 -548 -107 -81 6 -312 56 -348 76 -9 5 -42
21 -72 35 -30 15 -64 35 -75 45 -11 10 -40 28 -65 41 -42 20 -98 70 -117 103
-4 8 -24 23 -43 33 -19 11 -44 34 -55 51 -11 17 -27 34 -35 37 -8 3 -26 22
-40 42 -13 21 -34 47 -46 58 -12 11 -39 52 -59 90 -21 39 -45 81 -54 95 -10
14 -39 65 -66 114 -46 85 -107 166 -127 166 -5 0 -21 9 -36 20 -36 26 -136 37
-188 20 -21 -7 -62 -30 -90 -51 -63 -48 -76 -93 -64 -212 6 -65 13 -87 39
-123 17 -25 31 -48 31 -53 0 -5 7 -14 15 -21 8 -7 36 -45 62 -84 77 -116 182
-245 263 -322 83 -79 219 -194 230 -194 4 0 44 -24 87 -53 217 -149 587 -277
798 -277 24 0 67 -5 96 -11 122 -26 480 31 634 101 24 11 49 20 55 20 6 0 32
12 58 27 26 14 56 31 67 37 24 14 126 82 165 111 15 11 40 29 56 40 16 11 41
31 55 45 128 124 189 187 189 197 0 7 9 17 20 23 26 14 97 91 129 139 13 20
29 41 35 46 6 6 25 26 41 46 88 105 120 139 130 139 7 0 20 10 31 21 22 25
142 83 206 100 24 7 156 15 293 19 233 6 312 15 370 42 89 41 142 85 156 127
6 20 15 40 20 46 14 15 10 97 -6 147 -22 62 -76 113 -170 156 -85 40 -293 47
-457 16z"/>
<path d="M4218 2743 c-11 -3 -20 -20 -26 -46 l-9 -42 -13 28 c-10 19 -21 27
-40 27 -38 0 -90 -20 -90 -34 0 -6 -9 -29 -20 -50 -10 -21 -22 -58 -26 -82 -3
-24 -12 -49 -20 -55 -8 -6 -14 -26 -14 -44 0 -17 -3 -35 -7 -39 -12 -12 -42
77 -42 126 -1 33 -6 50 -18 56 -11 6 -19 28 -22 58 l-6 49 -58 14 c-71 17 -84
9 -93 -61 -5 -39 -3 -49 14 -64 14 -12 23 -35 28 -70 3 -29 12 -55 19 -58 7
-2 16 -24 20 -48 4 -23 13 -52 21 -63 7 -11 16 -39 20 -62 3 -24 13 -48 20
-54 8 -6 14 -17 14 -25 0 -30 31 -44 96 -44 l64 0 0 41 c0 26 7 50 20 66 12
15 20 41 20 62 0 24 7 42 20 54 11 9 20 29 20 44 0 16 9 42 20 58 11 17 20 44
20 60 0 17 9 43 20 59 l19 30 10 -26 c6 -17 7 -38 0 -60 -15 -53 -12 -363 4
-376 19 -16 105 -12 123 5 21 22 24 364 2 390 -6 8 -4 22 6 42 20 37 20 54 1
90 -19 38 -69 57 -117 44z m78 -58 c33 -51 -25 -106 -67 -64 -21 21 -24 41 -9
70 15 28 56 24 76 -6z m-473 -27 c9 -7 28 -49 43 -93 78 -237 85 -251 99 -202
72 255 96 307 140 307 39 0 49 -23 32 -77 -27 -85 -57 -167 -72 -200 -8 -17
-15 -37 -15 -45 -1 -7 -9 -31 -20 -53 -11 -22 -19 -47 -20 -56 0 -29 -62 -55
-97 -42 -18 7 -81 162 -138 340 -8 23 -19 52 -25 63 -19 35 -5 70 28 70 16 0
36 -6 45 -12z m472 -128 c29 -32 24 -297 -6 -322 -28 -24 -45 -23 -63 4 -19
27 -23 286 -6 319 14 25 52 24 75 -1z"/>
<path d="M16365 2738 c-11 -6 -39 -31 -62 -55 -45 -46 -51 -70 -33 -118 6 -16
8 -55 4 -93 l-7 -65 -17 44 c-38 97 -135 138 -221 93 -28 -14 -32 -14 -48 0
-25 23 -58 20 -86 -9 -23 -22 -25 -31 -25 -127 l0 -102 -31 42 c-29 40 -30 44
-15 61 9 10 19 35 23 55 5 31 1 39 -27 66 -30 28 -37 30 -112 30 -80 0 -81 0
-119 -39 -37 -37 -39 -41 -39 -104 0 -65 1 -67 38 -93 58 -43 60 -47 25 -41
-25 5 -37 2 -52 -14 -17 -19 -20 -19 -29 -4 -7 14 -27 17 -113 19 -104 1 -104
1 -104 26 0 25 1 25 89 27 48 1 91 4 94 7 3 3 7 30 10 59 6 71 -6 79 -110 81
-81 1 -83 2 -83 26 0 24 1 24 105 26 58 1 108 2 112 3 11 2 27 71 21 89 -17
47 -31 52 -147 51 -61 -1 -127 2 -148 6 -35 7 -37 5 -61 -37 -24 -42 -24 -47
-23 -260 1 -191 3 -219 18 -234 15 -15 42 -18 172 -21 146 -4 156 -3 173 16
12 15 19 17 25 9 4 -7 38 -18 75 -24 96 -16 158 -3 200 45 18 20 33 32 34 26
1 -5 2 -54 3 -107 1 -54 7 -103 12 -108 6 -6 39 -10 75 -8 l64 3 3 73 3 74 42
-3 c83 -5 135 27 169 103 22 50 26 47 36 -28 l7 -59 58 -3 c35 -2 64 2 73 9
10 8 17 9 28 0 21 -18 120 -19 141 -1 14 12 16 25 12 73 -3 33 -3 83 0 112 5
51 7 53 44 64 21 6 45 21 54 34 15 21 15 21 17 -8 0 -17 0 -79 -1 -140 -3
-130 2 -140 76 -149 83 -10 86 -3 87 201 1 91 5 100 36 83 16 -9 19 -16 13
-33 -11 -32 -4 -126 11 -151 8 -11 16 -33 20 -47 11 -48 119 -76 190 -49 22 8
26 16 27 52 l1 43 15 -36 c24 -59 104 -87 175 -60 14 5 47 5 82 -1 73 -13 91
2 81 67 -3 22 -6 96 -6 165 -2 166 -11 190 -76 190 -49 0 -61 -27 -67 -155 -4
-88 -8 -112 -22 -122 -33 -24 -41 0 -39 119 1 105 0 114 -21 135 -29 29 -73
30 -108 2 l-27 -21 -23 21 c-12 11 -30 21 -39 21 -18 0 -21 5 -31 52 -13 57
-104 40 -142 -27 -12 -22 -31 -41 -41 -43 -19 -3 -20 2 -15 71 4 72 4 76 -22
92 -18 12 -37 16 -62 12 -71 -12 -92 -61 -58 -133 13 -28 14 -37 4 -49 -12
-14 -15 -13 -35 5 -24 22 -65 26 -97 9 -16 -8 -31 -8 -59 1 -44 15 -83 -2 -99
-43 l-9 -22 0 22 c-1 13 -10 28 -21 35 -21 13 -27 38 -11 38 16 0 71 64 71 82
0 20 -57 88 -74 88 -6 0 -20 -6 -31 -12z m43 -50 c19 -19 15 -34 -19 -73 -42
-47 -66 -60 -85 -44 -24 19 -16 54 21 92 37 38 62 46 83 25z m413 -18 c22 -12
26 -59 7 -78 -17 -17 -48 -15 -70 5 -47 42 6 103 63 73z m-1303 -59 c6 -38
-13 -46 -110 -47 -113 -1 -135 -19 -108 -88 9 -25 13 -26 84 -26 54 0 79 -4
90 -16 38 -38 -5 -79 -72 -68 -81 13 -119 -15 -106 -80 l6 -34 104 -4 c104 -3
124 -10 124 -43 0 -36 -18 -40 -162 -40 -139 0 -143 1 -154 23 -18 36 -13 414
5 436 12 14 33 16 155 14 140 -3 141 -3 144 -27z m1538 -46 c9 -33 16 -41 40
-45 48 -8 42 -80 -7 -80 -10 0 -23 -9 -29 -19 -13 -25 -13 -41 0 -41 6 0 10 7
10 15 0 8 8 15 18 15 10 0 27 7 38 15 31 24 34 19 34 -69 0 -84 -10 -110 -33
-87 -6 6 -19 11 -28 11 -19 0 -29 20 -29 56 0 13 -4 24 -10 24 -11 0 -12 -19
-4 -72 5 -30 11 -38 27 -38 23 0 57 -27 57 -46 0 -38 -70 -57 -123 -33 -42 19
-67 91 -67 189 0 62 -2 68 -25 78 -18 9 -25 19 -25 41 0 20 8 34 25 45 14 9
25 22 25 29 0 25 41 58 68 55 21 -2 29 -11 38 -43z m-1258 -58 c7 -6 12 -24
10 -41 -3 -31 -3 -31 -63 -31 -53 0 -60 -2 -60 -20 0 -14 13 -24 50 -37 103
-38 138 -123 74 -184 -29 -27 -35 -29 -113 -29 -93 0 -119 12 -114 54 3 28 17
30 97 20 73 -9 59 63 -14 77 -43 8 -84 52 -92 98 -5 32 -2 40 31 70 20 19 46
37 58 39 33 7 121 -3 136 -16z m381 -14 c125 -96 50 -344 -101 -330 -59 5 -68
-4 -68 -70 0 -65 -26 -99 -68 -88 -15 4 -30 12 -34 18 -4 7 -8 114 -8 239 0
193 2 229 16 242 19 20 29 20 58 0 22 -14 27 -13 63 6 47 25 93 20 142 -17z
m212 10 c19 -22 20 -306 2 -324 -16 -16 -74 -14 -85 3 -4 7 -7 80 -5 163 2
148 2 150 27 162 33 17 45 16 61 -4z m148 5 c15 -9 28 -9 58 1 52 17 77 12 81
-17 5 -31 -13 -50 -54 -58 -47 -9 -48 -13 -49 -142 -1 -123 -8 -137 -55 -127
-45 11 -50 29 -50 179 0 116 3 143 17 158 19 21 27 22 52 6z m292 -5 c18 -21
26 -281 10 -312 -15 -26 -85 -30 -95 -5 -9 22 -7 297 2 310 4 7 18 14 32 17
14 2 28 5 31 6 4 0 13 -6 20 -16z m443 1 c13 -12 16 -38 16 -120 0 -119 8
-144 48 -144 57 0 72 34 72 164 0 94 8 116 41 116 34 0 41 -27 46 -178 4 -130
3 -151 -12 -165 -21 -21 -44 -22 -73 -1 -21 14 -25 14 -49 -1 -29 -19 -102
-16 -128 5 -42 35 -62 280 -26 323 17 21 45 22 65 1z"/>
<path d="M16040 2437 c-23 -12 -25 -19 -28 -91 -3 -89 5 -106 52 -106 53 0 76
31 76 100 0 41 -23 100 -39 100 -5 0 -15 2 -23 5 -7 3 -24 -1 -38 -8z m43 -26
c19 -7 27 -20 32 -50 9 -55 -6 -79 -47 -77 -33 2 -33 2 -34 56 0 30 4 61 9 68
11 14 10 14 40 3z"/>
<path d="M10290 2705 c-7 -8 -19 -15 -26 -15 -8 0 -16 -11 -20 -23 -8 -35 -78
-131 -97 -135 -10 -2 -24 12 -39 39 -13 23 -29 52 -36 65 -25 45 -71 74 -116
74 -78 0 -79 -5 -78 -271 1 -127 4 -239 7 -249 6 -20 16 -24 77 -34 55 -10 68
22 68 159 0 58 4 104 8 101 4 -2 18 -25 31 -50 12 -25 31 -51 41 -56 24 -13
70 -13 70 0 0 5 14 22 30 37 17 14 30 33 30 42 0 10 3 12 10 5 6 -6 7 -35 1
-79 -14 -118 12 -155 110 -155 33 0 38 6 47 61 l7 41 25 -38 c33 -52 91 -73
152 -57 27 7 49 8 60 2 9 -5 38 -9 64 -9 l47 0 -6 128 c-4 70 -7 153 -7 185 0
39 -4 57 -13 57 -7 0 -20 9 -30 20 -9 11 -23 20 -31 20 -7 0 -20 7 -27 16 -25
30 -175 0 -201 -40 -13 -20 -8 -81 8 -105 16 -22 15 -24 -4 -44 -12 -11 -24
-18 -28 -14 -6 5 -8 105 -5 221 1 62 -18 92 -66 105 -48 14 -48 14 -63 -4z
m-279 -48 c8 -7 39 -49 68 -94 32 -50 60 -83 69 -83 10 0 30 23 47 51 76 127
113 157 164 129 20 -10 21 -19 21 -225 0 -181 -2 -216 -16 -229 -19 -20 -35
-20 -60 -2 -17 13 -19 30 -23 140 -1 69 -7 126 -11 126 -9 0 -41 -38 -83 -99
-16 -23 -34 -41 -42 -41 -15 0 -64 59 -89 108 -30 58 -41 35 -46 -97 -4 -104
-8 -125 -23 -136 -11 -8 -26 -11 -35 -8 -39 13 -42 31 -42 235 0 185 1 199 20
218 22 22 57 26 81 7z m645 -117 c62 -31 70 -49 78 -183 8 -154 -10 -188 -81
-150 -30 16 -33 16 -51 0 -23 -21 -52 -22 -97 -3 -41 18 -55 42 -55 99 0 65
54 107 136 107 44 0 55 23 26 53 -20 19 -26 20 -64 10 -79 -21 -108 31 -38 68
45 25 93 24 146 -1z"/>
<path d="M10558 2339 c-22 -12 -23 -52 -3 -69 34 -28 98 22 82 64 -7 18 -53
21 -79 5z"/>
<path d="M5155 2646 c-8 -18 -28 -45 -45 -59 -16 -14 -30 -32 -30 -40 0 -28
-13 -24 -52 15 -43 43 -65 46 -135 17 -26 -11 -38 -10 -73 1 -36 12 -46 12
-69 -1 l-26 -15 -3 -182 c-3 -215 -1 -222 66 -222 75 0 76 2 82 147 l5 128 35
0 35 0 5 -127 c3 -73 10 -132 16 -138 8 -8 30 -9 70 -3 l59 8 -4 127 c-3 130
0 151 23 142 8 -3 16 -32 20 -77 12 -133 26 -169 77 -194 54 -27 72 -28 127
-3 38 17 43 23 41 47 -4 35 10 36 38 2 28 -33 128 -83 151 -76 74 24 112 43
143 73 33 32 37 42 42 102 9 107 -4 166 -44 208 -34 36 -107 74 -139 74 -27 0
-122 -38 -147 -59 -27 -23 -76 -128 -69 -147 8 -20 -5 -104 -15 -104 -25 0
-47 44 -44 86 3 47 16 70 45 79 25 8 33 37 25 85 -5 32 -11 39 -32 42 -17 2
-32 14 -43 35 -29 54 -40 63 -82 63 -35 0 -40 -4 -53 -34z m102 -44 c10 -26
24 -42 44 -50 41 -15 38 -58 -6 -82 -27 -15 -30 -22 -33 -75 -4 -82 3 -102 43
-121 59 -28 43 -84 -24 -84 -87 0 -121 53 -121 192 0 74 -1 77 -30 98 -16 12
-30 26 -30 32 0 5 14 22 30 36 17 15 30 31 30 37 0 24 32 55 56 55 20 0 29 -8
41 -38z m-250 -59 c42 -28 53 -69 53 -208 l0 -125 -26 -10 c-32 -13 -30 -13
-48 6 -13 12 -16 38 -16 120 0 124 -8 144 -55 144 -57 0 -65 -17 -65 -145 0
-103 -2 -115 -19 -125 -24 -12 -66 1 -75 25 -3 9 -6 79 -6 154 0 123 2 140 19
155 15 14 24 15 40 7 27 -15 71 -13 101 4 34 19 65 19 97 -2z m647 -11 c150
-88 85 -342 -89 -344 -71 -2 -129 34 -159 96 -30 61 -32 87 -11 147 40 112
160 159 259 101z"/>
<path d="M5507 2452 c-18 -20 -23 -52 -8 -52 5 0 11 9 14 20 8 30 70 28 84 -2
11 -26 11 -62 -1 -96 -7 -20 -12 -22 -39 -16 -40 8 -38 6 -46 45 -4 18 -12 34
-20 37 -13 4 -11 -23 6 -81 5 -20 41 -37 78 -37 57 0 86 129 40 180 -24 26
-86 27 -108 2z"/>
<path d="M4441 2565 c-66 -52 -95 -121 -87 -207 9 -106 47 -164 118 -187 21
-7 40 -17 43 -22 8 -12 40 -12 63 0 9 5 36 14 59 20 52 14 67 38 54 87 -7 26
-6 44 6 71 25 62 1 185 -45 226 -23 21 -102 47 -141 47 -15 0 -45 -16 -70 -35z
m159 -27 c48 -24 77 -68 86 -130 9 -54 -9 -67 -104 -75 -82 -6 -83 -6 -80 -32
3 -25 5 -26 78 -26 l75 0 3 -31 c3 -35 -5 -41 -72 -54 -190 -37 -293 225 -134
340 50 36 88 38 148 8z"/>
<path d="M4502 2468 c-20 -20 -14 -55 9 -61 32 -8 69 9 69 32 0 34 -54 53 -78
29z"/>
<path d="M10942 2579 c-30 -20 -34 -20 -51 -5 -10 9 -28 16 -42 16 -52 0 -54
-6 -57 -200 -5 -218 -1 -230 77 -230 74 0 83 16 80 142 -3 109 2 131 27 121
28 -10 84 61 84 107 0 26 -43 70 -67 70 -10 0 -33 -10 -51 -21z m72 -42 c16
-26 -12 -71 -47 -75 -45 -5 -57 -36 -55 -139 1 -96 -6 -116 -44 -129 -12 -3
-27 1 -39 12 -17 15 -19 32 -19 161 0 80 5 153 10 164 13 23 52 25 70 4 17
-20 27 -19 58 5 29 24 50 23 66 -3z"/>
<path d="M5687 2143 c-13 -12 -7 -23 13 -23 11 0 20 7 20 15 0 15 -21 21 -33
8z"/>
</g>
  <g transform="translate(0.000000,800.000000) scale(0.100000,-0.100000)"
fill="#0d1e40" stroke="none">
<path d="M7447 5062 c-13 -14 -17 -37 -17 -89 0 -91 -11 -102 -109 -106 -78
-3 -91 -11 -91 -58 0 -43 26 -58 98 -53 87 5 102 -11 102 -104 0 -83 15 -102
73 -98 51 4 51 6 56 99 1 45 8 87 13 94 7 8 35 11 90 9 75 -3 80 -2 90 20 7
16 8 35 2 56 l-10 33 -84 3 c-52 2 -87 8 -92 15 -4 7 -8 45 -8 85 0 40 -5 82
-10 93 -14 26 -80 26 -103 1z"/>
<path d="M13656 5064 c-3 -9 -6 -48 -6 -88 0 -101 -7 -108 -111 -110 l-84 -1
-3 -44 c-4 -59 6 -66 96 -66 92 0 102 -11 102 -116 0 -37 5 -70 12 -77 19 -19
72 -14 97 10 21 19 23 27 17 80 -5 54 -4 61 20 85 23 23 31 25 85 20 70 -6 89
6 89 58 0 43 -20 55 -95 55 -87 0 -95 8 -95 93 0 94 -15 117 -74 117 -31 0
-46 -5 -50 -16z"/>
<path d="M19529 4976 c-8 -16 -8 -34 -2 -53 l10 -28 247 -3 246 -2 11 27 c7
19 7 35 -2 55 l-11 28 -244 0 -244 0 -11 -24z"/>
<path d="M19530 4715 c-14 -37 -13 -50 8 -74 17 -21 22 -21 252 -19 l234 3 16
28 c13 24 13 30 0 55 l-16 27 -242 3 -242 2 -10 -25z"/>
<path d="M4217 2703 c-15 -14 -7 -63 11 -72 39 -21 81 36 50 67 -13 13 -50 16
-61 5z"/>
<path d="M16322 2667 c-54 -55 -32 -100 28 -57 36 26 52 53 44 74 -10 25 -38
19 -72 -17z"/>
<path d="M16758 2669 c-21 -12 -23 -40 -6 -57 18 -18 56 -14 68 7 13 25 13 27
-6 45 -18 18 -32 20 -56 5z"/>
<path d="M3744 2656 c-5 -13 9 -58 62 -201 14 -38 29 -83 35 -100 19 -61 53
-134 64 -139 6 -2 26 -1 44 3 34 6 43 22 86 146 8 22 28 78 45 125 50 136 53
150 39 166 -33 40 -69 5 -101 -101 -49 -163 -66 -210 -78 -210 -13 0 -44 70
-66 150 -16 62 -47 152 -54 158 -15 13 -71 16 -76 3z"/>
<path d="M9927 2652 c-15 -16 -17 -46 -17 -209 0 -105 3 -198 6 -207 4 -9 18
-16 34 -16 37 0 40 11 40 146 0 98 2 116 17 121 18 7 24 1 76 -82 43 -67 57
-67 100 -3 89 131 97 129 97 -25 0 -130 5 -154 32 -163 46 -14 52 10 50 227
-1 226 -4 237 -62 224 -27 -6 -42 -22 -92 -101 -34 -52 -66 -93 -72 -91 -6 1
-36 41 -68 87 -76 113 -105 132 -141 92z"/>
<path d="M5165 2606 c-8 -19 -27 -46 -41 -59 -25 -24 -26 -25 -7 -38 33 -24
43 -55 43 -138 0 -120 29 -161 115 -161 56 0 61 60 6 68 -29 5 -41 39 -41 116
0 66 12 92 45 98 30 5 27 49 -4 65 -14 6 -32 27 -41 45 -22 48 -56 50 -75 4z"/>
<path d="M15211 2621 c-14 -26 -15 -396 -1 -422 10 -17 22 -19 144 -19 110 0
136 3 147 16 9 11 10 20 2 32 -8 14 -30 18 -109 20 -109 3 -114 6 -114 67 0
60 7 65 95 68 60 2 80 6 88 19 21 32 -8 48 -87 48 -84 0 -96 8 -96 66 0 55 17
67 88 65 97 -1 134 7 130 32 -3 21 -8 22 -140 25 -127 2 -138 1 -147 -17z"/>
<path d="M16968 2593 c-9 -10 -19 -28 -22 -40 -4 -12 -15 -25 -26 -28 -32 -10
-36 -65 -5 -65 23 0 34 -25 35 -85 5 -142 35 -195 110 -195 65 0 82 59 19 69
-34 5 -39 16 -39 107 0 84 6 98 45 106 13 2 21 12 23 30 3 22 -1 27 -24 30
-29 3 -39 16 -49 61 -6 32 -43 37 -67 10z"/>
<path d="M4455 2537 c-104 -59 -112 -228 -13 -300 42 -31 159 -36 187 -8 35
35 18 53 -44 46 -62 -8 -91 -1 -105 25 -20 37 -3 47 87 54 102 8 103 8 103 52
0 56 -35 113 -83 135 -55 24 -83 24 -132 -4z m103 -53 c35 -24 27 -66 -14 -75
-64 -13 -97 29 -57 73 20 22 42 23 71 2z"/>
<path d="M4902 2544 c-22 -15 -54 -18 -117 -12 l-30 3 0 -150 0 -149 27 -15
c45 -25 53 -7 56 130 l4 119 28 15 c39 20 53 19 76 -6 16 -18 19 -38 20 -136
2 -122 8 -139 49 -127 11 4 22 9 25 11 9 8 -2 258 -12 278 -26 51 -83 69 -126
39z"/>
<path d="M5480 2538 c-98 -50 -128 -168 -67 -259 34 -51 80 -71 154 -67 55 4
67 8 98 38 43 42 59 87 53 155 -10 121 -131 188 -238 133z m134 -77 c30 -33
33 -103 6 -145 -28 -47 -46 -56 -84 -44 -53 18 -61 32 -61 107 0 77 17 107 64
113 31 4 50 -3 75 -31z"/>
<path d="M10510 2542 c-55 -27 -46 -47 21 -47 67 0 102 -23 97 -64 -3 -24 -6
-26 -58 -26 -93 0 -137 -44 -120 -120 11 -49 26 -63 76 -71 31 -4 45 -2 57 11
24 23 21 35 -7 35 -73 0 -73 92 0 106 54 10 71 -12 55 -67 -12 -40 -11 -43 13
-67 22 -22 28 -24 51 -14 25 11 25 13 25 131 0 114 -1 121 -26 151 -49 57
-121 74 -184 42z"/>
<path d="M10945 2540 c-22 -24 -35 -25 -73 -3 -57 33 -62 21 -62 -150 0 -171
6 -191 55 -169 28 13 41 76 32 147 -9 60 8 104 41 111 45 9 57 20 57 50 0 36
-24 43 -50 14z"/>
<path d="M4213 2538 c-13 -21 -7 -297 7 -313 15 -18 31 -19 54 -2 23 17 28
285 6 311 -15 19 -56 21 -67 4z"/>
<path d="M15635 2515 c-68 -35 -84 -91 -40 -143 14 -17 39 -32 58 -36 51 -9
79 -33 75 -64 -3 -27 -4 -27 -76 -24 l-73 2 3 -27 c4 -34 46 -47 131 -41 138
10 153 142 22 191 -60 22 -75 34 -75 58 0 22 28 32 83 27 39 -3 42 -1 45 24 3
23 -2 28 -35 37 -52 15 -83 14 -118 -4z"/>
<path d="M16023 2509 c-42 -22 -43 -22 -63 -4 -16 15 -25 17 -38 8 -15 -9 -17
-37 -20 -238 -3 -241 0 -255 44 -255 31 0 44 27 44 92 0 69 9 78 75 71 62 -7
105 18 135 77 77 154 -41 320 -177 249z m93 -74 c53 -81 17 -195 -60 -195 -49
0 -66 28 -66 110 0 85 16 110 70 110 31 0 43 -5 56 -25z"/>
<path d="M16596 2512 c-30 -12 -45 -13 -68 -4 -52 19 -59 -1 -57 -152 2 -138
12 -176 47 -176 36 0 42 21 42 136 0 120 2 126 55 138 54 13 73 46 38 65 -12
6 -31 4 -57 -7z"/>
<path d="M16323 2510 c-22 -9 -23 -13 -23 -159 0 -138 2 -151 19 -161 27 -14
37 -13 55 6 13 13 16 42 16 158 0 166 -6 180 -67 156z"/>
<path d="M16770 2511 l-25 -7 0 -154 0 -154 25 -6 c56 -15 60 -3 60 158 0 102
-4 152 -12 160 -13 13 -12 13 -48 3z"/>
<path d="M17204 2495 c-20 -30 -16 -223 5 -266 23 -48 98 -64 146 -33 22 14
26 14 55 -2 57 -34 65 -18 68 151 3 153 -2 175 -39 175 -30 0 -40 -35 -38
-135 2 -119 -12 -148 -69 -143 -51 4 -62 30 -62 154 0 99 -7 124 -37 124 -7 0
-20 -11 -29 -25z"/>
</g>
</svg>
