<svg xmlns="http://www.w3.org/2000/svg" viewBox="0 50 2788 340" width="697" height="170">
  <g transform="translate(0.000000,800.000000) scale(0.100000,-0.100000)"
fill="#0d1e40" stroke="none">
<path d="M16235 6680 c-11 -5 -32 -11 -47 -14 -55 -12 -82 -120 -54 -217 39
-132 190 -202 284 -132 70 53 96 212 46 280 -53 71 -164 112 -229 83z"/>
<path d="M23465 6680 c-200 -9 -295 -28 -515 -100 -141 -46 -239 -87 -305
-129 -27 -17 -59 -35 -70 -41 -11 -5 -38 -23 -60 -39 -22 -17 -66 -49 -99 -71
-32 -23 -70 -52 -85 -65 -14 -13 -61 -53 -103 -90 -43 -37 -78 -70 -78 -74 0
-3 -27 -35 -61 -71 -82 -88 -136 -165 -204 -290 -53 -97 -58 -111 -63 -182 -4
-75 -4 -78 25 -107 45 -45 90 -49 173 -17 38 15 84 38 102 51 18 13 50 34 71
45 21 11 57 39 80 60 23 22 45 40 50 40 9 0 193 167 337 307 58 57 107 103
109 103 2 0 21 15 42 33 55 46 100 81 118 90 9 4 36 21 61 37 77 50 104 60
265 96 71 16 205 18 256 4 20 -6 78 -19 129 -30 51 -11 107 -28 125 -39 17
-10 54 -24 82 -30 32 -8 61 -23 79 -42 15 -16 34 -29 42 -29 45 0 221 -166
295 -277 47 -72 73 -133 109 -258 28 -98 39 -422 14 -456 -9 -13 -16 -36 -16
-52 0 -48 -28 -141 -57 -192 -67 -114 -80 -134 -118 -180 -60 -73 -107 -115
-135 -121 -14 -3 -36 -21 -49 -40 -16 -23 -31 -34 -48 -34 -13 0 -46 -11 -73
-25 -112 -57 -228 -78 -430 -79 l-185 -1 -78 32 c-43 18 -88 33 -100 33 -12 0
-33 9 -47 20 -14 11 -30 20 -37 20 -6 0 -14 8 -17 18 -3 10 -23 36 -44 59 -85
93 -116 277 -68 412 14 41 26 80 26 87 0 7 14 33 30 56 17 24 41 59 54 79 68
102 192 174 287 167 89 -6 143 -47 147 -110 3 -47 3 -47 -50 -81 -29 -19 -74
-46 -100 -61 -51 -28 -86 -77 -94 -128 -11 -68 58 -171 123 -183 20 -3 47 -14
60 -22 22 -14 37 -15 119 -5 124 14 203 53 282 139 159 174 179 220 189 433 6
113 5 116 -20 146 -14 17 -29 42 -32 55 -7 28 -148 179 -167 179 -6 0 -21 9
-32 19 -33 31 -205 97 -302 117 -123 25 -295 24 -389 -4 -108 -31 -140 -48
-218 -113 -177 -148 -247 -285 -325 -634 -32 -140 -23 -385 19 -520 10 -33 19
-67 19 -75 0 -19 44 -101 91 -171 126 -187 249 -261 569 -340 142 -35 578 -29
740 10 25 6 72 17 105 25 156 38 440 172 490 231 6 7 26 21 45 33 74 43 183
171 229 267 107 222 143 337 171 535 18 125 2 470 -25 522 -7 15 -16 42 -20
60 -15 75 -59 188 -100 258 -24 41 -56 97 -70 123 -23 42 -81 112 -161 191
-56 57 -196 180 -216 191 -13 6 -52 28 -88 47 -68 37 -191 89 -250 106 -19 6
-67 20 -106 32 -38 11 -106 25 -150 30 -43 5 -90 11 -104 13 -14 3 -101 1
-195 -3z"/>
<path d="M4805 6330 c-11 -5 -42 -9 -69 -9 -60 -1 -210 -29 -251 -47 -16 -7
-54 -18 -83 -24 -52 -10 -112 -36 -301 -129 -145 -72 -425 -274 -489 -353 -15
-18 -47 -54 -72 -78 -46 -46 -180 -213 -180 -225 0 -8 -49 -75 -72 -98 -10
-10 -21 -30 -24 -45 -4 -15 -18 -42 -31 -60 -13 -18 -31 -53 -40 -77 -8 -25
-21 -45 -28 -45 -8 0 -15 -17 -18 -42 -3 -24 -10 -63 -17 -88 -14 -55 -9 -203
9 -224 38 -46 159 -27 250 40 125 91 384 372 474 517 10 15 23 27 30 27 6 1
28 26 47 56 19 30 70 92 113 137 43 45 84 89 90 97 23 30 198 138 259 160 35
12 77 28 93 35 128 58 468 35 670 -44 28 -10 70 -27 95 -37 25 -9 65 -32 89
-51 24 -18 52 -33 61 -33 30 0 256 -254 267 -300 3 -14 11 -34 17 -45 18 -30
64 -149 77 -197 24 -96 29 -150 29 -289 0 -126 -3 -157 -25 -229 -14 -46 -25
-94 -25 -106 0 -13 -5 -26 -11 -29 -5 -4 -21 -31 -33 -60 -13 -29 -45 -78 -70
-109 -25 -31 -46 -61 -46 -65 0 -12 -167 -151 -182 -152 -7 0 -26 -9 -43 -20
-42 -26 -152 -78 -184 -85 -14 -4 -31 -11 -37 -15 -6 -5 -42 -13 -80 -18 -38
-5 -98 -17 -134 -26 -80 -21 -208 -15 -325 16 -93 24 -144 53 -205 115 -25 25
-56 57 -70 70 -50 52 -89 297 -57 362 8 15 19 52 26 82 6 30 22 73 36 95 13
22 30 54 38 70 21 45 130 146 179 166 95 39 239 4 253 -61 13 -60 -1 -82 -85
-139 -95 -63 -140 -111 -140 -149 0 -84 56 -167 137 -203 70 -32 194 -30 263
5 164 83 259 194 328 386 43 117 37 288 -13 374 -45 77 -149 194 -177 200 -15
3 -47 17 -70 32 -42 27 -70 36 -218 76 -108 29 -391 21 -478 -13 -94 -37 -171
-76 -203 -103 -17 -14 -34 -26 -38 -26 -15 0 -118 -147 -150 -215 -38 -79 -81
-208 -81 -243 0 -13 -8 -37 -17 -55 -14 -27 -17 -64 -17 -252 0 -219 0 -220
36 -363 20 -79 42 -151 50 -160 8 -9 27 -42 43 -72 28 -54 57 -100 83 -130 7
-8 24 -30 38 -47 14 -18 31 -33 37 -33 7 0 18 -9 24 -20 7 -11 27 -27 45 -36
18 -9 42 -25 53 -35 11 -10 42 -23 70 -29 27 -6 55 -16 62 -21 15 -13 109 -32
233 -48 52 -7 104 -14 114 -16 73 -15 501 40 594 75 29 11 62 20 73 20 12 0
33 6 47 14 15 8 61 27 102 42 41 16 96 41 123 56 26 15 58 30 71 34 14 3 32
14 42 25 9 10 23 19 29 19 7 0 19 7 26 16 7 9 37 31 65 49 53 34 244 214 244
230 0 5 7 16 15 25 30 34 85 133 96 174 6 22 17 51 25 63 26 41 45 136 74 375
27 218 21 294 -50 583 -25 103 -125 313 -198 415 -56 79 -284 310 -306 310 -8
0 -20 9 -26 20 -6 11 -27 28 -48 39 -177 91 -239 121 -249 121 -6 0 -24 6 -40
14 -58 29 -158 54 -298 75 -101 15 -316 22 -340 11z"/>
<path d="M15470 6322 c-8 -3 -37 -23 -65 -44 -77 -60 -108 -166 -65 -221 11
-14 20 -29 20 -34 0 -23 108 -63 171 -63 157 0 237 109 180 243 -30 69 -92
114 -166 120 -33 2 -67 2 -75 -1z"/>
<path d="M16965 6304 c-16 -8 -47 -38 -67 -66 -69 -95 -48 -201 52 -250 95
-49 204 -33 278 40 29 28 32 37 32 91 0 76 -8 95 -64 154 l-45 47 -78 0 c-49
0 -89 -6 -108 -16z"/>
<path d="M11113 6059 c-40 -31 -123 -167 -123 -202 0 -7 -8 -28 -19 -47 -11
-22 -17 -47 -14 -66 3 -18 0 -41 -6 -53 -6 -11 -16 -43 -21 -71 -5 -27 -19
-70 -30 -94 -11 -25 -20 -49 -20 -55 0 -12 -157 -171 -169 -171 -5 0 -22 -11
-38 -24 -24 -20 -45 -26 -115 -32 -95 -7 -138 2 -202 45 -21 14 -50 32 -64 40
-29 16 -252 237 -252 250 0 15 -163 172 -225 216 -33 23 -88 58 -123 76 -35
19 -73 40 -85 46 -12 7 -32 13 -44 13 -12 0 -44 9 -71 19 -143 57 -625 86
-832 51 -30 -6 -165 -17 -300 -26 -417 -27 -483 -33 -543 -49 -32 -8 -66 -15
-76 -15 -28 0 -99 -35 -161 -78 -64 -44 -79 -77 -86 -187 -4 -63 -2 -75 23
-119 38 -66 65 -83 152 -97 74 -11 242 -1 351 21 25 5 95 14 155 20 130 13
381 45 480 63 165 28 539 12 630 -28 17 -7 42 -16 57 -19 35 -8 166 -95 201
-135 15 -17 32 -31 37 -31 5 0 28 -24 51 -52 48 -62 242 -262 285 -296 16 -12
45 -35 64 -51 178 -145 418 -215 626 -181 96 16 289 89 345 132 78 59 269 263
269 286 0 5 10 24 23 43 12 19 37 72 55 119 18 47 39 99 47 115 56 120 95 281
95 389 -2 174 -67 256 -209 264 -73 4 -77 3 -118 -29z"/>
<path d="M15033 5651 c-61 -8 -130 -51 -153 -96 -24 -48 -20 -186 6 -221 42
-57 66 -67 137 -60 105 12 193 77 222 167 21 62 16 81 -36 144 -62 76 -70 79
-176 66z"/>
<path d="M16190 5650 c-52 -7 -105 -25 -160 -56 -14 -7 -39 -20 -55 -28 -35
-16 -135 -120 -135 -139 0 -7 -17 -36 -39 -64 -57 -77 -101 -207 -108 -321 -3
-51 -11 -96 -17 -99 -6 -4 -60 -9 -121 -10 -60 -2 -211 -10 -335 -18 -124 -8
-281 -17 -349 -21 l-125 -7 -37 -36 -36 -36 7 -105 c4 -58 15 -127 24 -155 9
-27 22 -66 28 -85 11 -37 56 -139 91 -205 23 -46 30 -60 46 -95 6 -14 16 -34
23 -45 7 -11 35 -56 62 -100 27 -44 55 -84 63 -88 7 -4 13 -13 13 -18 0 -42
320 -385 415 -446 27 -18 57 -38 65 -46 8 -8 31 -22 50 -32 19 -9 46 -28 60
-40 14 -13 36 -26 50 -30 14 -4 37 -16 52 -27 15 -10 42 -23 60 -29 18 -6 51
-19 73 -30 191 -89 596 -142 837 -110 77 10 286 74 343 105 17 9 37 16 46 16
19 0 173 97 212 134 16 14 32 26 37 26 15 0 220 210 220 225 0 7 7 19 17 26
18 16 92 113 109 144 6 11 16 31 24 45 7 14 17 32 22 40 5 8 18 35 29 60 23
51 43 93 63 130 8 14 21 45 29 70 8 25 24 68 35 95 11 28 30 84 42 125 12 41
32 109 46 150 13 42 24 87 24 101 0 14 7 50 16 80 51 165 -11 314 -143 345
-61 14 -449 4 -613 -16 -41 -5 -139 -12 -218 -16 -173 -8 -176 -6 -167 75 5
47 1 72 -25 151 -38 114 -115 243 -152 255 -10 4 -18 10 -18 14 0 5 -15 14
-32 22 -18 7 -49 25 -68 40 -19 15 -55 33 -80 39 -25 6 -61 17 -80 24 -47 18
-152 26 -220 16z m1349 -893 c133 -40 127 -171 -27 -592 -31 -86 -85 -204
-112 -245 -10 -14 -37 -56 -61 -94 -24 -39 -84 -109 -134 -157 -49 -49 -103
-101 -120 -117 -56 -54 -214 -124 -360 -158 -182 -43 -484 -24 -607 37 -21 11
-47 19 -59 19 -33 0 -187 78 -243 124 -28 23 -71 53 -96 68 -25 14 -61 43 -80
63 -19 20 -42 44 -50 52 -8 9 -23 23 -33 32 -43 39 -77 76 -77 85 0 13 -52 89
-68 99 -6 4 -21 25 -31 45 -10 20 -33 55 -50 76 -17 21 -38 61 -46 88 -8 27
-23 60 -34 74 -11 14 -23 42 -27 63 -4 20 -20 69 -35 109 -40 100 -37 179 8
197 26 10 307 34 543 45 113 6 324 17 470 25 146 9 351 20 455 25 105 5 231
14 280 19 50 6 179 13 289 15 109 3 201 8 204 11 9 9 55 5 101 -8z"/>
<path d="M17450 5642 c-85 -38 -125 -153 -86 -246 26 -61 148 -126 238 -126
44 0 107 50 128 100 31 74 -7 193 -78 247 -40 30 -49 33 -115 32 -40 0 -79 -3
-87 -7z"/>
<path d="M12505 5415 c-144 -19 -228 -47 -400 -132 -38 -19 -81 -45 -95 -57
-14 -12 -38 -31 -55 -41 -16 -10 -41 -29 -55 -42 -14 -12 -55 -48 -93 -79 -37
-30 -74 -69 -83 -86 -9 -17 -36 -52 -60 -77 -25 -25 -68 -75 -97 -110 -100
-122 -366 -381 -391 -381 -5 0 -20 -10 -32 -21 -84 -79 -281 -179 -454 -230
-31 -10 -100 -13 -225 -12 -192 1 -236 9 -390 68 -38 14 -84 30 -100 34 -38
10 -144 75 -193 118 -20 18 -42 33 -49 33 -7 0 -27 18 -44 40 -18 22 -38 40
-46 40 -7 0 -18 10 -23 23 -5 12 -34 49 -66 82 -31 33 -68 77 -83 99 -64 95
-82 124 -105 172 -13 28 -29 55 -36 59 -6 4 -24 35 -40 69 -36 79 -140 181
-194 191 -71 14 -173 2 -196 -23 -12 -12 -32 -29 -46 -38 -81 -54 -87 -248 -9
-334 8 -9 26 -38 41 -65 14 -28 34 -59 43 -70 10 -11 38 -49 62 -85 92 -136
368 -420 409 -420 5 0 19 -9 32 -20 43 -36 124 -88 194 -122 38 -19 78 -40 89
-46 47 -26 186 -80 260 -102 44 -12 107 -31 140 -41 180 -54 641 -50 770 6 17
7 51 18 78 24 52 13 251 104 262 120 3 6 13 11 20 11 19 0 105 55 184 119 35
28 67 51 71 51 5 0 18 16 30 35 13 21 30 35 41 35 11 0 23 10 29 24 8 23 77
98 116 127 11 8 29 28 42 44 89 117 116 152 133 170 11 11 41 46 68 77 139
166 298 228 588 228 244 0 364 20 475 77 41 21 53 35 83 95 32 64 34 75 29
131 -4 34 -12 71 -20 82 -56 84 -71 98 -129 121 -110 44 -292 55 -480 29z"/>
<path d="M25458 4544 c-64 -12 -149 -33 -190 -47 -93 -31 -302 -137 -346 -174
-17 -15 -55 -46 -83 -68 -29 -22 -70 -60 -93 -85 -23 -24 -57 -60 -76 -80 -19
-20 -53 -58 -75 -85 -135 -164 -273 -310 -370 -390 -38 -32 -74 -64 -80 -70
-5 -6 -43 -33 -82 -59 -40 -27 -73 -52 -73 -56 0 -4 -13 -10 -29 -13 -16 -3
-49 -20 -73 -36 -113 -76 -348 -122 -548 -107 -81 6 -312 56 -348 76 -9 5 -42
21 -72 35 -30 15 -64 35 -75 45 -11 10 -40 28 -65 41 -42 20 -98 70 -117 103
-4 8 -24 23 -43 33 -19 11 -44 34 -55 51 -11 17 -27 34 -35 37 -8 3 -26 22
-40 42 -13 21 -34 47 -46 58 -12 11 -39 52 -59 90 -21 39 -45 81 -54 95 -10
14 -39 65 -66 114 -46 85 -107 166 -127 166 -5 0 -21 9 -36 20 -36 26 -136 37
-188 20 -21 -7 -62 -30 -90 -51 -63 -48 -76 -93 -64 -212 6 -65 13 -87 39
-123 17 -25 31 -48 31 -53 0 -5 7 -14 15 -21 8 -7 36 -45 62 -84 77 -116 182
-245 263 -322 83 -79 219 -194 230 -194 4 0 44 -24 87 -53 217 -149 587 -277
798 -277 24 0 67 -5 96 -11 122 -26 480 31 634 101 24 11 49 20 55 20 6 0 32
12 58 27 26 14 56 31 67 37 24 14 126 82 165 111 15 11 40 29 56 40 16 11 41
31 55 45 128 124 189 187 189 197 0 7 9 17 20 23 26 14 97 91 129 139 13 20
29 41 35 46 6 6 25 26 41 46 88 105 120 139 130 139 7 0 20 10 31 21 22 25
142 83 206 100 24 7 156 15 293 19 233 6 312 15 370 42 89 41 142 85 156 127
6 20 15 40 20 46 14 15 10 97 -6 147 -22 62 -76 113 -170 156 -85 40 -293 47
-457 16z"/>
</g>
</svg>
